<?xml version="1.0" encoding="UTF-8"?>
<svg xmlns="http://www.w3.org/2000/svg" version="1.1" width="258.9mm" height="138.8mm" viewBox="0 0 258.9458 138.7677">
<desc>1 SVG user unit = 1 mm. Inner support: button hole unioned with a Sanwa OBSF ear relief slot.</desc>
<g id="BUTTONS_24" fill="none" stroke="#d40000" stroke-width="0.2">
<path d="M 112.4328 104.8539 A 12.0000 12.0000 0 0 0 100.6961 125.1824 L 99.3144 127.5755 L 103.6446 130.0755 L 105.0262 127.6824 A 12.0000 12.0000 0 0 0 116.7629 107.3539 L 118.1446 104.9608 L 113.8144 102.4608 L 112.4328 104.8539 Z"/>
</g>
<g id="BUTTONS_30" fill="none" stroke="#0050d0" stroke-width="0.2">
<path d="M 118.8035 75.0093 A 15.0000 15.0000 0 0 0 133.5004 100.4652 L 134.9019 102.8927 L 140.0981 99.8927 L 138.6965 97.4652 A 15.0000 15.0000 0 0 0 123.9996 72.0093 L 122.5981 69.5818 L 117.4019 72.5818 L 118.8035 75.0093 Z"/>
<path d="M 122.0484 33.8175 A 15.0000 15.0000 0 0 0 129.6561 62.2098 L 130.3816 64.9174 L 136.1771 63.3645 L 135.4516 60.6569 A 15.0000 15.0000 0 0 0 127.8439 32.2646 L 127.1184 29.5571 L 121.3229 31.1100 L 122.0484 33.8175 Z"/>
<path d="M 160.1561 51.2646 A 15.0000 15.0000 0 0 0 152.5484 79.6569 L 151.8229 82.3645 L 157.6184 83.9174 L 158.3439 81.2098 A 15.0000 15.0000 0 0 0 165.9516 52.8175 L 166.6771 50.1100 L 160.8816 48.5571 L 160.1561 51.2646 Z"/>
<path d="M 146.7364 18.9663 A 15.0000 15.0000 0 0 0 167.5210 39.7509 L 169.5030 41.7329 L 173.7457 37.4903 L 171.7636 35.5082 A 15.0000 15.0000 0 0 0 150.9790 14.7236 L 148.9970 12.7415 L 144.7543 16.9842 L 146.7364 18.9663 Z"/>
<path d="M 200.0004 52.0093 A 15.0000 15.0000 0 0 0 185.3035 77.4652 L 183.9019 79.8927 L 189.0981 82.8927 L 190.4996 80.4652 A 15.0000 15.0000 0 0 0 205.1965 55.0093 L 206.5981 52.5818 L 201.4019 49.5818 L 200.0004 52.0093 Z"/>
<path d="M 200.0004 13.0093 A 15.0000 15.0000 0 0 0 185.3035 38.4652 L 183.9019 40.8927 L 189.0981 43.8927 L 190.4996 41.4652 A 15.0000 15.0000 0 0 0 205.1965 16.0093 L 206.5981 13.5818 L 201.4019 10.5818 L 200.0004 13.0093 Z"/>
<path d="M 235.5004 61.0093 A 15.0000 15.0000 0 0 0 220.8035 86.4652 L 219.4019 88.8927 L 224.5981 91.8927 L 225.9996 89.4652 A 15.0000 15.0000 0 0 0 240.6965 64.0093 L 242.0981 61.5818 L 236.9019 58.5818 L 235.5004 61.0093 Z"/>
<path d="M 235.5004 22.0093 A 15.0000 15.0000 0 0 0 220.8035 47.4652 L 219.4019 49.8927 L 224.5981 52.8927 L 225.9996 50.4652 A 15.0000 15.0000 0 0 0 240.6965 25.0093 L 242.0981 22.5818 L 236.9019 19.5818 L 235.5004 22.0093 Z"/>
</g>
<g id="JOYSTICK_BORE_24" fill="none" stroke="#e08000" stroke-width="0.2">
<circle cx="46.7500" cy="66.2372" r="12.0000"/>
</g>
<g id="JOYSTICK_BORE_35.25" fill="none" stroke="#00a000" stroke-width="0.2">
<circle cx="46.7500" cy="66.2372" r="17.6250"/>
</g>
<g id="GL_PLATE_HOLES" fill="none" stroke="#0050d0" stroke-width="0.2">
<circle cx="46.7500" cy="23.7372" r="3.0000"/>
<circle cx="46.7500" cy="108.7372" r="3.0000"/>
<circle cx="56.7500" cy="23.7372" r="2.5000"/>
<circle cx="56.7500" cy="108.7372" r="2.5000"/>
<circle cx="36.7500" cy="23.7372" r="2.5000"/>
<circle cx="36.7500" cy="108.7372" r="2.5000"/>
<circle cx="46.7500" cy="33.4872" r="2.2500"/>
<circle cx="46.7500" cy="98.9872" r="2.2500"/>
<circle cx="83.2500" cy="41.2372" r="2.2500"/>
<circle cx="83.2500" cy="91.2372" r="2.2500"/>
<circle cx="10.2500" cy="41.2372" r="2.2500"/>
<circle cx="10.2500" cy="91.2372" r="2.2500"/>
<line x1="64.0000" y1="26.2372" x2="64.0000" y2="23.7372"/>
<line x1="69.5000" y1="26.2372" x2="69.5000" y2="23.7372"/>
<path d="M 69.5000 23.7372 A 2.7500 2.7500 0 0 0 64.0000 23.7372"/>
<path d="M 64.0000 26.2372 A 2.7500 2.7500 0 0 0 69.5000 26.2372"/>
<line x1="69.5000" y1="106.2372" x2="69.5000" y2="108.7372"/>
<line x1="64.0000" y1="106.2372" x2="64.0000" y2="108.7372"/>
<path d="M 64.0000 108.7372 A 2.7500 2.7500 0 0 0 69.5000 108.7372"/>
<path d="M 69.5000 106.2372 A 2.7500 2.7500 0 0 0 64.0000 106.2372"/>
<line x1="24.0000" y1="26.2372" x2="24.0000" y2="23.7372"/>
<line x1="29.5000" y1="26.2372" x2="29.5000" y2="23.7372"/>
<path d="M 29.5000 23.7372 A 2.7500 2.7500 0 0 0 24.0000 23.7372"/>
<path d="M 24.0000 26.2372 A 2.7500 2.7500 0 0 0 29.5000 26.2372"/>
<line x1="29.5000" y1="106.2372" x2="29.5000" y2="108.7372"/>
<line x1="24.0000" y1="106.2372" x2="24.0000" y2="108.7372"/>
<path d="M 24.0000 108.7372 A 2.7500 2.7500 0 0 0 29.5000 108.7372"/>
<path d="M 29.5000 106.2372 A 2.7500 2.7500 0 0 0 24.0000 106.2372"/>
</g>
<g id="REFERENCE" fill="none" stroke="#909090" stroke-width="0.2">
<line x1="42.7500" y1="66.2372" x2="50.7500" y2="66.2372"/>
<line x1="46.7500" y1="70.2372" x2="46.7500" y2="62.2372"/>
<line x1="124.7500" y1="86.2372" x2="132.7500" y2="86.2372"/>
<line x1="128.7500" y1="90.2372" x2="128.7500" y2="82.2372"/>
<line x1="124.7500" y1="47.2372" x2="132.7500" y2="47.2372"/>
<line x1="128.7500" y1="51.2372" x2="128.7500" y2="43.2372"/>
<line x1="155.2500" y1="66.2372" x2="163.2500" y2="66.2372"/>
<line x1="159.2500" y1="70.2372" x2="159.2500" y2="62.2372"/>
<line x1="155.2500" y1="27.2372" x2="163.2500" y2="27.2372"/>
<line x1="159.2500" y1="31.2372" x2="159.2500" y2="23.2372"/>
<line x1="191.2500" y1="66.2372" x2="199.2500" y2="66.2372"/>
<line x1="195.2500" y1="70.2372" x2="195.2500" y2="62.2372"/>
<line x1="191.2500" y1="27.2372" x2="199.2500" y2="27.2372"/>
<line x1="195.2500" y1="31.2372" x2="195.2500" y2="23.2372"/>
<line x1="226.7500" y1="75.2372" x2="234.7500" y2="75.2372"/>
<line x1="230.7500" y1="79.2372" x2="230.7500" y2="71.2372"/>
<line x1="226.7500" y1="36.2372" x2="234.7500" y2="36.2372"/>
<line x1="230.7500" y1="40.2372" x2="230.7500" y2="32.2372"/>
<line x1="104.7295" y1="116.2681" x2="112.7295" y2="116.2681"/>
<line x1="108.7295" y1="120.2681" x2="108.7295" y2="112.2681"/>
</g>
</svg>