<?xml version="1.0" encoding="UTF-8"?>
<svg xmlns="http://www.w3.org/2000/svg" version="1.1" width="239.9mm" height="119.7mm" viewBox="0 0 239.9458 119.7372">
<desc>1 SVG user unit = 1 mm. Inner support: button hole unioned with a Sanwa OBSF ear relief slot.</desc>
<g id="BUTTONS" fill="none" stroke="#d40000" stroke-width="0.2">
<path d="M 110.6561 32.2646 A 15.0000 15.0000 0 0 0 103.0484 60.6569 L 102.3229 63.3645 L 108.1184 64.9174 L 108.8439 62.2098 A 15.0000 15.0000 0 0 0 116.4516 33.8175 L 117.1771 31.1100 L 111.3816 29.5571 L 110.6561 32.2646 Z"/>
<path d="M 97.2364 77.9663 A 15.0000 15.0000 0 0 0 118.0210 98.7509 L 120.0030 100.7329 L 124.2457 96.4903 L 122.2636 94.5082 A 15.0000 15.0000 0 0 0 101.4790 73.7236 L 99.4970 71.7415 L 95.2543 75.9842 L 97.2364 77.9663 Z"/>
<path d="M 141.1561 51.2646 A 15.0000 15.0000 0 0 0 133.5484 79.6569 L 132.8229 82.3645 L 138.6184 83.9174 L 139.3439 81.2098 A 15.0000 15.0000 0 0 0 146.9516 52.8175 L 147.6771 50.1100 L 141.8816 48.5571 L 141.1561 51.2646 Z"/>
<path d="M 127.7364 18.9663 A 15.0000 15.0000 0 0 0 148.5210 39.7509 L 150.5030 41.7329 L 154.7457 37.4903 L 152.7636 35.5082 A 15.0000 15.0000 0 0 0 131.9790 14.7236 L 129.9970 12.7415 L 125.7543 16.9842 L 127.7364 18.9663 Z"/>
<path d="M 181.0004 13.0093 A 15.0000 15.0000 0 0 0 166.3035 38.4652 L 164.9019 40.8927 L 170.0981 43.8927 L 171.4996 41.4652 A 15.0000 15.0000 0 0 0 186.1965 16.0093 L 187.5981 13.5818 L 182.4019 10.5818 L 181.0004 13.0093 Z"/>
<path d="M 181.0004 52.0093 A 15.0000 15.0000 0 0 0 166.3035 77.4652 L 164.9019 79.8927 L 170.0981 82.8927 L 171.4996 80.4652 A 15.0000 15.0000 0 0 0 186.1965 55.0093 L 187.5981 52.5818 L 182.4019 49.5818 L 181.0004 52.0093 Z"/>
<path d="M 216.5004 22.0093 A 15.0000 15.0000 0 0 0 201.8035 47.4652 L 200.4019 49.8927 L 205.5981 52.8927 L 206.9996 50.4652 A 15.0000 15.0000 0 0 0 221.6965 25.0093 L 223.0981 22.5818 L 217.9019 19.5818 L 216.5004 22.0093 Z"/>
<path d="M 216.5004 61.0093 A 15.0000 15.0000 0 0 0 201.8035 86.4652 L 200.4019 88.8927 L 205.5981 91.8927 L 206.9996 89.4652 A 15.0000 15.0000 0 0 0 221.6965 64.0093 L 223.0981 61.5818 L 217.9019 58.5818 L 216.5004 61.0093 Z"/>
</g>
<g id="JOYSTICK_BORE_24" fill="none" stroke="#e08000" stroke-width="0.2">
<circle cx="46.7500" cy="66.2372" r="12.0000"/>
</g>
<g id="JOYSTICK_BORE_35.25" fill="none" stroke="#00a000" stroke-width="0.2">
<circle cx="46.7500" cy="66.2372" r="17.6250"/>
</g>
<g id="GL_PLATE_HOLES" fill="none" stroke="#0050d0" stroke-width="0.2">
<circle cx="46.7500" cy="23.7372" r="3.0000"/>
<circle cx="46.7500" cy="108.7372" r="3.0000"/>
<circle cx="56.7500" cy="23.7372" r="2.5000"/>
<circle cx="56.7500" cy="108.7372" r="2.5000"/>
<circle cx="36.7500" cy="23.7372" r="2.5000"/>
<circle cx="36.7500" cy="108.7372" r="2.5000"/>
<circle cx="46.7500" cy="33.4872" r="2.2500"/>
<circle cx="46.7500" cy="98.9872" r="2.2500"/>
<circle cx="83.2500" cy="41.2372" r="2.2500"/>
<circle cx="83.2500" cy="91.2372" r="2.2500"/>
<circle cx="10.2500" cy="41.2372" r="2.2500"/>
<circle cx="10.2500" cy="91.2372" r="2.2500"/>
<line x1="64.0000" y1="26.2372" x2="64.0000" y2="23.7372"/>
<line x1="69.5000" y1="26.2372" x2="69.5000" y2="23.7372"/>
<path d="M 69.5000 23.7372 A 2.7500 2.7500 0 0 0 64.0000 23.7372"/>
<path d="M 64.0000 26.2372 A 2.7500 2.7500 0 0 0 69.5000 26.2372"/>
<line x1="69.5000" y1="106.2372" x2="69.5000" y2="108.7372"/>
<line x1="64.0000" y1="106.2372" x2="64.0000" y2="108.7372"/>
<path d="M 64.0000 108.7372 A 2.7500 2.7500 0 0 0 69.5000 108.7372"/>
<path d="M 69.5000 106.2372 A 2.7500 2.7500 0 0 0 64.0000 106.2372"/>
<line x1="24.0000" y1="26.2372" x2="24.0000" y2="23.7372"/>
<line x1="29.5000" y1="26.2372" x2="29.5000" y2="23.7372"/>
<path d="M 29.5000 23.7372 A 2.7500 2.7500 0 0 0 24.0000 23.7372"/>
<path d="M 24.0000 26.2372 A 2.7500 2.7500 0 0 0 29.5000 26.2372"/>
<line x1="29.5000" y1="106.2372" x2="29.5000" y2="108.7372"/>
<line x1="24.0000" y1="106.2372" x2="24.0000" y2="108.7372"/>
<path d="M 24.0000 108.7372 A 2.7500 2.7500 0 0 0 29.5000 108.7372"/>
<path d="M 29.5000 106.2372 A 2.7500 2.7500 0 0 0 24.0000 106.2372"/>
</g>
<g id="REFERENCE" fill="none" stroke="#909090" stroke-width="0.2">
<line x1="42.7500" y1="66.2372" x2="50.7500" y2="66.2372"/>
<line x1="46.7500" y1="70.2372" x2="46.7500" y2="62.2372"/>
<line x1="105.7500" y1="47.2372" x2="113.7500" y2="47.2372"/>
<line x1="109.7500" y1="51.2372" x2="109.7500" y2="43.2372"/>
<line x1="105.7500" y1="86.2372" x2="113.7500" y2="86.2372"/>
<line x1="109.7500" y1="90.2372" x2="109.7500" y2="82.2372"/>
<line x1="136.2500" y1="66.2372" x2="144.2500" y2="66.2372"/>
<line x1="140.2500" y1="70.2372" x2="140.2500" y2="62.2372"/>
<line x1="136.2500" y1="27.2372" x2="144.2500" y2="27.2372"/>
<line x1="140.2500" y1="31.2372" x2="140.2500" y2="23.2372"/>
<line x1="172.2500" y1="27.2372" x2="180.2500" y2="27.2372"/>
<line x1="176.2500" y1="31.2372" x2="176.2500" y2="23.2372"/>
<line x1="172.2500" y1="66.2372" x2="180.2500" y2="66.2372"/>
<line x1="176.2500" y1="70.2372" x2="176.2500" y2="62.2372"/>
<line x1="207.7500" y1="36.2372" x2="215.7500" y2="36.2372"/>
<line x1="211.7500" y1="40.2372" x2="211.7500" y2="32.2372"/>
<line x1="207.7500" y1="75.2372" x2="215.7500" y2="75.2372"/>
<line x1="211.7500" y1="79.2372" x2="211.7500" y2="71.2372"/>
</g>
</svg>