<?xml version="1.0" encoding="UTF-8"?>
<svg xmlns="http://www.w3.org/2000/svg" version="1.1" width="266.3mm" height="136.2mm" viewBox="0 0 266.2800 136.1991">
<desc>1 SVG user unit = 1 mm. Inner support: button hole unioned with a Sanwa OBSF ear relief slot.</desc>
<g id="JOYSTICK_BORE_24" fill="none" stroke="#e08000" stroke-width="0.2">
<circle cx="46.7500" cy="60.8996" r="12.0000"/>
</g>
<g id="JOYSTICK_BORE_35.25" fill="none" stroke="#00a000" stroke-width="0.2">
<circle cx="46.7500" cy="60.8996" r="17.6250"/>
</g>
<g id="GL_PLATE_HOLES" fill="none" stroke="#0050d0" stroke-width="0.2">
<circle cx="46.7500" cy="18.3996" r="3.0000"/>
<circle cx="46.7500" cy="103.3996" r="3.0000"/>
<circle cx="56.7500" cy="18.3996" r="2.5000"/>
<circle cx="56.7500" cy="103.3996" r="2.5000"/>
<circle cx="36.7500" cy="18.3996" r="2.5000"/>
<circle cx="36.7500" cy="103.3996" r="2.5000"/>
<circle cx="46.7500" cy="28.1496" r="2.2500"/>
<circle cx="46.7500" cy="93.6496" r="2.2500"/>
<circle cx="83.2500" cy="35.8996" r="2.2500"/>
<circle cx="83.2500" cy="85.8996" r="2.2500"/>
<circle cx="10.2500" cy="35.8996" r="2.2500"/>
<circle cx="10.2500" cy="85.8996" r="2.2500"/>
<line x1="64.0000" y1="20.8996" x2="64.0000" y2="18.3996"/>
<line x1="69.5000" y1="20.8996" x2="69.5000" y2="18.3996"/>
<path d="M 69.5000 18.3996 A 2.7500 2.7500 0 0 0 64.0000 18.3996"/>
<path d="M 64.0000 20.8996 A 2.7500 2.7500 0 0 0 69.5000 20.8996"/>
<line x1="69.5000" y1="100.8996" x2="69.5000" y2="103.3996"/>
<line x1="64.0000" y1="100.8996" x2="64.0000" y2="103.3996"/>
<path d="M 64.0000 103.3996 A 2.7500 2.7500 0 0 0 69.5000 103.3996"/>
<path d="M 69.5000 100.8996 A 2.7500 2.7500 0 0 0 64.0000 100.8996"/>
<line x1="24.0000" y1="20.8996" x2="24.0000" y2="18.3996"/>
<line x1="29.5000" y1="20.8996" x2="29.5000" y2="18.3996"/>
<path d="M 29.5000 18.3996 A 2.7500 2.7500 0 0 0 24.0000 18.3996"/>
<path d="M 24.0000 20.8996 A 2.7500 2.7500 0 0 0 29.5000 20.8996"/>
<line x1="29.5000" y1="100.8996" x2="29.5000" y2="103.3996"/>
<line x1="24.0000" y1="100.8996" x2="24.0000" y2="103.3996"/>
<path d="M 24.0000 103.3996 A 2.7500 2.7500 0 0 0 29.5000 103.3996"/>
<path d="M 29.5000 100.8996 A 2.7500 2.7500 0 0 0 24.0000 100.8996"/>
</g>
<g id="BUTTONS" fill="none" stroke="#d40000" stroke-width="0.2">
<path d="M 132.4533 51.8853 A 12.0000 12.0000 0 0 0 120.7166 72.2138 L 119.3349 74.6069 L 123.6651 77.1069 L 125.0467 74.7138 A 12.0000 12.0000 0 0 0 136.7834 54.3853 L 138.1651 51.9922 L 133.8349 49.4922 L 132.4533 51.8853 Z"/>
<path d="M 150.4533 102.2853 A 12.0000 12.0000 0 0 0 138.7166 122.6138 L 137.3349 125.0069 L 141.6651 127.5069 L 143.0467 125.1138 A 12.0000 12.0000 0 0 0 154.7834 104.7853 L 156.1651 102.3922 L 151.8349 99.8922 L 150.4533 102.2853 Z"/>
<path d="M 156.0533 71.8853 A 12.0000 12.0000 0 0 0 144.3166 92.2138 L 142.9349 94.6069 L 147.2651 97.1069 L 148.6467 94.7138 A 12.0000 12.0000 0 0 0 160.3834 74.3853 L 161.7651 71.9922 L 157.4349 69.4922 L 156.0533 71.8853 Z"/>
<path d="M 161.6533 41.4853 A 12.0000 12.0000 0 0 0 149.9166 61.8138 L 148.5349 64.2069 L 152.8651 66.7069 L 154.2467 64.3138 A 12.0000 12.0000 0 0 0 165.9834 43.9853 L 167.3651 41.5922 L 163.0349 39.0922 L 161.6533 41.4853 Z"/>
<path d="M 167.2533 11.0853 A 12.0000 12.0000 0 0 0 155.5166 31.4138 L 154.1349 33.8069 L 158.4651 36.3069 L 159.8467 33.9138 A 12.0000 12.0000 0 0 0 171.5834 13.5853 L 172.9651 11.1922 L 168.6349 8.6922 L 167.2533 11.0853 Z"/>
<path d="M 179.6533 91.8853 A 12.0000 12.0000 0 0 0 167.9166 112.2138 L 166.5349 114.6069 L 170.8651 117.1069 L 172.2467 114.7138 A 12.0000 12.0000 0 0 0 183.9834 94.3853 L 185.3651 91.9922 L 181.0349 89.4922 L 179.6533 91.8853 Z"/>
<path d="M 182.4533 61.4853 A 12.0000 12.0000 0 0 0 170.7166 81.8138 L 169.3349 84.2069 L 173.6651 86.7069 L 175.0467 84.3138 A 12.0000 12.0000 0 0 0 186.7834 63.9853 L 188.1651 61.5922 L 183.8349 59.0922 L 182.4533 61.4853 Z"/>
<path d="M 188.0533 30.2853 A 12.0000 12.0000 0 0 0 176.3166 50.6138 L 174.9349 53.0069 L 179.2651 55.5069 L 180.6467 53.1138 A 12.0000 12.0000 0 0 0 192.3834 32.7853 L 193.7651 30.3922 L 189.4349 27.8922 L 188.0533 30.2853 Z"/>
<path d="M 211.2533 61.4853 A 12.0000 12.0000 0 0 0 199.5166 81.8138 L 198.1349 84.2069 L 202.4651 86.7069 L 203.8467 84.3138 A 12.0000 12.0000 0 0 0 215.5834 63.9853 L 216.9651 61.5922 L 212.6349 59.0922 L 211.2533 61.4853 Z"/>
<path d="M 216.8533 30.2853 A 12.0000 12.0000 0 0 0 205.1166 50.6138 L 203.7349 53.0069 L 208.0651 55.5069 L 209.4467 53.1138 A 12.0000 12.0000 0 0 0 221.1834 32.7853 L 222.5651 30.3922 L 218.2349 27.8922 L 216.8533 30.2853 Z"/>
<path d="M 240.0533 61.4853 A 12.0000 12.0000 0 0 0 228.3166 81.8138 L 226.9349 84.2069 L 231.2651 86.7069 L 232.6467 84.3138 A 12.0000 12.0000 0 0 0 244.3834 63.9853 L 245.7651 61.5922 L 241.4349 59.0922 L 240.0533 61.4853 Z"/>
<path d="M 245.6533 30.2853 A 12.0000 12.0000 0 0 0 233.9166 50.6138 L 232.5349 53.0069 L 236.8651 55.5069 L 238.2467 53.1138 A 12.0000 12.0000 0 0 0 249.9834 32.7853 L 251.3651 30.3922 L 247.0349 27.8922 L 245.6533 30.2853 Z"/>
</g>
<g id="REFERENCE" fill="none" stroke="#909090" stroke-width="0.2">
<line x1="42.7500" y1="60.8996" x2="50.7500" y2="60.8996"/>
<line x1="46.7500" y1="64.8996" x2="46.7500" y2="56.8996"/>
<line x1="124.7500" y1="63.2996" x2="132.7500" y2="63.2996"/>
<line x1="128.7500" y1="67.2996" x2="128.7500" y2="59.2996"/>
<line x1="142.7500" y1="113.6996" x2="150.7500" y2="113.6996"/>
<line x1="146.7500" y1="117.6996" x2="146.7500" y2="109.6996"/>
<line x1="148.3500" y1="83.2996" x2="156.3500" y2="83.2996"/>
<line x1="152.3500" y1="87.2996" x2="152.3500" y2="79.2996"/>
<line x1="153.9500" y1="52.8996" x2="161.9500" y2="52.8996"/>
<line x1="157.9500" y1="56.8996" x2="157.9500" y2="48.8996"/>
<line x1="159.5500" y1="22.4996" x2="167.5500" y2="22.4996"/>
<line x1="163.5500" y1="26.4996" x2="163.5500" y2="18.4996"/>
<line x1="171.9500" y1="103.2996" x2="179.9500" y2="103.2996"/>
<line x1="175.9500" y1="107.2996" x2="175.9500" y2="99.2996"/>
<line x1="174.7500" y1="72.8996" x2="182.7500" y2="72.8996"/>
<line x1="178.7500" y1="76.8996" x2="178.7500" y2="68.8996"/>
<line x1="180.3500" y1="41.6996" x2="188.3500" y2="41.6996"/>
<line x1="184.3500" y1="45.6996" x2="184.3500" y2="37.6996"/>
<line x1="203.5500" y1="72.8996" x2="211.5500" y2="72.8996"/>
<line x1="207.5500" y1="76.8996" x2="207.5500" y2="68.8996"/>
<line x1="209.1500" y1="41.6996" x2="217.1500" y2="41.6996"/>
<line x1="213.1500" y1="45.6996" x2="213.1500" y2="37.6996"/>
<line x1="232.3500" y1="72.8996" x2="240.3500" y2="72.8996"/>
<line x1="236.3500" y1="76.8996" x2="236.3500" y2="68.8996"/>
<line x1="237.9500" y1="41.6996" x2="245.9500" y2="41.6996"/>
<line x1="241.9500" y1="45.6996" x2="241.9500" y2="37.6996"/>
</g>
</svg>