<?xml version="1.0" encoding="UTF-8"?>
<svg xmlns="http://www.w3.org/2000/svg" version="1.1" width="268.8mm" height="107mm" viewBox="0 0 268.7500 107.0000">
<desc>1 SVG user unit = 1 mm. Inner support: button hole unioned with a Sanwa OBSF ear relief slot.</desc>
<g id="BUTTONS" fill="none" stroke="#d40000" stroke-width="0.2">
<path d="M 145.4533 21.6857 A 12.0000 12.0000 0 0 0 133.7166 42.0143 L 132.3349 44.4074 L 136.6651 46.9074 L 138.0467 44.5143 A 12.0000 12.0000 0 0 0 149.7834 24.1857 L 151.1651 21.7926 L 146.8349 19.2926 L 145.4533 21.6857 Z"/>
<path d="M 139.2500 62.1633 A 12.0000 12.0000 0 0 0 139.2500 85.6367 L 139.2500 88.4000 L 144.2500 88.4000 L 144.2500 85.6367 A 12.0000 12.0000 0 0 0 144.2500 62.1633 L 144.2500 59.4000 L 139.2500 59.4000 L 139.2500 62.1633 Z"/>
<path d="M 159.6500 41.7633 A 12.0000 12.0000 0 0 0 159.6500 65.2367 L 159.6500 68.0000 L 164.6500 68.0000 L 164.6500 65.2367 A 12.0000 12.0000 0 0 0 164.6500 41.7633 L 164.6500 39.0000 L 159.6500 39.0000 L 159.6500 41.7633 Z"/>
<path d="M 180.0500 62.1633 A 12.0000 12.0000 0 0 0 180.0500 85.6367 L 180.0500 88.4000 L 185.0500 88.4000 L 185.0500 85.6367 A 12.0000 12.0000 0 0 0 185.0500 62.1633 L 185.0500 59.4000 L 180.0500 59.4000 L 180.0500 62.1633 Z"/>
<path d="M 180.0500 21.3633 A 12.0000 12.0000 0 0 0 180.0500 44.8367 L 180.0500 47.6000 L 185.0500 47.6000 L 185.0500 44.8367 A 12.0000 12.0000 0 0 0 185.0500 21.3633 L 185.0500 18.6000 L 180.0500 18.6000 L 180.0500 21.3633 Z"/>
<path d="M 200.4500 41.7633 A 12.0000 12.0000 0 0 0 200.4500 65.2367 L 200.4500 68.0000 L 205.4500 68.0000 L 205.4500 65.2367 A 12.0000 12.0000 0 0 0 205.4500 41.7633 L 205.4500 39.0000 L 200.4500 39.0000 L 200.4500 41.7633 Z"/>
<path d="M 220.8500 21.3633 A 12.0000 12.0000 0 0 0 220.8500 44.8367 L 220.8500 47.6000 L 225.8500 47.6000 L 225.8500 44.8367 A 12.0000 12.0000 0 0 0 225.8500 21.3633 L 225.8500 18.6000 L 220.8500 18.6000 L 220.8500 21.3633 Z"/>
<path d="M 220.8500 62.1633 A 12.0000 12.0000 0 0 0 220.8500 85.6367 L 220.8500 88.4000 L 225.8500 88.4000 L 225.8500 85.6367 A 12.0000 12.0000 0 0 0 225.8500 62.1633 L 225.8500 59.4000 L 220.8500 59.4000 L 220.8500 62.1633 Z"/>
<path d="M 241.2500 41.7633 A 12.0000 12.0000 0 0 0 241.2500 65.2367 L 241.2500 68.0000 L 246.2500 68.0000 L 246.2500 65.2367 A 12.0000 12.0000 0 0 0 246.2500 41.7633 L 246.2500 39.0000 L 241.2500 39.0000 L 241.2500 41.7633 Z"/>
</g>
<g id="JOYSTICK_BORE_24" fill="none" stroke="#e08000" stroke-width="0.2">
<circle cx="46.7500" cy="53.5000" r="12.0000"/>
</g>
<g id="JOYSTICK_BORE_35.25" fill="none" stroke="#00a000" stroke-width="0.2">
<circle cx="46.7500" cy="53.5000" r="17.6250"/>
</g>
<g id="GL_PLATE_HOLES" fill="none" stroke="#0050d0" stroke-width="0.2">
<circle cx="46.7500" cy="11.0000" r="3.0000"/>
<circle cx="46.7500" cy="96.0000" r="3.0000"/>
<circle cx="56.7500" cy="11.0000" r="2.5000"/>
<circle cx="56.7500" cy="96.0000" r="2.5000"/>
<circle cx="36.7500" cy="11.0000" r="2.5000"/>
<circle cx="36.7500" cy="96.0000" r="2.5000"/>
<circle cx="46.7500" cy="20.7500" r="2.2500"/>
<circle cx="46.7500" cy="86.2500" r="2.2500"/>
<circle cx="83.2500" cy="28.5000" r="2.2500"/>
<circle cx="83.2500" cy="78.5000" r="2.2500"/>
<circle cx="10.2500" cy="28.5000" r="2.2500"/>
<circle cx="10.2500" cy="78.5000" r="2.2500"/>
<line x1="64.0000" y1="13.5000" x2="64.0000" y2="11.0000"/>
<line x1="69.5000" y1="13.5000" x2="69.5000" y2="11.0000"/>
<path d="M 69.5000 11.0000 A 2.7500 2.7500 0 0 0 64.0000 11.0000"/>
<path d="M 64.0000 13.5000 A 2.7500 2.7500 0 0 0 69.5000 13.5000"/>
<line x1="69.5000" y1="93.5000" x2="69.5000" y2="96.0000"/>
<line x1="64.0000" y1="93.5000" x2="64.0000" y2="96.0000"/>
<path d="M 64.0000 96.0000 A 2.7500 2.7500 0 0 0 69.5000 96.0000"/>
<path d="M 69.5000 93.5000 A 2.7500 2.7500 0 0 0 64.0000 93.5000"/>
<line x1="24.0000" y1="13.5000" x2="24.0000" y2="11.0000"/>
<line x1="29.5000" y1="13.5000" x2="29.5000" y2="11.0000"/>
<path d="M 29.5000 11.0000 A 2.7500 2.7500 0 0 0 24.0000 11.0000"/>
<path d="M 24.0000 13.5000 A 2.7500 2.7500 0 0 0 29.5000 13.5000"/>
<line x1="29.5000" y1="93.5000" x2="29.5000" y2="96.0000"/>
<line x1="24.0000" y1="93.5000" x2="24.0000" y2="96.0000"/>
<path d="M 24.0000 96.0000 A 2.7500 2.7500 0 0 0 29.5000 96.0000"/>
<path d="M 29.5000 93.5000 A 2.7500 2.7500 0 0 0 24.0000 93.5000"/>
</g>
<g id="REFERENCE" fill="none" stroke="#909090" stroke-width="0.2">
<line x1="42.7500" y1="53.5000" x2="50.7500" y2="53.5000"/>
<line x1="46.7500" y1="57.5000" x2="46.7500" y2="49.5000"/>
<line x1="137.7500" y1="33.1000" x2="145.7500" y2="33.1000"/>
<line x1="141.7500" y1="37.1000" x2="141.7500" y2="29.1000"/>
<line x1="137.7500" y1="73.9000" x2="145.7500" y2="73.9000"/>
<line x1="141.7500" y1="77.9000" x2="141.7500" y2="69.9000"/>
<line x1="158.1500" y1="53.5000" x2="166.1500" y2="53.5000"/>
<line x1="162.1500" y1="57.5000" x2="162.1500" y2="49.5000"/>
<line x1="178.5500" y1="73.9000" x2="186.5500" y2="73.9000"/>
<line x1="182.5500" y1="77.9000" x2="182.5500" y2="69.9000"/>
<line x1="178.5500" y1="33.1000" x2="186.5500" y2="33.1000"/>
<line x1="182.5500" y1="37.1000" x2="182.5500" y2="29.1000"/>
<line x1="198.9500" y1="53.5000" x2="206.9500" y2="53.5000"/>
<line x1="202.9500" y1="57.5000" x2="202.9500" y2="49.5000"/>
<line x1="219.3500" y1="33.1000" x2="227.3500" y2="33.1000"/>
<line x1="223.3500" y1="37.1000" x2="223.3500" y2="29.1000"/>
<line x1="219.3500" y1="73.9000" x2="227.3500" y2="73.9000"/>
<line x1="223.3500" y1="77.9000" x2="223.3500" y2="69.9000"/>
<line x1="239.7500" y1="53.5000" x2="247.7500" y2="53.5000"/>
<line x1="243.7500" y1="57.5000" x2="243.7500" y2="49.5000"/>
</g>
</svg>