<?xml version="1.0" encoding="UTF-8"?>
<svg xmlns="http://www.w3.org/2000/svg" version="1.1" width="255.6mm" height="87.4mm" viewBox="0 0 255.6194 87.3991">
<desc>1 SVG user unit = 1 mm. Inner support: button hole unioned with a Sanwa OBSF ear relief slot.</desc>
<g id="BUTTONS" fill="none" stroke="#d40000" stroke-width="0.2">
<path d="M 28.0333 37.2495 A 12.0000 12.0000 0 0 0 16.2966 57.5780 L 14.9150 59.9711 L 19.2451 62.4711 L 20.6267 60.0780 A 12.0000 12.0000 0 0 0 32.3634 39.7495 L 33.7451 37.3564 L 29.4150 34.8564 L 28.0333 37.2495 Z"/>
<path d="M 59.4207 43.6327 A 12.0000 12.0000 0 0 0 42.8226 60.2309 L 40.8686 62.1849 L 44.4041 65.7204 L 46.3581 63.7664 A 12.0000 12.0000 0 0 0 62.9563 47.1682 L 64.9102 45.2143 L 61.3747 41.6788 L 59.4207 43.6327 Z"/>
<path d="M 64.4565 15.0733 A 12.0000 12.0000 0 0 0 47.8584 31.6715 L 45.9044 33.6255 L 49.4399 37.1610 L 51.3939 35.2070 A 12.0000 12.0000 0 0 0 67.9921 18.6088 L 69.9460 16.6549 L 66.4105 13.1194 L 64.4565 15.0733 Z"/>
<path d="M 85.1521 47.3211 A 12.0000 12.0000 0 0 0 73.4154 67.6496 L 72.0338 70.0427 L 76.3639 72.5427 L 77.7455 70.1496 A 12.0000 12.0000 0 0 0 89.4822 49.8211 L 90.8639 47.4280 L 86.5338 44.9280 L 85.1521 47.3211 Z"/>
<path d="M 151.5927 53.4853 A 12.0000 12.0000 0 0 0 139.8560 73.8138 L 138.4744 76.2069 L 142.8045 78.7069 L 144.1861 76.3138 A 12.0000 12.0000 0 0 0 155.9228 55.9853 L 157.3045 53.5922 L 152.9744 51.0922 L 151.5927 53.4853 Z"/>
<path d="M 151.5927 22.2853 A 12.0000 12.0000 0 0 0 139.8560 42.6138 L 138.4744 45.0069 L 142.8045 47.5069 L 144.1861 45.1138 A 12.0000 12.0000 0 0 0 155.9228 24.7853 L 157.3045 22.3922 L 152.9744 19.8922 L 151.5927 22.2853 Z"/>
<path d="M 177.9927 42.2853 A 12.0000 12.0000 0 0 0 166.2560 62.6138 L 164.8744 65.0069 L 169.2045 67.5069 L 170.5861 65.1138 A 12.0000 12.0000 0 0 0 182.3228 44.7853 L 183.7045 42.3922 L 179.3744 39.8922 L 177.9927 42.2853 Z"/>
<path d="M 177.9927 11.0853 A 12.0000 12.0000 0 0 0 166.2560 31.4138 L 164.8744 33.8069 L 169.2045 36.3069 L 170.5861 33.9138 A 12.0000 12.0000 0 0 0 182.3228 13.5853 L 183.7045 11.1922 L 179.3744 8.6922 L 177.9927 11.0853 Z"/>
<path d="M 206.7927 42.2853 A 12.0000 12.0000 0 0 0 195.0560 62.6138 L 193.6744 65.0069 L 198.0045 67.5069 L 199.3861 65.1138 A 12.0000 12.0000 0 0 0 211.1228 44.7853 L 212.5045 42.3922 L 208.1744 39.8922 L 206.7927 42.2853 Z"/>
<path d="M 206.7927 11.0853 A 12.0000 12.0000 0 0 0 195.0560 31.4138 L 193.6744 33.8069 L 198.0045 36.3069 L 199.3861 33.9138 A 12.0000 12.0000 0 0 0 211.1228 13.5853 L 212.5045 11.1922 L 208.1744 8.6922 L 206.7927 11.0853 Z"/>
<path d="M 234.9927 47.8853 A 12.0000 12.0000 0 0 0 223.2560 68.2138 L 221.8744 70.6069 L 226.2045 73.1069 L 227.5861 70.7138 A 12.0000 12.0000 0 0 0 239.3228 50.3853 L 240.7045 47.9922 L 236.3744 45.4922 L 234.9927 47.8853 Z"/>
<path d="M 234.9927 16.6853 A 12.0000 12.0000 0 0 0 223.2560 37.0138 L 221.8744 39.4069 L 226.2045 41.9069 L 227.5861 39.5138 A 12.0000 12.0000 0 0 0 239.3228 19.1853 L 240.7045 16.7922 L 236.3744 14.2922 L 234.9927 16.6853 Z"/>
</g>
<g id="REFERENCE" fill="none" stroke="#909090" stroke-width="0.2">
<line x1="20.3300" y1="48.6638" x2="28.3300" y2="48.6638"/>
<line x1="24.3300" y1="52.6638" x2="24.3300" y2="44.6638"/>
<line x1="48.8894" y1="53.6996" x2="56.8894" y2="53.6996"/>
<line x1="52.8894" y1="57.6996" x2="52.8894" y2="49.6996"/>
<line x1="53.9252" y1="25.1402" x2="61.9252" y2="25.1402"/>
<line x1="57.9252" y1="29.1402" x2="57.9252" y2="21.1402"/>
<line x1="77.4488" y1="58.7354" x2="85.4488" y2="58.7354"/>
<line x1="81.4488" y1="62.7354" x2="81.4488" y2="54.7354"/>
<line x1="143.8894" y1="64.8996" x2="151.8894" y2="64.8996"/>
<line x1="147.8894" y1="68.8996" x2="147.8894" y2="60.8996"/>
<line x1="143.8894" y1="33.6996" x2="151.8894" y2="33.6996"/>
<line x1="147.8894" y1="37.6996" x2="147.8894" y2="29.6996"/>
<line x1="170.2894" y1="53.6996" x2="178.2894" y2="53.6996"/>
<line x1="174.2894" y1="57.6996" x2="174.2894" y2="49.6996"/>
<line x1="170.2894" y1="22.4996" x2="178.2894" y2="22.4996"/>
<line x1="174.2894" y1="26.4996" x2="174.2894" y2="18.4996"/>
<line x1="199.0894" y1="53.6996" x2="207.0894" y2="53.6996"/>
<line x1="203.0894" y1="57.6996" x2="203.0894" y2="49.6996"/>
<line x1="199.0894" y1="22.4996" x2="207.0894" y2="22.4996"/>
<line x1="203.0894" y1="26.4996" x2="203.0894" y2="18.4996"/>
<line x1="227.2894" y1="59.2996" x2="235.2894" y2="59.2996"/>
<line x1="231.2894" y1="63.2996" x2="231.2894" y2="55.2996"/>
<line x1="227.2894" y1="28.0996" x2="235.2894" y2="28.0996"/>
<line x1="231.2894" y1="32.0996" x2="231.2894" y2="24.0996"/>
</g>
</svg>