<?xml version="1.0" encoding="UTF-8"?>
<svg xmlns="http://www.w3.org/2000/svg" version="1.1" width="254.6mm" height="107mm" viewBox="0 0 254.5500 107.0000">
<desc>1 SVG user unit = 1 mm. Inner support: button hole unioned with a Sanwa OBSF ear relief slot.</desc>
<g id="BUTTONS" fill="none" stroke="#d40000" stroke-width="0.2">
<path d="M 132.4533 17.0857 A 12.0000 12.0000 0 0 0 120.7166 37.4143 L 119.3349 39.8074 L 123.6651 42.3074 L 125.0467 39.9143 A 12.0000 12.0000 0 0 0 136.7834 19.5857 L 138.1651 17.1926 L 133.8349 14.6926 L 132.4533 17.0857 Z"/>
<path d="M 126.2500 66.7633 A 12.0000 12.0000 0 0 0 126.2500 90.2367 L 126.2500 93.0000 L 131.2500 93.0000 L 131.2500 90.2367 A 12.0000 12.0000 0 0 0 131.2500 66.7633 L 131.2500 64.0000 L 126.2500 64.0000 L 126.2500 66.7633 Z"/>
<path d="M 140.6500 41.7633 A 12.0000 12.0000 0 0 0 140.6500 65.2367 L 140.6500 68.0000 L 145.6500 68.0000 L 145.6500 65.2367 A 12.0000 12.0000 0 0 0 145.6500 41.7633 L 145.6500 39.0000 L 140.6500 39.0000 L 140.6500 41.7633 Z"/>
<path d="M 155.0500 16.7633 A 12.0000 12.0000 0 0 0 155.0500 40.2367 L 155.0500 43.0000 L 160.0500 43.0000 L 160.0500 40.2367 A 12.0000 12.0000 0 0 0 160.0500 16.7633 L 160.0500 14.0000 L 155.0500 14.0000 L 155.0500 16.7633 Z"/>
<path d="M 155.0500 66.7633 A 12.0000 12.0000 0 0 0 155.0500 90.2367 L 155.0500 93.0000 L 160.0500 93.0000 L 160.0500 90.2367 A 12.0000 12.0000 0 0 0 160.0500 66.7633 L 160.0500 64.0000 L 155.0500 64.0000 L 155.0500 66.7633 Z"/>
<path d="M 169.4500 41.7633 A 12.0000 12.0000 0 0 0 169.4500 65.2367 L 169.4500 68.0000 L 174.4500 68.0000 L 174.4500 65.2367 A 12.0000 12.0000 0 0 0 174.4500 41.7633 L 174.4500 39.0000 L 169.4500 39.0000 L 169.4500 41.7633 Z"/>
<path d="M 183.8500 16.7633 A 12.0000 12.0000 0 0 0 183.8500 40.2367 L 183.8500 43.0000 L 188.8500 43.0000 L 188.8500 40.2367 A 12.0000 12.0000 0 0 0 188.8500 16.7633 L 188.8500 14.0000 L 183.8500 14.0000 L 183.8500 16.7633 Z"/>
<path d="M 183.8500 66.7633 A 12.0000 12.0000 0 0 0 183.8500 90.2367 L 183.8500 93.0000 L 188.8500 93.0000 L 188.8500 90.2367 A 12.0000 12.0000 0 0 0 188.8500 66.7633 L 188.8500 64.0000 L 183.8500 64.0000 L 183.8500 66.7633 Z"/>
<path d="M 198.2500 41.7633 A 12.0000 12.0000 0 0 0 198.2500 65.2367 L 198.2500 68.0000 L 203.2500 68.0000 L 203.2500 65.2367 A 12.0000 12.0000 0 0 0 203.2500 41.7633 L 203.2500 39.0000 L 198.2500 39.0000 L 198.2500 41.7633 Z"/>
<path d="M 212.6500 66.7633 A 12.0000 12.0000 0 0 0 212.6500 90.2367 L 212.6500 93.0000 L 217.6500 93.0000 L 217.6500 90.2367 A 12.0000 12.0000 0 0 0 217.6500 66.7633 L 217.6500 64.0000 L 212.6500 64.0000 L 212.6500 66.7633 Z"/>
<path d="M 212.6500 16.7633 A 12.0000 12.0000 0 0 0 212.6500 40.2367 L 212.6500 43.0000 L 217.6500 43.0000 L 217.6500 40.2367 A 12.0000 12.0000 0 0 0 217.6500 16.7633 L 217.6500 14.0000 L 212.6500 14.0000 L 212.6500 16.7633 Z"/>
<path d="M 227.0500 41.7633 A 12.0000 12.0000 0 0 0 227.0500 65.2367 L 227.0500 68.0000 L 232.0500 68.0000 L 232.0500 65.2367 A 12.0000 12.0000 0 0 0 232.0500 41.7633 L 232.0500 39.0000 L 227.0500 39.0000 L 227.0500 41.7633 Z"/>
</g>
<g id="JOYSTICK_BORE_24" fill="none" stroke="#e08000" stroke-width="0.2">
<circle cx="46.7500" cy="53.5000" r="12.0000"/>
</g>
<g id="JOYSTICK_BORE_35.25" fill="none" stroke="#00a000" stroke-width="0.2">
<circle cx="46.7500" cy="53.5000" r="17.6250"/>
</g>
<g id="GL_PLATE_HOLES" fill="none" stroke="#0050d0" stroke-width="0.2">
<circle cx="46.7500" cy="11.0000" r="3.0000"/>
<circle cx="46.7500" cy="96.0000" r="3.0000"/>
<circle cx="56.7500" cy="11.0000" r="2.5000"/>
<circle cx="56.7500" cy="96.0000" r="2.5000"/>
<circle cx="36.7500" cy="11.0000" r="2.5000"/>
<circle cx="36.7500" cy="96.0000" r="2.5000"/>
<circle cx="46.7500" cy="20.7500" r="2.2500"/>
<circle cx="46.7500" cy="86.2500" r="2.2500"/>
<circle cx="83.2500" cy="28.5000" r="2.2500"/>
<circle cx="83.2500" cy="78.5000" r="2.2500"/>
<circle cx="10.2500" cy="28.5000" r="2.2500"/>
<circle cx="10.2500" cy="78.5000" r="2.2500"/>
<line x1="64.0000" y1="13.5000" x2="64.0000" y2="11.0000"/>
<line x1="69.5000" y1="13.5000" x2="69.5000" y2="11.0000"/>
<path d="M 69.5000 11.0000 A 2.7500 2.7500 0 0 0 64.0000 11.0000"/>
<path d="M 64.0000 13.5000 A 2.7500 2.7500 0 0 0 69.5000 13.5000"/>
<line x1="69.5000" y1="93.5000" x2="69.5000" y2="96.0000"/>
<line x1="64.0000" y1="93.5000" x2="64.0000" y2="96.0000"/>
<path d="M 64.0000 96.0000 A 2.7500 2.7500 0 0 0 69.5000 96.0000"/>
<path d="M 69.5000 93.5000 A 2.7500 2.7500 0 0 0 64.0000 93.5000"/>
<line x1="24.0000" y1="13.5000" x2="24.0000" y2="11.0000"/>
<line x1="29.5000" y1="13.5000" x2="29.5000" y2="11.0000"/>
<path d="M 29.5000 11.0000 A 2.7500 2.7500 0 0 0 24.0000 11.0000"/>
<path d="M 24.0000 13.5000 A 2.7500 2.7500 0 0 0 29.5000 13.5000"/>
<line x1="29.5000" y1="93.5000" x2="29.5000" y2="96.0000"/>
<line x1="24.0000" y1="93.5000" x2="24.0000" y2="96.0000"/>
<path d="M 24.0000 96.0000 A 2.7500 2.7500 0 0 0 29.5000 96.0000"/>
<path d="M 29.5000 93.5000 A 2.7500 2.7500 0 0 0 24.0000 93.5000"/>
</g>
<g id="REFERENCE" fill="none" stroke="#909090" stroke-width="0.2">
<line x1="42.7500" y1="53.5000" x2="50.7500" y2="53.5000"/>
<line x1="46.7500" y1="57.5000" x2="46.7500" y2="49.5000"/>
<line x1="124.7500" y1="28.5000" x2="132.7500" y2="28.5000"/>
<line x1="128.7500" y1="32.5000" x2="128.7500" y2="24.5000"/>
<line x1="124.7500" y1="78.5000" x2="132.7500" y2="78.5000"/>
<line x1="128.7500" y1="82.5000" x2="128.7500" y2="74.5000"/>
<line x1="139.1500" y1="53.5000" x2="147.1500" y2="53.5000"/>
<line x1="143.1500" y1="57.5000" x2="143.1500" y2="49.5000"/>
<line x1="153.5500" y1="28.5000" x2="161.5500" y2="28.5000"/>
<line x1="157.5500" y1="32.5000" x2="157.5500" y2="24.5000"/>
<line x1="153.5500" y1="78.5000" x2="161.5500" y2="78.5000"/>
<line x1="157.5500" y1="82.5000" x2="157.5500" y2="74.5000"/>
<line x1="167.9500" y1="53.5000" x2="175.9500" y2="53.5000"/>
<line x1="171.9500" y1="57.5000" x2="171.9500" y2="49.5000"/>
<line x1="182.3500" y1="28.5000" x2="190.3500" y2="28.5000"/>
<line x1="186.3500" y1="32.5000" x2="186.3500" y2="24.5000"/>
<line x1="182.3500" y1="78.5000" x2="190.3500" y2="78.5000"/>
<line x1="186.3500" y1="82.5000" x2="186.3500" y2="74.5000"/>
<line x1="196.7500" y1="53.5000" x2="204.7500" y2="53.5000"/>
<line x1="200.7500" y1="57.5000" x2="200.7500" y2="49.5000"/>
<line x1="211.1500" y1="78.5000" x2="219.1500" y2="78.5000"/>
<line x1="215.1500" y1="82.5000" x2="215.1500" y2="74.5000"/>
<line x1="211.1500" y1="28.5000" x2="219.1500" y2="28.5000"/>
<line x1="215.1500" y1="32.5000" x2="215.1500" y2="24.5000"/>
<line x1="225.5500" y1="53.5000" x2="233.5500" y2="53.5000"/>
<line x1="229.5500" y1="57.5000" x2="229.5500" y2="49.5000"/>
</g>
</svg>