<?xml version="1.0" encoding="UTF-8"?>
<svg xmlns="http://www.w3.org/2000/svg" version="1.1" width="268.4mm" height="157.8mm" viewBox="0 0 268.4458 157.8287">
<desc>1 SVG user unit = 1 mm. Inner support: button hole unioned with a Sanwa OBSF ear relief slot.</desc>
<g id="BUTTONS_24" fill="none" stroke="#d40000" stroke-width="0.2">
<path d="M 147.6643 16.2966 A 12.0000 12.0000 0 0 0 127.3357 28.0333 L 124.9426 29.4150 L 127.4426 33.7451 L 129.8357 32.3634 A 12.0000 12.0000 0 0 0 150.1643 20.6267 L 152.5574 19.2451 L 150.0574 14.9150 L 147.6643 16.2966 Z"/>
<path d="M 165.4533 110.9157 A 12.0000 12.0000 0 0 0 153.7166 131.2443 L 152.3349 133.6374 L 156.6651 136.1374 L 158.0467 133.7443 A 12.0000 12.0000 0 0 0 169.7834 113.4157 L 171.1651 111.0227 L 166.8349 108.5227 L 165.4533 110.9157 Z"/>
</g>
<g id="BUTTONS_30" fill="none" stroke="#0050d0" stroke-width="0.2">
<path d="M 126.8035 46.1021 A 15.0000 15.0000 0 0 0 141.5004 71.5579 L 142.9019 73.9855 L 148.0981 70.9855 L 146.6965 68.5579 A 15.0000 15.0000 0 0 0 131.9996 43.1021 L 130.5981 40.6746 L 125.4019 43.6746 L 126.8035 46.1021 Z"/>
<path d="M 158.3035 27.6021 A 15.0000 15.0000 0 0 0 173.0004 53.0579 L 174.4019 55.4855 L 179.5981 52.4855 L 178.1965 50.0579 A 15.0000 15.0000 0 0 0 163.4996 24.6021 L 162.0981 22.1746 L 156.9019 25.1746 L 158.3035 27.6021 Z"/>
<path d="M 159.3035 65.1021 A 15.0000 15.0000 0 0 0 174.0004 90.5579 L 175.4019 92.9855 L 180.5981 89.9855 L 179.1965 87.5579 A 15.0000 15.0000 0 0 0 164.4996 62.1021 L 163.0981 59.6746 L 157.9019 62.6746 L 159.3035 65.1021 Z"/>
<path d="M 128.3035 83.1021 A 15.0000 15.0000 0 0 0 143.0004 108.5579 L 144.4019 110.9855 L 149.5981 107.9855 L 148.1965 105.5579 A 15.0000 15.0000 0 0 0 133.4996 80.1021 L 132.0981 77.6746 L 126.9019 80.6746 L 128.3035 83.1021 Z"/>
<path d="M 209.0004 56.1021 A 15.0000 15.0000 0 0 0 194.3035 81.5579 L 192.9019 83.9855 L 198.0981 86.9855 L 199.4996 84.5579 A 15.0000 15.0000 0 0 0 214.1965 59.1021 L 215.5981 56.6746 L 210.4019 53.6746 L 209.0004 56.1021 Z"/>
<path d="M 209.0004 18.1021 A 15.0000 15.0000 0 0 0 194.3035 43.5579 L 192.9019 45.9855 L 198.0981 48.9855 L 199.4996 46.5579 A 15.0000 15.0000 0 0 0 214.1965 21.1021 L 215.5981 18.6746 L 210.4019 15.6746 L 209.0004 18.1021 Z"/>
<path d="M 244.5004 62.1021 A 15.0000 15.0000 0 0 0 229.8035 87.5579 L 228.4019 89.9855 L 233.5981 92.9855 L 234.9996 90.5579 A 15.0000 15.0000 0 0 0 249.6965 65.1021 L 251.0981 62.6746 L 245.9019 59.6746 L 244.5004 62.1021 Z"/>
<path d="M 245.0004 24.6021 A 15.0000 15.0000 0 0 0 230.3035 50.0579 L 228.9019 52.4855 L 234.0981 55.4855 L 235.4996 53.0579 A 15.0000 15.0000 0 0 0 250.1965 27.6021 L 251.5981 25.1746 L 246.4019 22.1746 L 245.0004 24.6021 Z"/>
<path d="M 125.5004 117.6021 A 15.0000 15.0000 0 0 0 110.8035 143.0579 L 109.4019 145.4855 L 114.5981 148.4855 L 115.9996 146.0579 A 15.0000 15.0000 0 0 0 130.6965 120.6021 L 132.0981 118.1746 L 126.9019 115.1746 L 125.5004 117.6021 Z"/>
</g>
<g id="JOYSTICK_BORE_24" fill="none" stroke="#e08000" stroke-width="0.2">
<circle cx="46.7500" cy="69.8300" r="12.0000"/>
</g>
<g id="JOYSTICK_BORE_35.25" fill="none" stroke="#00a000" stroke-width="0.2">
<circle cx="46.7500" cy="69.8300" r="17.6250"/>
</g>
<g id="GL_PLATE_HOLES" fill="none" stroke="#0050d0" stroke-width="0.2">
<circle cx="46.7500" cy="27.3300" r="3.0000"/>
<circle cx="46.7500" cy="112.3300" r="3.0000"/>
<circle cx="56.7500" cy="27.3300" r="2.5000"/>
<circle cx="56.7500" cy="112.3300" r="2.5000"/>
<circle cx="36.7500" cy="27.3300" r="2.5000"/>
<circle cx="36.7500" cy="112.3300" r="2.5000"/>
<circle cx="46.7500" cy="37.0800" r="2.2500"/>
<circle cx="46.7500" cy="102.5800" r="2.2500"/>
<circle cx="83.2500" cy="44.8300" r="2.2500"/>
<circle cx="83.2500" cy="94.8300" r="2.2500"/>
<circle cx="10.2500" cy="44.8300" r="2.2500"/>
<circle cx="10.2500" cy="94.8300" r="2.2500"/>
<line x1="64.0000" y1="29.8300" x2="64.0000" y2="27.3300"/>
<line x1="69.5000" y1="29.8300" x2="69.5000" y2="27.3300"/>
<path d="M 69.5000 27.3300 A 2.7500 2.7500 0 0 0 64.0000 27.3300"/>
<path d="M 64.0000 29.8300 A 2.7500 2.7500 0 0 0 69.5000 29.8300"/>
<line x1="69.5000" y1="109.8300" x2="69.5000" y2="112.3300"/>
<line x1="64.0000" y1="109.8300" x2="64.0000" y2="112.3300"/>
<path d="M 64.0000 112.3300 A 2.7500 2.7500 0 0 0 69.5000 112.3300"/>
<path d="M 69.5000 109.8300 A 2.7500 2.7500 0 0 0 64.0000 109.8300"/>
<line x1="24.0000" y1="29.8300" x2="24.0000" y2="27.3300"/>
<line x1="29.5000" y1="29.8300" x2="29.5000" y2="27.3300"/>
<path d="M 29.5000 27.3300 A 2.7500 2.7500 0 0 0 24.0000 27.3300"/>
<path d="M 24.0000 29.8300 A 2.7500 2.7500 0 0 0 29.5000 29.8300"/>
<line x1="29.5000" y1="109.8300" x2="29.5000" y2="112.3300"/>
<line x1="24.0000" y1="109.8300" x2="24.0000" y2="112.3300"/>
<path d="M 24.0000 112.3300 A 2.7500 2.7500 0 0 0 29.5000 112.3300"/>
<path d="M 29.5000 109.8300 A 2.7500 2.7500 0 0 0 24.0000 109.8300"/>
</g>
<g id="REFERENCE" fill="none" stroke="#909090" stroke-width="0.2">
<line x1="42.7500" y1="69.8300" x2="50.7500" y2="69.8300"/>
<line x1="46.7500" y1="73.8300" x2="46.7500" y2="65.8300"/>
<line x1="132.7500" y1="57.3300" x2="140.7500" y2="57.3300"/>
<line x1="136.7500" y1="61.3300" x2="136.7500" y2="53.3300"/>
<line x1="164.2500" y1="38.8300" x2="172.2500" y2="38.8300"/>
<line x1="168.2500" y1="42.8300" x2="168.2500" y2="34.8300"/>
<line x1="165.2500" y1="76.3300" x2="173.2500" y2="76.3300"/>
<line x1="169.2500" y1="80.3300" x2="169.2500" y2="72.3300"/>
<line x1="134.2500" y1="94.3300" x2="142.2500" y2="94.3300"/>
<line x1="138.2500" y1="98.3300" x2="138.2500" y2="90.3300"/>
<line x1="200.2500" y1="70.3300" x2="208.2500" y2="70.3300"/>
<line x1="204.2500" y1="74.3300" x2="204.2500" y2="66.3300"/>
<line x1="200.2500" y1="32.3300" x2="208.2500" y2="32.3300"/>
<line x1="204.2500" y1="36.3300" x2="204.2500" y2="28.3300"/>
<line x1="235.7500" y1="76.3300" x2="243.7500" y2="76.3300"/>
<line x1="239.7500" y1="80.3300" x2="239.7500" y2="72.3300"/>
<line x1="236.2500" y1="38.8300" x2="244.2500" y2="38.8300"/>
<line x1="240.2500" y1="42.8300" x2="240.2500" y2="34.8300"/>
<line x1="134.7500" y1="24.3300" x2="142.7500" y2="24.3300"/>
<line x1="138.7500" y1="28.3300" x2="138.7500" y2="20.3300"/>
<line x1="157.7500" y1="122.3300" x2="165.7500" y2="122.3300"/>
<line x1="161.7500" y1="126.3300" x2="161.7500" y2="118.3300"/>
<line x1="116.7500" y1="131.8300" x2="124.7500" y2="131.8300"/>
<line x1="120.7500" y1="135.8300" x2="120.7500" y2="127.8300"/>
</g>
</svg>