<?xml version="1.0" encoding="UTF-8"?>
<svg xmlns="http://www.w3.org/2000/svg" version="1.1" width="273.3mm" height="142.4mm" viewBox="0 0 273.2972 142.3872">
<desc>1 SVG user unit = 1 mm. Origin = joystick shaft centre.</desc>
<g id="BUTTONS_24" fill="none" stroke="#d40000" stroke-width="0.2">
<circle cx="141.7500" cy="55.8503" r="12.0000"/>
<circle cx="165.2772" cy="75.9000" r="12.0000"/>
<circle cx="170.8772" cy="45.5000" r="12.0000"/>
<circle cx="177.2772" cy="104.3872" r="12.0000"/>
<circle cx="191.6772" cy="65.5000" r="12.0000"/>
<circle cx="197.2772" cy="34.3000" r="12.0000"/>
<circle cx="220.4772" cy="65.5000" r="12.0000"/>
<circle cx="226.0772" cy="34.3000" r="12.0000"/>
</g>
<g id="BUTTONS_30" fill="none" stroke="#0050d0" stroke-width="0.2">
<circle cx="150.2772" cy="119.3872" r="15.0000"/>
<circle cx="250.2972" cy="54.7497" r="15.0000"/>
</g>
<g id="JOYSTICK_BORE_24" fill="none" stroke="#e08000" stroke-width="0.2">
<circle cx="46.7500" cy="53.5000" r="12.0000"/>
</g>
<g id="JOYSTICK_BORE_35.25" fill="none" stroke="#00a000" stroke-width="0.2">
<circle cx="46.7500" cy="53.5000" r="17.6250"/>
</g>
<g id="GL_PLATE_HOLES" fill="none" stroke="#0050d0" stroke-width="0.2">
<circle cx="46.7500" cy="11.0000" r="3.0000"/>
<circle cx="46.7500" cy="96.0000" r="3.0000"/>
<circle cx="56.7500" cy="11.0000" r="2.5000"/>
<circle cx="56.7500" cy="96.0000" r="2.5000"/>
<circle cx="36.7500" cy="11.0000" r="2.5000"/>
<circle cx="36.7500" cy="96.0000" r="2.5000"/>
<circle cx="46.7500" cy="20.7500" r="2.2500"/>
<circle cx="46.7500" cy="86.2500" r="2.2500"/>
<circle cx="83.2500" cy="28.5000" r="2.2500"/>
<circle cx="83.2500" cy="78.5000" r="2.2500"/>
<circle cx="10.2500" cy="28.5000" r="2.2500"/>
<circle cx="10.2500" cy="78.5000" r="2.2500"/>
<line x1="64.0000" y1="13.5000" x2="64.0000" y2="11.0000"/>
<line x1="69.5000" y1="13.5000" x2="69.5000" y2="11.0000"/>
<path d="M 69.5000 11.0000 A 2.7500 2.7500 0 0 0 64.0000 11.0000"/>
<path d="M 64.0000 13.5000 A 2.7500 2.7500 0 0 0 69.5000 13.5000"/>
<line x1="69.5000" y1="93.5000" x2="69.5000" y2="96.0000"/>
<line x1="64.0000" y1="93.5000" x2="64.0000" y2="96.0000"/>
<path d="M 64.0000 96.0000 A 2.7500 2.7500 0 0 0 69.5000 96.0000"/>
<path d="M 69.5000 93.5000 A 2.7500 2.7500 0 0 0 64.0000 93.5000"/>
<line x1="24.0000" y1="13.5000" x2="24.0000" y2="11.0000"/>
<line x1="29.5000" y1="13.5000" x2="29.5000" y2="11.0000"/>
<path d="M 29.5000 11.0000 A 2.7500 2.7500 0 0 0 24.0000 11.0000"/>
<path d="M 24.0000 13.5000 A 2.7500 2.7500 0 0 0 29.5000 13.5000"/>
<line x1="29.5000" y1="93.5000" x2="29.5000" y2="96.0000"/>
<line x1="24.0000" y1="93.5000" x2="24.0000" y2="96.0000"/>
<path d="M 24.0000 96.0000 A 2.7500 2.7500 0 0 0 29.5000 96.0000"/>
<path d="M 29.5000 93.5000 A 2.7500 2.7500 0 0 0 24.0000 93.5000"/>
</g>
<g id="REFERENCE" fill="none" stroke="#909090" stroke-width="0.2">
<line x1="42.7500" y1="53.5000" x2="50.7500" y2="53.5000"/>
<line x1="46.7500" y1="57.5000" x2="46.7500" y2="49.5000"/>
<line x1="137.7500" y1="55.8503" x2="145.7500" y2="55.8503"/>
<line x1="141.7500" y1="59.8503" x2="141.7500" y2="51.8503"/>
<line x1="146.2772" y1="119.3872" x2="154.2772" y2="119.3872"/>
<line x1="150.2772" y1="123.3872" x2="150.2772" y2="115.3872"/>
<line x1="161.2772" y1="75.9000" x2="169.2772" y2="75.9000"/>
<line x1="165.2772" y1="79.9000" x2="165.2772" y2="71.9000"/>
<line x1="166.8772" y1="45.5000" x2="174.8772" y2="45.5000"/>
<line x1="170.8772" y1="49.5000" x2="170.8772" y2="41.5000"/>
<line x1="173.2772" y1="104.3872" x2="181.2772" y2="104.3872"/>
<line x1="177.2772" y1="108.3872" x2="177.2772" y2="100.3872"/>
<line x1="187.6772" y1="65.5000" x2="195.6772" y2="65.5000"/>
<line x1="191.6772" y1="69.5000" x2="191.6772" y2="61.5000"/>
<line x1="193.2772" y1="34.3000" x2="201.2772" y2="34.3000"/>
<line x1="197.2772" y1="38.3000" x2="197.2772" y2="30.3000"/>
<line x1="216.4772" y1="65.5000" x2="224.4772" y2="65.5000"/>
<line x1="220.4772" y1="69.5000" x2="220.4772" y2="61.5000"/>
<line x1="222.0772" y1="34.3000" x2="230.0772" y2="34.3000"/>
<line x1="226.0772" y1="38.3000" x2="226.0772" y2="30.3000"/>
<line x1="246.2972" y1="54.7497" x2="254.2972" y2="54.7497"/>
<line x1="250.2972" y1="58.7497" x2="250.2972" y2="50.7497"/>
</g>
</svg>