ISO-10303-21;
HEADER;
FILE_DESCRIPTION (( 'STEP AP214' ),
    '1' );
FILE_NAME ('Blank_CenterSupport_NominalFit.STEP',
    '2026-08-23T22:27:48',
    ( '' ),
    ( '' ),
    'SwSTEP 2.0',
    'SolidWorks 2026',
    '' );
FILE_SCHEMA (( 'AUTOMOTIVE_DESIGN' ));
ENDSEC;

DATA;
#1 = DIRECTION ( 'NONE',  ( 1.000000000000000000, -0.000000000000000000, 0.000000000000000000 ) ) ;
#2 = EDGE_LOOP ( 'NONE', ( #190, #765, #492, #553 ) ) ;
#3 = ORIENTED_EDGE ( 'NONE', *, *, #805, .T. ) ;
#4 = CARTESIAN_POINT ( 'NONE',  ( -29.99999999999999289, 45.00000000000000000, 0.000000000000000000 ) ) ;
#5 = VERTEX_POINT ( 'NONE', #254 ) ;
#6 = CIRCLE ( 'NONE', #558, 2.799999999999999822 ) ;
#7 = APPLICATION_CONTEXT ( 'automotive_design' ) ;
#8 = CARTESIAN_POINT ( 'NONE',  ( -28.99999999999998934, 45.00000000000000000, 4.949999999999999289 ) ) ;
#9 = CARTESIAN_POINT ( 'NONE',  ( 28.99999999999999645, 45.00000000000000000, 14.14999999999999858 ) ) ;
#10 = VECTOR ( 'NONE', #270, 1000.000000000000000 ) ;
#11 = CARTESIAN_POINT ( 'NONE',  ( 30.00000000000000000, 45.00000000000000000, 0.000000000000000000 ) ) ;
#12 = ORIENTED_EDGE ( 'NONE', *, *, #636, .F. ) ;
#13 = SHAPE_DEFINITION_REPRESENTATION ( #689, #681 ) ;
#14 = UNCERTAINTY_MEASURE_WITH_UNIT (LENGTH_MEASURE( 1.000000000000000082E-05 ), #301, 'distance_accuracy_value', 'NONE');
#15 = DIRECTION ( 'NONE',  ( -0.000000000000000000, -1.000000000000000000, -0.000000000000000000 ) ) ;
#16 = CYLINDRICAL_SURFACE ( 'NONE', #107, 1.000000000000000888 ) ;
#17 = ORIENTED_EDGE ( 'NONE', *, *, #409, .T. ) ;
#18 = APPLICATION_PROTOCOL_DEFINITION ( 'draft international standard', 'automotive_design', 1998, #414 ) ;
#19 = AXIS2_PLACEMENT_3D ( 'NONE', #173, #796, #158 ) ;
#20 = LINE ( 'NONE', #261, #625 ) ;
#21 = VERTEX_POINT ( 'NONE', #575 ) ;
#22 = CARTESIAN_POINT ( 'NONE',  ( 0.000000000000000000, 45.00000000000000000, -4.650000000000001243 ) ) ;
#23 = AXIS2_PLACEMENT_3D ( 'NONE', #22, #334, #201 ) ;
#24 = DIRECTION ( 'NONE',  ( -0.000000000000000000, -1.000000000000000000, -0.000000000000000000 ) ) ;
#25 = VERTEX_POINT ( 'NONE', #572 ) ;
#26 = EDGE_CURVE ( 'NONE', #21, #487, #634, .T. ) ;
#27 = CARTESIAN_POINT ( 'NONE',  ( 30.00000000000000000, 45.00000000000000000, 14.14999999999999858 ) ) ;
#28 = FACE_OUTER_BOUND ( 'NONE', #239, .T. ) ;
#29 = LINE ( 'NONE', #79, #780 ) ;
#30 = ORIENTED_EDGE ( 'NONE', *, *, #740, .F. ) ;
#31 = DIRECTION ( 'NONE',  ( 0.000000000000000000, 0.000000000000000000, -1.000000000000000000 ) ) ;
#32 = CARTESIAN_POINT ( 'NONE',  ( 28.99999999999999645, 45.00000000000000000, 3.949999999999997957 ) ) ;
#33 = ORIENTED_EDGE ( 'NONE', *, *, #448, .F. ) ;
#34 = CIRCLE ( 'NONE', #632, 1.000000000000000888 ) ;
#35 = DIRECTION ( 'NONE',  ( 0.000000000000000000, 0.000000000000000000, 1.000000000000000000 ) ) ;
#36 = DIRECTION ( 'NONE',  ( -0.000000000000000000, -1.000000000000000000, -0.000000000000000000 ) ) ;
#37 = ADVANCED_FACE ( 'NONE', ( #507 ), #16, .T. ) ;
#38 = VERTEX_POINT ( 'NONE', #561 ) ;
#39 = VECTOR ( 'NONE', #184, 1000.000000000000000 ) ;
#40 = CARTESIAN_POINT ( 'NONE',  ( 0.000000000000000000, 45.00000000000000000, 0.000000000000000000 ) ) ;
#41 = CARTESIAN_POINT ( 'NONE',  ( -28.99999999999998934, 45.00000000000000000, 3.949999999999998845 ) ) ;
#42 = ORIENTED_EDGE ( 'NONE', *, *, #732, .T. ) ;
#43 = CARTESIAN_POINT ( 'NONE',  ( 30.00000000000000000, 45.00000000000000000, -14.85000000000000142 ) ) ;
#44 = CARTESIAN_POINT ( 'NONE',  ( -28.99999999999998934, 0.000000000000000000, 14.14999999999999680 ) ) ;
#45 = ORIENTED_EDGE ( 'NONE', *, *, #81, .T. ) ;
#46 = EDGE_CURVE ( 'NONE', #194, #477, #668, .T. ) ;
#47 = EDGE_CURVE ( 'NONE', #25, #50, #626, .T. ) ;
#48 = CARTESIAN_POINT ( 'NONE',  ( -28.99999999999998934, 0.000000000000000000, 4.949999999999999289 ) ) ;
#49 = FACE_BOUND ( 'NONE', #534, .T. ) ;
#50 = VERTEX_POINT ( 'NONE', #145 ) ;
#51 = VECTOR ( 'NONE', #462, 1000.000000000000000 ) ;
#52 = EDGE_CURVE ( 'NONE', #416, #527, #88, .T. ) ;
#53 = AXIS2_PLACEMENT_3D ( 'NONE', #471, #289, #284 ) ;
#54 = FACE_OUTER_BOUND ( 'NONE', #614, .T. ) ;
#55 = ORIENTED_EDGE ( 'NONE', *, *, #531, .T. ) ;
#56 = CARTESIAN_POINT ( 'NONE',  ( 3.429011037612588290E-16, 45.00000000000000000, 2.799999999999999822 ) ) ;
#57 = ORIENTED_EDGE ( 'NONE', *, *, #731, .T. ) ;
#58 = EDGE_CURVE ( 'NONE', #123, #735, #709, .T. ) ;
#59 = CIRCLE ( 'NONE', #542, 1.000000000000000888 ) ;
#60 = CARTESIAN_POINT ( 'NONE',  ( -28.99999999999998934, 45.00000000000000000, 15.15000000000000036 ) ) ;
#61 = ORIENTED_EDGE ( 'NONE', *, *, #690, .T. ) ;
#62 = CARTESIAN_POINT ( 'NONE',  ( -29.99999999999999289, 45.00000000000000000, 0.000000000000000000 ) ) ;
#63 = LINE ( 'NONE', #60, #665 ) ;
#64 = AXIS2_PLACEMENT_3D ( 'NONE', #141, #766, #755 ) ;
#65 = ORIENTED_EDGE ( 'NONE', *, *, #80, .T. ) ;
#66 = VERTEX_POINT ( 'NONE', #761 ) ;
#67 = PLANE ( 'NONE',  #386 ) ;
#68 = EDGE_LOOP ( 'NONE', ( #516, #271, #593, #45 ) ) ;
#69 = DIRECTION ( 'NONE',  ( 1.000000000000000000, -0.000000000000000000, 0.000000000000000000 ) ) ;
#70 = DIRECTION ( 'NONE',  ( -0.000000000000000000, -1.000000000000000000, -0.000000000000000000 ) ) ;
#71 = VECTOR ( 'NONE', #647, 1000.000000000000000 ) ;
#72 = LINE ( 'NONE', #711, #620 ) ;
#73 = VERTEX_POINT ( 'NONE', #497 ) ;
#74 = DIRECTION ( 'NONE',  ( 5.981805089575199895E-17, 0.000000000000000000, -1.000000000000000000 ) ) ;
#75 = CARTESIAN_POINT ( 'NONE',  ( -28.99999999999998934, 45.00000000000000000, 14.14999999999999680 ) ) ;
#76 = VECTOR ( 'NONE', #342, 1000.000000000000000 ) ;
#77 = ORIENTED_EDGE ( 'NONE', *, *, #224, .T. ) ;
#78 = DIRECTION ( 'NONE',  ( 1.000000000000000000, -0.000000000000000000, 0.000000000000000000 ) ) ;
#79 = CARTESIAN_POINT ( 'NONE',  ( 20.00000000000000000, 45.00000000000000000, 3.949999999999998845 ) ) ;
#80 = EDGE_CURVE ( 'NONE', #597, #719, #538, .T. ) ;
#81 = EDGE_CURVE ( 'NONE', #397, #477, #193, .T. ) ;
#82 = ORIENTED_EDGE ( 'NONE', *, *, #636, .T. ) ;
#83 = DIRECTION ( 'NONE',  ( 0.000000000000000000, 0.000000000000000000, 1.000000000000000000 ) ) ;
#84 = EDGE_CURVE ( 'NONE', #784, #38, #20, .T. ) ;
#85 = EDGE_LOOP ( 'NONE', ( #554, #382, #316, #82 ) ) ;
#86 = VECTOR ( 'NONE', #78, 1000.000000000000000 ) ;
#87 = LINE ( 'NONE', #390, #205 ) ;
#88 = LINE ( 'NONE', #618, #138 ) ;
#89 = ORIENTED_EDGE ( 'NONE', *, *, #481, .F. ) ;
#90 = AXIS2_PLACEMENT_3D ( 'NONE', #9, #250, #83 ) ;
#91 =( NAMED_UNIT ( * ) SI_UNIT ( $, .STERADIAN. ) SOLID_ANGLE_UNIT ( ) );
#92 = CARTESIAN_POINT ( 'NONE',  ( -19.99999999999998934, 45.00000000000000000, -4.650000000000001243 ) ) ;
#93 = DIRECTION ( 'NONE',  ( -0.000000000000000000, -1.000000000000000000, 0.000000000000000000 ) ) ;
#94 = ORIENTED_EDGE ( 'NONE', *, *, #172, .F. ) ;
#95 = FILL_AREA_STYLE_COLOUR ( '', #456 ) ;
#96 = CIRCLE ( 'NONE', #466, 2.799999999999999822 ) ;
#97 = EDGE_CURVE ( 'NONE', #38, #416, #188, .T. ) ;
#98 = CARTESIAN_POINT ( 'NONE',  ( -29.99999999999999289, 45.00000000000000000, -14.85000000000000142 ) ) ;
#99 = FACE_OUTER_BOUND ( 'NONE', #322, .T. ) ;
#100 = ORIENTED_EDGE ( 'NONE', *, *, #179, .T. ) ;
#101 = AXIS2_PLACEMENT_3D ( 'NONE', #256, #323, #501 ) ;
#102 = VECTOR ( 'NONE', #69, 1000.000000000000000 ) ;
#103 = CARTESIAN_POINT ( 'NONE',  ( 30.00000000000000000, 45.00000000000000000, 0.000000000000000000 ) ) ;
#104 = CARTESIAN_POINT ( 'NONE',  ( 0.000000000000000000, 45.00000000000000000, -2.799999999999999822 ) ) ;
#105 =( GEOMETRIC_REPRESENTATION_CONTEXT ( 3 ) GLOBAL_UNCERTAINTY_ASSIGNED_CONTEXT ( ( #14 ) ) GLOBAL_UNIT_ASSIGNED_CONTEXT ( ( #301, #752, #551 ) ) REPRESENTATION_CONTEXT ( 'NONE', 'WORKASPACE' ) );
#106 = ORIENTED_EDGE ( 'NONE', *, *, #493, .F. ) ;
#107 = AXIS2_PLACEMENT_3D ( 'NONE', #75, #315, #623 ) ;
#108 = FACE_OUTER_BOUND ( 'NONE', #85, .T. ) ;
#109 = DIRECTION ( 'NONE',  ( -9.637352644315598941E-17, 0.000000000000000000, -1.000000000000000000 ) ) ;
#110 = EDGE_LOOP ( 'NONE', ( #473, #255, #541, #365 ) ) ;
#111 = CARTESIAN_POINT ( 'NONE',  ( -28.99999999999998934, 45.00000000000000000, -14.85000000000000142 ) ) ;
#112 = CYLINDRICAL_SURFACE ( 'NONE', #119, 1.000000000000000888 ) ;
#113 = ORIENTED_EDGE ( 'NONE', *, *, #731, .F. ) ;
#114 = EDGE_CURVE ( 'NONE', #597, #521, #196, .T. ) ;
#115 = CIRCLE ( 'NONE', #272, 1.000000000000000888 ) ;
#116 = DIRECTION ( 'NONE',  ( 0.000000000000000000, 0.000000000000000000, 1.000000000000000000 ) ) ;
#117 = LINE ( 'NONE', #62, #237 ) ;
#118 = ORIENTED_EDGE ( 'NONE', *, *, #637, .F. ) ;
#119 = AXIS2_PLACEMENT_3D ( 'NONE', #640, #391, #579 ) ;
#120 = DIRECTION ( 'NONE',  ( -0.000000000000000000, -1.000000000000000000, -0.000000000000000000 ) ) ;
#121 = ORIENTED_EDGE ( 'NONE', *, *, #732, .F. ) ;
#122 = LINE ( 'NONE', #793, #718 ) ;
#123 = VERTEX_POINT ( 'NONE', #369 ) ;
#124 = CARTESIAN_POINT ( 'NONE',  ( 28.99999999999999645, 0.000000000000000000, -5.650000000000004796 ) ) ;
#125 = ORIENTED_EDGE ( 'NONE', *, *, #337, .F. ) ;
#126 = FACE_BOUND ( 'NONE', #624, .T. ) ;
#127 = ORIENTED_EDGE ( 'NONE', *, *, #46, .F. ) ;
#128 = DIRECTION ( 'NONE',  ( 0.000000000000000000, 1.000000000000000000, -0.000000000000000000 ) ) ;
#129 = DIRECTION ( 'NONE',  ( 0.000000000000000000, 1.000000000000000000, -0.000000000000000000 ) ) ;
#130 = LINE ( 'NONE', #189, #309 ) ;
#131 = DIRECTION ( 'NONE',  ( 0.000000000000000000, 0.000000000000000000, 1.000000000000000000 ) ) ;
#132 = LINE ( 'NONE', #693, #484 ) ;
#133 = VERTEX_POINT ( 'NONE', #445 ) ;
#134 = PRODUCT_DEFINITION_FORMATION_WITH_SPECIFIED_SOURCE ( 'ANY', '', #754, .NOT_KNOWN. ) ;
#135 = CARTESIAN_POINT ( 'NONE',  ( -29.99999999999999289, 45.00000000000000000, 0.000000000000000000 ) ) ;
#136 = ADVANCED_FACE ( 'NONE', ( #385 ), #375, .T. ) ;
#137 = DIRECTION ( 'NONE',  ( 1.000000000000000000, -0.000000000000000000, 8.068481283613055794E-16 ) ) ;
#138 = VECTOR ( 'NONE', #629, 1000.000000000000000 ) ;
#139 = EDGE_LOOP ( 'NONE', ( #267, #549, #343, #675 ) ) ;
#140 = EDGE_CURVE ( 'NONE', #483, #416, #29, .T. ) ;
#141 = CARTESIAN_POINT ( 'NONE',  ( -28.99999999999998934, 45.00000000000000000, -5.650000000000001243 ) ) ;
#142 = ORIENTED_EDGE ( 'NONE', *, *, #418, .F. ) ;
#143 = PRESENTATION_STYLE_ASSIGNMENT (( #569 ) ) ;
#144 = FACE_OUTER_BOUND ( 'NONE', #671, .T. ) ;
#145 = CARTESIAN_POINT ( 'NONE',  ( 30.00000000000000000, 0.000000000000000000, 4.949999999999997513 ) ) ;
#146 = ORIENTED_EDGE ( 'NONE', *, *, #472, .T. ) ;
#147 = LINE ( 'NONE', #92, #333 ) ;
#148 = LINE ( 'NONE', #712, #76 ) ;
#149 = VERTEX_POINT ( 'NONE', #566 ) ;
#150 = CLOSED_SHELL ( 'NONE', ( #432, #244, #616, #520, #720, #584, #770, #240, #408, #545, #361, #37, #509, #195, #785, #263, #217, #136, #165, #594, #476, #555, #611, #218 ) ) ;
#151 = PLANE ( 'NONE',  #677 ) ;
#152 = CARTESIAN_POINT ( 'NONE',  ( -29.99999999999999289, 0.000000000000000000, -0.000000000000000000 ) ) ;
#153 = DIRECTION ( 'NONE',  ( -0.000000000000000000, -1.000000000000000000, -0.000000000000000000 ) ) ;
#154 = ORIENTED_EDGE ( 'NONE', *, *, #660, .T. ) ;
#155 = FACE_OUTER_BOUND ( 'NONE', #585, .T. ) ;
#156 = FACE_OUTER_BOUND ( 'NONE', #746, .T. ) ;
#157 = ORIENTED_EDGE ( 'NONE', *, *, #26, .T. ) ;
#158 = DIRECTION ( 'NONE',  ( -1.000000000000000000, 0.000000000000000000, -2.990902544787599948E-17 ) ) ;
#159 = DIRECTION ( 'NONE',  ( 0.000000000000000000, 0.000000000000000000, 1.000000000000000000 ) ) ;
#160 = EDGE_CURVE ( 'NONE', #500, #133, #132, .T. ) ;
#161 = ORIENTED_EDGE ( 'NONE', *, *, #559, .F. ) ;
#162 = VECTOR ( 'NONE', #24, 1000.000000000000000 ) ;
#163 = CARTESIAN_POINT ( 'NONE',  ( -28.99999999999998934, 45.00000000000000000, -5.650000000000001243 ) ) ;
#164 = CARTESIAN_POINT ( 'NONE',  ( -28.99999999999998934, 0.000000000000000000, 15.15000000000000036 ) ) ;
#165 = ADVANCED_FACE ( 'NONE', ( #381 ), #317, .F. ) ;
#166 = ORIENTED_EDGE ( 'NONE', *, *, #305, .F. ) ;
#167 = CYLINDRICAL_SURFACE ( 'NONE', #759, 1.000000000000000888 ) ;
#168 = LINE ( 'NONE', #152, #71 ) ;
#169 = ORIENTED_EDGE ( 'NONE', *, *, #181, .T. ) ;
#170 = CARTESIAN_POINT ( 'NONE',  ( 30.00000000000000000, 0.000000000000000000, -14.85000000000000142 ) ) ;
#171 = ORIENTED_EDGE ( 'NONE', *, *, #744, .F. ) ;
#172 = EDGE_CURVE ( 'NONE', #210, #242, #698, .T. ) ;
#173 = CARTESIAN_POINT ( 'NONE',  ( -4.531217355353213437E-16, 45.00000000000000000, 15.15000000000000036 ) ) ;
#174 = ORIENTED_EDGE ( 'NONE', *, *, #612, .F. ) ;
#175 = CARTESIAN_POINT ( 'NONE',  ( -19.99999999999998934, 45.00000000000000000, 3.949999999999998845 ) ) ;
#176 = ORIENTED_EDGE ( 'NONE', *, *, #499, .F. ) ;
#177 = LINE ( 'NONE', #760, #747 ) ;
#178 = VECTOR ( 'NONE', #389, 1000.000000000000000 ) ;
#179 = EDGE_CURVE ( 'NONE', #243, #487, #495, .T. ) ;
#180 = ORIENTED_EDGE ( 'NONE', *, *, #26, .F. ) ;
#181 = EDGE_CURVE ( 'NONE', #504, #500, #638, .T. ) ;
#182 = LINE ( 'NONE', #238, #522 ) ;
#183 = AXIS2_PLACEMENT_3D ( 'NONE', #439, #137, #326 ) ;
#184 = DIRECTION ( 'NONE',  ( -0.000000000000000000, -1.000000000000000000, -0.000000000000000000 ) ) ;
#185 = EDGE_CURVE ( 'NONE', #327, #50, #529, .T. ) ;
#186 = DIRECTION ( 'NONE',  ( 0.000000000000000000, 0.000000000000000000, 1.000000000000000000 ) ) ;
#187 = DIRECTION ( 'NONE',  ( 0.000000000000000000, 0.000000000000000000, -1.000000000000000000 ) ) ;
#188 = LINE ( 'NONE', #199, #428 ) ;
#189 = CARTESIAN_POINT ( 'NONE',  ( -4.531217355353213437E-16, 0.000000000000000000, 15.15000000000000036 ) ) ;
#190 = ORIENTED_EDGE ( 'NONE', *, *, #372, .T. ) ;
#191 = EDGE_CURVE ( 'NONE', #719, #73, #331, .T. ) ;
#192 = DIRECTION ( 'NONE',  ( -0.000000000000000000, -1.000000000000000000, -0.000000000000000000 ) ) ;
#193 = LINE ( 'NONE', #682, #162 ) ;
#194 = VERTEX_POINT ( 'NONE', #519 ) ;
#195 = ADVANCED_FACE ( 'NONE', ( #156 ), #778, .T. ) ;
#196 = LINE ( 'NONE', #449, #460 ) ;
#197 = ORIENTED_EDGE ( 'NONE', *, *, #590, .T. ) ;
#198 = DIRECTION ( 'NONE',  ( 0.000000000000000000, 0.000000000000000000, 1.000000000000000000 ) ) ;
#199 = CARTESIAN_POINT ( 'NONE',  ( 20.00000000000000355, 0.000000000000000000, 1.613696256722611317E-14 ) ) ;
#200 = ORIENTED_EDGE ( 'NONE', *, *, #421, .T. ) ;
#201 = DIRECTION ( 'NONE',  ( -1.000000000000000000, 0.000000000000000000, -0.000000000000000000 ) ) ;
#202 = CARTESIAN_POINT ( 'NONE',  ( 20.00000000000000355, 45.00000000000000000, 1.613696256722611317E-14 ) ) ;
#203 = CARTESIAN_POINT ( 'NONE',  ( 28.99999999999999645, 45.00000000000000000, -14.85000000000000142 ) ) ;
#204 = ORIENTED_EDGE ( 'NONE', *, *, #58, .T. ) ;
#205 = VECTOR ( 'NONE', #582, 1000.000000000000000 ) ;
#206 = CIRCLE ( 'NONE', #235, 1.000000000000000888 ) ;
#207 = DIRECTION ( 'NONE',  ( 0.000000000000000000, 0.000000000000000000, 1.000000000000000000 ) ) ;
#208 = DIRECTION ( 'NONE',  ( 0.000000000000000000, 0.000000000000000000, -1.000000000000000000 ) ) ;
#209 = LINE ( 'NONE', #464, #378 ) ;
#210 = VERTEX_POINT ( 'NONE', #104 ) ;
#211 = CIRCLE ( 'NONE', #302, 1.000000000000000000 ) ;
#212 = EDGE_CURVE ( 'NONE', #694, #194, #209, .T. ) ;
#213 = CARTESIAN_POINT ( 'NONE',  ( 28.99999999999999645, 45.00000000000000000, -15.84999999999999964 ) ) ;
#214 = CARTESIAN_POINT ( 'NONE',  ( -29.99999999999999289, 0.000000000000000000, -14.85000000000000142 ) ) ;
#215 = CARTESIAN_POINT ( 'NONE',  ( -4.531217355353213437E-16, 45.00000000000000000, 15.15000000000000036 ) ) ;
#216 = VERTEX_POINT ( 'NONE', #41 ) ;
#217 = ADVANCED_FACE ( 'NONE', ( #726 ), #459, .T. ) ;
#218 = ADVANCED_FACE ( 'NONE', ( #49, #396 ), #221, .F. ) ;
#219 = VECTOR ( 'NONE', #478, 1000.000000000000000 ) ;
#220 = CARTESIAN_POINT ( 'NONE',  ( -29.99999999999999289, 0.000000000000000000, 14.14999999999999680 ) ) ;
#221 = PLANE ( 'NONE',  #53 ) ;
#222 = ORIENTED_EDGE ( 'NONE', *, *, #52, .F. ) ;
#223 = AXIS2_PLACEMENT_3D ( 'NONE', #245, #490, #207 ) ;
#224 = EDGE_CURVE ( 'NONE', #784, #508, #148, .T. ) ;
#225 = CYLINDRICAL_SURFACE ( 'NONE', #339, 1.000000000000000000 ) ;
#226 = CARTESIAN_POINT ( 'NONE',  ( 0.000000000000000000, 45.00000000000000000, -4.650000000000001243 ) ) ;
#227 = VERTEX_POINT ( 'NONE', #280 ) ;
#228 = DIRECTION ( 'NONE',  ( -0.000000000000000000, -1.000000000000000000, -0.000000000000000000 ) ) ;
#229 = CARTESIAN_POINT ( 'NONE',  ( 30.00000000000000000, 45.00000000000000000, -14.85000000000000142 ) ) ;
#230 = ORIENTED_EDGE ( 'NONE', *, *, #690, .F. ) ;
#231 = DIRECTION ( 'NONE',  ( 0.000000000000000000, 0.000000000000000000, 1.000000000000000000 ) ) ;
#232 = CIRCLE ( 'NONE', #359, 0.9999999999999991118 ) ;
#233 = ORIENTED_EDGE ( 'NONE', *, *, #649, .F. ) ;
#234 = CARTESIAN_POINT ( 'NONE',  ( 30.00000000000000000, 45.00000000000000000, -5.650000000000011902 ) ) ;
#235 = AXIS2_PLACEMENT_3D ( 'NONE', #308, #128, #131 ) ;
#236 = ORIENTED_EDGE ( 'NONE', *, *, #805, .F. ) ;
#237 = VECTOR ( 'NONE', #607, 1000.000000000000000 ) ;
#238 = CARTESIAN_POINT ( 'NONE',  ( -28.99999999999998934, 45.00000000000000000, 3.949999999999998845 ) ) ;
#239 = EDGE_LOOP ( 'NONE', ( #393, #743, #357, #708 ) ) ;
#240 = ADVANCED_FACE ( 'NONE', ( #99 ), #336, .F. ) ;
#241 = LINE ( 'NONE', #672, #789 ) ;
#242 = VERTEX_POINT ( 'NONE', #349 ) ;
#243 = VERTEX_POINT ( 'NONE', #164 ) ;
#244 = ADVANCED_FACE ( 'NONE', ( #406 ), #791, .T. ) ;
#245 = CARTESIAN_POINT ( 'NONE',  ( -28.99999999999998934, 0.000000000000000000, -5.650000000000001243 ) ) ;
#246 = VECTOR ( 'NONE', #208, 1000.000000000000000 ) ;
#247 = ORIENTED_EDGE ( 'NONE', *, *, #84, .T. ) ;
#248 = CARTESIAN_POINT ( 'NONE',  ( -28.99999999999998934, 45.00000000000000000, -15.85000000000000320 ) ) ;
#249 = AXIS2_PLACEMENT_3D ( 'NONE', #787, #346, #592 ) ;
#250 = DIRECTION ( 'NONE',  ( 0.000000000000000000, 1.000000000000000000, -0.000000000000000000 ) ) ;
#251 = LINE ( 'NONE', #639, #518 ) ;
#252 = ORIENTED_EDGE ( 'NONE', *, *, #505, .T. ) ;
#253 = LINE ( 'NONE', #488, #425 ) ;
#254 = CARTESIAN_POINT ( 'NONE',  ( -28.99999999999998579, 0.000000000000000000, -4.650000000000001243 ) ) ;
#255 = ORIENTED_EDGE ( 'NONE', *, *, #84, .F. ) ;
#256 = CARTESIAN_POINT ( 'NONE',  ( 0.000000000000000000, 0.000000000000000000, 0.000000000000000000 ) ) ;
#257 = PRODUCT_DEFINITION_CONTEXT ( 'detailed design', #414, 'design' ) ;
#258 = DIRECTION ( 'NONE',  ( -1.000000000000000000, 0.000000000000000000, 1.927470528863122746E-16 ) ) ;
#259 = ORIENTED_EDGE ( 'NONE', *, *, #337, .T. ) ;
#260 = LINE ( 'NONE', #268, #86 ) ;
#261 = CARTESIAN_POINT ( 'NONE',  ( 20.00000000000000711, 45.00000000000000000, -4.650000000000003020 ) ) ;
#262 = ORIENTED_EDGE ( 'NONE', *, *, #114, .T. ) ;
#263 = ADVANCED_FACE ( 'NONE', ( #658 ), #112, .T. ) ;
#264 = EDGE_CURVE ( 'NONE', #347, #527, #772, .T. ) ;
#265 = CYLINDRICAL_SURFACE ( 'NONE', #604, 2.799999999999999822 ) ;
#266 = DIRECTION ( 'NONE',  ( 0.000000000000000000, 0.000000000000000000, 1.000000000000000000 ) ) ;
#267 = ORIENTED_EDGE ( 'NONE', *, *, #46, .T. ) ;
#268 = CARTESIAN_POINT ( 'NONE',  ( 0.000000000000000000, 0.000000000000000000, 3.949999999999998845 ) ) ;
#269 = DIRECTION ( 'NONE',  ( -0.000000000000000000, -1.000000000000000000, -0.000000000000000000 ) ) ;
#270 = DIRECTION ( 'NONE',  ( -0.000000000000000000, -1.000000000000000000, -0.000000000000000000 ) ) ;
#271 = ORIENTED_EDGE ( 'NONE', *, *, #114, .F. ) ;
#272 = AXIS2_PLACEMENT_3D ( 'NONE', #436, #517, #186 ) ;
#273 = CIRCLE ( 'NONE', #736, 1.000000000000000888 ) ;
#274 = PLANE ( 'NONE',  #413 ) ;
#275 = DIRECTION ( 'NONE',  ( 0.000000000000000000, 1.000000000000000000, -0.000000000000000000 ) ) ;
#276 = ORIENTED_EDGE ( 'NONE', *, *, #567, .F. ) ;
#277 = AXIS2_PLACEMENT_3D ( 'NONE', #203, #36, #454 ) ;
#278 = EDGE_CURVE ( 'NONE', #508, #589, #211, .T. ) ;
#279 = DIRECTION ( 'NONE',  ( 1.000000000000000000, 0.000000000000000000, 0.000000000000000000 ) ) ;
#280 = CARTESIAN_POINT ( 'NONE',  ( 28.99999999999999645, 0.000000000000000000, 15.15000000000000213 ) ) ;
#281 = ORIENTED_EDGE ( 'NONE', *, *, #493, .T. ) ;
#282 = EDGE_CURVE ( 'NONE', #412, #123, #783, .T. ) ;
#283 = CARTESIAN_POINT ( 'NONE',  ( -19.99999999999998934, 0.000000000000000000, -4.650000000000001243 ) ) ;
#284 = DIRECTION ( 'NONE',  ( 0.000000000000000000, 0.000000000000000000, 1.000000000000000000 ) ) ;
#285 = EDGE_LOOP ( 'NONE', ( #703, #290, #465, #730 ) ) ;
#286 = VECTOR ( 'NONE', #15, 1000.000000000000000 ) ;
#287 = DIRECTION ( 'NONE',  ( -0.000000000000000000, -1.000000000000000000, 0.000000000000000000 ) ) ;
#288 = PRESENTATION_LAYER_ASSIGNMENT (  '', '', ( #353 ) ) ;
#289 = DIRECTION ( 'NONE',  ( 0.000000000000000000, 1.000000000000000000, -0.000000000000000000 ) ) ;
#290 = ORIENTED_EDGE ( 'NONE', *, *, #212, .F. ) ;
#291 = EDGE_CURVE ( 'NONE', #397, #597, #117, .T. ) ;
#292 = DIRECTION ( 'NONE',  ( 0.000000000000000000, 1.000000000000000000, -0.000000000000000000 ) ) ;
#293 = EDGE_CURVE ( 'NONE', #242, #573, #695, .T. ) ;
#294 = VERTEX_POINT ( 'NONE', #229 ) ;
#295 = CARTESIAN_POINT ( 'NONE',  ( 30.00000000000000000, 45.00000000000000000, 14.14999999999999858 ) ) ;
#296 = VECTOR ( 'NONE', #120, 1000.000000000000000 ) ;
#297 = ORIENTED_EDGE ( 'NONE', *, *, #448, .T. ) ;
#298 = DIRECTION ( 'NONE',  ( 0.000000000000000000, 0.000000000000000000, 1.000000000000000000 ) ) ;
#299 = ORIENTED_EDGE ( 'NONE', *, *, #47, .F. ) ;
#300 = EDGE_LOOP ( 'NONE', ( #142, #600, #350, #650 ) ) ;
#301 =( LENGTH_UNIT ( ) NAMED_UNIT ( * ) SI_UNIT ( .MILLI., .METRE. ) );
#302 = AXIS2_PLACEMENT_3D ( 'NONE', #583, #275, #525 ) ;
#303 = DIRECTION ( 'NONE',  ( -0.000000000000000000, -1.000000000000000000, -0.000000000000000000 ) ) ;
#304 = ORIENTED_EDGE ( 'NONE', *, *, #179, .F. ) ;
#305 = EDGE_CURVE ( 'NONE', #719, #5, #537, .T. ) ;
#306 = DIRECTION ( 'NONE',  ( 1.000000000000000000, 0.000000000000000000, 0.000000000000000000 ) ) ;
#307 = VERTEX_POINT ( 'NONE', #729 ) ;
#308 = CARTESIAN_POINT ( 'NONE',  ( 28.99999999999999645, 0.000000000000000000, 14.14999999999999858 ) ) ;
#309 = VECTOR ( 'NONE', #562, 1000.000000000000000 ) ;
#310 = CARTESIAN_POINT ( 'NONE',  ( -29.99999999999999289, 45.00000000000000000, 14.14999999999999680 ) ) ;
#311 = AXIS2_PLACEMENT_3D ( 'NONE', #613, #74, #433 ) ;
#312 = LINE ( 'NONE', #11, #453 ) ;
#313 = EDGE_LOOP ( 'NONE', ( #792, #673, #479, #606 ) ) ;
#314 = CARTESIAN_POINT ( 'NONE',  ( 28.99999999999999645, 45.00000000000000000, 4.949999999999997513 ) ) ;
#315 = DIRECTION ( 'NONE',  ( -0.000000000000000000, -1.000000000000000000, -0.000000000000000000 ) ) ;
#316 = ORIENTED_EDGE ( 'NONE', *, *, #666, .T. ) ;
#317 = PLANE ( 'NONE',  #564 ) ;
#318 = ORIENTED_EDGE ( 'NONE', *, *, #481, .T. ) ;
#319 =( LENGTH_UNIT ( ) NAMED_UNIT ( * ) SI_UNIT ( .MILLI., .METRE. ) );
#320 = DIRECTION ( 'NONE',  ( -8.068481283613054808E-16, 0.000000000000000000, 1.000000000000000000 ) ) ;
#321 = VECTOR ( 'NONE', #565, 1000.000000000000000 ) ;
#322 = EDGE_LOOP ( 'NONE', ( #664, #230, #739, #318 ) ) ;
#323 = DIRECTION ( 'NONE',  ( 0.000000000000000000, 0.000000000000000000, 1.000000000000000000 ) ) ;
#324 = EDGE_CURVE ( 'NONE', #487, #149, #168, .T. ) ;
#325 = DIRECTION ( 'NONE',  ( 0.000000000000000000, 0.000000000000000000, 1.000000000000000000 ) ) ;
#326 = DIRECTION ( 'NONE',  ( 8.068481283613055794E-16, 0.000000000000000000, -1.000000000000000000 ) ) ;
#327 = VERTEX_POINT ( 'NONE', #463 ) ;
#328 = EDGE_CURVE ( 'NONE', #483, #347, #87, .T. ) ;
#329 = DIRECTION ( 'NONE',  ( -0.000000000000000000, -1.000000000000000000, -0.000000000000000000 ) ) ;
#330 = DIRECTION ( 'NONE',  ( -1.000000000000000000, 0.000000000000000000, -0.000000000000000000 ) ) ;
#331 = LINE ( 'NONE', #226, #550 ) ;
#332 = ORIENTED_EDGE ( 'NONE', *, *, #324, .T. ) ;
#333 = VECTOR ( 'NONE', #269, 1000.000000000000000 ) ;
#334 = DIRECTION ( 'NONE',  ( 0.000000000000000000, 0.000000000000000000, -1.000000000000000000 ) ) ;
#335 = DIRECTION ( 'NONE',  ( 0.000000000000000000, 1.000000000000000000, -0.000000000000000000 ) ) ;
#336 = PLANE ( 'NONE',  #249 ) ;
#337 = EDGE_CURVE ( 'NONE', #735, #327, #705, .T. ) ;
#338 = ORIENTED_EDGE ( 'NONE', *, *, #291, .T. ) ;
#339 = AXIS2_PLACEMENT_3D ( 'NONE', #163, #798, #657 ) ;
#340 = AXIS2_PLACEMENT_3D ( 'NONE', #394, #577, #642 ) ;
#341 = CARTESIAN_POINT ( 'NONE',  ( -29.99999999999999289, 45.00000000000000000, 0.000000000000000000 ) ) ;
#342 = DIRECTION ( 'NONE',  ( 1.000000000000000000, 0.000000000000000000, -1.927470528863122500E-16 ) ) ;
#343 = ORIENTED_EDGE ( 'NONE', *, *, #531, .F. ) ;
#344 = AXIS2_PLACEMENT_3D ( 'NONE', #354, #411, #662 ) ;
#345 = CARTESIAN_POINT ( 'NONE',  ( -28.99999999999998934, 45.00000000000000000, 4.949999999999999289 ) ) ;
#346 = DIRECTION ( 'NONE',  ( 1.000000000000000000, 0.000000000000000000, 0.000000000000000000 ) ) ;
#347 = VERTEX_POINT ( 'NONE', #683 ) ;
#348 = LINE ( 'NONE', #402, #684 ) ;
#349 = CARTESIAN_POINT ( 'NONE',  ( 0.000000000000000000, 0.000000000000000000, -2.799999999999999822 ) ) ;
#350 = ORIENTED_EDGE ( 'NONE', *, *, #655, .T. ) ;
#351 = VECTOR ( 'NONE', #475, 1000.000000000000000 ) ;
#352 = FACE_OUTER_BOUND ( 'NONE', #749, .T. ) ;
#353 = STYLED_ITEM ( 'NONE', ( #143 ), #763 ) ;
#354 = CARTESIAN_POINT ( 'NONE',  ( 0.000000000000000000, 0.000000000000000000, 0.000000000000000000 ) ) ;
#355 = ORIENTED_EDGE ( 'NONE', *, *, #655, .F. ) ;
#356 = DIRECTION ( 'NONE',  ( -0.000000000000000000, -1.000000000000000000, -0.000000000000000000 ) ) ;
#357 = ORIENTED_EDGE ( 'NONE', *, *, #172, .T. ) ;
#358 = DIRECTION ( 'NONE',  ( 0.000000000000000000, 0.000000000000000000, -1.000000000000000000 ) ) ;
#359 = AXIS2_PLACEMENT_3D ( 'NONE', #737, #540, #467 ) ;
#360 = ORIENTED_EDGE ( 'NONE', *, *, #697, .F. ) ;
#361 = ADVANCED_FACE ( 'NONE', ( #633 ), #771, .T. ) ;
#362 = CARTESIAN_POINT ( 'NONE',  ( 9.481161066976691199E-16, 45.00000000000000000, -15.85000000000000320 ) ) ;
#363 = ORIENTED_EDGE ( 'NONE', *, *, #224, .F. ) ;
#364 = EDGE_CURVE ( 'NONE', #563, #210, #6, .T. ) ;
#365 = ORIENTED_EDGE ( 'NONE', *, *, #140, .T. ) ;
#366 = PLANE ( 'NONE',  #651 ) ;
#367 = ORIENTED_EDGE ( 'NONE', *, *, #660, .F. ) ;
#368 = CARTESIAN_POINT ( 'NONE',  ( -29.99999999999999289, 45.00000000000000000, -5.650000000000008349 ) ) ;
#369 = CARTESIAN_POINT ( 'NONE',  ( 28.99999999999999645, 45.00000000000000000, 15.15000000000000213 ) ) ;
#370 = LINE ( 'NONE', #202, #774 ) ;
#371 = APPLICATION_PROTOCOL_DEFINITION ( 'draft international standard', 'automotive_design', 1998, #7 ) ;
#372 = EDGE_CURVE ( 'NONE', #243, #227, #130, .T. ) ;
#373 = CARTESIAN_POINT ( 'NONE',  ( 28.99999999999999645, 45.00000000000000000, -5.650000000000004796 ) ) ;
#374 = AXIS2_PLACEMENT_3D ( 'NONE', #384, #335, #524 ) ;
#375 = PLANE ( 'NONE',  #183 ) ;
#376 = VERTEX_POINT ( 'NONE', #458 ) ;
#377 = DIRECTION ( 'NONE',  ( 0.000000000000000000, 0.000000000000000000, 1.000000000000000000 ) ) ;
#378 = VECTOR ( 'NONE', #153, 1000.000000000000000 ) ;
#379 = CARTESIAN_POINT ( 'NONE',  ( -28.99999999999998934, 0.000000000000000000, -14.85000000000000142 ) ) ;
#380 = ORIENTED_EDGE ( 'NONE', *, *, #612, .T. ) ;
#381 = FACE_OUTER_BOUND ( 'NONE', #530, .T. ) ;
#382 = ORIENTED_EDGE ( 'NONE', *, *, #485, .F. ) ;
#383 = LINE ( 'NONE', #631, #609 ) ;
#384 = CARTESIAN_POINT ( 'NONE',  ( 0.000000000000000000, 45.00000000000000000, 0.000000000000000000 ) ) ;
#385 = FACE_OUTER_BOUND ( 'NONE', #110, .T. ) ;
#386 = AXIS2_PLACEMENT_3D ( 'NONE', #4, #306, #556 ) ;
#387 = EDGE_CURVE ( 'NONE', #784, #483, #370, .T. ) ;
#388 = EDGE_LOOP ( 'NONE', ( #304, #233, #3, #157 ) ) ;
#389 = DIRECTION ( 'NONE',  ( 0.000000000000000000, 0.000000000000000000, 1.000000000000000000 ) ) ;
#390 = CARTESIAN_POINT ( 'NONE',  ( 3.806754294504660725E-16, 45.00000000000000000, 3.950000000000000178 ) ) ;
#391 = DIRECTION ( 'NONE',  ( -0.000000000000000000, -1.000000000000000000, -0.000000000000000000 ) ) ;
#392 = AXIS2_PLACEMENT_3D ( 'NONE', #400, #109, #468 ) ;
#393 = ORIENTED_EDGE ( 'NONE', *, *, #801, .F. ) ;
#394 = CARTESIAN_POINT ( 'NONE',  ( -28.99999999999998934, 45.00000000000000000, 14.14999999999999680 ) ) ;
#395 = DIRECTION ( 'NONE',  ( 0.000000000000000000, 1.000000000000000000, -0.000000000000000000 ) ) ;
#396 = FACE_OUTER_BOUND ( 'NONE', #635, .T. ) ;
#397 = VERTEX_POINT ( 'NONE', #98 ) ;
#398 = VECTOR ( 'NONE', #661, 1000.000000000000000 ) ;
#399 = DIRECTION ( 'NONE',  ( -0.000000000000000000, -1.000000000000000000, -0.000000000000000000 ) ) ;
#400 = CARTESIAN_POINT ( 'NONE',  ( 3.806754294504660725E-16, 45.00000000000000000, 3.950000000000000178 ) ) ;
#401 = ORIENTED_EDGE ( 'NONE', *, *, #97, .T. ) ;
#402 = CARTESIAN_POINT ( 'NONE',  ( 28.99999999999999645, 45.00000000000000000, 15.15000000000000213 ) ) ;
#403 = DIRECTION ( 'NONE',  ( 1.000000000000000000, -0.000000000000000000, 0.000000000000000000 ) ) ;
#404 = ORIENTED_EDGE ( 'NONE', *, *, #418, .T. ) ;
#405 = DIRECTION ( 'NONE',  ( -0.000000000000000000, -1.000000000000000000, -0.000000000000000000 ) ) ;
#406 = FACE_OUTER_BOUND ( 'NONE', #313, .T. ) ;
#407 = ORIENTED_EDGE ( 'NONE', *, *, #47, .T. ) ;
#408 = ADVANCED_FACE ( 'NONE', ( #144 ), #274, .T. ) ;
#409 = EDGE_CURVE ( 'NONE', #294, #589, #312, .T. ) ;
#410 = CARTESIAN_POINT ( 'NONE',  ( 28.99999999999998934, 45.00000000000000000, -4.650000000000004796 ) ) ;
#411 = DIRECTION ( 'NONE',  ( 0.000000000000000000, 1.000000000000000000, -0.000000000000000000 ) ) ;
#412 = VERTEX_POINT ( 'NONE', #643 ) ;
#413 = AXIS2_PLACEMENT_3D ( 'NONE', #716, #31, #330 ) ;
#414 = APPLICATION_CONTEXT ( 'automotive_design' ) ;
#415 = FACE_OUTER_BOUND ( 'NONE', #139, .T. ) ;
#416 = VERTEX_POINT ( 'NONE', #751 ) ;
#417 = AXIS2_PLACEMENT_3D ( 'NONE', #44, #596, #159 ) ;
#418 = EDGE_CURVE ( 'NONE', #527, #50, #115, .T. ) ;
#419 = CARTESIAN_POINT ( 'NONE',  ( 28.99999999999998934, 45.00000000000000000, -4.650000000000004796 ) ) ;
#420 = ORIENTED_EDGE ( 'NONE', *, *, #364, .F. ) ;
#421 = EDGE_CURVE ( 'NONE', #194, #504, #251, .T. ) ;
#422 = CARTESIAN_POINT ( 'NONE',  ( 0.000000000000000000, 0.000000000000000000, -4.650000000000001243 ) ) ;
#423 = ORIENTED_EDGE ( 'NONE', *, *, #191, .T. ) ;
#424 = ORIENTED_EDGE ( 'NONE', *, *, #567, .T. ) ;
#425 = VECTOR ( 'NONE', #745, 1000.000000000000000 ) ;
#426 = CARTESIAN_POINT ( 'NONE',  ( -28.99999999999998579, 45.00000000000000000, -4.650000000000001243 ) ) ;
#427 = ORIENTED_EDGE ( 'NONE', *, *, #58, .F. ) ;
#428 = VECTOR ( 'NONE', #320, 1000.000000000000000 ) ;
#429 = CARTESIAN_POINT ( 'NONE',  ( 0.000000000000000000, 45.00000000000000000, 0.000000000000000000 ) ) ;
#430 = CARTESIAN_POINT ( 'NONE',  ( 30.00000000000000000, 0.000000000000000000, 0.000000000000000000 ) ) ;
#431 = CYLINDRICAL_SURFACE ( 'NONE', #734, 2.799999999999999822 ) ;
#432 = ADVANCED_FACE ( 'NONE', ( #155 ), #431, .F. ) ;
#433 = DIRECTION ( 'NONE',  ( -1.000000000000000000, 0.000000000000000000, -5.981805089575199895E-17 ) ) ;
#434 = AXIS2_PLACEMENT_3D ( 'NONE', #111, #228, #670 ) ;
#435 = DIRECTION ( 'NONE',  ( -0.000000000000000000, -1.000000000000000000, -0.000000000000000000 ) ) ;
#436 = CARTESIAN_POINT ( 'NONE',  ( 28.99999999999999645, 0.000000000000000000, 4.949999999999997513 ) ) ;
#437 = ORIENTED_EDGE ( 'NONE', *, *, #160, .F. ) ;
#438 = PLANE ( 'NONE',  #311 ) ;
#439 = CARTESIAN_POINT ( 'NONE',  ( 20.00000000000000355, 45.00000000000000000, 1.613696256722611317E-14 ) ) ;
#440 = AXIS2_PLACEMENT_3D ( 'NONE', #373, #192, #187 ) ;
#441 = ORIENTED_EDGE ( 'NONE', *, *, #324, .F. ) ;
#442 = UNCERTAINTY_MEASURE_WITH_UNIT (LENGTH_MEASURE( 1.000000000000000082E-05 ), #319, 'distance_accuracy_value', 'NONE');
#443 = CARTESIAN_POINT ( 'NONE',  ( 28.99999999999999645, 45.00000000000000000, -15.84999999999999964 ) ) ;
#444 = PRODUCT_DEFINITION ( 'UNKNOWN', '', #134, #257 ) ;
#445 = CARTESIAN_POINT ( 'NONE',  ( 30.00000000000000000, 0.000000000000000000, -5.650000000000011902 ) ) ;
#446 = ORIENTED_EDGE ( 'NONE', *, *, #535, .T. ) ;
#447 =( NAMED_UNIT ( * ) PLANE_ANGLE_UNIT ( ) SI_UNIT ( $, .RADIAN. ) );
#448 = EDGE_CURVE ( 'NONE', #589, #133, #72, .T. ) ;
#449 = CARTESIAN_POINT ( 'NONE',  ( -29.99999999999999289, 45.00000000000000000, -5.650000000000008349 ) ) ;
#450 = EDGE_LOOP ( 'NONE', ( #441, #180, #659, #603 ) ) ;
#451 = CARTESIAN_POINT ( 'NONE',  ( 30.00000000000000000, 45.00000000000000000, 0.000000000000000000 ) ) ;
#452 = DIRECTION ( 'NONE',  ( 0.000000000000000000, 0.000000000000000000, -1.000000000000000000 ) ) ;
#453 = VECTOR ( 'NONE', #619, 1000.000000000000000 ) ;
#454 = DIRECTION ( 'NONE',  ( 0.000000000000000000, 0.000000000000000000, -1.000000000000000000 ) ) ;
#455 = ORIENTED_EDGE ( 'NONE', *, *, #601, .T. ) ;
#456 = COLOUR_RGB ( '',0.7921568627450980005, 0.8196078431372548767, 0.9333333333333333481 ) ;
#457 = FACE_OUTER_BOUND ( 'NONE', #762, .T. ) ;
#458 = CARTESIAN_POINT ( 'NONE',  ( 28.99999999999998934, 0.000000000000000000, -4.650000000000004796 ) ) ;
#459 = PLANE ( 'NONE',  #392 ) ;
#460 = VECTOR ( 'NONE', #701, 1000.000000000000000 ) ;
#461 = VERTEX_POINT ( 'NONE', #578 ) ;
#462 = DIRECTION ( 'NONE',  ( -0.000000000000000000, -1.000000000000000000, -0.000000000000000000 ) ) ;
#463 = CARTESIAN_POINT ( 'NONE',  ( 30.00000000000000000, 45.00000000000000000, 4.949999999999997513 ) ) ;
#464 = CARTESIAN_POINT ( 'NONE',  ( -28.99999999999998934, 45.00000000000000000, -15.85000000000000320 ) ) ;
#465 = ORIENTED_EDGE ( 'NONE', *, *, #679, .T. ) ;
#466 = AXIS2_PLACEMENT_3D ( 'NONE', #733, #725, #116 ) ;
#467 = DIRECTION ( 'NONE',  ( 0.000000000000000000, 0.000000000000000000, 1.000000000000000000 ) ) ;
#468 = DIRECTION ( 'NONE',  ( -1.000000000000000000, 0.000000000000000000, 9.637352644315598941E-17 ) ) ;
#469 = ORIENTED_EDGE ( 'NONE', *, *, #387, .F. ) ;
#470 = CYLINDRICAL_SURFACE ( 'NONE', #434, 1.000000000000000888 ) ;
#471 = CARTESIAN_POINT ( 'NONE',  ( 0.000000000000000000, 0.000000000000000000, 0.000000000000000000 ) ) ;
#472 = EDGE_CURVE ( 'NONE', #210, #563, #480, .T. ) ;
#473 = ORIENTED_EDGE ( 'NONE', *, *, #97, .F. ) ;
#474 = DIRECTION ( 'NONE',  ( -0.000000000000000000, -1.000000000000000000, -0.000000000000000000 ) ) ;
#475 = DIRECTION ( 'NONE',  ( -0.000000000000000000, -1.000000000000000000, -0.000000000000000000 ) ) ;
#476 = ADVANCED_FACE ( 'NONE', ( #28 ), #265, .F. ) ;
#477 = VERTEX_POINT ( 'NONE', #214 ) ;
#478 = DIRECTION ( 'NONE',  ( -0.000000000000000000, -1.000000000000000000, -0.000000000000000000 ) ) ;
#479 = ORIENTED_EDGE ( 'NONE', *, *, #499, .T. ) ;
#480 = CIRCLE ( 'NONE', #374, 2.799999999999999822 ) ;
#481 = EDGE_CURVE ( 'NONE', #73, #489, #147, .T. ) ;
#482 = CARTESIAN_POINT ( 'NONE',  ( 28.99999999999999645, 0.000000000000000000, -15.84999999999999964 ) ) ;
#483 = VERTEX_POINT ( 'NONE', #586 ) ;
#484 = VECTOR ( 'NONE', #266, 1000.000000000000000 ) ;
#485 = EDGE_CURVE ( 'NONE', #539, #149, #122, .T. ) ;
#486 = LINE ( 'NONE', #175, #286 ) ;
#487 = VERTEX_POINT ( 'NONE', #220 ) ;
#488 = CARTESIAN_POINT ( 'NONE',  ( -29.99999999999999289, 0.000000000000000000, 0.000000000000000000 ) ) ;
#489 = VERTEX_POINT ( 'NONE', #283 ) ;
#490 = DIRECTION ( 'NONE',  ( 0.000000000000000000, 1.000000000000000000, -0.000000000000000000 ) ) ;
#491 = MECHANICAL_DESIGN_GEOMETRIC_PRESENTATION_REPRESENTATION (  '', ( #353 ), #598 ) ;
#492 = ORIENTED_EDGE ( 'NONE', *, *, #282, .F. ) ;
#493 = EDGE_CURVE ( 'NONE', #508, #376, #786, .T. ) ;
#494 = DIRECTION ( 'NONE',  ( -1.000000000000000000, 0.000000000000000000, 0.000000000000000000 ) ) ;
#495 = CIRCLE ( 'NONE', #417, 1.000000000000000888 ) ;
#496 = DIRECTION ( 'NONE',  ( 0.000000000000000000, 0.000000000000000000, 1.000000000000000000 ) ) ;
#497 = CARTESIAN_POINT ( 'NONE',  ( -19.99999999999998934, 45.00000000000000000, -4.650000000000001243 ) ) ;
#498 = CARTESIAN_POINT ( 'NONE',  ( 0.000000000000000000, 45.00000000000000000, 0.000000000000000000 ) ) ;
#499 = EDGE_CURVE ( 'NONE', #779, #294, #232, .T. ) ;
#500 = VERTEX_POINT ( 'NONE', #170 ) ;
#501 = DIRECTION ( 'NONE',  ( 1.000000000000000000, 0.000000000000000000, 0.000000000000000000 ) ) ;
#502 = DIRECTION ( 'NONE',  ( 0.000000000000000000, 1.000000000000000000, -0.000000000000000000 ) ) ;
#503 = DIRECTION ( 'NONE',  ( 0.000000000000000000, 0.000000000000000000, 1.000000000000000000 ) ) ;
#504 = VERTEX_POINT ( 'NONE', #482 ) ;
#505 = EDGE_CURVE ( 'NONE', #123, #227, #348, .T. ) ;
#506 = PLANE ( 'NONE',  #23 ) ;
#507 = FACE_OUTER_BOUND ( 'NONE', #388, .T. ) ;
#508 = VERTEX_POINT ( 'NONE', #410 ) ;
#509 = ADVANCED_FACE ( 'NONE', ( #790 ), #721, .F. ) ;
#510 = VECTOR ( 'NONE', #511, 1000.000000000000000 ) ;
#511 = DIRECTION ( 'NONE',  ( 0.000000000000000000, 0.000000000000000000, -1.000000000000000000 ) ) ;
#512 = ORIENTED_EDGE ( 'NONE', *, *, #715, .T. ) ;
#513 = LINE ( 'NONE', #523, #178 ) ;
#514 = CARTESIAN_POINT ( 'NONE',  ( 0.000000000000000000, 45.00000000000000000, 0.000000000000000000 ) ) ;
#515 = CARTESIAN_POINT ( 'NONE',  ( 0.000000000000000000, 45.00000000000000000, -2.799999999999999822 ) ) ;
#516 = ORIENTED_EDGE ( 'NONE', *, *, #702, .T. ) ;
#517 = DIRECTION ( 'NONE',  ( -0.000000000000000000, -1.000000000000000000, 0.000000000000000000 ) ) ;
#518 = VECTOR ( 'NONE', #777, 1000.000000000000000 ) ;
#519 = CARTESIAN_POINT ( 'NONE',  ( -28.99999999999998934, 0.000000000000000000, -15.85000000000000320 ) ) ;
#520 = ADVANCED_FACE ( 'NONE', ( #415 ), #470, .T. ) ;
#521 = VERTEX_POINT ( 'NONE', #602 ) ;
#522 = VECTOR ( 'NONE', #608, 1000.000000000000000 ) ;
#523 = CARTESIAN_POINT ( 'NONE',  ( -19.99999999999998934, 0.000000000000000000, 0.000000000000000000 ) ) ;
#524 = DIRECTION ( 'NONE',  ( 0.000000000000000000, 0.000000000000000000, 1.000000000000000000 ) ) ;
#525 = DIRECTION ( 'NONE',  ( 0.000000000000000000, 0.000000000000000000, 1.000000000000000000 ) ) ;
#526 = VECTOR ( 'NONE', #717, 1000.000000000000000 ) ;
#527 = VERTEX_POINT ( 'NONE', #528 ) ;
#528 = CARTESIAN_POINT ( 'NONE',  ( 28.99999999999999645, 0.000000000000000000, 3.949999999999997957 ) ) ;
#529 = LINE ( 'NONE', #722, #588 ) ;
#530 = EDGE_LOOP ( 'NONE', ( #742, #106, #363, #247 ) ) ;
#531 = EDGE_CURVE ( 'NONE', #694, #397, #59, .T. ) ;
#532 = LINE ( 'NONE', #295, #398 ) ;
#533 = DIRECTION ( 'NONE',  ( 0.000000000000000000, 0.000000000000000000, -1.000000000000000000 ) ) ;
#534 = EDGE_LOOP ( 'NONE', ( #656, #446 ) ) ;
#535 = EDGE_CURVE ( 'NONE', #573, #242, #96, .T. ) ;
#536 = CARTESIAN_POINT ( 'NONE',  ( 30.00000000000000000, 45.00000000000000000, 0.000000000000000000 ) ) ;
#537 = LINE ( 'NONE', #794, #351 ) ;
#538 = CIRCLE ( 'NONE', #64, 1.000000000000000000 ) ;
#539 = VERTEX_POINT ( 'NONE', #652 ) ;
#540 = DIRECTION ( 'NONE',  ( -0.000000000000000000, -1.000000000000000000, 0.000000000000000000 ) ) ;
#541 = ORIENTED_EDGE ( 'NONE', *, *, #387, .T. ) ;
#542 = AXIS2_PLACEMENT_3D ( 'NONE', #728, #292, #231 ) ;
#543 = CARTESIAN_POINT ( 'NONE',  ( 3.429011037612588290E-16, 0.000000000000000000, 2.799999999999999822 ) ) ;
#544 = ORIENTED_EDGE ( 'NONE', *, *, #80, .F. ) ;
#545 = ADVANCED_FACE ( 'NONE', ( #108 ), #167, .T. ) ;
#546 = PRODUCT_RELATED_PRODUCT_CATEGORY ( 'part', '', ( #754 ) ) ;
#547 = CIRCLE ( 'NONE', #776, 1.000000000000000000 ) ;
#548 = LINE ( 'NONE', #422, #102 ) ;
#549 = ORIENTED_EDGE ( 'NONE', *, *, #81, .F. ) ;
#550 = VECTOR ( 'NONE', #403, 1000.000000000000000 ) ;
#551 =( NAMED_UNIT ( * ) SI_UNIT ( $, .STERADIAN. ) SOLID_ANGLE_UNIT ( ) );
#552 = DIRECTION ( 'NONE',  ( 0.000000000000000000, 0.000000000000000000, 1.000000000000000000 ) ) ;
#553 = ORIENTED_EDGE ( 'NONE', *, *, #649, .T. ) ;
#554 = ORIENTED_EDGE ( 'NONE', *, *, #590, .F. ) ;
#555 = ADVANCED_FACE ( 'NONE', ( #605 ), #595, .T. ) ;
#556 = DIRECTION ( 'NONE',  ( 0.000000000000000000, 0.000000000000000000, -1.000000000000000000 ) ) ;
#557 = ORIENTED_EDGE ( 'NONE', *, *, #372, .F. ) ;
#558 = AXIS2_PLACEMENT_3D ( 'NONE', #40, #395, #325 ) ;
#559 = EDGE_CURVE ( 'NONE', #294, #500, #667, .T. ) ;
#560 = FACE_OUTER_BOUND ( 'NONE', #285, .T. ) ;
#561 = CARTESIAN_POINT ( 'NONE',  ( 20.00000000000000711, 0.000000000000000000, -4.650000000000003020 ) ) ;
#562 = DIRECTION ( 'NONE',  ( 1.000000000000000000, 0.000000000000000000, 2.990902544787599331E-17 ) ) ;
#563 = VERTEX_POINT ( 'NONE', #56 ) ;
#564 = AXIS2_PLACEMENT_3D ( 'NONE', #764, #570, #258 ) ;
#565 = DIRECTION ( 'NONE',  ( 1.000000000000000000, 0.000000000000000000, 5.981805089575198662E-17 ) ) ;
#566 = CARTESIAN_POINT ( 'NONE',  ( -29.99999999999999289, 0.000000000000000000, 4.949999999999999289 ) ) ;
#567 = EDGE_CURVE ( 'NONE', #735, #25, #532, .T. ) ;
#568 = ORIENTED_EDGE ( 'NONE', *, *, #278, .F. ) ;
#569 = SURFACE_STYLE_USAGE ( .BOTH. , #714 ) ;
#570 = DIRECTION ( 'NONE',  ( -1.927470528863122746E-16, 0.000000000000000000, -1.000000000000000000 ) ) ;
#571 = ORIENTED_EDGE ( 'NONE', *, *, #191, .F. ) ;
#572 = CARTESIAN_POINT ( 'NONE',  ( 30.00000000000000000, 0.000000000000000000, 14.14999999999999858 ) ) ;
#573 = VERTEX_POINT ( 'NONE', #543 ) ;
#574 = DIRECTION ( 'NONE',  ( -0.000000000000000000, -1.000000000000000000, -0.000000000000000000 ) ) ;
#575 = CARTESIAN_POINT ( 'NONE',  ( -29.99999999999999289, 45.00000000000000000, 14.14999999999999680 ) ) ;
#576 = ORIENTED_EDGE ( 'NONE', *, *, #702, .F. ) ;
#577 = DIRECTION ( 'NONE',  ( -0.000000000000000000, -1.000000000000000000, 0.000000000000000000 ) ) ;
#578 = CARTESIAN_POINT ( 'NONE',  ( -19.99999999999998934, 0.000000000000000000, 3.949999999999998845 ) ) ;
#579 = DIRECTION ( 'NONE',  ( 0.000000000000000000, 0.000000000000000000, -1.000000000000000000 ) ) ;
#580 = ORIENTED_EDGE ( 'NONE', *, *, #472, .F. ) ;
#581 = CARTESIAN_POINT ( 'NONE',  ( -8.962737959213520413E-16, 0.000000000000000000, -4.649999999999999467 ) ) ;
#582 = DIRECTION ( 'NONE',  ( 1.000000000000000000, 0.000000000000000000, -9.637352644315596475E-17 ) ) ;
#583 = CARTESIAN_POINT ( 'NONE',  ( 28.99999999999999645, 45.00000000000000000, -5.650000000000004796 ) ) ;
#584 = ADVANCED_FACE ( 'NONE', ( #352 ), #225, .T. ) ;
#585 = EDGE_LOOP ( 'NONE', ( #146, #678, #688, #94 ) ) ;
#586 = CARTESIAN_POINT ( 'NONE',  ( 20.00000000000000000, 45.00000000000000000, 3.949999999999998845 ) ) ;
#587 = DIRECTION ( 'NONE',  ( -0.000000000000000000, -1.000000000000000000, -0.000000000000000000 ) ) ;
#588 = VECTOR ( 'NONE', #587, 1000.000000000000000 ) ;
#589 = VERTEX_POINT ( 'NONE', #234 ) ;
#590 = EDGE_CURVE ( 'NONE', #149, #307, #273, .T. ) ;
#591 = DIRECTION ( 'NONE',  ( 0.000000000000000000, 0.000000000000000000, -1.000000000000000000 ) ) ;
#592 = DIRECTION ( 'NONE',  ( 0.000000000000000000, 0.000000000000000000, -1.000000000000000000 ) ) ;
#593 = ORIENTED_EDGE ( 'NONE', *, *, #291, .F. ) ;
#594 = ADVANCED_FACE ( 'NONE', ( #54 ), #621, .T. ) ;
#595 = PLANE ( 'NONE',  #645 ) ;
#596 = DIRECTION ( 'NONE',  ( -0.000000000000000000, -1.000000000000000000, 0.000000000000000000 ) ) ;
#597 = VERTEX_POINT ( 'NONE', #368 ) ;
#598 =( GEOMETRIC_REPRESENTATION_CONTEXT ( 3 ) GLOBAL_UNCERTAINTY_ASSIGNED_CONTEXT ( ( #442 ) ) GLOBAL_UNIT_ASSIGNED_CONTEXT ( ( #319, #447, #91 ) ) REPRESENTATION_CONTEXT ( 'NONE', 'WORKASPACE' ) );
#599 = DIRECTION ( 'NONE',  ( 0.000000000000000000, 0.000000000000000000, 1.000000000000000000 ) ) ;
#600 = ORIENTED_EDGE ( 'NONE', *, *, #264, .F. ) ;
#601 = EDGE_CURVE ( 'NONE', #376, #133, #547, .T. ) ;
#602 = CARTESIAN_POINT ( 'NONE',  ( -29.99999999999999289, 0.000000000000000000, -5.650000000000008349 ) ) ;
#603 = ORIENTED_EDGE ( 'NONE', *, *, #485, .T. ) ;
#604 = AXIS2_PLACEMENT_3D ( 'NONE', #514, #399, #452 ) ;
#605 = FACE_OUTER_BOUND ( 'NONE', #758, .T. ) ;
#606 = ORIENTED_EDGE ( 'NONE', *, *, #559, .T. ) ;
#607 = DIRECTION ( 'NONE',  ( 0.000000000000000000, 0.000000000000000000, 1.000000000000000000 ) ) ;
#608 = DIRECTION ( 'NONE',  ( -0.000000000000000000, -1.000000000000000000, -0.000000000000000000 ) ) ;
#609 = VECTOR ( 'NONE', #329, 1000.000000000000000 ) ;
#610 = ORIENTED_EDGE ( 'NONE', *, *, #282, .T. ) ;
#611 = ADVANCED_FACE ( 'NONE', ( #126, #748 ), #366, .T. ) ;
#612 = EDGE_CURVE ( 'NONE', #227, #25, #206, .T. ) ;
#613 = CARTESIAN_POINT ( 'NONE',  ( 9.481161066976691199E-16, 45.00000000000000000, -15.85000000000000320 ) ) ;
#614 = EDGE_LOOP ( 'NONE', ( #455, #33, #568, #281 ) ) ;
#615 = ORIENTED_EDGE ( 'NONE', *, *, #601, .F. ) ;
#616 = ADVANCED_FACE ( 'NONE', ( #560 ), #438, .T. ) ;
#617 = DIRECTION ( 'NONE',  ( 0.000000000000000000, 1.000000000000000000, -0.000000000000000000 ) ) ;
#618 = CARTESIAN_POINT ( 'NONE',  ( 3.806754294504660725E-16, 0.000000000000000000, 3.950000000000000178 ) ) ;
#619 = DIRECTION ( 'NONE',  ( 0.000000000000000000, 0.000000000000000000, 1.000000000000000000 ) ) ;
#620 = VECTOR ( 'NONE', #574, 1000.000000000000000 ) ;
#621 = CYLINDRICAL_SURFACE ( 'NONE', #440, 1.000000000000000000 ) ;
#622 = AXIS2_PLACEMENT_3D ( 'NONE', #314, #685, #552 ) ;
#623 = DIRECTION ( 'NONE',  ( 0.000000000000000000, 0.000000000000000000, -1.000000000000000000 ) ) ;
#624 = EDGE_LOOP ( 'NONE', ( #580, #420 ) ) ;
#625 = VECTOR ( 'NONE', #435, 1000.000000000000000 ) ;
#626 = LINE ( 'NONE', #430, #510 ) ;
#627 = ORIENTED_EDGE ( 'NONE', *, *, #264, .T. ) ;
#628 = SURFACE_STYLE_FILL_AREA ( #775 ) ;
#629 = DIRECTION ( 'NONE',  ( 1.000000000000000000, 0.000000000000000000, -9.637352644315596475E-17 ) ) ;
#630 = ORIENTED_EDGE ( 'NONE', *, *, #52, .T. ) ;
#631 = CARTESIAN_POINT ( 'NONE',  ( 3.429011037612588290E-16, 45.00000000000000000, 2.799999999999999822 ) ) ;
#632 = AXIS2_PLACEMENT_3D ( 'NONE', #8, #741, #298 ) ;
#633 = FACE_OUTER_BOUND ( 'NONE', #450, .T. ) ;
#634 = LINE ( 'NONE', #310, #803 ) ;
#635 = EDGE_LOOP ( 'NONE', ( #169, #773, #615, #171, #401, #630, #404, #299, #174, #557, #100, #332, #197, #42, #30, #367, #113, #576, #127, #200 ) ) ;
#636 = EDGE_CURVE ( 'NONE', #216, #307, #182, .T. ) ;
#637 = EDGE_CURVE ( 'NONE', #21, #539, #691, .T. ) ;
#638 = CIRCLE ( 'NONE', #738, 0.9999999999999991118 ) ;
#639 = CARTESIAN_POINT ( 'NONE',  ( 9.481161066976691199E-16, 0.000000000000000000, -15.85000000000000320 ) ) ;
#640 = CARTESIAN_POINT ( 'NONE',  ( 28.99999999999999645, 45.00000000000000000, 4.949999999999997513 ) ) ;
#641 = ORIENTED_EDGE ( 'NONE', *, *, #140, .F. ) ;
#642 = DIRECTION ( 'NONE',  ( 0.000000000000000000, 0.000000000000000000, 1.000000000000000000 ) ) ;
#643 = CARTESIAN_POINT ( 'NONE',  ( -28.99999999999998934, 45.00000000000000000, 15.15000000000000036 ) ) ;
#644 = CARTESIAN_POINT ( 'NONE',  ( 28.99999999999999645, 0.000000000000000000, -14.85000000000000142 ) ) ;
#645 = AXIS2_PLACEMENT_3D ( 'NONE', #536, #279, #591 ) ;
#646 = ORIENTED_EDGE ( 'NONE', *, *, #666, .F. ) ;
#647 = DIRECTION ( 'NONE',  ( 0.000000000000000000, 0.000000000000000000, -1.000000000000000000 ) ) ;
#648 = DIRECTION ( 'NONE',  ( 0.000000000000000000, 0.000000000000000000, 1.000000000000000000 ) ) ;
#649 = EDGE_CURVE ( 'NONE', #412, #243, #63, .T. ) ;
#650 = ORIENTED_EDGE ( 'NONE', *, *, #185, .T. ) ;
#651 = AXIS2_PLACEMENT_3D ( 'NONE', #429, #617, #680 ) ;
#652 = CARTESIAN_POINT ( 'NONE',  ( -29.99999999999999289, 45.00000000000000000, 4.949999999999999289 ) ) ;
#653 = DIRECTION ( 'NONE',  ( -0.000000000000000000, -1.000000000000000000, -0.000000000000000000 ) ) ;
#654 = AXIS2_PLACEMENT_3D ( 'NONE', #379, #129, #503 ) ;
#655 = EDGE_CURVE ( 'NONE', #347, #327, #800, .T. ) ;
#656 = ORIENTED_EDGE ( 'NONE', *, *, #293, .T. ) ;
#657 = DIRECTION ( 'NONE',  ( 0.000000000000000000, 0.000000000000000000, -1.000000000000000000 ) ) ;
#658 = FACE_OUTER_BOUND ( 'NONE', #300, .T. ) ;
#659 = ORIENTED_EDGE ( 'NONE', *, *, #637, .T. ) ;
#660 = EDGE_CURVE ( 'NONE', #5, #489, #548, .T. ) ;
#661 = DIRECTION ( 'NONE',  ( -0.000000000000000000, -1.000000000000000000, -0.000000000000000000 ) ) ;
#662 = DIRECTION ( 'NONE',  ( 0.000000000000000000, 0.000000000000000000, 1.000000000000000000 ) ) ;
#663 = AXIS2_PLACEMENT_3D ( 'NONE', #341, #494, #35 ) ;
#664 = ORIENTED_EDGE ( 'NONE', *, *, #740, .T. ) ;
#665 = VECTOR ( 'NONE', #303, 1000.000000000000000 ) ;
#666 = EDGE_CURVE ( 'NONE', #539, #216, #34, .T. ) ;
#667 = LINE ( 'NONE', #43, #296 ) ;
#668 = CIRCLE ( 'NONE', #654, 1.000000000000000888 ) ;
#669 = EDGE_LOOP ( 'NONE', ( #176, #699, #55, #338, #65, #423, #512, #360, #646, #118, #236, #610, #204, #259, #355, #804, #469, #77, #723, #767 ) ) ;
#670 = DIRECTION ( 'NONE',  ( 0.000000000000000000, 0.000000000000000000, -1.000000000000000000 ) ) ;
#671 = EDGE_LOOP ( 'NONE', ( #121, #12, #788, #61 ) ) ;
#672 = CARTESIAN_POINT ( 'NONE',  ( 0.000000000000000000, 45.00000000000000000, 3.949999999999998845 ) ) ;
#673 = ORIENTED_EDGE ( 'NONE', *, *, #757, .F. ) ;
#674 = CIRCLE ( 'NONE', #223, 1.000000000000000000 ) ;
#675 = ORIENTED_EDGE ( 'NONE', *, *, #212, .T. ) ;
#676 = FACE_OUTER_BOUND ( 'NONE', #68, .T. ) ;
#677 = AXIS2_PLACEMENT_3D ( 'NONE', #451, #704, #198 ) ;
#678 = ORIENTED_EDGE ( 'NONE', *, *, #801, .T. ) ;
#679 = EDGE_CURVE ( 'NONE', #694, #779, #802, .T. ) ;
#680 = DIRECTION ( 'NONE',  ( 0.000000000000000000, 0.000000000000000000, 1.000000000000000000 ) ) ;
#681 = ADVANCED_BREP_SHAPE_REPRESENTATION ( 'Blank_CenterSupport_NominalFit', ( #763, #101 ), #105 ) ;
#682 = CARTESIAN_POINT ( 'NONE',  ( -29.99999999999999289, 45.00000000000000000, -14.85000000000000142 ) ) ;
#683 = CARTESIAN_POINT ( 'NONE',  ( 28.99999999999999645, 45.00000000000000000, 3.949999999999997957 ) ) ;
#684 = VECTOR ( 'NONE', #474, 1000.000000000000000 ) ;
#685 = DIRECTION ( 'NONE',  ( -0.000000000000000000, -1.000000000000000000, 0.000000000000000000 ) ) ;
#686 = DIRECTION ( 'NONE',  ( -0.000000000000000000, -1.000000000000000000, -0.000000000000000000 ) ) ;
#687 = DIRECTION ( 'NONE',  ( 0.000000000000000000, 0.000000000000000000, -1.000000000000000000 ) ) ;
#688 = ORIENTED_EDGE ( 'NONE', *, *, #293, .F. ) ;
#689 = PRODUCT_DEFINITION_SHAPE ( 'NONE', 'NONE',  #444 ) ;
#690 = EDGE_CURVE ( 'NONE', #66, #461, #486, .T. ) ;
#691 = LINE ( 'NONE', #135, #692 ) ;
#692 = VECTOR ( 'NONE', #753, 1000.000000000000000 ) ;
#693 = CARTESIAN_POINT ( 'NONE',  ( 30.00000000000000000, 0.000000000000000000, -0.000000000000000000 ) ) ;
#694 = VERTEX_POINT ( 'NONE', #248 ) ;
#695 = CIRCLE ( 'NONE', #344, 2.799999999999999822 ) ;
#696 = FACE_OUTER_BOUND ( 'NONE', #799, .T. ) ;
#697 = EDGE_CURVE ( 'NONE', #216, #66, #241, .T. ) ;
#698 = LINE ( 'NONE', #515, #39 ) ;
#699 = ORIENTED_EDGE ( 'NONE', *, *, #679, .F. ) ;
#700 = CARTESIAN_POINT ( 'NONE',  ( 20.00000000000000711, 45.00000000000000000, -4.650000000000003020 ) ) ;
#701 = DIRECTION ( 'NONE',  ( -0.000000000000000000, -1.000000000000000000, -0.000000000000000000 ) ) ;
#702 = EDGE_CURVE ( 'NONE', #477, #521, #253, .T. ) ;
#703 = ORIENTED_EDGE ( 'NONE', *, *, #421, .F. ) ;
#704 = DIRECTION ( 'NONE',  ( -1.000000000000000000, 0.000000000000000000, 0.000000000000000000 ) ) ;
#705 = LINE ( 'NONE', #103, #246 ) ;
#706 = CARTESIAN_POINT ( 'NONE',  ( 28.99999999999999645, 45.00000000000000000, 14.14999999999999858 ) ) ;
#707 = VECTOR ( 'NONE', #781, 1000.000000000000000 ) ;
#708 = ORIENTED_EDGE ( 'NONE', *, *, #535, .F. ) ;
#709 = CIRCLE ( 'NONE', #90, 1.000000000000000888 ) ;
#710 = LINE ( 'NONE', #213, #51 ) ;
#711 = CARTESIAN_POINT ( 'NONE',  ( 30.00000000000000000, 45.00000000000000000, -5.650000000000011902 ) ) ;
#712 = CARTESIAN_POINT ( 'NONE',  ( -8.962737959213520413E-16, 45.00000000000000000, -4.649999999999999467 ) ) ;
#713 = EDGE_LOOP ( 'NONE', ( #222, #641, #797, #627 ) ) ;
#714 = SURFACE_SIDE_STYLE ('',( #628 ) ) ;
#715 = EDGE_CURVE ( 'NONE', #73, #66, #177, .T. ) ;
#716 = CARTESIAN_POINT ( 'NONE',  ( 0.000000000000000000, 45.00000000000000000, 3.949999999999998845 ) ) ;
#717 = DIRECTION ( 'NONE',  ( 1.000000000000000000, 0.000000000000000000, 2.990902544787599331E-17 ) ) ;
#718 = VECTOR ( 'NONE', #356, 1000.000000000000000 ) ;
#719 = VERTEX_POINT ( 'NONE', #426 ) ;
#720 = ADVANCED_FACE ( 'NONE', ( #676 ), #67, .F. ) ;
#721 = PLANE ( 'NONE',  #19 ) ;
#722 = CARTESIAN_POINT ( 'NONE',  ( 30.00000000000000000, 45.00000000000000000, 4.949999999999997513 ) ) ;
#723 = ORIENTED_EDGE ( 'NONE', *, *, #278, .T. ) ;
#724 = CIRCLE ( 'NONE', #340, 1.000000000000000888 ) ;
#725 = DIRECTION ( 'NONE',  ( 0.000000000000000000, 1.000000000000000000, -0.000000000000000000 ) ) ;
#726 = FACE_OUTER_BOUND ( 'NONE', #713, .T. ) ;
#727 = ORIENTED_EDGE ( 'NONE', *, *, #305, .T. ) ;
#728 = CARTESIAN_POINT ( 'NONE',  ( -28.99999999999998934, 45.00000000000000000, -14.85000000000000142 ) ) ;
#729 = CARTESIAN_POINT ( 'NONE',  ( -28.99999999999998934, 0.000000000000000000, 3.949999999999998845 ) ) ;
#730 = ORIENTED_EDGE ( 'NONE', *, *, #757, .T. ) ;
#731 = EDGE_CURVE ( 'NONE', #521, #5, #674, .T. ) ;
#732 = EDGE_CURVE ( 'NONE', #307, #461, #260, .T. ) ;
#733 = CARTESIAN_POINT ( 'NONE',  ( 0.000000000000000000, 0.000000000000000000, 0.000000000000000000 ) ) ;
#734 = AXIS2_PLACEMENT_3D ( 'NONE', #498, #756, #687 ) ;
#735 = VERTEX_POINT ( 'NONE', #27 ) ;
#736 = AXIS2_PLACEMENT_3D ( 'NONE', #48, #287, #599 ) ;
#737 = CARTESIAN_POINT ( 'NONE',  ( 28.99999999999999645, 45.00000000000000000, -14.85000000000000142 ) ) ;
#738 = AXIS2_PLACEMENT_3D ( 'NONE', #644, #93, #648 ) ;
#739 = ORIENTED_EDGE ( 'NONE', *, *, #715, .F. ) ;
#740 = EDGE_CURVE ( 'NONE', #489, #461, #513, .T. ) ;
#741 = DIRECTION ( 'NONE',  ( -0.000000000000000000, -1.000000000000000000, 0.000000000000000000 ) ) ;
#742 = ORIENTED_EDGE ( 'NONE', *, *, #744, .T. ) ;
#743 = ORIENTED_EDGE ( 'NONE', *, *, #364, .T. ) ;
#744 = EDGE_CURVE ( 'NONE', #38, #376, #769, .T. ) ;
#745 = DIRECTION ( 'NONE',  ( 0.000000000000000000, 0.000000000000000000, 1.000000000000000000 ) ) ;
#746 = EDGE_LOOP ( 'NONE', ( #380, #276, #427, #252 ) ) ;
#747 = VECTOR ( 'NONE', #496, 1000.000000000000000 ) ;
#748 = FACE_OUTER_BOUND ( 'NONE', #669, .T. ) ;
#749 = EDGE_LOOP ( 'NONE', ( #57, #166, #544, #262 ) ) ;
#750 = AXIS2_PLACEMENT_3D ( 'NONE', #706, #653, #533 ) ;
#751 = CARTESIAN_POINT ( 'NONE',  ( 20.00000000000000000, 0.000000000000000000, 3.949999999999998845 ) ) ;
#752 =( NAMED_UNIT ( * ) PLANE_ANGLE_UNIT ( ) SI_UNIT ( $, .RADIAN. ) );
#753 = DIRECTION ( 'NONE',  ( 0.000000000000000000, 0.000000000000000000, -1.000000000000000000 ) ) ;
#754 = PRODUCT ( 'Blank_CenterSupport_NominalFit', 'Blank_CenterSupport_NominalFit', '', ( #768 ) ) ;
#755 = DIRECTION ( 'NONE',  ( 0.000000000000000000, 0.000000000000000000, 1.000000000000000000 ) ) ;
#756 = DIRECTION ( 'NONE',  ( -0.000000000000000000, -1.000000000000000000, -0.000000000000000000 ) ) ;
#757 = EDGE_CURVE ( 'NONE', #779, #504, #710, .T. ) ;
#758 = EDGE_LOOP ( 'NONE', ( #437, #161, #17, #297 ) ) ;
#759 = AXIS2_PLACEMENT_3D ( 'NONE', #345, #405, #358 ) ;
#760 = CARTESIAN_POINT ( 'NONE',  ( -19.99999999999998934, 45.00000000000000000, 0.000000000000000000 ) ) ;
#761 = CARTESIAN_POINT ( 'NONE',  ( -19.99999999999998934, 45.00000000000000000, 3.949999999999998845 ) ) ;
#762 = EDGE_LOOP ( 'NONE', ( #154, #89, #571, #727 ) ) ;
#763 = MANIFOLD_SOLID_BREP ( 'Boss-Extrude1', #150 ) ;
#764 = CARTESIAN_POINT ( 'NONE',  ( -8.962737959213520413E-16, 45.00000000000000000, -4.649999999999999467 ) ) ;
#765 = ORIENTED_EDGE ( 'NONE', *, *, #505, .F. ) ;
#766 = DIRECTION ( 'NONE',  ( 0.000000000000000000, 1.000000000000000000, -0.000000000000000000 ) ) ;
#767 = ORIENTED_EDGE ( 'NONE', *, *, #409, .F. ) ;
#768 = PRODUCT_CONTEXT ( 'NONE', #7, 'mechanical' ) ;
#769 = LINE ( 'NONE', #581, #707 ) ;
#770 = ADVANCED_FACE ( 'NONE', ( #457 ), #506, .F. ) ;
#771 = PLANE ( 'NONE',  #663 ) ;
#772 = LINE ( 'NONE', #32, #10 ) ;
#773 = ORIENTED_EDGE ( 'NONE', *, *, #160, .T. ) ;
#774 = VECTOR ( 'NONE', #782, 1000.000000000000000 ) ;
#775 = FILL_AREA_STYLE ('',( #95 ) ) ;
#776 = AXIS2_PLACEMENT_3D ( 'NONE', #124, #502, #377 ) ;
#777 = DIRECTION ( 'NONE',  ( 1.000000000000000000, 0.000000000000000000, 5.981805089575198662E-17 ) ) ;
#778 = CYLINDRICAL_SURFACE ( 'NONE', #750, 1.000000000000000888 ) ;
#779 = VERTEX_POINT ( 'NONE', #443 ) ;
#780 = VECTOR ( 'NONE', #686, 1000.000000000000000 ) ;
#781 = DIRECTION ( 'NONE',  ( 1.000000000000000000, 0.000000000000000000, -1.927470528863122500E-16 ) ) ;
#782 = DIRECTION ( 'NONE',  ( -8.068481283613054808E-16, 0.000000000000000000, 1.000000000000000000 ) ) ;
#783 = LINE ( 'NONE', #215, #526 ) ;
#784 = VERTEX_POINT ( 'NONE', #700 ) ;
#785 = ADVANCED_FACE ( 'NONE', ( #696 ), #151, .F. ) ;
#786 = LINE ( 'NONE', #419, #219 ) ;
#787 = CARTESIAN_POINT ( 'NONE',  ( -19.99999999999998934, 45.00000000000000000, 0.000000000000000000 ) ) ;
#788 = ORIENTED_EDGE ( 'NONE', *, *, #697, .T. ) ;
#789 = VECTOR ( 'NONE', #1, 1000.000000000000000 ) ;
#790 = FACE_OUTER_BOUND ( 'NONE', #2, .T. ) ;
#791 = CYLINDRICAL_SURFACE ( 'NONE', #277, 1.000000000000000888 ) ;
#792 = ORIENTED_EDGE ( 'NONE', *, *, #181, .F. ) ;
#793 = CARTESIAN_POINT ( 'NONE',  ( -29.99999999999999289, 45.00000000000000000, 4.949999999999999289 ) ) ;
#794 = CARTESIAN_POINT ( 'NONE',  ( -28.99999999999998579, 45.00000000000000000, -4.650000000000001243 ) ) ;
#795 = ORIENTED_EDGE ( 'NONE', *, *, #185, .F. ) ;
#796 = DIRECTION ( 'NONE',  ( 2.990902544787599948E-17, 0.000000000000000000, -1.000000000000000000 ) ) ;
#797 = ORIENTED_EDGE ( 'NONE', *, *, #328, .T. ) ;
#798 = DIRECTION ( 'NONE',  ( -0.000000000000000000, -1.000000000000000000, -0.000000000000000000 ) ) ;
#799 = EDGE_LOOP ( 'NONE', ( #407, #795, #125, #424 ) ) ;
#800 = CIRCLE ( 'NONE', #622, 1.000000000000000888 ) ;
#801 = EDGE_CURVE ( 'NONE', #563, #573, #383, .T. ) ;
#802 = LINE ( 'NONE', #362, #321 ) ;
#803 = VECTOR ( 'NONE', #70, 1000.000000000000000 ) ;
#804 = ORIENTED_EDGE ( 'NONE', *, *, #328, .F. ) ;
#805 = EDGE_CURVE ( 'NONE', #412, #21, #724, .T. ) ;
ENDSEC;
END-ISO-10303-21;
