ISO-10303-21;
HEADER;
FILE_DESCRIPTION (( 'STEP AP214' ),
    '1' );
FILE_NAME ('Blank_CenterSupport_TightFit.STEP',
    '2026-08-24T00:42:12',
    ( '' ),
    ( '' ),
    'SwSTEP 2.0',
    'SolidWorks 2026',
    '' );
FILE_SCHEMA (( 'AUTOMOTIVE_DESIGN' ));
ENDSEC;

DATA;
#1 = EDGE_CURVE ( 'NONE', #298, #372, #33, .T. ) ;
#2 = CARTESIAN_POINT ( 'NONE',  ( -19.99999999999998934, 0.000000000000000000, 0.000000000000000000 ) ) ;
#3 = ORIENTED_EDGE ( 'NONE', *, *, #610, .T. ) ;
#4 = CARTESIAN_POINT ( 'NONE',  ( 3.429011037612588290E-16, 45.00000000000000000, 2.799999999999999822 ) ) ;
#5 = CARTESIAN_POINT ( 'NONE',  ( -8.962737959213520413E-16, 45.00000000000000000, -4.649999999999999467 ) ) ;
#6 = CIRCLE ( 'NONE', #107, 1.000000000000000888 ) ;
#7 = ORIENTED_EDGE ( 'NONE', *, *, #347, .T. ) ;
#8 = CYLINDRICAL_SURFACE ( 'NONE', #189, 0.9999999999999991118 ) ;
#9 = CARTESIAN_POINT ( 'NONE',  ( 20.00000000000000711, 45.00000000000000000, -4.650000000000003020 ) ) ;
#10 = EDGE_CURVE ( 'NONE', #537, #541, #305, .T. ) ;
#11 = CARTESIAN_POINT ( 'NONE',  ( 20.00000000000000711, 45.00000000000000000, -4.650000000000003020 ) ) ;
#12 = DIRECTION ( 'NONE',  ( 0.000000000000000000, 0.000000000000000000, 1.000000000000000000 ) ) ;
#13 = DIRECTION ( 'NONE',  ( 0.000000000000000000, 0.000000000000000000, -1.000000000000000000 ) ) ;
#14 = CARTESIAN_POINT ( 'NONE',  ( -19.99999999999998934, 45.00000000000000000, 0.000000000000000000 ) ) ;
#15 = EDGE_LOOP ( 'NONE', ( #416, #110, #175, #220 ) ) ;
#16 = AXIS2_PLACEMENT_3D ( 'NONE', #692, #626, #757 ) ;
#17 = AXIS2_PLACEMENT_3D ( 'NONE', #454, #74, #322 ) ;
#18 = CARTESIAN_POINT ( 'NONE',  ( -19.99999999999998934, 45.00000000000000000, 3.549999999999997602 ) ) ;
#19 = DIRECTION ( 'NONE',  ( 0.000000000000000000, 0.000000000000000000, 1.000000000000000000 ) ) ;
#20 = ADVANCED_FACE ( 'NONE', ( #565, #543 ), #99, .F. ) ;
#21 = PRESENTATION_LAYER_ASSIGNMENT (  '', '', ( #227 ) ) ;
#22 = DIRECTION ( 'NONE',  ( 0.000000000000000000, 1.000000000000000000, -0.000000000000000000 ) ) ;
#23 = EDGE_CURVE ( 'NONE', #166, #528, #478, .T. ) ;
#24 = CARTESIAN_POINT ( 'NONE',  ( -28.99999999999998934, 45.00000000000000000, 14.94999999999999574 ) ) ;
#25 = DIRECTION ( 'NONE',  ( 0.000000000000000000, 0.000000000000000000, -1.000000000000000000 ) ) ;
#26 = VECTOR ( 'NONE', #758, 1000.000000000000000 ) ;
#27 = VECTOR ( 'NONE', #36, 1000.000000000000000 ) ;
#28 = ORIENTED_EDGE ( 'NONE', *, *, #712, .F. ) ;
#29 = FILL_AREA_STYLE_COLOUR ( '', #343 ) ;
#30 = ADVANCED_FACE ( 'NONE', ( #428 ), #727, .T. ) ;
#31 = EDGE_LOOP ( 'NONE', ( #112, #498, #331, #406 ) ) ;
#32 = EDGE_LOOP ( 'NONE', ( #116, #784, #549, #487 ) ) ;
#33 = LINE ( 'NONE', #618, #755 ) ;
#34 = VERTEX_POINT ( 'NONE', #45 ) ;
#35 = AXIS2_PLACEMENT_3D ( 'NONE', #375, #570, #689 ) ;
#36 = DIRECTION ( 'NONE',  ( -0.000000000000000000, -1.000000000000000000, -0.000000000000000000 ) ) ;
#37 = ADVANCED_FACE ( 'NONE', ( #604 ), #364, .T. ) ;
#38 = CIRCLE ( 'NONE', #587, 2.799999999999999822 ) ;
#39 = ORIENTED_EDGE ( 'NONE', *, *, #1, .T. ) ;
#40 = DIRECTION ( 'NONE',  ( 0.000000000000000000, 1.000000000000000000, -0.000000000000000000 ) ) ;
#41 = DIRECTION ( 'NONE',  ( -0.000000000000000000, -1.000000000000000000, -0.000000000000000000 ) ) ;
#42 = AXIS2_PLACEMENT_3D ( 'NONE', #783, #40, #225 ) ;
#43 = EDGE_CURVE ( 'NONE', #89, #427, #360, .T. ) ;
#44 = ORIENTED_EDGE ( 'NONE', *, *, #358, .F. ) ;
#45 = CARTESIAN_POINT ( 'NONE',  ( 28.99999999999998934, 0.000000000000000000, -4.650000000000004796 ) ) ;
#46 = CARTESIAN_POINT ( 'NONE',  ( 28.99999999999999645, 0.000000000000000000, -16.04999999999999716 ) ) ;
#47 = ORIENTED_EDGE ( 'NONE', *, *, #445, .T. ) ;
#48 = FACE_OUTER_BOUND ( 'NONE', #741, .T. ) ;
#49 = CARTESIAN_POINT ( 'NONE',  ( 0.000000000000000000, 45.00000000000000000, -4.650000000000001243 ) ) ;
#50 = ORIENTED_EDGE ( 'NONE', *, *, #390, .F. ) ;
#51 = ORIENTED_EDGE ( 'NONE', *, *, #232, .F. ) ;
#52 = DIRECTION ( 'NONE',  ( 1.000000000000000000, 0.000000000000000000, 0.000000000000000000 ) ) ;
#53 = EDGE_CURVE ( 'NONE', #372, #103, #326, .T. ) ;
#54 = DIRECTION ( 'NONE',  ( 0.000000000000000000, 0.000000000000000000, -1.000000000000000000 ) ) ;
#55 = DIRECTION ( 'NONE',  ( 0.000000000000000000, 0.000000000000000000, 1.000000000000000000 ) ) ;
#56 = VECTOR ( 'NONE', #67, 1000.000000000000000 ) ;
#57 = VERTEX_POINT ( 'NONE', #18 ) ;
#58 =( NAMED_UNIT ( * ) SI_UNIT ( $, .STERADIAN. ) SOLID_ANGLE_UNIT ( ) );
#59 = CARTESIAN_POINT ( 'NONE',  ( 30.00000000000000000, 45.00000000000000000, -5.650000000000011902 ) ) ;
#60 = LINE ( 'NONE', #226, #724 ) ;
#61 = ORIENTED_EDGE ( 'NONE', *, *, #786, .F. ) ;
#62 = DIRECTION ( 'NONE',  ( -0.000000000000000000, -1.000000000000000000, -0.000000000000000000 ) ) ;
#63 = EDGE_CURVE ( 'NONE', #304, #427, #378, .T. ) ;
#64 = MANIFOLD_SOLID_BREP ( 'Boss-Extrude1', #800 ) ;
#65 = CARTESIAN_POINT ( 'NONE',  ( -29.99999999999999289, 0.000000000000000000, -5.650000000000008349 ) ) ;
#66 = ADVANCED_FACE ( 'NONE', ( #429 ), #146, .T. ) ;
#67 = DIRECTION ( 'NONE',  ( -0.000000000000000000, -1.000000000000000000, -0.000000000000000000 ) ) ;
#68 = VECTOR ( 'NONE', #41, 1000.000000000000000 ) ;
#69 = ORIENTED_EDGE ( 'NONE', *, *, #151, .T. ) ;
#70 = AXIS2_PLACEMENT_3D ( 'NONE', #407, #267, #78 ) ;
#71 = CARTESIAN_POINT ( 'NONE',  ( -28.99999999999998934, 0.000000000000000000, 13.94999999999999929 ) ) ;
#72 = FACE_OUTER_BOUND ( 'NONE', #15, .T. ) ;
#73 = ORIENTED_EDGE ( 'NONE', *, *, #82, .T. ) ;
#74 = DIRECTION ( 'NONE',  ( 0.000000000000000000, 1.000000000000000000, -0.000000000000000000 ) ) ;
#75 = CARTESIAN_POINT ( 'NONE',  ( 0.000000000000000000, 45.00000000000000000, 14.94999999999999574 ) ) ;
#76 = CYLINDRICAL_SURFACE ( 'NONE', #651, 1.000000000000000000 ) ;
#77 = ADVANCED_FACE ( 'NONE', ( #290 ), #434, .F. ) ;
#78 = DIRECTION ( 'NONE',  ( 0.000000000000000000, 0.000000000000000000, 1.000000000000000000 ) ) ;
#79 = DIRECTION ( 'NONE',  ( 0.000000000000000000, 0.000000000000000000, -1.000000000000000000 ) ) ;
#80 = AXIS2_PLACEMENT_3D ( 'NONE', #344, #538, #193 ) ;
#81 = APPLICATION_CONTEXT ( 'automotive_design' ) ;
#82 = EDGE_CURVE ( 'NONE', #686, #270, #299, .T. ) ;
#83 = DIRECTION ( 'NONE',  ( 0.000000000000000000, 0.000000000000000000, 1.000000000000000000 ) ) ;
#84 = DIRECTION ( 'NONE',  ( -0.000000000000000000, -1.000000000000000000, -0.000000000000000000 ) ) ;
#85 = CARTESIAN_POINT ( 'NONE',  ( 0.000000000000000000, 45.00000000000000000, 0.000000000000000000 ) ) ;
#86 = DIRECTION ( 'NONE',  ( -0.000000000000000000, -1.000000000000000000, -0.000000000000000000 ) ) ;
#87 = EDGE_CURVE ( 'NONE', #34, #473, #623, .T. ) ;
#88 = ORIENTED_EDGE ( 'NONE', *, *, #337, .F. ) ;
#89 = VERTEX_POINT ( 'NONE', #548 ) ;
#90 = ADVANCED_FACE ( 'NONE', ( #616 ), #126, .F. ) ;
#91 = CIRCLE ( 'NONE', #300, 0.9999999999999991118 ) ;
#92 = AXIS2_PLACEMENT_3D ( 'NONE', #525, #457, #323 ) ;
#93 = FACE_OUTER_BOUND ( 'NONE', #695, .T. ) ;
#94 =( GEOMETRIC_REPRESENTATION_CONTEXT ( 3 ) GLOBAL_UNCERTAINTY_ASSIGNED_CONTEXT ( ( #168 ) ) GLOBAL_UNIT_ASSIGNED_CONTEXT ( ( #115, #624, #58 ) ) REPRESENTATION_CONTEXT ( 'NONE', 'WORKASPACE' ) );
#95 = ORIENTED_EDGE ( 'NONE', *, *, #770, .T. ) ;
#96 = SURFACE_STYLE_USAGE ( .BOTH. , #401 ) ;
#97 = VERTEX_POINT ( 'NONE', #120 ) ;
#98 = EDGE_LOOP ( 'NONE', ( #228, #158 ) ) ;
#99 = PLANE ( 'NONE',  #42 ) ;
#100 = ORIENTED_EDGE ( 'NONE', *, *, #700, .T. ) ;
#101 = DIRECTION ( 'NONE',  ( -0.000000000000000000, -1.000000000000000000, -0.000000000000000000 ) ) ;
#102 = ORIENTED_EDGE ( 'NONE', *, *, #770, .F. ) ;
#103 = VERTEX_POINT ( 'NONE', #370 ) ;
#104 = DIRECTION ( 'NONE',  ( -1.000000000000000000, 0.000000000000000000, -0.000000000000000000 ) ) ;
#105 = ORIENTED_EDGE ( 'NONE', *, *, #751, .F. ) ;
#106 = EDGE_CURVE ( 'NONE', #621, #799, #307, .T. ) ;
#107 = AXIS2_PLACEMENT_3D ( 'NONE', #269, #707, #212 ) ;
#108 = CARTESIAN_POINT ( 'NONE',  ( 0.000000000000000000, 45.00000000000000000, -2.799999999999999822 ) ) ;
#109 = VERTEX_POINT ( 'NONE', #46 ) ;
#110 = ORIENTED_EDGE ( 'NONE', *, *, #718, .F. ) ;
#111 = LINE ( 'NONE', #480, #136 ) ;
#112 = ORIENTED_EDGE ( 'NONE', *, *, #734, .T. ) ;
#113 = LINE ( 'NONE', #49, #490 ) ;
#114 = DIRECTION ( 'NONE',  ( -4.818676322157797621E-17, 0.000000000000000000, -1.000000000000000000 ) ) ;
#115 =( LENGTH_UNIT ( ) NAMED_UNIT ( * ) SI_UNIT ( .MILLI., .METRE. ) );
#116 = ORIENTED_EDGE ( 'NONE', *, *, #709, .T. ) ;
#117 =( NAMED_UNIT ( * ) SI_UNIT ( $, .STERADIAN. ) SOLID_ANGLE_UNIT ( ) );
#118 = DIRECTION ( 'NONE',  ( 0.000000000000000000, 0.000000000000000000, -1.000000000000000000 ) ) ;
#119 = ADVANCED_FACE ( 'NONE', ( #423 ), #241, .F. ) ;
#120 = CARTESIAN_POINT ( 'NONE',  ( 30.00000000000000000, 0.000000000000000000, 13.94999999999999751 ) ) ;
#121 = ORIENTED_EDGE ( 'NONE', *, *, #184, .F. ) ;
#122 = LINE ( 'NONE', #297, #357 ) ;
#123 = DIRECTION ( 'NONE',  ( 0.000000000000000000, 0.000000000000000000, -1.000000000000000000 ) ) ;
#124 = CIRCLE ( 'NONE', #586, 1.000000000000000000 ) ;
#125 = AXIS2_PLACEMENT_3D ( 'NONE', #774, #462, #710 ) ;
#126 = PLANE ( 'NONE',  #658 ) ;
#127 = CARTESIAN_POINT ( 'NONE',  ( -28.99999999999998934, 0.000000000000000000, -16.05000000000000071 ) ) ;
#128 = DIRECTION ( 'NONE',  ( 0.000000000000000000, 1.000000000000000000, -0.000000000000000000 ) ) ;
#129 = CARTESIAN_POINT ( 'NONE',  ( 0.000000000000000000, 45.00000000000000000, 3.549999999999997602 ) ) ;
#130 = ORIENTED_EDGE ( 'NONE', *, *, #466, .T. ) ;
#131 = EDGE_CURVE ( 'NONE', #166, #97, #494, .T. ) ;
#132 = DIRECTION ( 'NONE',  ( 0.000000000000000000, 0.000000000000000000, -1.000000000000000000 ) ) ;
#133 = CARTESIAN_POINT ( 'NONE',  ( 28.99999999999999645, 45.00000000000000000, 4.549999999999998046 ) ) ;
#134 = ORIENTED_EDGE ( 'NONE', *, *, #656, .F. ) ;
#135 = CARTESIAN_POINT ( 'NONE',  ( 20.00000000000000355, 45.00000000000000000, 1.692413147294446246E-14 ) ) ;
#136 = VECTOR ( 'NONE', #665, 1000.000000000000000 ) ;
#137 = DIRECTION ( 'NONE',  ( -0.000000000000000000, -1.000000000000000000, -0.000000000000000000 ) ) ;
#138 = AXIS2_PLACEMENT_3D ( 'NONE', #697, #140, #13 ) ;
#139 = ORIENTED_EDGE ( 'NONE', *, *, #334, .T. ) ;
#140 = DIRECTION ( 'NONE',  ( -0.000000000000000000, -1.000000000000000000, -0.000000000000000000 ) ) ;
#141 = CARTESIAN_POINT ( 'NONE',  ( -29.99999999999999289, 45.00000000000000000, 13.94999999999999929 ) ) ;
#142 = ADVANCED_FACE ( 'NONE', ( #499 ), #605, .T. ) ;
#143 = ORIENTED_EDGE ( 'NONE', *, *, #751, .T. ) ;
#144 = CARTESIAN_POINT ( 'NONE',  ( 9.600797168768196700E-16, 0.000000000000000000, -16.05000000000000071 ) ) ;
#145 = DIRECTION ( 'NONE',  ( 1.000000000000000000, -0.000000000000000000, 8.462065736472230835E-16 ) ) ;
#146 = CYLINDRICAL_SURFACE ( 'NONE', #698, 1.000000000000000000 ) ;
#147 = FACE_BOUND ( 'NONE', #98, .T. ) ;
#148 = AXIS2_PLACEMENT_3D ( 'NONE', #638, #768, #201 ) ;
#149 = VECTOR ( 'NONE', #485, 1000.000000000000000 ) ;
#150 = ORIENTED_EDGE ( 'NONE', *, *, #334, .F. ) ;
#151 = EDGE_CURVE ( 'NONE', #369, #537, #60, .T. ) ;
#152 = LINE ( 'NONE', #405, #330 ) ;
#153 = VECTOR ( 'NONE', #557, 1000.000000000000000 ) ;
#154 = VERTEX_POINT ( 'NONE', #569 ) ;
#155 = DIRECTION ( 'NONE',  ( -0.000000000000000000, -1.000000000000000000, -0.000000000000000000 ) ) ;
#156 = EDGE_CURVE ( 'NONE', #255, #664, #111, .T. ) ;
#157 = CARTESIAN_POINT ( 'NONE',  ( 30.00000000000000000, 45.00000000000000000, 4.549999999999998046 ) ) ;
#158 = ORIENTED_EDGE ( 'NONE', *, *, #579, .F. ) ;
#159 = LINE ( 'NONE', #482, #204 ) ;
#160 = VECTOR ( 'NONE', #717, 1000.000000000000000 ) ;
#161 = VECTOR ( 'NONE', #206, 1000.000000000000000 ) ;
#162 = ORIENTED_EDGE ( 'NONE', *, *, #308, .T. ) ;
#163 = ORIENTED_EDGE ( 'NONE', *, *, #786, .T. ) ;
#164 = EDGE_CURVE ( 'NONE', #508, #541, #355, .T. ) ;
#165 = VECTOR ( 'NONE', #744, 1000.000000000000000 ) ;
#166 = VERTEX_POINT ( 'NONE', #787 ) ;
#167 = SHAPE_DEFINITION_REPRESENTATION ( #636, #721 ) ;
#168 = UNCERTAINTY_MEASURE_WITH_UNIT (LENGTH_MEASURE( 1.000000000000000082E-05 ), #115, 'distance_accuracy_value', 'NONE');
#169 = CARTESIAN_POINT ( 'NONE',  ( -29.99999999999999289, 45.00000000000000000, 0.000000000000000000 ) ) ;
#170 = VERTEX_POINT ( 'NONE', #732 ) ;
#171 = DIRECTION ( 'NONE',  ( -0.000000000000000000, -1.000000000000000000, -0.000000000000000000 ) ) ;
#172 = ORIENTED_EDGE ( 'NONE', *, *, #43, .F. ) ;
#173 = DIRECTION ( 'NONE',  ( -0.000000000000000000, -1.000000000000000000, -0.000000000000000000 ) ) ;
#174 = CARTESIAN_POINT ( 'NONE',  ( -28.99999999999998934, 0.000000000000000000, 14.94999999999999574 ) ) ;
#175 = ORIENTED_EDGE ( 'NONE', *, *, #232, .T. ) ;
#176 = CARTESIAN_POINT ( 'NONE',  ( 9.600797168768196700E-16, 45.00000000000000000, -16.05000000000000071 ) ) ;
#177 = VECTOR ( 'NONE', #701, 1000.000000000000000 ) ;
#178 =( GEOMETRIC_REPRESENTATION_CONTEXT ( 3 ) GLOBAL_UNCERTAINTY_ASSIGNED_CONTEXT ( ( #699 ) ) GLOBAL_UNIT_ASSIGNED_CONTEXT ( ( #730, #674, #117 ) ) REPRESENTATION_CONTEXT ( 'NONE', 'WORKASPACE' ) );
#179 = ORIENTED_EDGE ( 'NONE', *, *, #295, .T. ) ;
#180 = VERTEX_POINT ( 'NONE', #174 ) ;
#181 = ORIENTED_EDGE ( 'NONE', *, *, #683, .F. ) ;
#182 = DIRECTION ( 'NONE',  ( 0.000000000000000000, 0.000000000000000000, 1.000000000000000000 ) ) ;
#183 = CARTESIAN_POINT ( 'NONE',  ( -29.99999999999999289, 45.00000000000000000, -5.650000000000008349 ) ) ;
#184 = EDGE_CURVE ( 'NONE', #154, #743, #670, .T. ) ;
#185 = DIRECTION ( 'NONE',  ( -0.000000000000000000, -1.000000000000000000, -0.000000000000000000 ) ) ;
#186 = DIRECTION ( 'NONE',  ( -0.000000000000000000, -1.000000000000000000, -0.000000000000000000 ) ) ;
#187 = ORIENTED_EDGE ( 'NONE', *, *, #371, .T. ) ;
#188 = DIRECTION ( 'NONE',  ( -0.000000000000000000, -1.000000000000000000, 0.000000000000000000 ) ) ;
#189 = AXIS2_PLACEMENT_3D ( 'NONE', #441, #380, #132 ) ;
#190 = VECTOR ( 'NONE', #86, 1000.000000000000000 ) ;
#191 = CARTESIAN_POINT ( 'NONE',  ( 20.00000000000000355, 45.00000000000000000, 1.692413147294446246E-14 ) ) ;
#192 = EDGE_CURVE ( 'NONE', #617, #595, #635, .T. ) ;
#193 = DIRECTION ( 'NONE',  ( 0.000000000000000000, 0.000000000000000000, 1.000000000000000000 ) ) ;
#194 = CARTESIAN_POINT ( 'NONE',  ( 9.600797168768196700E-16, 45.00000000000000000, -16.05000000000000071 ) ) ;
#195 = ORIENTED_EDGE ( 'NONE', *, *, #718, .T. ) ;
#196 = EDGE_CURVE ( 'NONE', #789, #470, #639, .T. ) ;
#197 = LINE ( 'NONE', #135, #286 ) ;
#198 = CARTESIAN_POINT ( 'NONE',  ( 20.00000000000000711, 0.000000000000000000, -4.650000000000003020 ) ) ;
#199 = EDGE_LOOP ( 'NONE', ( #342, #312, #708, #481, #39, #511, #217, #716, #412, #598, #3, #7, #488, #362, #213, #102, #688, #531, #430, #614 ) ) ;
#200 = DIRECTION ( 'NONE',  ( -0.000000000000000000, -1.000000000000000000, -0.000000000000000000 ) ) ;
#201 = DIRECTION ( 'NONE',  ( -1.000000000000000000, 0.000000000000000000, 1.927470528863122746E-16 ) ) ;
#202 = VECTOR ( 'NONE', #245, 1000.000000000000000 ) ;
#203 = DIRECTION ( 'NONE',  ( 0.000000000000000000, 0.000000000000000000, -1.000000000000000000 ) ) ;
#204 = VECTOR ( 'NONE', #792, 1000.000000000000000 ) ;
#205 = MECHANICAL_DESIGN_GEOMETRIC_PRESENTATION_REPRESENTATION (  '', ( #227 ), #94 ) ;
#206 = DIRECTION ( 'NONE',  ( -0.000000000000000000, -1.000000000000000000, -0.000000000000000000 ) ) ;
#207 = EDGE_CURVE ( 'NONE', #617, #57, #685, .T. ) ;
#208 = DIRECTION ( 'NONE',  ( 1.000000000000000000, 0.000000000000000000, 5.981805089575198662E-17 ) ) ;
#209 = CARTESIAN_POINT ( 'NONE',  ( 28.99999999999999645, 45.00000000000000000, -5.650000000000004796 ) ) ;
#210 = CARTESIAN_POINT ( 'NONE',  ( 30.00000000000000000, 0.000000000000000000, 0.000000000000000000 ) ) ;
#211 = EDGE_CURVE ( 'NONE', #625, #304, #660, .T. ) ;
#212 = DIRECTION ( 'NONE',  ( 0.000000000000000000, 0.000000000000000000, 1.000000000000000000 ) ) ;
#213 = ORIENTED_EDGE ( 'NONE', *, *, #196, .F. ) ;
#214 = VECTOR ( 'NONE', #273, 1000.000000000000000 ) ;
#215 = EDGE_CURVE ( 'NONE', #678, #686, #275, .T. ) ;
#216 = CIRCLE ( 'NONE', #17, 1.000000000000000000 ) ;
#217 = ORIENTED_EDGE ( 'NONE', *, *, #507, .T. ) ;
#218 = DIRECTION ( 'NONE',  ( 0.000000000000000000, 1.000000000000000000, -0.000000000000000000 ) ) ;
#219 = ORIENTED_EDGE ( 'NONE', *, *, #693, .F. ) ;
#220 = ORIENTED_EDGE ( 'NONE', *, *, #358, .T. ) ;
#221 = VERTEX_POINT ( 'NONE', #444 ) ;
#222 = CIRCLE ( 'NONE', #645, 0.9999999999999991118 ) ;
#223 = APPLICATION_PROTOCOL_DEFINITION ( 'draft international standard', 'automotive_design', 1998, #533 ) ;
#224 = AXIS2_PLACEMENT_3D ( 'NONE', #289, #173, #669 ) ;
#225 = DIRECTION ( 'NONE',  ( 0.000000000000000000, 0.000000000000000000, 1.000000000000000000 ) ) ;
#226 = CARTESIAN_POINT ( 'NONE',  ( 0.000000000000000000, 45.00000000000000000, -2.799999999999999822 ) ) ;
#227 = STYLED_ITEM ( 'NONE', ( #346 ), #64 ) ;
#228 = ORIENTED_EDGE ( 'NONE', *, *, #602, .F. ) ;
#229 = CYLINDRICAL_SURFACE ( 'NONE', #559, 2.799999999999999822 ) ;
#230 = EDGE_LOOP ( 'NONE', ( #632, #578, #777, #179 ) ) ;
#231 = DIRECTION ( 'NONE',  ( 0.000000000000000000, 0.000000000000000000, -1.000000000000000000 ) ) ;
#232 = EDGE_CURVE ( 'NONE', #252, #221, #381, .T. ) ;
#233 = EDGE_LOOP ( 'NONE', ( #393, #804, #662, #195 ) ) ;
#234 = EDGE_LOOP ( 'NONE', ( #73, #591, #778, #274 ) ) ;
#235 = EDGE_CURVE ( 'NONE', #772, #789, #458, .T. ) ;
#236 = CARTESIAN_POINT ( 'NONE',  ( 30.00000000000000000, 45.00000000000000000, 0.000000000000000000 ) ) ;
#237 = CARTESIAN_POINT ( 'NONE',  ( 0.000000000000000000, 45.00000000000000000, 14.94999999999999574 ) ) ;
#238 = PLANE ( 'NONE',  #740 ) ;
#239 = CYLINDRICAL_SURFACE ( 'NONE', #644, 1.000000000000000000 ) ;
#240 = CARTESIAN_POINT ( 'NONE',  ( 0.000000000000000000, 0.000000000000000000, 0.000000000000000000 ) ) ;
#241 = PLANE ( 'NONE',  #520 ) ;
#242 = ORIENTED_EDGE ( 'NONE', *, *, #571, .F. ) ;
#243 = CARTESIAN_POINT ( 'NONE',  ( -19.99999999999998934, 45.00000000000000000, 3.549999999999997602 ) ) ;
#244 = ADVANCED_FACE ( 'NONE', ( #72 ), #251, .T. ) ;
#245 = DIRECTION ( 'NONE',  ( 1.000000000000000000, 0.000000000000000000, -4.818676322157797005E-17 ) ) ;
#246 = ORIENTED_EDGE ( 'NONE', *, *, #256, .T. ) ;
#247 = CARTESIAN_POINT ( 'NONE',  ( 28.99999999999999645, 45.00000000000000000, -15.05000000000000071 ) ) ;
#248 = CARTESIAN_POINT ( 'NONE',  ( -28.99999999999998934, 45.00000000000000000, 4.549999999999998046 ) ) ;
#249 = VECTOR ( 'NONE', #137, 1000.000000000000000 ) ;
#250 = ADVANCED_FACE ( 'NONE', ( #315 ), #765, .F. ) ;
#251 = PLANE ( 'NONE',  #737 ) ;
#252 = VERTEX_POINT ( 'NONE', #452 ) ;
#253 = AXIS2_PLACEMENT_3D ( 'NONE', #306, #114, #790 ) ;
#254 = DIRECTION ( 'NONE',  ( -1.000000000000000000, 0.000000000000000000, -0.000000000000000000 ) ) ;
#255 = VERTEX_POINT ( 'NONE', #141 ) ;
#256 = EDGE_CURVE ( 'NONE', #772, #57, #502, .T. ) ;
#257 = DIRECTION ( 'NONE',  ( 0.000000000000000000, 0.000000000000000000, -1.000000000000000000 ) ) ;
#258 = DIRECTION ( 'NONE',  ( 0.000000000000000000, 0.000000000000000000, 1.000000000000000000 ) ) ;
#259 = LINE ( 'NONE', #703, #560 ) ;
#260 = EDGE_CURVE ( 'NONE', #743, #109, #447, .T. ) ;
#261 = CARTESIAN_POINT ( 'NONE',  ( -29.99999999999999289, 45.00000000000000000, 0.000000000000000000 ) ) ;
#262 = LINE ( 'NONE', #545, #27 ) ;
#263 = DIRECTION ( 'NONE',  ( 1.000000000000000000, 0.000000000000000000, 0.000000000000000000 ) ) ;
#264 = VECTOR ( 'NONE', #84, 1000.000000000000000 ) ;
#265 = VERTEX_POINT ( 'NONE', #324 ) ;
#266 = CARTESIAN_POINT ( 'NONE',  ( 0.000000000000000000, 0.000000000000000000, 3.549999999999997602 ) ) ;
#267 = DIRECTION ( 'NONE',  ( 0.000000000000000000, 1.000000000000000000, -0.000000000000000000 ) ) ;
#268 = AXIS2_PLACEMENT_3D ( 'NONE', #803, #619, #566 ) ;
#269 = CARTESIAN_POINT ( 'NONE',  ( 28.99999999999999645, 0.000000000000000000, 13.94999999999999751 ) ) ;
#270 = VERTEX_POINT ( 'NONE', #65 ) ;
#271 = EDGE_CURVE ( 'NONE', #221, #528, #516, .T. ) ;
#272 = ORIENTED_EDGE ( 'NONE', *, *, #466, .F. ) ;
#273 = DIRECTION ( 'NONE',  ( 0.000000000000000000, 0.000000000000000000, 1.000000000000000000 ) ) ;
#274 = ORIENTED_EDGE ( 'NONE', *, *, #693, .T. ) ;
#275 = CIRCLE ( 'NONE', #439, 0.9999999999999991118 ) ;
#276 = FACE_OUTER_BOUND ( 'NONE', #785, .T. ) ;
#277 = VERTEX_POINT ( 'NONE', #514 ) ;
#278 = FILL_AREA_STYLE ('',( #29 ) ) ;
#279 = ADVANCED_FACE ( 'NONE', ( #519 ), #575, .T. ) ;
#280 = CARTESIAN_POINT ( 'NONE',  ( 30.00000000000000000, 45.00000000000000000, 0.000000000000000000 ) ) ;
#281 = DIRECTION ( 'NONE',  ( 0.000000000000000000, 0.000000000000000000, -1.000000000000000000 ) ) ;
#282 = ORIENTED_EDGE ( 'NONE', *, *, #553, .T. ) ;
#283 = SURFACE_STYLE_FILL_AREA ( #278 ) ;
#284 = EDGE_LOOP ( 'NONE', ( #779, #44, #293, #143 ) ) ;
#285 = DIRECTION ( 'NONE',  ( 0.000000000000000000, 1.000000000000000000, -0.000000000000000000 ) ) ;
#286 = VECTOR ( 'NONE', #310, 1000.000000000000000 ) ;
#287 = VECTOR ( 'NONE', #588, 1000.000000000000000 ) ;
#288 = ADVANCED_FACE ( 'NONE', ( #395 ), #76, .T. ) ;
#289 = CARTESIAN_POINT ( 'NONE',  ( 28.99999999999999645, 45.00000000000000000, 4.549999999999998046 ) ) ;
#290 = FACE_OUTER_BOUND ( 'NONE', #491, .T. ) ;
#291 = EDGE_LOOP ( 'NONE', ( #424, #354, #69, #524 ) ) ;
#292 = CARTESIAN_POINT ( 'NONE',  ( -28.99999999999998579, 45.00000000000000000, -4.650000000000001243 ) ) ;
#293 = ORIENTED_EDGE ( 'NONE', *, *, #271, .T. ) ;
#294 = EDGE_LOOP ( 'NONE', ( #672, #387 ) ) ;
#295 = EDGE_CURVE ( 'NONE', #625, #298, #329, .T. ) ;
#296 = DIRECTION ( 'NONE',  ( 0.000000000000000000, 0.000000000000000000, -1.000000000000000000 ) ) ;
#297 = CARTESIAN_POINT ( 'NONE',  ( -29.99999999999999289, 45.00000000000000000, 0.000000000000000000 ) ) ;
#298 = VERTEX_POINT ( 'NONE', #198 ) ;
#299 = LINE ( 'NONE', #489, #451 ) ;
#300 = AXIS2_PLACEMENT_3D ( 'NONE', #802, #128, #55 ) ;
#301 = DIRECTION ( 'NONE',  ( 1.000000000000000000, 0.000000000000000000, 0.000000000000000000 ) ) ;
#302 = VECTOR ( 'NONE', #185, 1000.000000000000000 ) ;
#303 = CARTESIAN_POINT ( 'NONE',  ( -28.99999999999998934, 0.000000000000000000, 4.549999999999998046 ) ) ;
#304 = VERTEX_POINT ( 'NONE', #442 ) ;
#305 = CIRCLE ( 'NONE', #332, 2.799999999999999822 ) ;
#306 = CARTESIAN_POINT ( 'NONE',  ( 1.710630094366016436E-16, 45.00000000000000000, 3.549999999999996714 ) ) ;
#307 = CIRCLE ( 'NONE', #766, 1.000000000000000000 ) ;
#308 = EDGE_CURVE ( 'NONE', #564, #166, #668, .T. ) ;
#309 = LINE ( 'NONE', #554, #149 ) ;
#310 = DIRECTION ( 'NONE',  ( -8.462065736472228863E-16, 0.000000000000000000, 1.000000000000000000 ) ) ;
#311 = DIRECTION ( 'NONE',  ( -0.000000000000000000, -1.000000000000000000, -0.000000000000000000 ) ) ;
#312 = ORIENTED_EDGE ( 'NONE', *, *, #667, .T. ) ;
#313 = CYLINDRICAL_SURFACE ( 'NONE', #503, 1.000000000000000888 ) ;
#314 = PRODUCT_RELATED_PRODUCT_CATEGORY ( 'part', '', ( #456 ) ) ;
#315 = FACE_OUTER_BOUND ( 'NONE', #729, .T. ) ;
#316 = VECTOR ( 'NONE', #155, 1000.000000000000000 ) ;
#317 = CARTESIAN_POINT ( 'NONE',  ( 28.99999999999999645, 45.00000000000000000, -16.04999999999999716 ) ) ;
#318 = ORIENTED_EDGE ( 'NONE', *, *, #271, .F. ) ;
#319 = CARTESIAN_POINT ( 'NONE',  ( -28.99999999999998934, 45.00000000000000000, 3.549999999999998046 ) ) ;
#320 = DIRECTION ( 'NONE',  ( 0.000000000000000000, 0.000000000000000000, 1.000000000000000000 ) ) ;
#321 = ORIENTED_EDGE ( 'NONE', *, *, #196, .T. ) ;
#322 = DIRECTION ( 'NONE',  ( 0.000000000000000000, 0.000000000000000000, 1.000000000000000000 ) ) ;
#323 = DIRECTION ( 'NONE',  ( 0.000000000000000000, 0.000000000000000000, 1.000000000000000000 ) ) ;
#324 = CARTESIAN_POINT ( 'NONE',  ( -29.99999999999999289, 45.00000000000000000, 4.549999999999998046 ) ) ;
#325 = ORIENTED_EDGE ( 'NONE', *, *, #479, .F. ) ;
#326 = LINE ( 'NONE', #266, #655 ) ;
#327 = LINE ( 'NONE', #261, #214 ) ;
#328 = VECTOR ( 'NONE', #12, 1000.000000000000000 ) ;
#329 = LINE ( 'NONE', #9, #26 ) ;
#330 = VECTOR ( 'NONE', #515, 1000.000000000000000 ) ;
#331 = ORIENTED_EDGE ( 'NONE', *, *, #553, .F. ) ;
#332 = AXIS2_PLACEMENT_3D ( 'NONE', #240, #285, #748 ) ;
#333 = CARTESIAN_POINT ( 'NONE',  ( -29.99999999999999289, 45.00000000000000000, -5.650000000000008349 ) ) ;
#334 = EDGE_CURVE ( 'NONE', #265, #594, #262, .T. ) ;
#335 = CARTESIAN_POINT ( 'NONE',  ( 0.000000000000000000, 45.00000000000000000, 0.000000000000000000 ) ) ;
#336 = PLANE ( 'NONE',  #653 ) ;
#337 = EDGE_CURVE ( 'NONE', #799, #772, #113, .T. ) ;
#338 = VERTEX_POINT ( 'NONE', #536 ) ;
#339 = ORIENTED_EDGE ( 'NONE', *, *, #184, .T. ) ;
#340 = VECTOR ( 'NONE', #550, 1000.000000000000000 ) ;
#341 = ADVANCED_FACE ( 'NONE', ( #410 ), #229, .F. ) ;
#342 = ORIENTED_EDGE ( 'NONE', *, *, #571, .T. ) ;
#343 = COLOUR_RGB ( '',0.7921568627450980005, 0.8196078431372548767, 0.9333333333333333481 ) ;
#344 = CARTESIAN_POINT ( 'NONE',  ( 30.00000000000000000, 45.00000000000000000, 0.000000000000000000 ) ) ;
#345 = VERTEX_POINT ( 'NONE', #486 ) ;
#346 = PRESENTATION_STYLE_ASSIGNMENT (( #96 ) ) ;
#347 = EDGE_CURVE ( 'NONE', #664, #594, #352, .T. ) ;
#348 = EDGE_LOOP ( 'NONE', ( #702, #134, #339, #522 ) ) ;
#349 = EDGE_LOOP ( 'NONE', ( #50, #150, #47, #791 ) ) ;
#350 = ADVANCED_FACE ( 'NONE', ( #731 ), #613, .T. ) ;
#351 = CARTESIAN_POINT ( 'NONE',  ( 0.000000000000000000, 0.000000000000000000, -4.650000000000001243 ) ) ;
#352 = LINE ( 'NONE', #363, #682 ) ;
#353 = ORIENTED_EDGE ( 'NONE', *, *, #63, .F. ) ;
#354 = ORIENTED_EDGE ( 'NONE', *, *, #579, .T. ) ;
#355 = LINE ( 'NONE', #484, #68 ) ;
#356 = ORIENTED_EDGE ( 'NONE', *, *, #164, .T. ) ;
#357 = VECTOR ( 'NONE', #426, 1000.000000000000000 ) ;
#358 = EDGE_CURVE ( 'NONE', #221, #103, #421, .T. ) ;
#359 = VECTOR ( 'NONE', #455, 1000.000000000000000 ) ;
#360 = LINE ( 'NONE', #236, #359 ) ;
#361 = CARTESIAN_POINT ( 'NONE',  ( 28.99999999999999645, 0.000000000000000000, -5.650000000000004796 ) ) ;
#362 = ORIENTED_EDGE ( 'NONE', *, *, #683, .T. ) ;
#363 = CARTESIAN_POINT ( 'NONE',  ( -29.99999999999999289, 0.000000000000000000, -0.000000000000000000 ) ) ;
#364 = CYLINDRICAL_SURFACE ( 'NONE', #224, 1.000000000000000444 ) ;
#365 = ORIENTED_EDGE ( 'NONE', *, *, #151, .F. ) ;
#366 = DIRECTION ( 'NONE',  ( 0.000000000000000000, 0.000000000000000000, 1.000000000000000000 ) ) ;
#367 = CARTESIAN_POINT ( 'NONE',  ( -19.99999999999998934, 0.000000000000000000, -4.650000000000001243 ) ) ;
#368 = DIRECTION ( 'NONE',  ( -0.000000000000000000, -1.000000000000000000, 0.000000000000000000 ) ) ;
#369 = VERTEX_POINT ( 'NONE', #108 ) ;
#370 = CARTESIAN_POINT ( 'NONE',  ( 28.99999999999999645, 0.000000000000000000, 3.549999999999997602 ) ) ;
#371 = EDGE_CURVE ( 'NONE', #799, #345, #609, .T. ) ;
#372 = VERTEX_POINT ( 'NONE', #469 ) ;
#373 = CIRCLE ( 'NONE', #16, 0.9999999999999991118 ) ;
#374 = DIRECTION ( 'NONE',  ( 5.981805089575199895E-17, 0.000000000000000000, -1.000000000000000000 ) ) ;
#375 = CARTESIAN_POINT ( 'NONE',  ( 28.99999999999999645, 0.000000000000000000, 4.549999999999998046 ) ) ;
#376 = DIRECTION ( 'NONE',  ( 0.000000000000000000, 0.000000000000000000, -1.000000000000000000 ) ) ;
#377 = ORIENTED_EDGE ( 'NONE', *, *, #23, .F. ) ;
#378 = CIRCLE ( 'NONE', #477, 1.000000000000000000 ) ;
#379 = ADVANCED_FACE ( 'NONE', ( #93 ), #781, .F. ) ;
#380 = DIRECTION ( 'NONE',  ( -0.000000000000000000, -1.000000000000000000, -0.000000000000000000 ) ) ;
#381 = LINE ( 'NONE', #129, #775 ) ;
#382 = ORIENTED_EDGE ( 'NONE', *, *, #215, .T. ) ;
#383 = LINE ( 'NONE', #687, #450 ) ;
#384 = FACE_OUTER_BOUND ( 'NONE', #230, .T. ) ;
#385 = EDGE_CURVE ( 'NONE', #57, #470, #805, .T. ) ;
#386 = DIRECTION ( 'NONE',  ( 0.000000000000000000, 1.000000000000000000, -0.000000000000000000 ) ) ;
#387 = ORIENTED_EDGE ( 'NONE', *, *, #584, .T. ) ;
#388 = LINE ( 'NONE', #512, #504 ) ;
#389 = AXIS2_PLACEMENT_3D ( 'NONE', #510, #263, #705 ) ;
#390 = EDGE_CURVE ( 'NONE', #594, #595, #782, .T. ) ;
#391 = AXIS2_PLACEMENT_3D ( 'NONE', #335, #22, #713 ) ;
#392 = CARTESIAN_POINT ( 'NONE',  ( -28.99999999999998934, 0.000000000000000000, -15.05000000000000249 ) ) ;
#393 = ORIENTED_EDGE ( 'NONE', *, *, #1, .F. ) ;
#394 = LINE ( 'NONE', #764, #161 ) ;
#395 = FACE_OUTER_BOUND ( 'NONE', #500, .T. ) ;
#396 = DIRECTION ( 'NONE',  ( -0.000000000000000000, -1.000000000000000000, -0.000000000000000000 ) ) ;
#397 = CARTESIAN_POINT ( 'NONE',  ( -29.99999999999999289, 0.000000000000000000, 13.94999999999999929 ) ) ;
#398 = CARTESIAN_POINT ( 'NONE',  ( 28.99999999999999645, 45.00000000000000000, -5.650000000000004796 ) ) ;
#399 = CARTESIAN_POINT ( 'NONE',  ( -29.99999999999999289, 45.00000000000000000, -15.05000000000000249 ) ) ;
#400 = EDGE_CURVE ( 'NONE', #154, #170, #91, .T. ) ;
#401 = SURFACE_SIDE_STYLE ('',( #283 ) ) ;
#402 = CARTESIAN_POINT ( 'NONE',  ( -29.99999999999999289, 0.000000000000000000, 4.549999999999998046 ) ) ;
#403 = CIRCLE ( 'NONE', #796, 0.9999999999999991118 ) ;
#404 = ADVANCED_FACE ( 'NONE', ( #742 ), #8, .T. ) ;
#405 = CARTESIAN_POINT ( 'NONE',  ( 28.99999999999998934, 45.00000000000000000, -4.650000000000004796 ) ) ;
#406 = ORIENTED_EDGE ( 'NONE', *, *, #540, .T. ) ;
#407 = CARTESIAN_POINT ( 'NONE',  ( 0.000000000000000000, 0.000000000000000000, 0.000000000000000000 ) ) ;
#408 = LINE ( 'NONE', #590, #633 ) ;
#409 = VERTEX_POINT ( 'NONE', #574 ) ;
#410 = FACE_OUTER_BOUND ( 'NONE', #291, .T. ) ;
#411 = EDGE_CURVE ( 'NONE', #621, #270, #493, .T. ) ;
#412 = ORIENTED_EDGE ( 'NONE', *, *, #523, .F. ) ;
#413 = ORIENTED_EDGE ( 'NONE', *, *, #87, .T. ) ;
#414 = ORIENTED_EDGE ( 'NONE', *, *, #400, .F. ) ;
#415 = DIRECTION ( 'NONE',  ( 1.000000000000000000, -0.000000000000000000, 0.000000000000000000 ) ) ;
#416 = ORIENTED_EDGE ( 'NONE', *, *, #53, .F. ) ;
#417 = CARTESIAN_POINT ( 'NONE',  ( -28.99999999999998934, 45.00000000000000000, -5.650000000000001243 ) ) ;
#418 = ORIENTED_EDGE ( 'NONE', *, *, #235, .T. ) ;
#419 = EDGE_CURVE ( 'NONE', #567, #255, #373, .T. ) ;
#420 = FACE_OUTER_BOUND ( 'NONE', #348, .T. ) ;
#421 = LINE ( 'NONE', #596, #160 ) ;
#422 = ORIENTED_EDGE ( 'NONE', *, *, #527, .T. ) ;
#423 = FACE_OUTER_BOUND ( 'NONE', #31, .T. ) ;
#424 = ORIENTED_EDGE ( 'NONE', *, *, #164, .F. ) ;
#425 = AXIS2_PLACEMENT_3D ( 'NONE', #133, #627, #258 ) ;
#426 = DIRECTION ( 'NONE',  ( 0.000000000000000000, 0.000000000000000000, -1.000000000000000000 ) ) ;
#427 = VERTEX_POINT ( 'NONE', #59 ) ;
#428 = FACE_OUTER_BOUND ( 'NONE', #736, .T. ) ;
#429 = FACE_OUTER_BOUND ( 'NONE', #32, .T. ) ;
#430 = ORIENTED_EDGE ( 'NONE', *, *, #215, .F. ) ;
#431 = FACE_OUTER_BOUND ( 'NONE', #349, .T. ) ;
#432 = ORIENTED_EDGE ( 'NONE', *, *, #260, .F. ) ;
#433 = CARTESIAN_POINT ( 'NONE',  ( 30.00000000000000000, 45.00000000000000000, 0.000000000000000000 ) ) ;
#434 = PLANE ( 'NONE',  #798 ) ;
#435 = CARTESIAN_POINT ( 'NONE',  ( -28.99999999999998579, 45.00000000000000000, -4.650000000000001243 ) ) ;
#436 = DIRECTION ( 'NONE',  ( -0.000000000000000000, -1.000000000000000000, -0.000000000000000000 ) ) ;
#437 = DIRECTION ( 'NONE',  ( 0.000000000000000000, 0.000000000000000000, 1.000000000000000000 ) ) ;
#438 = ORIENTED_EDGE ( 'NONE', *, *, #347, .F. ) ;
#439 = AXIS2_PLACEMENT_3D ( 'NONE', #392, #386, #320 ) ;
#440 = AXIS2_PLACEMENT_3D ( 'NONE', #735, #612, #54 ) ;
#441 = CARTESIAN_POINT ( 'NONE',  ( -28.99999999999998934, 45.00000000000000000, 13.94999999999999929 ) ) ;
#442 = CARTESIAN_POINT ( 'NONE',  ( 28.99999999999998934, 45.00000000000000000, -4.650000000000004796 ) ) ;
#443 = ORIENTED_EDGE ( 'NONE', *, *, #400, .T. ) ;
#444 = CARTESIAN_POINT ( 'NONE',  ( 28.99999999999999645, 45.00000000000000000, 3.549999999999997602 ) ) ;
#445 = EDGE_CURVE ( 'NONE', #265, #617, #124, .T. ) ;
#446 = DIRECTION ( 'NONE',  ( 0.000000000000000000, 0.000000000000000000, 1.000000000000000000 ) ) ;
#447 = LINE ( 'NONE', #317, #492 ) ;
#448 = ORIENTED_EDGE ( 'NONE', *, *, #602, .T. ) ;
#449 = PLANE ( 'NONE',  #92 ) ;
#450 = VECTOR ( 'NONE', #496, 1000.000000000000000 ) ;
#451 = VECTOR ( 'NONE', #797, 1000.000000000000000 ) ;
#452 = CARTESIAN_POINT ( 'NONE',  ( 20.00000000000000000, 45.00000000000000000, 3.549999999999997602 ) ) ;
#453 = ORIENTED_EDGE ( 'NONE', *, *, #712, .T. ) ;
#454 = CARTESIAN_POINT ( 'NONE',  ( -28.99999999999998934, 0.000000000000000000, -5.650000000000001243 ) ) ;
#455 = DIRECTION ( 'NONE',  ( 0.000000000000000000, 0.000000000000000000, 1.000000000000000000 ) ) ;
#456 = PRODUCT ( 'Blank_CenterSupport_TightFit', 'Blank_CenterSupport_TightFit', '', ( #476 ) ) ;
#457 = DIRECTION ( 'NONE',  ( 0.000000000000000000, 1.000000000000000000, -0.000000000000000000 ) ) ;
#458 = LINE ( 'NONE', #690, #56 ) ;
#459 = FACE_OUTER_BOUND ( 'NONE', #461, .T. ) ;
#460 = ADVANCED_FACE ( 'NONE', ( #431 ), #239, .T. ) ;
#461 = EDGE_LOOP ( 'NONE', ( #597, #121, #443, #422, #547, #650, #246, #733, #637, #61, #649, #282, #162, #483, #318, #51, #325, #719, #601, #172 ) ) ;
#462 = DIRECTION ( 'NONE',  ( -0.000000000000000000, -1.000000000000000000, 0.000000000000000000 ) ) ;
#463 = AXIS2_PLACEMENT_3D ( 'NONE', #572, #506, #761 ) ;
#464 = ORIENTED_EDGE ( 'NONE', *, *, #610, .F. ) ;
#465 = VECTOR ( 'NONE', #257, 1000.000000000000000 ) ;
#466 = EDGE_CURVE ( 'NONE', #89, #277, #563, .T. ) ;
#467 = LINE ( 'NONE', #24, #316 ) ;
#468 = ORIENTED_EDGE ( 'NONE', *, *, #523, .T. ) ;
#469 = CARTESIAN_POINT ( 'NONE',  ( 20.00000000000000000, 0.000000000000000000, 3.549999999999997602 ) ) ;
#470 = VERTEX_POINT ( 'NONE', #747 ) ;
#471 = EDGE_LOOP ( 'NONE', ( #382, #219, #414, #539 ) ) ;
#472 = CARTESIAN_POINT ( 'NONE',  ( -28.99999999999998934, 45.00000000000000000, -15.05000000000000249 ) ) ;
#473 = VERTEX_POINT ( 'NONE', #634 ) ;
#474 = AXIS2_PLACEMENT_3D ( 'NONE', #303, #509, #446 ) ;
#475 = CIRCLE ( 'NONE', #70, 2.799999999999999822 ) ;
#476 = PRODUCT_CONTEXT ( 'NONE', #533, 'mechanical' ) ;
#477 = AXIS2_PLACEMENT_3D ( 'NONE', #209, #706, #657 ) ;
#478 = LINE ( 'NONE', #433, #153 ) ;
#479 = EDGE_CURVE ( 'NONE', #625, #252, #197, .T. ) ;
#480 = CARTESIAN_POINT ( 'NONE',  ( -29.99999999999999289, 45.00000000000000000, 13.94999999999999929 ) ) ;
#481 = ORIENTED_EDGE ( 'NONE', *, *, #759, .F. ) ;
#482 = CARTESIAN_POINT ( 'NONE',  ( 30.00000000000000000, 0.000000000000000000, -0.000000000000000000 ) ) ;
#483 = ORIENTED_EDGE ( 'NONE', *, *, #23, .T. ) ;
#484 = CARTESIAN_POINT ( 'NONE',  ( 3.429011037612588290E-16, 45.00000000000000000, 2.799999999999999822 ) ) ;
#485 = DIRECTION ( 'NONE',  ( 1.000000000000000000, 0.000000000000000000, -1.927470528863122500E-16 ) ) ;
#486 = CARTESIAN_POINT ( 'NONE',  ( -28.99999999999998579, 0.000000000000000000, -4.650000000000001243 ) ) ;
#487 = ORIENTED_EDGE ( 'NONE', *, *, #411, .T. ) ;
#488 = ORIENTED_EDGE ( 'NONE', *, *, #390, .T. ) ;
#489 = CARTESIAN_POINT ( 'NONE',  ( -29.99999999999999289, 0.000000000000000000, 0.000000000000000000 ) ) ;
#490 = VECTOR ( 'NONE', #415, 1000.000000000000000 ) ;
#491 = EDGE_LOOP ( 'NONE', ( #95, #711, #88, #187 ) ) ;
#492 = VECTOR ( 'NONE', #694, 1000.000000000000000 ) ;
#493 = LINE ( 'NONE', #183, #720 ) ;
#494 = LINE ( 'NONE', #552, #165 ) ;
#495 = ORIENTED_EDGE ( 'NONE', *, *, #419, .T. ) ;
#496 = DIRECTION ( 'NONE',  ( 1.000000000000000000, 0.000000000000000000, -4.818676322157797005E-17 ) ) ;
#497 = ADVANCED_FACE ( 'NONE', ( #754 ), #313, .T. ) ;
#498 = ORIENTED_EDGE ( 'NONE', *, *, #700, .F. ) ;
#499 = FACE_OUTER_BOUND ( 'NONE', #666, .T. ) ;
#500 = EDGE_LOOP ( 'NONE', ( #413, #28, #353, #642 ) ) ;
#501 = DIRECTION ( 'NONE',  ( -0.000000000000000000, -1.000000000000000000, -0.000000000000000000 ) ) ;
#502 = LINE ( 'NONE', #14, #328 ) ;
#503 = AXIS2_PLACEMENT_3D ( 'NONE', #555, #436, #123 ) ;
#504 = VECTOR ( 'NONE', #200, 1000.000000000000000 ) ;
#505 = DIRECTION ( 'NONE',  ( -0.000000000000000000, -1.000000000000000000, -0.000000000000000000 ) ) ;
#506 = DIRECTION ( 'NONE',  ( 0.000000000000000000, 1.000000000000000000, -0.000000000000000000 ) ) ;
#507 = EDGE_CURVE ( 'NONE', #103, #409, #573, .T. ) ;
#508 = VERTEX_POINT ( 'NONE', #4 ) ;
#509 = DIRECTION ( 'NONE',  ( -0.000000000000000000, -1.000000000000000000, 0.000000000000000000 ) ) ;
#510 = CARTESIAN_POINT ( 'NONE',  ( -19.99999999999998934, 45.00000000000000000, 0.000000000000000000 ) ) ;
#511 = ORIENTED_EDGE ( 'NONE', *, *, #53, .T. ) ;
#512 = CARTESIAN_POINT ( 'NONE',  ( 28.99999999999999645, 45.00000000000000000, 14.94999999999999574 ) ) ;
#513 = FACE_OUTER_BOUND ( 'NONE', #607, .T. ) ;
#514 = CARTESIAN_POINT ( 'NONE',  ( 30.00000000000000000, 0.000000000000000000, -15.05000000000000071 ) ) ;
#515 = DIRECTION ( 'NONE',  ( -0.000000000000000000, -1.000000000000000000, -0.000000000000000000 ) ) ;
#516 = CIRCLE ( 'NONE', #425, 1.000000000000000000 ) ;
#517 = ADVANCED_FACE ( 'NONE', ( #384 ), #629, .F. ) ;
#518 = CIRCLE ( 'NONE', #125, 0.9999999999999991118 ) ;
#519 = FACE_OUTER_BOUND ( 'NONE', #233, .T. ) ;
#520 = AXIS2_PLACEMENT_3D ( 'NONE', #237, #376, #104 ) ;
#521 = CARTESIAN_POINT ( 'NONE',  ( 0.000000000000000000, 0.000000000000000000, -2.799999999999999822 ) ) ;
#522 = ORIENTED_EDGE ( 'NONE', *, *, #260, .T. ) ;
#523 = EDGE_CURVE ( 'NONE', #338, #97, #6, .T. ) ;
#524 = ORIENTED_EDGE ( 'NONE', *, *, #584, .F. ) ;
#525 = CARTESIAN_POINT ( 'NONE',  ( 0.000000000000000000, 45.00000000000000000, 0.000000000000000000 ) ) ;
#526 = ORIENTED_EDGE ( 'NONE', *, *, #667, .F. ) ;
#527 = EDGE_CURVE ( 'NONE', #170, #621, #327, .T. ) ;
#528 = VERTEX_POINT ( 'NONE', #646 ) ;
#529 = CARTESIAN_POINT ( 'NONE',  ( 28.99999999999999645, 45.00000000000000000, 14.94999999999999574 ) ) ;
#530 = VECTOR ( 'NONE', #752, 1000.000000000000000 ) ;
#531 = ORIENTED_EDGE ( 'NONE', *, *, #82, .F. ) ;
#532 = VECTOR ( 'NONE', #608, 1000.000000000000000 ) ;
#533 = APPLICATION_CONTEXT ( 'automotive_design' ) ;
#534 = ORIENTED_EDGE ( 'NONE', *, *, #156, .T. ) ;
#535 = CARTESIAN_POINT ( 'NONE',  ( 28.99999999999999645, 45.00000000000000000, -16.04999999999999716 ) ) ;
#536 = CARTESIAN_POINT ( 'NONE',  ( 28.99999999999999645, 0.000000000000000000, 14.94999999999999574 ) ) ;
#537 = VERTEX_POINT ( 'NONE', #521 ) ;
#538 = DIRECTION ( 'NONE',  ( -1.000000000000000000, 0.000000000000000000, 0.000000000000000000 ) ) ;
#539 = ORIENTED_EDGE ( 'NONE', *, *, #656, .T. ) ;
#540 = EDGE_CURVE ( 'NONE', #567, #180, #467, .T. ) ;
#541 = VERTEX_POINT ( 'NONE', #585 ) ;
#542 = VECTOR ( 'NONE', #62, 1000.000000000000000 ) ;
#543 = FACE_OUTER_BOUND ( 'NONE', #199, .T. ) ;
#544 = CIRCLE ( 'NONE', #391, 2.799999999999999822 ) ;
#545 = CARTESIAN_POINT ( 'NONE',  ( -29.99999999999999289, 45.00000000000000000, 4.549999999999998046 ) ) ;
#546 = ORIENTED_EDGE ( 'NONE', *, *, #43, .T. ) ;
#547 = ORIENTED_EDGE ( 'NONE', *, *, #106, .T. ) ;
#548 = CARTESIAN_POINT ( 'NONE',  ( 30.00000000000000000, 45.00000000000000000, -15.05000000000000071 ) ) ;
#549 = ORIENTED_EDGE ( 'NONE', *, *, #106, .F. ) ;
#550 = DIRECTION ( 'NONE',  ( -0.000000000000000000, -1.000000000000000000, -0.000000000000000000 ) ) ;
#551 = ORIENTED_EDGE ( 'NONE', *, *, #207, .T. ) ;
#552 = CARTESIAN_POINT ( 'NONE',  ( 30.00000000000000000, 45.00000000000000000, 13.94999999999999751 ) ) ;
#553 = EDGE_CURVE ( 'NONE', #567, #564, #640, .T. ) ;
#554 = CARTESIAN_POINT ( 'NONE',  ( -8.962737959213520413E-16, 0.000000000000000000, -4.649999999999999467 ) ) ;
#555 = CARTESIAN_POINT ( 'NONE',  ( 28.99999999999999645, 45.00000000000000000, -15.05000000000000071 ) ) ;
#556 = ORIENTED_EDGE ( 'NONE', *, *, #671, .T. ) ;
#557 = DIRECTION ( 'NONE',  ( 0.000000000000000000, 0.000000000000000000, -1.000000000000000000 ) ) ;
#558 = DIRECTION ( 'NONE',  ( 0.000000000000000000, 0.000000000000000000, 1.000000000000000000 ) ) ;
#559 = AXIS2_PLACEMENT_3D ( 'NONE', #663, #101, #599 ) ;
#560 = VECTOR ( 'NONE', #396, 1000.000000000000000 ) ;
#561 = ADVANCED_FACE ( 'NONE', ( #147, #459 ), #449, .T. ) ;
#562 = AXIS2_PLACEMENT_3D ( 'NONE', #361, #611, #437 ) ;
#563 = LINE ( 'NONE', #680, #542 ) ;
#564 = VERTEX_POINT ( 'NONE', #529 ) ;
#565 = FACE_BOUND ( 'NONE', #294, .T. ) ;
#566 = DIRECTION ( 'NONE',  ( 0.000000000000000000, 0.000000000000000000, 1.000000000000000000 ) ) ;
#567 = VERTEX_POINT ( 'NONE', #576 ) ;
#568 = CARTESIAN_POINT ( 'NONE',  ( 0.000000000000000000, 0.000000000000000000, 0.000000000000000000 ) ) ;
#569 = CARTESIAN_POINT ( 'NONE',  ( -28.99999999999998934, 45.00000000000000000, -16.05000000000000071 ) ) ;
#570 = DIRECTION ( 'NONE',  ( -0.000000000000000000, -1.000000000000000000, 0.000000000000000000 ) ) ;
#571 = EDGE_CURVE ( 'NONE', #109, #277, #518, .T. ) ;
#572 = CARTESIAN_POINT ( 'NONE',  ( 28.99999999999999645, 45.00000000000000000, 13.94999999999999751 ) ) ;
#573 = CIRCLE ( 'NONE', #35, 1.000000000000000000 ) ;
#574 = CARTESIAN_POINT ( 'NONE',  ( 30.00000000000000000, 0.000000000000000000, 4.549999999999998046 ) ) ;
#575 = PLANE ( 'NONE',  #593 ) ;
#576 = CARTESIAN_POINT ( 'NONE',  ( -28.99999999999998934, 45.00000000000000000, 14.94999999999999574 ) ) ;
#577 = CARTESIAN_POINT ( 'NONE',  ( 0.000000000000000000, 45.00000000000000000, 3.549999999999997602 ) ) ;
#578 = ORIENTED_EDGE ( 'NONE', *, *, #615, .F. ) ;
#579 = EDGE_CURVE ( 'NONE', #508, #369, #544, .T. ) ;
#580 = LINE ( 'NONE', #210, #465 ) ;
#581 = CARTESIAN_POINT ( 'NONE',  ( -28.99999999999998934, 45.00000000000000000, 3.549999999999998046 ) ) ;
#582 = LINE ( 'NONE', #648, #190 ) ;
#583 = DIRECTION ( 'NONE',  ( 1.000000000000000000, -0.000000000000000000, 0.000000000000000000 ) ) ;
#584 = EDGE_CURVE ( 'NONE', #541, #537, #475, .T. ) ;
#585 = CARTESIAN_POINT ( 'NONE',  ( 3.429011037612588290E-16, 0.000000000000000000, 2.799999999999999822 ) ) ;
#586 = AXIS2_PLACEMENT_3D ( 'NONE', #248, #368, #622 ) ;
#587 = AXIS2_PLACEMENT_3D ( 'NONE', #85, #218, #19 ) ;
#588 = DIRECTION ( 'NONE',  ( 1.000000000000000000, 0.000000000000000000, 5.981805089575198662E-17 ) ) ;
#589 = CARTESIAN_POINT ( 'NONE',  ( -28.99999999999998934, 0.000000000000000000, 3.549999999999998046 ) ) ;
#590 = CARTESIAN_POINT ( 'NONE',  ( 0.000000000000000000, 0.000000000000000000, 14.94999999999999574 ) ) ;
#591 = ORIENTED_EDGE ( 'NONE', *, *, #411, .F. ) ;
#592 = PRODUCT_DEFINITION ( 'UNKNOWN', '', #606, #715 ) ;
#593 = AXIS2_PLACEMENT_3D ( 'NONE', #191, #145, #762 ) ;
#594 = VERTEX_POINT ( 'NONE', #402 ) ;
#595 = VERTEX_POINT ( 'NONE', #589 ) ;
#596 = CARTESIAN_POINT ( 'NONE',  ( 28.99999999999999645, 45.00000000000000000, 3.549999999999997602 ) ) ;
#597 = ORIENTED_EDGE ( 'NONE', *, *, #671, .F. ) ;
#598 = ORIENTED_EDGE ( 'NONE', *, *, #734, .F. ) ;
#599 = DIRECTION ( 'NONE',  ( 0.000000000000000000, 0.000000000000000000, -1.000000000000000000 ) ) ;
#600 = EDGE_LOOP ( 'NONE', ( #242, #432, #556, #130 ) ) ;
#601 = ORIENTED_EDGE ( 'NONE', *, *, #63, .T. ) ;
#602 = EDGE_CURVE ( 'NONE', #369, #508, #38, .T. ) ;
#603 = LINE ( 'NONE', #351, #532 ) ;
#604 = FACE_OUTER_BOUND ( 'NONE', #284, .T. ) ;
#605 = PLANE ( 'NONE',  #268 ) ;
#606 = PRODUCT_DEFINITION_FORMATION_WITH_SPECIFIED_SOURCE ( 'ANY', '', #456, .NOT_KNOWN. ) ;
#607 = EDGE_LOOP ( 'NONE', ( #468, #726, #795, #100 ) ) ;
#608 = DIRECTION ( 'NONE',  ( 1.000000000000000000, -0.000000000000000000, 0.000000000000000000 ) ) ;
#609 = LINE ( 'NONE', #292, #340 ) ;
#610 = EDGE_CURVE ( 'NONE', #180, #664, #222, .T. ) ;
#611 = DIRECTION ( 'NONE',  ( 0.000000000000000000, 1.000000000000000000, -0.000000000000000000 ) ) ;
#612 = DIRECTION ( 'NONE',  ( -0.000000000000000000, -1.000000000000000000, -0.000000000000000000 ) ) ;
#613 = CYLINDRICAL_SURFACE ( 'NONE', #696, 0.9999999999999991118 ) ;
#614 = ORIENTED_EDGE ( 'NONE', *, *, #661, .T. ) ;
#615 = EDGE_CURVE ( 'NONE', #304, #34, #152, .T. ) ;
#616 = FACE_OUTER_BOUND ( 'NONE', #234, .T. ) ;
#617 = VERTEX_POINT ( 'NONE', #319 ) ;
#618 = CARTESIAN_POINT ( 'NONE',  ( 20.00000000000000355, 0.000000000000000000, 1.692413147294446246E-14 ) ) ;
#619 = DIRECTION ( 'NONE',  ( -1.000000000000000000, 0.000000000000000000, 0.000000000000000000 ) ) ;
#620 = VECTOR ( 'NONE', #501, 1000.000000000000000 ) ;
#621 = VERTEX_POINT ( 'NONE', #333 ) ;
#622 = DIRECTION ( 'NONE',  ( 0.000000000000000000, 0.000000000000000000, 1.000000000000000000 ) ) ;
#623 = CIRCLE ( 'NONE', #562, 1.000000000000000000 ) ;
#624 =( NAMED_UNIT ( * ) PLANE_ANGLE_UNIT ( ) SI_UNIT ( $, .RADIAN. ) );
#625 = VERTEX_POINT ( 'NONE', #11 ) ;
#626 = DIRECTION ( 'NONE',  ( -0.000000000000000000, -1.000000000000000000, 0.000000000000000000 ) ) ;
#627 = DIRECTION ( 'NONE',  ( -0.000000000000000000, -1.000000000000000000, 0.000000000000000000 ) ) ;
#628 = ORIENTED_EDGE ( 'NONE', *, *, #156, .F. ) ;
#629 = PLANE ( 'NONE',  #148 ) ;
#630 = EDGE_CURVE ( 'NONE', #97, #409, #580, .T. ) ;
#631 = DIRECTION ( 'NONE',  ( 1.000000000000000000, -0.000000000000000000, 0.000000000000000000 ) ) ;
#632 = ORIENTED_EDGE ( 'NONE', *, *, #759, .T. ) ;
#633 = VECTOR ( 'NONE', #776, 1000.000000000000000 ) ;
#634 = CARTESIAN_POINT ( 'NONE',  ( 30.00000000000000000, 0.000000000000000000, -5.650000000000011902 ) ) ;
#635 = LINE ( 'NONE', #581, #249 ) ;
#636 = PRODUCT_DEFINITION_SHAPE ( 'NONE', 'NONE',  #592 ) ;
#637 = ORIENTED_EDGE ( 'NONE', *, *, #445, .F. ) ;
#638 = CARTESIAN_POINT ( 'NONE',  ( -8.962737959213520413E-16, 45.00000000000000000, -4.649999999999999467 ) ) ;
#639 = LINE ( 'NONE', #2, #530 ) ;
#640 = LINE ( 'NONE', #75, #753 ) ;
#641 = DIRECTION ( 'NONE',  ( -0.000000000000000000, -1.000000000000000000, -0.000000000000000000 ) ) ;
#642 = ORIENTED_EDGE ( 'NONE', *, *, #615, .T. ) ;
#643 = DIRECTION ( 'NONE',  ( 1.000000000000000000, -0.000000000000000000, 0.000000000000000000 ) ) ;
#644 = AXIS2_PLACEMENT_3D ( 'NONE', #675, #505, #118 ) ;
#645 = AXIS2_PLACEMENT_3D ( 'NONE', #71, #771, #83 ) ;
#646 = CARTESIAN_POINT ( 'NONE',  ( 30.00000000000000000, 45.00000000000000000, 4.549999999999998046 ) ) ;
#647 = ADVANCED_FACE ( 'NONE', ( #513 ), #760, .T. ) ;
#648 = CARTESIAN_POINT ( 'NONE',  ( 20.00000000000000000, 45.00000000000000000, 3.549999999999997602 ) ) ;
#649 = ORIENTED_EDGE ( 'NONE', *, *, #419, .F. ) ;
#650 = ORIENTED_EDGE ( 'NONE', *, *, #337, .T. ) ;
#651 = AXIS2_PLACEMENT_3D ( 'NONE', #398, #641, #79 ) ;
#652 = DIRECTION ( 'NONE',  ( 0.000000000000000000, 0.000000000000000000, -1.000000000000000000 ) ) ;
#653 = AXIS2_PLACEMENT_3D ( 'NONE', #280, #659, #25 ) ;
#654 = ORIENTED_EDGE ( 'NONE', *, *, #131, .T. ) ;
#655 = VECTOR ( 'NONE', #583, 1000.000000000000000 ) ;
#656 = EDGE_CURVE ( 'NONE', #154, #678, #394, .T. ) ;
#657 = DIRECTION ( 'NONE',  ( 0.000000000000000000, 0.000000000000000000, 1.000000000000000000 ) ) ;
#658 = AXIS2_PLACEMENT_3D ( 'NONE', #169, #52, #231 ) ;
#659 = DIRECTION ( 'NONE',  ( 1.000000000000000000, 0.000000000000000000, 0.000000000000000000 ) ) ;
#660 = LINE ( 'NONE', #5, #177 ) ;
#661 = EDGE_CURVE ( 'NONE', #678, #109, #704, .T. ) ;
#662 = ORIENTED_EDGE ( 'NONE', *, *, #479, .T. ) ;
#663 = CARTESIAN_POINT ( 'NONE',  ( 0.000000000000000000, 45.00000000000000000, 0.000000000000000000 ) ) ;
#664 = VERTEX_POINT ( 'NONE', #397 ) ;
#665 = DIRECTION ( 'NONE',  ( -0.000000000000000000, -1.000000000000000000, -0.000000000000000000 ) ) ;
#666 = EDGE_LOOP ( 'NONE', ( #438, #628, #163, #139 ) ) ;
#667 = EDGE_CURVE ( 'NONE', #277, #473, #159, .T. ) ;
#668 = CIRCLE ( 'NONE', #463, 1.000000000000000888 ) ;
#669 = DIRECTION ( 'NONE',  ( 0.000000000000000000, 0.000000000000000000, -1.000000000000000000 ) ) ;
#670 = LINE ( 'NONE', #194, #794 ) ;
#671 = EDGE_CURVE ( 'NONE', #743, #89, #403, .T. ) ;
#672 = ORIENTED_EDGE ( 'NONE', *, *, #10, .T. ) ;
#673 = DIRECTION ( 'NONE',  ( -0.000000000000000000, -1.000000000000000000, -0.000000000000000000 ) ) ;
#674 =( NAMED_UNIT ( * ) PLANE_ANGLE_UNIT ( ) SI_UNIT ( $, .RADIAN. ) );
#675 = CARTESIAN_POINT ( 'NONE',  ( -28.99999999999998934, 45.00000000000000000, 4.549999999999998046 ) ) ;
#676 = ORIENTED_EDGE ( 'NONE', *, *, #10, .F. ) ;
#677 = DIRECTION ( 'NONE',  ( -1.000000000000000000, 0.000000000000000000, -0.000000000000000000 ) ) ;
#678 = VERTEX_POINT ( 'NONE', #127 ) ;
#679 = CARTESIAN_POINT ( 'NONE',  ( -19.99999999999998934, 45.00000000000000000, -4.650000000000001243 ) ) ;
#680 = CARTESIAN_POINT ( 'NONE',  ( 30.00000000000000000, 45.00000000000000000, -15.05000000000000071 ) ) ;
#681 = CARTESIAN_POINT ( 'NONE',  ( -28.99999999999998934, 45.00000000000000000, -5.650000000000001243 ) ) ;
#682 = VECTOR ( 'NONE', #652, 1000.000000000000000 ) ;
#683 = EDGE_CURVE ( 'NONE', #595, #470, #383, .T. ) ;
#684 = ORIENTED_EDGE ( 'NONE', *, *, #630, .T. ) ;
#685 = LINE ( 'NONE', #756, #202 ) ;
#686 = VERTEX_POINT ( 'NONE', #745 ) ;
#687 = CARTESIAN_POINT ( 'NONE',  ( 1.710630094366016436E-16, 0.000000000000000000, 3.549999999999996714 ) ) ;
#688 = ORIENTED_EDGE ( 'NONE', *, *, #709, .F. ) ;
#689 = DIRECTION ( 'NONE',  ( 0.000000000000000000, 0.000000000000000000, 1.000000000000000000 ) ) ;
#690 = CARTESIAN_POINT ( 'NONE',  ( -19.99999999999998934, 45.00000000000000000, -4.650000000000001243 ) ) ;
#691 = ORIENTED_EDGE ( 'NONE', *, *, #192, .F. ) ;
#692 = CARTESIAN_POINT ( 'NONE',  ( -28.99999999999998934, 45.00000000000000000, 13.94999999999999929 ) ) ;
#693 = EDGE_CURVE ( 'NONE', #170, #686, #767, .T. ) ;
#694 = DIRECTION ( 'NONE',  ( -0.000000000000000000, -1.000000000000000000, -0.000000000000000000 ) ) ;
#695 = EDGE_LOOP ( 'NONE', ( #684, #105, #377, #654 ) ) ;
#696 = AXIS2_PLACEMENT_3D ( 'NONE', #472, #171, #281 ) ;
#697 = CARTESIAN_POINT ( 'NONE',  ( 28.99999999999999645, 45.00000000000000000, 13.94999999999999751 ) ) ;
#698 = AXIS2_PLACEMENT_3D ( 'NONE', #681, #673, #296 ) ;
#699 = UNCERTAINTY_MEASURE_WITH_UNIT (LENGTH_MEASURE( 1.000000000000000082E-05 ), #730, 'distance_accuracy_value', 'NONE');
#700 = EDGE_CURVE ( 'NONE', #564, #338, #388, .T. ) ;
#701 = DIRECTION ( 'NONE',  ( 1.000000000000000000, 0.000000000000000000, -1.927470528863122500E-16 ) ) ;
#702 = ORIENTED_EDGE ( 'NONE', *, *, #661, .F. ) ;
#703 = CARTESIAN_POINT ( 'NONE',  ( 30.00000000000000000, 45.00000000000000000, -5.650000000000011902 ) ) ;
#704 = LINE ( 'NONE', #144, #287 ) ;
#705 = DIRECTION ( 'NONE',  ( 0.000000000000000000, 0.000000000000000000, -1.000000000000000000 ) ) ;
#706 = DIRECTION ( 'NONE',  ( 0.000000000000000000, 1.000000000000000000, -0.000000000000000000 ) ) ;
#707 = DIRECTION ( 'NONE',  ( 0.000000000000000000, 1.000000000000000000, -0.000000000000000000 ) ) ;
#708 = ORIENTED_EDGE ( 'NONE', *, *, #87, .F. ) ;
#709 = EDGE_CURVE ( 'NONE', #270, #345, #216, .T. ) ;
#710 = DIRECTION ( 'NONE',  ( 0.000000000000000000, 0.000000000000000000, 1.000000000000000000 ) ) ;
#711 = ORIENTED_EDGE ( 'NONE', *, *, #235, .F. ) ;
#712 = EDGE_CURVE ( 'NONE', #427, #473, #259, .T. ) ;
#713 = DIRECTION ( 'NONE',  ( 0.000000000000000000, 0.000000000000000000, 1.000000000000000000 ) ) ;
#714 = LINE ( 'NONE', #157, #302 ) ;
#715 = PRODUCT_DEFINITION_CONTEXT ( 'detailed design', #81, 'design' ) ;
#716 = ORIENTED_EDGE ( 'NONE', *, *, #630, .F. ) ;
#717 = DIRECTION ( 'NONE',  ( -0.000000000000000000, -1.000000000000000000, -0.000000000000000000 ) ) ;
#718 = EDGE_CURVE ( 'NONE', #252, #372, #582, .T. ) ;
#719 = ORIENTED_EDGE ( 'NONE', *, *, #211, .T. ) ;
#720 = VECTOR ( 'NONE', #186, 1000.000000000000000 ) ;
#721 = ADVANCED_BREP_SHAPE_REPRESENTATION ( 'Blank_CenterSupport_TightFit', ( #64, #763 ), #178 ) ;
#722 = ORIENTED_EDGE ( 'NONE', *, *, #385, .T. ) ;
#723 = ADVANCED_FACE ( 'NONE', ( #276 ), #336, .T. ) ;
#724 = VECTOR ( 'NONE', #311, 1000.000000000000000 ) ;
#725 = APPLICATION_PROTOCOL_DEFINITION ( 'draft international standard', 'automotive_design', 1998, #81 ) ;
#726 = ORIENTED_EDGE ( 'NONE', *, *, #131, .F. ) ;
#727 = PLANE ( 'NONE',  #253 ) ;
#728 = CARTESIAN_POINT ( 'NONE',  ( 0.000000000000000000, 45.00000000000000000, -4.650000000000001243 ) ) ;
#729 = EDGE_LOOP ( 'NONE', ( #321, #750, #773, #418 ) ) ;
#730 =( LENGTH_UNIT ( ) NAMED_UNIT ( * ) SI_UNIT ( .MILLI., .METRE. ) );
#731 = FACE_OUTER_BOUND ( 'NONE', #471, .T. ) ;
#732 = CARTESIAN_POINT ( 'NONE',  ( -29.99999999999999289, 45.00000000000000000, -15.05000000000000249 ) ) ;
#733 = ORIENTED_EDGE ( 'NONE', *, *, #207, .F. ) ;
#734 = EDGE_CURVE ( 'NONE', #180, #338, #408, .T. ) ;
#735 = CARTESIAN_POINT ( 'NONE',  ( 0.000000000000000000, 45.00000000000000000, 0.000000000000000000 ) ) ;
#736 = EDGE_LOOP ( 'NONE', ( #181, #691, #551, #722 ) ) ;
#737 = AXIS2_PLACEMENT_3D ( 'NONE', #577, #203, #254 ) ;
#738 = DIRECTION ( 'NONE',  ( -8.462065736472228863E-16, 0.000000000000000000, 1.000000000000000000 ) ) ;
#739 = DIRECTION ( 'NONE',  ( 0.000000000000000000, 0.000000000000000000, -1.000000000000000000 ) ) ;
#740 = AXIS2_PLACEMENT_3D ( 'NONE', #176, #374, #793 ) ;
#741 = EDGE_LOOP ( 'NONE', ( #448, #356, #676, #365 ) ) ;
#742 = FACE_OUTER_BOUND ( 'NONE', #769, .T. ) ;
#743 = VERTEX_POINT ( 'NONE', #535 ) ;
#744 = DIRECTION ( 'NONE',  ( -0.000000000000000000, -1.000000000000000000, -0.000000000000000000 ) ) ;
#745 = CARTESIAN_POINT ( 'NONE',  ( -29.99999999999999289, 0.000000000000000000, -15.05000000000000249 ) ) ;
#746 = CYLINDRICAL_SURFACE ( 'NONE', #440, 2.799999999999999822 ) ;
#747 = CARTESIAN_POINT ( 'NONE',  ( -19.99999999999998934, 0.000000000000000000, 3.549999999999997602 ) ) ;
#748 = DIRECTION ( 'NONE',  ( 0.000000000000000000, 0.000000000000000000, 1.000000000000000000 ) ) ;
#749 = DIRECTION ( 'NONE',  ( 0.000000000000000000, 1.000000000000000000, -0.000000000000000000 ) ) ;
#750 = ORIENTED_EDGE ( 'NONE', *, *, #385, .F. ) ;
#751 = EDGE_CURVE ( 'NONE', #528, #409, #714, .T. ) ;
#752 = DIRECTION ( 'NONE',  ( 0.000000000000000000, 0.000000000000000000, 1.000000000000000000 ) ) ;
#753 = VECTOR ( 'NONE', #643, 1000.000000000000000 ) ;
#754 = FACE_OUTER_BOUND ( 'NONE', #600, .T. ) ;
#755 = VECTOR ( 'NONE', #738, 1000.000000000000000 ) ;
#756 = CARTESIAN_POINT ( 'NONE',  ( 1.710630094366016436E-16, 45.00000000000000000, 3.549999999999996714 ) ) ;
#757 = DIRECTION ( 'NONE',  ( 0.000000000000000000, 0.000000000000000000, 1.000000000000000000 ) ) ;
#758 = DIRECTION ( 'NONE',  ( -0.000000000000000000, -1.000000000000000000, -0.000000000000000000 ) ) ;
#759 = EDGE_CURVE ( 'NONE', #298, #34, #309, .T. ) ;
#760 = CYLINDRICAL_SURFACE ( 'NONE', #138, 1.000000000000000888 ) ;
#761 = DIRECTION ( 'NONE',  ( 0.000000000000000000, 0.000000000000000000, 1.000000000000000000 ) ) ;
#762 = DIRECTION ( 'NONE',  ( 8.462065736472230835E-16, 0.000000000000000000, -1.000000000000000000 ) ) ;
#763 = AXIS2_PLACEMENT_3D ( 'NONE', #568, #182, #301 ) ;
#764 = CARTESIAN_POINT ( 'NONE',  ( -28.99999999999998934, 45.00000000000000000, -16.05000000000000071 ) ) ;
#765 = PLANE ( 'NONE',  #389 ) ;
#766 = AXIS2_PLACEMENT_3D ( 'NONE', #417, #749, #558 ) ;
#767 = LINE ( 'NONE', #399, #264 ) ;
#768 = DIRECTION ( 'NONE',  ( -1.927470528863122746E-16, 0.000000000000000000, -1.000000000000000000 ) ) ;
#769 = EDGE_LOOP ( 'NONE', ( #464, #788, #495, #534 ) ) ;
#770 = EDGE_CURVE ( 'NONE', #345, #789, #603, .T. ) ;
#771 = DIRECTION ( 'NONE',  ( -0.000000000000000000, -1.000000000000000000, 0.000000000000000000 ) ) ;
#772 = VERTEX_POINT ( 'NONE', #679 ) ;
#773 = ORIENTED_EDGE ( 'NONE', *, *, #256, .F. ) ;
#774 = CARTESIAN_POINT ( 'NONE',  ( 28.99999999999999645, 0.000000000000000000, -15.05000000000000071 ) ) ;
#775 = VECTOR ( 'NONE', #631, 1000.000000000000000 ) ;
#776 = DIRECTION ( 'NONE',  ( 1.000000000000000000, -0.000000000000000000, 0.000000000000000000 ) ) ;
#777 = ORIENTED_EDGE ( 'NONE', *, *, #211, .F. ) ;
#778 = ORIENTED_EDGE ( 'NONE', *, *, #527, .F. ) ;
#779 = ORIENTED_EDGE ( 'NONE', *, *, #507, .F. ) ;
#780 = ADVANCED_FACE ( 'NONE', ( #48 ), #746, .F. ) ;
#781 = PLANE ( 'NONE',  #80 ) ;
#782 = CIRCLE ( 'NONE', #474, 1.000000000000000000 ) ;
#783 = CARTESIAN_POINT ( 'NONE',  ( 0.000000000000000000, 0.000000000000000000, 0.000000000000000000 ) ) ;
#784 = ORIENTED_EDGE ( 'NONE', *, *, #371, .F. ) ;
#785 = EDGE_LOOP ( 'NONE', ( #526, #272, #546, #453 ) ) ;
#786 = EDGE_CURVE ( 'NONE', #255, #265, #122, .T. ) ;
#787 = CARTESIAN_POINT ( 'NONE',  ( 30.00000000000000000, 45.00000000000000000, 13.94999999999999751 ) ) ;
#788 = ORIENTED_EDGE ( 'NONE', *, *, #540, .F. ) ;
#789 = VERTEX_POINT ( 'NONE', #367 ) ;
#790 = DIRECTION ( 'NONE',  ( -1.000000000000000000, 0.000000000000000000, 4.818676322157797621E-17 ) ) ;
#791 = ORIENTED_EDGE ( 'NONE', *, *, #192, .T. ) ;
#792 = DIRECTION ( 'NONE',  ( 0.000000000000000000, 0.000000000000000000, 1.000000000000000000 ) ) ;
#793 = DIRECTION ( 'NONE',  ( -1.000000000000000000, 0.000000000000000000, -5.981805089575199895E-17 ) ) ;
#794 = VECTOR ( 'NONE', #208, 1000.000000000000000 ) ;
#795 = ORIENTED_EDGE ( 'NONE', *, *, #308, .F. ) ;
#796 = AXIS2_PLACEMENT_3D ( 'NONE', #247, #188, #366 ) ;
#797 = DIRECTION ( 'NONE',  ( 0.000000000000000000, 0.000000000000000000, 1.000000000000000000 ) ) ;
#798 = AXIS2_PLACEMENT_3D ( 'NONE', #728, #739, #677 ) ;
#799 = VERTEX_POINT ( 'NONE', #435 ) ;
#800 = CLOSED_SHELL ( 'NONE', ( #780, #497, #801, #350, #90, #66, #77, #250, #30, #460, #142, #404, #119, #647, #379, #37, #244, #279, #517, #288, #341, #723, #561, #20 ) ) ;
#801 = ADVANCED_FACE ( 'NONE', ( #420 ), #238, .T. ) ;
#802 = CARTESIAN_POINT ( 'NONE',  ( -28.99999999999998934, 45.00000000000000000, -15.05000000000000249 ) ) ;
#803 = CARTESIAN_POINT ( 'NONE',  ( -29.99999999999999289, 45.00000000000000000, 0.000000000000000000 ) ) ;
#804 = ORIENTED_EDGE ( 'NONE', *, *, #295, .F. ) ;
#805 = LINE ( 'NONE', #243, #620 ) ;
ENDSEC;
END-ISO-10303-21;
