ISO-10303-21;
HEADER;
FILE_DESCRIPTION (( 'STEP AP214' ),
    '1' );
FILE_NAME ('Blank_CenterSupport.STEP',
    '2026-08-23T00:19:30',
    ( '' ),
    ( '' ),
    'SwSTEP 2.0',
    'SolidWorks 2026',
    '' );
FILE_SCHEMA (( 'AUTOMOTIVE_DESIGN' ));
ENDSEC;

DATA;
#1 = ORIENTED_EDGE ( 'NONE', *, *, #12, .F. ) ;
#2 = FACE_OUTER_BOUND ( 'NONE', #331, .T. ) ;
#3 = DIRECTION ( 'NONE',  ( -0.000000000000000000, -1.000000000000000000, -0.000000000000000000 ) ) ;
#4 = SURFACE_SIDE_STYLE ('',( #369 ) ) ;
#5 = VECTOR ( 'NONE', #497, 1000.000000000000000 ) ;
#6 = ORIENTED_EDGE ( 'NONE', *, *, #372, .F. ) ;
#7 = CYLINDRICAL_SURFACE ( 'NONE', #437, 1.000000000000000888 ) ;
#8 = VECTOR ( 'NONE', #260, 1000.000000000000000 ) ;
#9 = ORIENTED_EDGE ( 'NONE', *, *, #142, .T. ) ;
#10 = CARTESIAN_POINT ( 'NONE',  ( -28.99999999999998579, 0.000000000000000000, -4.650000000000001243 ) ) ;
#11 = ORIENTED_EDGE ( 'NONE', *, *, #179, .F. ) ;
#12 = EDGE_CURVE ( 'NONE', #734, #403, #334, .T. ) ;
#13 = FACE_OUTER_BOUND ( 'NONE', #769, .T. ) ;
#14 = EDGE_LOOP ( 'NONE', ( #273, #82, #387, #306 ) ) ;
#15 = ADVANCED_FACE ( 'NONE', ( #652 ), #392, .F. ) ;
#16 = VECTOR ( 'NONE', #648, 1000.000000000000000 ) ;
#17 = AXIS2_PLACEMENT_3D ( 'NONE', #467, #107, #722 ) ;
#18 = LINE ( 'NONE', #407, #139 ) ;
#19 = ORIENTED_EDGE ( 'NONE', *, *, #376, .F. ) ;
#20 = CARTESIAN_POINT ( 'NONE',  ( -29.99999999999999289, 45.00000000000000000, 5.650000000000003020 ) ) ;
#21 = EDGE_CURVE ( 'NONE', #403, #720, #587, .T. ) ;
#22 = DIRECTION ( 'NONE',  ( 0.000000000000000000, 1.000000000000000000, -0.000000000000000000 ) ) ;
#23 = ORIENTED_EDGE ( 'NONE', *, *, #636, .F. ) ;
#24 = CARTESIAN_POINT ( 'NONE',  ( -8.962737959213520413E-16, 45.00000000000000000, -4.649999999999999467 ) ) ;
#25 = CARTESIAN_POINT ( 'NONE',  ( 1.854359577768312596E-15, 45.00000000000000000, -15.50000000000000355 ) ) ;
#26 = EDGE_CURVE ( 'NONE', #720, #217, #461, .T. ) ;
#27 = DIRECTION ( 'NONE',  ( -0.000000000000000000, -1.000000000000000000, -0.000000000000000000 ) ) ;
#28 = VECTOR ( 'NONE', #212, 1000.000000000000000 ) ;
#29 = LINE ( 'NONE', #519, #523 ) ;
#30 = AXIS2_PLACEMENT_3D ( 'NONE', #233, #227, #798 ) ;
#31 =( NAMED_UNIT ( * ) SI_UNIT ( $, .STERADIAN. ) SOLID_ANGLE_UNIT ( ) );
#32 = AXIS2_PLACEMENT_3D ( 'NONE', #340, #528, #782 ) ;
#33 = ADVANCED_FACE ( 'NONE', ( #343 ), #275, .T. ) ;
#34 = EDGE_LOOP ( 'NONE', ( #1, #711, #329, #424 ) ) ;
#35 = VERTEX_POINT ( 'NONE', #584 ) ;
#36 = DIRECTION ( 'NONE',  ( -0.000000000000000000, -1.000000000000000000, 0.000000000000000000 ) ) ;
#37 = CARTESIAN_POINT ( 'NONE',  ( -19.99999999999998934, 0.000000000000000000, 4.649999999999995026 ) ) ;
#38 = ORIENTED_EDGE ( 'NONE', *, *, #718, .F. ) ;
#39 = DIRECTION ( 'NONE',  ( 0.000000000000000000, 0.000000000000000000, -1.000000000000000000 ) ) ;
#40 = EDGE_CURVE ( 'NONE', #374, #342, #29, .T. ) ;
#41 = DIRECTION ( 'NONE',  ( 0.000000000000000000, 0.000000000000000000, -1.000000000000000000 ) ) ;
#42 = PLANE ( 'NONE',  #304 ) ;
#43 = EDGE_LOOP ( 'NONE', ( #266, #592, #758, #176 ) ) ;
#44 = DIRECTION ( 'NONE',  ( 0.000000000000000000, 0.000000000000000000, 1.000000000000000000 ) ) ;
#45 = AXIS2_PLACEMENT_3D ( 'NONE', #313, #632, #493 ) ;
#46 = VECTOR ( 'NONE', #644, 1000.000000000000000 ) ;
#47 = ORIENTED_EDGE ( 'NONE', *, *, #247, .F. ) ;
#48 = VECTOR ( 'NONE', #44, 1000.000000000000000 ) ;
#49 = DIRECTION ( 'NONE',  ( -0.000000000000000000, -1.000000000000000000, -0.000000000000000000 ) ) ;
#50 = ADVANCED_FACE ( 'NONE', ( #277 ), #473, .T. ) ;
#51 = CARTESIAN_POINT ( 'NONE',  ( 30.00000000000000000, 0.000000000000000000, -0.000000000000000000 ) ) ;
#52 = ORIENTED_EDGE ( 'NONE', *, *, #681, .F. ) ;
#53 = DIRECTION ( 'NONE',  ( -1.927470528863122746E-16, 0.000000000000000000, -1.000000000000000000 ) ) ;
#54 = CARTESIAN_POINT ( 'NONE',  ( -29.99999999999999289, 45.00000000000000000, 0.000000000000000000 ) ) ;
#55 = EDGE_CURVE ( 'NONE', #355, #612, #728, .T. ) ;
#56 = DIRECTION ( 'NONE',  ( 0.000000000000000000, 0.000000000000000000, 1.000000000000000000 ) ) ;
#57 = ORIENTED_EDGE ( 'NONE', *, *, #626, .T. ) ;
#58 = DIRECTION ( 'NONE',  ( 1.000000000000000000, -0.000000000000000000, 3.730588120380233900E-16 ) ) ;
#59 = VERTEX_POINT ( 'NONE', #412 ) ;
#60 = CIRCLE ( 'NONE', #656, 0.9999999999999991118 ) ;
#61 = EDGE_CURVE ( 'NONE', #742, #148, #129, .T. ) ;
#62 = AXIS2_PLACEMENT_3D ( 'NONE', #434, #552, #347 ) ;
#63 = CARTESIAN_POINT ( 'NONE',  ( -28.99999999999998934, 45.00000000000000000, 14.49999999999999289 ) ) ;
#64 = ORIENTED_EDGE ( 'NONE', *, *, #191, .T. ) ;
#65 = CARTESIAN_POINT ( 'NONE',  ( -19.99999999999998934, 45.00000000000000000, -4.650000000000001243 ) ) ;
#66 = CARTESIAN_POINT ( 'NONE',  ( -28.99999999999998579, 45.00000000000000000, -4.650000000000001243 ) ) ;
#67 = ORIENTED_EDGE ( 'NONE', *, *, #268, .T. ) ;
#68 = DIRECTION ( 'NONE',  ( 0.000000000000000000, 1.000000000000000000, -0.000000000000000000 ) ) ;
#69 = DIRECTION ( 'NONE',  ( -1.000000000000000000, 0.000000000000000000, 2.891205793294682764E-16 ) ) ;
#70 =( LENGTH_UNIT ( ) NAMED_UNIT ( * ) SI_UNIT ( .MILLI., .METRE. ) );
#71 = ORIENTED_EDGE ( 'NONE', *, *, #383, .F. ) ;
#72 = AXIS2_PLACEMENT_3D ( 'NONE', #25, #97, #703 ) ;
#73 = AXIS2_PLACEMENT_3D ( 'NONE', #419, #245, #735 ) ;
#74 = CARTESIAN_POINT ( 'NONE',  ( 0.000000000000000000, 45.00000000000000000, 0.000000000000000000 ) ) ;
#75 = CIRCLE ( 'NONE', #740, 1.000000000000000000 ) ;
#76 = AXIS2_PLACEMENT_3D ( 'NONE', #666, #297, #790 ) ;
#77 = CARTESIAN_POINT ( 'NONE',  ( 28.99999999999998934, 45.00000000000000000, -4.650000000000004796 ) ) ;
#78 = LINE ( 'NONE', #81, #653 ) ;
#79 = EDGE_CURVE ( 'NONE', #99, #700, #659, .T. ) ;
#80 = ORIENTED_EDGE ( 'NONE', *, *, #231, .T. ) ;
#81 = CARTESIAN_POINT ( 'NONE',  ( 28.99999999999998934, 45.00000000000000000, -15.50000000000000000 ) ) ;
#82 = ORIENTED_EDGE ( 'NONE', *, *, #655, .F. ) ;
#83 = DIRECTION ( 'NONE',  ( 1.000000000000000000, 0.000000000000000000, -9.637352644315602638E-17 ) ) ;
#84 = VERTEX_POINT ( 'NONE', #125 ) ;
#85 = EDGE_CURVE ( 'NONE', #311, #599, #737, .T. ) ;
#86 = PRESENTATION_LAYER_ASSIGNMENT (  '', '', ( #536 ) ) ;
#87 = CIRCLE ( 'NONE', #630, 2.799999999999999822 ) ;
#88 = AXIS2_PLACEMENT_3D ( 'NONE', #190, #430, #488 ) ;
#89 = DIRECTION ( 'NONE',  ( -2.891205793294682764E-16, 0.000000000000000000, -1.000000000000000000 ) ) ;
#90 = ORIENTED_EDGE ( 'NONE', *, *, #781, .F. ) ;
#91 = DIRECTION ( 'NONE',  ( 0.000000000000000000, 0.000000000000000000, -1.000000000000000000 ) ) ;
#92 = FACE_OUTER_BOUND ( 'NONE', #595, .T. ) ;
#93 = DIRECTION ( 'NONE',  ( -0.000000000000000000, -1.000000000000000000, 0.000000000000000000 ) ) ;
#94 = DIRECTION ( 'NONE',  ( 0.000000000000000000, 0.000000000000000000, 1.000000000000000000 ) ) ;
#95 = CARTESIAN_POINT ( 'NONE',  ( -19.99999999999998934, 45.00000000000000000, 0.000000000000000000 ) ) ;
#96 = CARTESIAN_POINT ( 'NONE',  ( -29.99999999999999289, 45.00000000000000000, 0.000000000000000000 ) ) ;
#97 = DIRECTION ( 'NONE',  ( 1.196361017915039979E-16, 0.000000000000000000, -1.000000000000000000 ) ) ;
#98 = ORIENTED_EDGE ( 'NONE', *, *, #765, .F. ) ;
#99 = VERTEX_POINT ( 'NONE', #357 ) ;
#100 = AXIS2_PLACEMENT_3D ( 'NONE', #164, #39, #229 ) ;
#101 = AXIS2_PLACEMENT_3D ( 'NONE', #530, #664, #284 ) ;
#102 = CARTESIAN_POINT ( 'NONE',  ( 3.429011037612588290E-16, 45.00000000000000000, 2.799999999999999822 ) ) ;
#103 = CLOSED_SHELL ( 'NONE', ( #137, #431, #802, #50, #15, #151, #579, #512, #507, #408, #606, #324, #749, #33, #566, #492, #527, #224, #615, #367, #661, #631, #522, #736 ) ) ;
#104 = ORIENTED_EDGE ( 'NONE', *, *, #40, .F. ) ;
#105 = EDGE_CURVE ( 'NONE', #248, #455, #748, .T. ) ;
#106 = EDGE_LOOP ( 'NONE', ( #726, #386, #71, #622 ) ) ;
#107 = DIRECTION ( 'NONE',  ( -0.000000000000000000, -1.000000000000000000, -0.000000000000000000 ) ) ;
#108 = CARTESIAN_POINT ( 'NONE',  ( -28.99999999999998934, 0.000000000000000000, -14.50000000000000533 ) ) ;
#109 = ORIENTED_EDGE ( 'NONE', *, *, #187, .F. ) ;
#110 = CARTESIAN_POINT ( 'NONE',  ( -19.99999999999998934, 0.000000000000000000, 0.000000000000000000 ) ) ;
#111 = SHAPE_DEFINITION_REPRESENTATION ( #373, #381 ) ;
#112 = DIRECTION ( 'NONE',  ( -1.000000000000000000, 0.000000000000000000, 9.637352644315603871E-17 ) ) ;
#113 = ORIENTED_EDGE ( 'NONE', *, *, #650, .F. ) ;
#114 = DIRECTION ( 'NONE',  ( 0.000000000000000000, 0.000000000000000000, -1.000000000000000000 ) ) ;
#115 = DIRECTION ( 'NONE',  ( -0.000000000000000000, -1.000000000000000000, 0.000000000000000000 ) ) ;
#116 = CIRCLE ( 'NONE', #339, 2.799999999999999822 ) ;
#117 = CARTESIAN_POINT ( 'NONE',  ( -19.99999999999998934, 45.00000000000000000, 0.000000000000000000 ) ) ;
#118 = ORIENTED_EDGE ( 'NONE', *, *, #781, .T. ) ;
#119 = DIRECTION ( 'NONE',  ( -0.000000000000000000, -1.000000000000000000, -0.000000000000000000 ) ) ;
#120 = EDGE_CURVE ( 'NONE', #259, #248, #614, .T. ) ;
#121 = CYLINDRICAL_SURFACE ( 'NONE', #696, 1.000000000000000000 ) ;
#122 = ORIENTED_EDGE ( 'NONE', *, *, #206, .F. ) ;
#123 = PLANE ( 'NONE',  #290 ) ;
#124 = ORIENTED_EDGE ( 'NONE', *, *, #573, .F. ) ;
#125 = CARTESIAN_POINT ( 'NONE',  ( 28.99999999999998934, 0.000000000000000000, -15.50000000000000000 ) ) ;
#126 = EDGE_CURVE ( 'NONE', #548, #603, #754, .T. ) ;
#127 = ORIENTED_EDGE ( 'NONE', *, *, #650, .T. ) ;
#128 = AXIS2_PLACEMENT_3D ( 'NONE', #305, #89, #69 ) ;
#129 = CIRCLE ( 'NONE', #676, 2.799999999999999822 ) ;
#130 = CARTESIAN_POINT ( 'NONE',  ( -28.99999999999998579, 45.00000000000000000, 4.649999999999995914 ) ) ;
#131 = CARTESIAN_POINT ( 'NONE',  ( -29.99999999999999289, 0.000000000000000000, 5.650000000000003020 ) ) ;
#132 = ORIENTED_EDGE ( 'NONE', *, *, #590, .T. ) ;
#133 = APPLICATION_CONTEXT ( 'automotive_design' ) ;
#134 = DIRECTION ( 'NONE',  ( -0.000000000000000000, -1.000000000000000000, -0.000000000000000000 ) ) ;
#135 = ORIENTED_EDGE ( 'NONE', *, *, #362, .F. ) ;
#136 = DIRECTION ( 'NONE',  ( 0.000000000000000000, 1.000000000000000000, -0.000000000000000000 ) ) ;
#137 = ADVANCED_FACE ( 'NONE', ( #601 ), #195, .F. ) ;
#138 = LINE ( 'NONE', #691, #255 ) ;
#139 = VECTOR ( 'NONE', #335, 1000.000000000000000 ) ;
#140 = FACE_OUTER_BOUND ( 'NONE', #43, .T. ) ;
#141 = VECTOR ( 'NONE', #583, 1000.000000000000000 ) ;
#142 = EDGE_CURVE ( 'NONE', #399, #603, #610, .T. ) ;
#143 = CARTESIAN_POINT ( 'NONE',  ( 0.000000000000000000, 0.000000000000000000, 0.000000000000000000 ) ) ;
#144 = ORIENTED_EDGE ( 'NONE', *, *, #191, .F. ) ;
#145 = CARTESIAN_POINT ( 'NONE',  ( 30.00000000000000000, 0.000000000000000000, 0.000000000000000000 ) ) ;
#146 = SURFACE_STYLE_USAGE ( .BOTH. , #4 ) ;
#147 = ORIENTED_EDGE ( 'NONE', *, *, #299, .F. ) ;
#148 = VERTEX_POINT ( 'NONE', #605 ) ;
#149 = DIRECTION ( 'NONE',  ( 0.000000000000000000, 0.000000000000000000, 1.000000000000000000 ) ) ;
#150 = AXIS2_PLACEMENT_3D ( 'NONE', #501, #203, #634 ) ;
#151 = ADVANCED_FACE ( 'NONE', ( #485 ), #287, .T. ) ;
#152 = DIRECTION ( 'NONE',  ( -3.730588120380233407E-16, 0.000000000000000000, 1.000000000000000000 ) ) ;
#153 = AXIS2_PLACEMENT_3D ( 'NONE', #364, #620, #149 ) ;
#154 = EDGE_LOOP ( 'NONE', ( #788, #295, #9, #486 ) ) ;
#155 = DIRECTION ( 'NONE',  ( 0.000000000000000000, 1.000000000000000000, -0.000000000000000000 ) ) ;
#156 = PLANE ( 'NONE',  #338 ) ;
#157 = ORIENTED_EDGE ( 'NONE', *, *, #573, .T. ) ;
#158 = ORIENTED_EDGE ( 'NONE', *, *, #321, .F. ) ;
#159 = FACE_OUTER_BOUND ( 'NONE', #262, .T. ) ;
#160 = ORIENTED_EDGE ( 'NONE', *, *, #713, .F. ) ;
#161 = LINE ( 'NONE', #771, #327 ) ;
#162 = FACE_OUTER_BOUND ( 'NONE', #627, .T. ) ;
#163 = ORIENTED_EDGE ( 'NONE', *, *, #795, .T. ) ;
#164 = CARTESIAN_POINT ( 'NONE',  ( 0.000000000000000000, 45.00000000000000000, -4.650000000000001243 ) ) ;
#165 = CARTESIAN_POINT ( 'NONE',  ( 1.344410693882026287E-15, 45.00000000000000000, 4.649999999999995914 ) ) ;
#166 = PRODUCT_DEFINITION_CONTEXT ( 'detailed design', #133, 'design' ) ;
#167 = CARTESIAN_POINT ( 'NONE',  ( 0.000000000000000000, 0.000000000000000000, 0.000000000000000000 ) ) ;
#168 = DIRECTION ( 'NONE',  ( 0.000000000000000000, 0.000000000000000000, -1.000000000000000000 ) ) ;
#169 = EDGE_LOOP ( 'NONE', ( #770, #764, #778, #196 ) ) ;
#170 = DIRECTION ( 'NONE',  ( 1.000000000000000000, 0.000000000000000000, -2.891205793294682764E-16 ) ) ;
#171 = CARTESIAN_POINT ( 'NONE',  ( 4.481368979606749360E-16, 45.00000000000000000, 4.649999999999993250 ) ) ;
#172 = EDGE_CURVE ( 'NONE', #271, #315, #803, .T. ) ;
#173 = EDGE_LOOP ( 'NONE', ( #796, #104, #684, #192 ) ) ;
#174 = CARTESIAN_POINT ( 'NONE',  ( 28.99999999999999645, 0.000000000000000000, -5.650000000000004796 ) ) ;
#175 = DIRECTION ( 'NONE',  ( 1.000000000000000000, 0.000000000000000000, 0.000000000000000000 ) ) ;
#176 = ORIENTED_EDGE ( 'NONE', *, *, #655, .T. ) ;
#177 = DIRECTION ( 'NONE',  ( -0.000000000000000000, -1.000000000000000000, -0.000000000000000000 ) ) ;
#178 = DIRECTION ( 'NONE',  ( 1.000000000000000000, -0.000000000000000000, 0.000000000000000000 ) ) ;
#179 = EDGE_CURVE ( 'NONE', #767, #742, #307, .T. ) ;
#180 = AXIS2_PLACEMENT_3D ( 'NONE', #237, #53, #483 ) ;
#181 = VECTOR ( 'NONE', #562, 1000.000000000000000 ) ;
#182 = FACE_OUTER_BOUND ( 'NONE', #715, .T. ) ;
#183 = ORIENTED_EDGE ( 'NONE', *, *, #713, .T. ) ;
#184 = AXIS2_PLACEMENT_3D ( 'NONE', #557, #186, #426 ) ;
#185 = PLANE ( 'NONE',  #180 ) ;
#186 = DIRECTION ( 'NONE',  ( 0.000000000000000000, 1.000000000000000000, -0.000000000000000000 ) ) ;
#187 = EDGE_CURVE ( 'NONE', #213, #349, #422, .T. ) ;
#188 = ORIENTED_EDGE ( 'NONE', *, *, #689, .F. ) ;
#189 = CARTESIAN_POINT ( 'NONE',  ( 28.99999999999998934, 45.00000000000000000, 4.649999999999987921 ) ) ;
#190 = CARTESIAN_POINT ( 'NONE',  ( -28.99999999999998934, 45.00000000000000000, -5.650000000000001243 ) ) ;
#191 = EDGE_CURVE ( 'NONE', #734, #285, #546, .T. ) ;
#192 = ORIENTED_EDGE ( 'NONE', *, *, #765, .T. ) ;
#193 = FACE_OUTER_BOUND ( 'NONE', #577, .T. ) ;
#194 = APPLICATION_CONTEXT ( 'automotive_design' ) ;
#195 = CYLINDRICAL_SURFACE ( 'NONE', #62, 2.799999999999999822 ) ;
#196 = ORIENTED_EDGE ( 'NONE', *, *, #639, .T. ) ;
#197 = AXIS2_PLACEMENT_3D ( 'NONE', #174, #246, #793 ) ;
#198 = FACE_OUTER_BOUND ( 'NONE', #169, .T. ) ;
#199 = LINE ( 'NONE', #451, #5 ) ;
#200 = ORIENTED_EDGE ( 'NONE', *, *, #79, .F. ) ;
#201 = EDGE_CURVE ( 'NONE', #489, #59, #524, .T. ) ;
#202 = DIRECTION ( 'NONE',  ( -0.000000000000000000, -1.000000000000000000, 0.000000000000000000 ) ) ;
#203 = DIRECTION ( 'NONE',  ( 0.000000000000000000, 1.000000000000000000, -0.000000000000000000 ) ) ;
#204 = ORIENTED_EDGE ( 'NONE', *, *, #761, .F. ) ;
#205 = CARTESIAN_POINT ( 'NONE',  ( -29.99999999999999289, 45.00000000000000000, -14.49999999999999822 ) ) ;
#206 = EDGE_CURVE ( 'NONE', #582, #342, #439, .T. ) ;
#207 = DIRECTION ( 'NONE',  ( 0.000000000000000000, 0.000000000000000000, -1.000000000000000000 ) ) ;
#208 = VERTEX_POINT ( 'NONE', #293 ) ;
#209 = AXIS2_PLACEMENT_3D ( 'NONE', #239, #791, #168 ) ;
#210 = VECTOR ( 'NONE', #49, 1000.000000000000000 ) ;
#211 = EDGE_CURVE ( 'NONE', #285, #564, #687, .T. ) ;
#212 = DIRECTION ( 'NONE',  ( -0.000000000000000000, -1.000000000000000000, -0.000000000000000000 ) ) ;
#213 = VERTEX_POINT ( 'NONE', #421 ) ;
#214 = CARTESIAN_POINT ( 'NONE',  ( -28.99999999999998934, 45.00000000000000000, -14.50000000000000533 ) ) ;
#215 = EDGE_CURVE ( 'NONE', #315, #220, #542, .T. ) ;
#216 = VERTEX_POINT ( 'NONE', #480 ) ;
#217 = VERTEX_POINT ( 'NONE', #741 ) ;
#218 = ORIENTED_EDGE ( 'NONE', *, *, #283, .F. ) ;
#219 = CARTESIAN_POINT ( 'NONE',  ( -29.99999999999999289, 0.000000000000000000, 14.49999999999998579 ) ) ;
#220 = VERTEX_POINT ( 'NONE', #680 ) ;
#221 = CARTESIAN_POINT ( 'NONE',  ( 30.00000000000000000, 45.00000000000000000, 14.49999999999998757 ) ) ;
#222 = ORIENTED_EDGE ( 'NONE', *, *, #61, .F. ) ;
#223 = ORIENTED_EDGE ( 'NONE', *, *, #795, .F. ) ;
#224 = ADVANCED_FACE ( 'NONE', ( #744 ), #123, .T. ) ;
#225 = DIRECTION ( 'NONE',  ( 1.000000000000000000, 0.000000000000000000, -2.891205793294682764E-16 ) ) ;
#226 = DIRECTION ( 'NONE',  ( 1.000000000000000000, 0.000000000000000000, 2.990902544787599948E-17 ) ) ;
#227 = DIRECTION ( 'NONE',  ( -0.000000000000000000, -1.000000000000000000, -0.000000000000000000 ) ) ;
#228 = ORIENTED_EDGE ( 'NONE', *, *, #718, .T. ) ;
#229 = DIRECTION ( 'NONE',  ( -1.000000000000000000, 0.000000000000000000, -0.000000000000000000 ) ) ;
#230 = DIRECTION ( 'NONE',  ( 0.000000000000000000, 0.000000000000000000, 1.000000000000000000 ) ) ;
#231 = EDGE_CURVE ( 'NONE', #657, #374, #498, .T. ) ;
#232 = AXIS2_PLACEMENT_3D ( 'NONE', #353, #235, #249 ) ;
#233 = CARTESIAN_POINT ( 'NONE',  ( 28.99999999999999645, 45.00000000000000000, -14.50000000000000000 ) ) ;
#234 = CARTESIAN_POINT ( 'NONE',  ( 1.854359577768312596E-15, 0.000000000000000000, -15.50000000000000355 ) ) ;
#235 = DIRECTION ( 'NONE',  ( 0.000000000000000000, 1.000000000000000000, -0.000000000000000000 ) ) ;
#236 = CARTESIAN_POINT ( 'NONE',  ( 20.00000000000000355, 0.000000000000000000, 4.649999999999989697 ) ) ;
#237 = CARTESIAN_POINT ( 'NONE',  ( -8.962737959213520413E-16, 45.00000000000000000, -4.649999999999999467 ) ) ;
#238 = CARTESIAN_POINT ( 'NONE',  ( -29.99999999999999289, 45.00000000000000000, -5.650000000000008349 ) ) ;
#239 = CARTESIAN_POINT ( 'NONE',  ( 28.99999999999999645, 45.00000000000000000, 5.649999999999987921 ) ) ;
#240 = ORIENTED_EDGE ( 'NONE', *, *, #786, .T. ) ;
#241 = LINE ( 'NONE', #739, #671 ) ;
#242 = DIRECTION ( 'NONE',  ( -0.000000000000000000, -1.000000000000000000, -0.000000000000000000 ) ) ;
#243 = VECTOR ( 'NONE', #625, 1000.000000000000000 ) ;
#244 = ORIENTED_EDGE ( 'NONE', *, *, #85, .T. ) ;
#245 = DIRECTION ( 'NONE',  ( 0.000000000000000000, 1.000000000000000000, -0.000000000000000000 ) ) ;
#246 = DIRECTION ( 'NONE',  ( 0.000000000000000000, 1.000000000000000000, -0.000000000000000000 ) ) ;
#247 = EDGE_CURVE ( 'NONE', #59, #99, #312, .T. ) ;
#248 = VERTEX_POINT ( 'NONE', #773 ) ;
#249 = DIRECTION ( 'NONE',  ( 0.000000000000000000, 0.000000000000000000, 1.000000000000000000 ) ) ;
#250 = PRODUCT_RELATED_PRODUCT_CATEGORY ( 'part', '', ( #745 ) ) ;
#251 = DIRECTION ( 'NONE',  ( -3.730588120380233407E-16, 0.000000000000000000, 1.000000000000000000 ) ) ;
#252 = EDGE_LOOP ( 'NONE', ( #109, #624, #707, #534 ) ) ;
#253 = CARTESIAN_POINT ( 'NONE',  ( 30.00000000000000000, 45.00000000000000000, -5.650000000000011902 ) ) ;
#254 = CARTESIAN_POINT ( 'NONE',  ( -29.99999999999999289, 45.00000000000000000, -5.650000000000008349 ) ) ;
#255 = VECTOR ( 'NONE', #319, 1000.000000000000000 ) ;
#256 = CARTESIAN_POINT ( 'NONE',  ( 20.00000000000000355, 45.00000000000000000, 7.461176240760468391E-15 ) ) ;
#257 = EDGE_CURVE ( 'NONE', #692, #455, #263, .T. ) ;
#258 = AXIS2_PLACEMENT_3D ( 'NONE', #425, #487, #679 ) ;
#259 = VERTEX_POINT ( 'NONE', #10 ) ;
#260 = DIRECTION ( 'NONE',  ( -0.000000000000000000, -1.000000000000000000, -0.000000000000000000 ) ) ;
#261 = LINE ( 'NONE', #766, #325 ) ;
#262 = EDGE_LOOP ( 'NONE', ( #695, #567, #113, #544 ) ) ;
#263 = LINE ( 'NONE', #388, #365 ) ;
#264 = CARTESIAN_POINT ( 'NONE',  ( 0.000000000000000000, 45.00000000000000000, -2.799999999999999822 ) ) ;
#265 = EDGE_LOOP ( 'NONE', ( #157, #98, #223, #57 ) ) ;
#266 = ORIENTED_EDGE ( 'NONE', *, *, #21, .F. ) ;
#267 = AXIS2_PLACEMENT_3D ( 'NONE', #117, #175, #417 ) ;
#268 = EDGE_CURVE ( 'NONE', #99, #570, #316, .T. ) ;
#269 = DIRECTION ( 'NONE',  ( 0.000000000000000000, 0.000000000000000000, 1.000000000000000000 ) ) ;
#270 = ORIENTED_EDGE ( 'NONE', *, *, #465, .F. ) ;
#271 = VERTEX_POINT ( 'NONE', #441 ) ;
#272 = CARTESIAN_POINT ( 'NONE',  ( -4.635898944420778532E-16, 45.00000000000000000, 15.49999999999999289 ) ) ;
#273 = ORIENTED_EDGE ( 'NONE', *, *, #26, .F. ) ;
#274 = FACE_OUTER_BOUND ( 'NONE', #252, .T. ) ;
#275 = CYLINDRICAL_SURFACE ( 'NONE', #32, 1.000000000000000888 ) ;
#276 = CARTESIAN_POINT ( 'NONE',  ( 28.99999999999999645, 45.00000000000000000, -5.650000000000004796 ) ) ;
#277 = FACE_OUTER_BOUND ( 'NONE', #616, .T. ) ;
#278 = ORIENTED_EDGE ( 'NONE', *, *, #362, .T. ) ;
#279 = LINE ( 'NONE', #272, #619 ) ;
#280 = DIRECTION ( 'NONE',  ( 0.000000000000000000, 0.000000000000000000, -1.000000000000000000 ) ) ;
#281 = ORIENTED_EDGE ( 'NONE', *, *, #215, .F. ) ;
#282 = CARTESIAN_POINT ( 'NONE',  ( 28.99999999999999645, 0.000000000000000000, 5.649999999999987921 ) ) ;
#283 = EDGE_CURVE ( 'NONE', #216, #248, #690, .T. ) ;
#284 = DIRECTION ( 'NONE',  ( 0.000000000000000000, 0.000000000000000000, 1.000000000000000000 ) ) ;
#285 = VERTEX_POINT ( 'NONE', #333 ) ;
#286 = LINE ( 'NONE', #234, #303 ) ;
#287 = CYLINDRICAL_SURFACE ( 'NONE', #88, 1.000000000000000000 ) ;
#288 = EDGE_CURVE ( 'NONE', #603, #564, #310, .T. ) ;
#289 = VECTOR ( 'NONE', #91, 1000.000000000000000 ) ;
#290 = AXIS2_PLACEMENT_3D ( 'NONE', #361, #58, #683 ) ;
#291 = LINE ( 'NONE', #477, #621 ) ;
#292 = ORIENTED_EDGE ( 'NONE', *, *, #201, .F. ) ;
#293 = CARTESIAN_POINT ( 'NONE',  ( 20.00000000000000711, 45.00000000000000000, -4.650000000000003020 ) ) ;
#294 = DIRECTION ( 'NONE',  ( 0.000000000000000000, 0.000000000000000000, 1.000000000000000000 ) ) ;
#295 = ORIENTED_EDGE ( 'NONE', *, *, #786, .F. ) ;
#296 = LINE ( 'NONE', #490, #787 ) ;
#297 = DIRECTION ( 'NONE',  ( -0.000000000000000000, -1.000000000000000000, 0.000000000000000000 ) ) ;
#298 = PLANE ( 'NONE',  #267 ) ;
#299 = EDGE_CURVE ( 'NONE', #271, #35, #565, .T. ) ;
#300 = EDGE_LOOP ( 'NONE', ( #345, #6, #499, #649 ) ) ;
#301 = PLANE ( 'NONE',  #258 ) ;
#302 = CARTESIAN_POINT ( 'NONE',  ( 30.00000000000000000, 45.00000000000000000, 0.000000000000000000 ) ) ;
#303 = VECTOR ( 'NONE', #415, 1000.000000000000000 ) ;
#304 = AXIS2_PLACEMENT_3D ( 'NONE', #171, #414, #112 ) ;
#305 = CARTESIAN_POINT ( 'NONE',  ( 1.344410693882026287E-15, 45.00000000000000000, 4.649999999999995914 ) ) ;
#306 = ORIENTED_EDGE ( 'NONE', *, *, #478, .T. ) ;
#307 = LINE ( 'NONE', #537, #210 ) ;
#308 = FILL_AREA_STYLE ('',( #382 ) ) ;
#309 = ORIENTED_EDGE ( 'NONE', *, *, #674, .T. ) ;
#310 = LINE ( 'NONE', #760, #181 ) ;
#311 = VERTEX_POINT ( 'NONE', #642 ) ;
#312 = LINE ( 'NONE', #447, #289 ) ;
#313 = CARTESIAN_POINT ( 'NONE',  ( 0.000000000000000000, 45.00000000000000000, 0.000000000000000000 ) ) ;
#314 = VECTOR ( 'NONE', #429, 1000.000000000000000 ) ;
#315 = VERTEX_POINT ( 'NONE', #254 ) ;
#316 = CIRCLE ( 'NONE', #521, 1.000000000000000000 ) ;
#317 = VECTOR ( 'NONE', #580, 1000.000000000000000 ) ;
#318 = DIRECTION ( 'NONE',  ( 0.000000000000000000, 0.000000000000000000, 1.000000000000000000 ) ) ;
#319 = DIRECTION ( 'NONE',  ( 1.000000000000000000, 0.000000000000000000, 1.196361017915039979E-16 ) ) ;
#320 = EDGE_LOOP ( 'NONE', ( #502, #688, #135, #160 ) ) ;
#321 = EDGE_CURVE ( 'NONE', #208, #548, #330, .T. ) ;
#322 = DIRECTION ( 'NONE',  ( -0.000000000000000000, -1.000000000000000000, -0.000000000000000000 ) ) ;
#323 = ORIENTED_EDGE ( 'NONE', *, *, #590, .F. ) ;
#324 = ADVANCED_FACE ( 'NONE', ( #274 ), #7, .T. ) ;
#325 = VECTOR ( 'NONE', #637, 1000.000000000000000 ) ;
#326 = DIRECTION ( 'NONE',  ( 1.000000000000000000, 0.000000000000000000, 0.000000000000000000 ) ) ;
#327 = VECTOR ( 'NONE', #710, 1000.000000000000000 ) ;
#328 = ORIENTED_EDGE ( 'NONE', *, *, #257, .T. ) ;
#329 = ORIENTED_EDGE ( 'NONE', *, *, #723, .T. ) ;
#330 = LINE ( 'NONE', #24, #16 ) ;
#331 = EDGE_LOOP ( 'NONE', ( #38, #23, #428, #450 ) ) ;
#332 = EDGE_CURVE ( 'NONE', #767, #635, #87, .T. ) ;
#333 = CARTESIAN_POINT ( 'NONE',  ( 28.99999999999998934, 0.000000000000000000, -4.650000000000004796 ) ) ;
#334 = LINE ( 'NONE', #532, #380 ) ;
#335 = DIRECTION ( 'NONE',  ( -0.000000000000000000, -1.000000000000000000, -0.000000000000000000 ) ) ;
#336 = ORIENTED_EDGE ( 'NONE', *, *, #372, .T. ) ;
#337 = DIRECTION ( 'NONE',  ( 0.000000000000000000, 0.000000000000000000, 1.000000000000000000 ) ) ;
#338 = AXIS2_PLACEMENT_3D ( 'NONE', #460, #400, #337 ) ;
#339 = AXIS2_PLACEMENT_3D ( 'NONE', #712, #155, #94 ) ;
#340 = CARTESIAN_POINT ( 'NONE',  ( 28.99999999999999645, 45.00000000000000000, 14.49999999999999467 ) ) ;
#341 = CARTESIAN_POINT ( 'NONE',  ( -28.99999999999998934, 45.00000000000000000, 5.649999999999995914 ) ) ;
#342 = VERTEX_POINT ( 'NONE', #496 ) ;
#343 = FACE_OUTER_BOUND ( 'NONE', #173, .T. ) ;
#344 = DIRECTION ( 'NONE',  ( 0.000000000000000000, 1.000000000000000000, -0.000000000000000000 ) ) ;
#345 = ORIENTED_EDGE ( 'NONE', *, *, #105, .T. ) ;
#346 = EDGE_CURVE ( 'NONE', #208, #734, #751, .T. ) ;
#347 = DIRECTION ( 'NONE',  ( 0.000000000000000000, 0.000000000000000000, -1.000000000000000000 ) ) ;
#348 = CYLINDRICAL_SURFACE ( 'NONE', #30, 0.9999999999999991118 ) ;
#349 = VERTEX_POINT ( 'NONE', #219 ) ;
#350 = LINE ( 'NONE', #672, #709 ) ;
#351 = VECTOR ( 'NONE', #251, 1000.000000000000000 ) ;
#352 = AXIS2_PLACEMENT_3D ( 'NONE', #589, #36, #581 ) ;
#353 = CARTESIAN_POINT ( 'NONE',  ( 28.99999999999999645, 0.000000000000000000, 14.49999999999999467 ) ) ;
#354 = FACE_OUTER_BOUND ( 'NONE', #443, .T. ) ;
#355 = VERTEX_POINT ( 'NONE', #458 ) ;
#356 = CARTESIAN_POINT ( 'NONE',  ( 28.99999999999998934, 45.00000000000000000, 4.649999999999987921 ) ) ;
#357 = CARTESIAN_POINT ( 'NONE',  ( -29.99999999999999289, 45.00000000000000000, 5.650000000000003020 ) ) ;
#358 = LINE ( 'NONE', #474, #553 ) ;
#359 = EDGE_LOOP ( 'NONE', ( #662, #188, #633, #240 ) ) ;
#360 = CARTESIAN_POINT ( 'NONE',  ( 30.00000000000000000, 45.00000000000000000, 0.000000000000000000 ) ) ;
#361 = CARTESIAN_POINT ( 'NONE',  ( 20.00000000000000355, 45.00000000000000000, 7.461176240760468391E-15 ) ) ;
#362 = EDGE_CURVE ( 'NONE', #148, #742, #116, .T. ) ;
#363 = EDGE_LOOP ( 'NONE', ( #64, #775, #158, #738 ) ) ;
#364 = CARTESIAN_POINT ( 'NONE',  ( 28.99999999999999645, 45.00000000000000000, 14.49999999999999467 ) ) ;
#365 = VECTOR ( 'NONE', #693, 1000.000000000000000 ) ;
#366 = ORIENTED_EDGE ( 'NONE', *, *, #61, .T. ) ;
#367 = ADVANCED_FACE ( 'NONE', ( #198 ), #444, .T. ) ;
#368 = CARTESIAN_POINT ( 'NONE',  ( -28.99999999999998934, 45.00000000000000000, -5.650000000000001243 ) ) ;
#369 = SURFACE_STYLE_FILL_AREA ( #308 ) ;
#370 = ORIENTED_EDGE ( 'NONE', *, *, #697, .T. ) ;
#371 = LINE ( 'NONE', #776, #243 ) ;
#372 = EDGE_CURVE ( 'NONE', #555, #455, #371, .T. ) ;
#373 = PRODUCT_DEFINITION_SHAPE ( 'NONE', 'NONE',  #759 ) ;
#374 = VERTEX_POINT ( 'NONE', #221 ) ;
#375 = CARTESIAN_POINT ( 'NONE',  ( -28.99999999999998934, 45.00000000000000000, 14.49999999999999289 ) ) ;
#376 = EDGE_CURVE ( 'NONE', #570, #692, #685, .T. ) ;
#377 = CYLINDRICAL_SURFACE ( 'NONE', #45, 2.799999999999999822 ) ;
#378 = CIRCLE ( 'NONE', #101, 1.000000000000000000 ) ;
#379 = ORIENTED_EDGE ( 'NONE', *, *, #761, .T. ) ;
#380 = VECTOR ( 'NONE', #152, 1000.000000000000000 ) ;
#381 = ADVANCED_BREP_SHAPE_REPRESENTATION ( 'Blank_CenterSupport', ( #668, #420 ), #669 ) ;
#382 = FILL_AREA_STYLE_COLOUR ( '', #436 ) ;
#383 = EDGE_CURVE ( 'NONE', #315, #432, #673, .T. ) ;
#384 = ORIENTED_EDGE ( 'NONE', *, *, #268, .F. ) ;
#385 = DIRECTION ( 'NONE',  ( 0.000000000000000000, 1.000000000000000000, -0.000000000000000000 ) ) ;
#386 = ORIENTED_EDGE ( 'NONE', *, *, #701, .F. ) ;
#387 = ORIENTED_EDGE ( 'NONE', *, *, #465, .T. ) ;
#388 = CARTESIAN_POINT ( 'NONE',  ( 4.481368979606749360E-16, 0.000000000000000000, 4.649999999999993250 ) ) ;
#389 = VECTOR ( 'NONE', #585, 1000.000000000000000 ) ;
#390 = EDGE_CURVE ( 'NONE', #700, #692, #75, .T. ) ;
#391 = VECTOR ( 'NONE', #119, 1000.000000000000000 ) ;
#392 = PLANE ( 'NONE',  #698 ) ;
#393 = DIRECTION ( 'NONE',  ( 0.000000000000000000, 0.000000000000000000, 1.000000000000000000 ) ) ;
#394 = ORIENTED_EDGE ( 'NONE', *, *, #376, .T. ) ;
#395 = DIRECTION ( 'NONE',  ( 0.000000000000000000, 0.000000000000000000, 1.000000000000000000 ) ) ;
#396 = LINE ( 'NONE', #51, #404 ) ;
#397 = ORIENTED_EDGE ( 'NONE', *, *, #551, .F. ) ;
#398 = PLANE ( 'NONE',  #72 ) ;
#399 = VERTEX_POINT ( 'NONE', #568 ) ;
#400 = DIRECTION ( 'NONE',  ( -1.000000000000000000, 0.000000000000000000, 0.000000000000000000 ) ) ;
#401 = ORIENTED_EDGE ( 'NONE', *, *, #427, .F. ) ;
#402 = EDGE_CURVE ( 'NONE', #804, #564, #396, .T. ) ;
#403 = VERTEX_POINT ( 'NONE', #236 ) ;
#404 = VECTOR ( 'NONE', #543, 1000.000000000000000 ) ;
#405 = DIRECTION ( 'NONE',  ( 0.000000000000000000, 0.000000000000000000, 1.000000000000000000 ) ) ;
#406 = AXIS2_PLACEMENT_3D ( 'NONE', #282, #93, #230 ) ;
#407 = CARTESIAN_POINT ( 'NONE',  ( 28.99999999999998934, 45.00000000000000000, 15.49999999999999467 ) ) ;
#408 = ADVANCED_FACE ( 'NONE', ( #162 ), #121, .T. ) ;
#409 = CARTESIAN_POINT ( 'NONE',  ( 28.99999999999999645, 0.000000000000000000, -14.50000000000000000 ) ) ;
#410 = ORIENTED_EDGE ( 'NONE', *, *, #508, .F. ) ;
#411 = CARTESIAN_POINT ( 'NONE',  ( 28.99999999999998934, 0.000000000000000000, 15.49999999999999467 ) ) ;
#412 = CARTESIAN_POINT ( 'NONE',  ( -29.99999999999999289, 45.00000000000000000, 14.49999999999998579 ) ) ;
#413 = APPLICATION_PROTOCOL_DEFINITION ( 'draft international standard', 'automotive_design', 1998, #133 ) ;
#414 = DIRECTION ( 'NONE',  ( -9.637352644315603871E-17, 0.000000000000000000, -1.000000000000000000 ) ) ;
#415 = DIRECTION ( 'NONE',  ( 1.000000000000000000, 0.000000000000000000, 1.196361017915039979E-16 ) ) ;
#416 = DIRECTION ( 'NONE',  ( 0.000000000000000000, 0.000000000000000000, 1.000000000000000000 ) ) ;
#417 = DIRECTION ( 'NONE',  ( 0.000000000000000000, 0.000000000000000000, -1.000000000000000000 ) ) ;
#418 = ORIENTED_EDGE ( 'NONE', *, *, #55, .F. ) ;
#419 = CARTESIAN_POINT ( 'NONE',  ( 0.000000000000000000, 45.00000000000000000, 0.000000000000000000 ) ) ;
#420 = AXIS2_PLACEMENT_3D ( 'NONE', #167, #714, #326 ) ;
#421 = CARTESIAN_POINT ( 'NONE',  ( -28.99999999999998579, 0.000000000000000000, 15.49999999999999289 ) ) ;
#422 = CIRCLE ( 'NONE', #76, 1.000000000000000888 ) ;
#423 = PLANE ( 'NONE',  #472 ) ;
#424 = ORIENTED_EDGE ( 'NONE', *, *, #729, .T. ) ;
#425 = CARTESIAN_POINT ( 'NONE',  ( -29.99999999999999289, 45.00000000000000000, 0.000000000000000000 ) ) ;
#426 = DIRECTION ( 'NONE',  ( 0.000000000000000000, 0.000000000000000000, 1.000000000000000000 ) ) ;
#427 = EDGE_CURVE ( 'NONE', #599, #35, #753, .T. ) ;
#428 = ORIENTED_EDGE ( 'NONE', *, *, #247, .T. ) ;
#429 = DIRECTION ( 'NONE',  ( -0.000000000000000000, -1.000000000000000000, -0.000000000000000000 ) ) ;
#430 = DIRECTION ( 'NONE',  ( -0.000000000000000000, -1.000000000000000000, -0.000000000000000000 ) ) ;
#431 = ADVANCED_FACE ( 'NONE', ( #660 ), #348, .T. ) ;
#432 = VERTEX_POINT ( 'NONE', #533 ) ;
#433 = CARTESIAN_POINT ( 'NONE',  ( -28.99999999999998579, 0.000000000000000000, -15.50000000000000711 ) ) ;
#434 = CARTESIAN_POINT ( 'NONE',  ( 0.000000000000000000, 45.00000000000000000, 0.000000000000000000 ) ) ;
#435 = AXIS2_PLACEMENT_3D ( 'NONE', #360, #617, #114 ) ;
#436 = COLOUR_RGB ( '',0.7921568627450980005, 0.8196078431372548767, 0.9333333333333333481 ) ;
#437 = AXIS2_PLACEMENT_3D ( 'NONE', #375, #518, #586 ) ;
#438 =( NAMED_UNIT ( * ) SI_UNIT ( $, .STERADIAN. ) SOLID_ANGLE_UNIT ( ) );
#439 = CIRCLE ( 'NONE', #232, 1.000000000000000888 ) ;
#440 = ORIENTED_EDGE ( 'NONE', *, *, #689, .T. ) ;
#441 = CARTESIAN_POINT ( 'NONE',  ( -29.99999999999999289, 45.00000000000000000, -14.49999999999999822 ) ) ;
#442 = PLANE ( 'NONE',  #618 ) ;
#443 = EDGE_LOOP ( 'NONE', ( #531, #540, #118, #704, #572, #309, #746, #204, #384, #47, #292, #163, #80, #127, #270, #418, #647, #515, #457, #665 ) ) ;
#444 = CYLINDRICAL_SURFACE ( 'NONE', #591, 1.000000000000000000 ) ;
#445 = CARTESIAN_POINT ( 'NONE',  ( -28.99999999999998579, 0.000000000000000000, 4.649999999999995914 ) ) ;
#446 = ORIENTED_EDGE ( 'NONE', *, *, #390, .T. ) ;
#447 = CARTESIAN_POINT ( 'NONE',  ( -29.99999999999999289, 45.00000000000000000, 0.000000000000000000 ) ) ;
#448 = LINE ( 'NONE', #256, #351 ) ;
#449 = AXIS2_PLACEMENT_3D ( 'NONE', #368, #68, #500 ) ;
#450 = ORIENTED_EDGE ( 'NONE', *, *, #79, .T. ) ;
#451 = CARTESIAN_POINT ( 'NONE',  ( 20.00000000000000355, 45.00000000000000000, 4.649999999999989697 ) ) ;
#452 = EDGE_LOOP ( 'NONE', ( #463, #281, #785, #731 ) ) ;
#453 = FACE_OUTER_BOUND ( 'NONE', #678, .T. ) ;
#454 = EDGE_LOOP ( 'NONE', ( #517, #779 ) ) ;
#455 = VERTEX_POINT ( 'NONE', #37 ) ;
#456 = VECTOR ( 'NONE', #83, 1000.000000000000000 ) ;
#457 = ORIENTED_EDGE ( 'NONE', *, *, #126, .T. ) ;
#458 = CARTESIAN_POINT ( 'NONE',  ( 20.00000000000000355, 45.00000000000000000, 4.649999999999989697 ) ) ;
#459 = AXIS2_PLACEMENT_3D ( 'NONE', #108, #344, #597 ) ;
#460 = CARTESIAN_POINT ( 'NONE',  ( 30.00000000000000000, 45.00000000000000000, 0.000000000000000000 ) ) ;
#461 = CIRCLE ( 'NONE', #406, 1.000000000000000000 ) ;
#462 = DIRECTION ( 'NONE',  ( -0.000000000000000000, -1.000000000000000000, -0.000000000000000000 ) ) ;
#463 = ORIENTED_EDGE ( 'NONE', *, *, #508, .T. ) ;
#464 = EDGE_LOOP ( 'NONE', ( #278, #366 ) ) ;
#465 = EDGE_CURVE ( 'NONE', #612, #511, #378, .T. ) ;
#466 = APPLICATION_PROTOCOL_DEFINITION ( 'draft international standard', 'automotive_design', 1998, #194 ) ;
#467 = CARTESIAN_POINT ( 'NONE',  ( -28.99999999999998934, 45.00000000000000000, -14.50000000000000533 ) ) ;
#468 = UNCERTAINTY_MEASURE_WITH_UNIT (LENGTH_MEASURE( 1.000000000000000082E-05 ), #646, 'distance_accuracy_value', 'NONE');
#469 = FACE_OUTER_BOUND ( 'NONE', #265, .T. ) ;
#470 = DIRECTION ( 'NONE',  ( -0.000000000000000000, -1.000000000000000000, -0.000000000000000000 ) ) ;
#471 = ORIENTED_EDGE ( 'NONE', *, *, #402, .T. ) ;
#472 = AXIS2_PLACEMENT_3D ( 'NONE', #607, #547, #294 ) ;
#473 = CYLINDRICAL_SURFACE ( 'NONE', #17, 1.000000000000000888 ) ;
#474 = CARTESIAN_POINT ( 'NONE',  ( 30.00000000000000000, 45.00000000000000000, 5.649999999999995026 ) ) ;
#475 = ORIENTED_EDGE ( 'NONE', *, *, #674, .F. ) ;
#476 = DIRECTION ( 'NONE',  ( 0.000000000000000000, 0.000000000000000000, 1.000000000000000000 ) ) ;
#477 = CARTESIAN_POINT ( 'NONE',  ( -29.99999999999999289, 0.000000000000000000, 0.000000000000000000 ) ) ;
#478 = EDGE_CURVE ( 'NONE', #511, #217, #358, .T. ) ;
#479 = FACE_OUTER_BOUND ( 'NONE', #154, .T. ) ;
#480 = CARTESIAN_POINT ( 'NONE',  ( -19.99999999999998934, 45.00000000000000000, -4.650000000000001243 ) ) ;
#481 = DIRECTION ( 'NONE',  ( 0.000000000000000000, 0.000000000000000000, 1.000000000000000000 ) ) ;
#482 = ORIENTED_EDGE ( 'NONE', *, *, #85, .F. ) ;
#483 = DIRECTION ( 'NONE',  ( -1.000000000000000000, 0.000000000000000000, 1.927470528863122746E-16 ) ) ;
#484 = AXIS2_PLACEMENT_3D ( 'NONE', #529, #783, #576 ) ;
#485 = FACE_OUTER_BOUND ( 'NONE', #106, .T. ) ;
#486 = ORIENTED_EDGE ( 'NONE', *, *, #288, .T. ) ;
#487 = DIRECTION ( 'NONE',  ( -1.000000000000000000, 0.000000000000000000, 0.000000000000000000 ) ) ;
#488 = DIRECTION ( 'NONE',  ( 0.000000000000000000, 0.000000000000000000, -1.000000000000000000 ) ) ;
#489 = VERTEX_POINT ( 'NONE', #725 ) ;
#490 = CARTESIAN_POINT ( 'NONE',  ( -28.99999999999998579, 45.00000000000000000, 15.49999999999999289 ) ) ;
#491 = CARTESIAN_POINT ( 'NONE',  ( -28.99999999999998579, 45.00000000000000000, -15.50000000000000711 ) ) ;
#492 = ADVANCED_FACE ( 'NONE', ( #539 ), #602, .T. ) ;
#493 = DIRECTION ( 'NONE',  ( 0.000000000000000000, 0.000000000000000000, -1.000000000000000000 ) ) ;
#494 = PLANE ( 'NONE',  #128 ) ;
#495 = ORIENTED_EDGE ( 'NONE', *, *, #332, .T. ) ;
#496 = CARTESIAN_POINT ( 'NONE',  ( 30.00000000000000000, 0.000000000000000000, 14.49999999999998757 ) ) ;
#497 = DIRECTION ( 'NONE',  ( -0.000000000000000000, -1.000000000000000000, -0.000000000000000000 ) ) ;
#498 = CIRCLE ( 'NONE', #153, 1.000000000000000888 ) ;
#499 = ORIENTED_EDGE ( 'NONE', *, *, #558, .F. ) ;
#500 = DIRECTION ( 'NONE',  ( 0.000000000000000000, 0.000000000000000000, 1.000000000000000000 ) ) ;
#501 = CARTESIAN_POINT ( 'NONE',  ( -28.99999999999998934, 0.000000000000000000, -5.650000000000001243 ) ) ;
#502 = ORIENTED_EDGE ( 'NONE', *, *, #611, .T. ) ;
#503 = EDGE_CURVE ( 'NONE', #84, #804, #60, .T. ) ;
#504 = CARTESIAN_POINT ( 'NONE',  ( 20.00000000000000711, 45.00000000000000000, -4.650000000000003020 ) ) ;
#505 = LINE ( 'NONE', #563, #706 ) ;
#506 = ORIENTED_EDGE ( 'NONE', *, *, #390, .F. ) ;
#507 = ADVANCED_FACE ( 'NONE', ( #182 ), #42, .T. ) ;
#508 = EDGE_CURVE ( 'NONE', #35, #220, #291, .T. ) ;
#509 = VECTOR ( 'NONE', #322, 1000.000000000000000 ) ;
#510 =( NAMED_UNIT ( * ) PLANE_ANGLE_UNIT ( ) SI_UNIT ( $, .RADIAN. ) );
#511 = VERTEX_POINT ( 'NONE', #733 ) ;
#512 = ADVANCED_FACE ( 'NONE', ( #677 ), #298, .F. ) ;
#513 = CARTESIAN_POINT ( 'NONE',  ( 28.99999999999998934, 45.00000000000000000, -15.50000000000000000 ) ) ;
#514 = ORIENTED_EDGE ( 'NONE', *, *, #120, .F. ) ;
#515 = ORIENTED_EDGE ( 'NONE', *, *, #321, .T. ) ;
#516 = LINE ( 'NONE', #651, #456 ) ;
#517 = ORIENTED_EDGE ( 'NONE', *, *, #611, .F. ) ;
#518 = DIRECTION ( 'NONE',  ( -0.000000000000000000, -1.000000000000000000, -0.000000000000000000 ) ) ;
#519 = CARTESIAN_POINT ( 'NONE',  ( 30.00000000000000000, 45.00000000000000000, 14.49999999999998757 ) ) ;
#520 = DIRECTION ( 'NONE',  ( 0.000000000000000000, 0.000000000000000000, -1.000000000000000000 ) ) ;
#521 = AXIS2_PLACEMENT_3D ( 'NONE', #705, #623, #395 ) ;
#522 = ADVANCED_FACE ( 'NONE', ( #794, #354 ), #423, .T. ) ;
#523 = VECTOR ( 'NONE', #462, 1000.000000000000000 ) ;
#524 = CIRCLE ( 'NONE', #578, 1.000000000000000888 ) ;
#525 = CARTESIAN_POINT ( 'NONE',  ( 0.000000000000000000, 0.000000000000000000, 0.000000000000000000 ) ) ;
#526 =( NAMED_UNIT ( * ) PLANE_ANGLE_UNIT ( ) SI_UNIT ( $, .RADIAN. ) );
#527 = ADVANCED_FACE ( 'NONE', ( #140 ), #494, .T. ) ;
#528 = DIRECTION ( 'NONE',  ( -0.000000000000000000, -1.000000000000000000, -0.000000000000000000 ) ) ;
#529 = CARTESIAN_POINT ( 'NONE',  ( -4.635898944420778532E-16, 45.00000000000000000, 15.49999999999999289 ) ) ;
#530 = CARTESIAN_POINT ( 'NONE',  ( 28.99999999999999645, 45.00000000000000000, 5.649999999999987921 ) ) ;
#531 = ORIENTED_EDGE ( 'NONE', *, *, #774, .F. ) ;
#532 = CARTESIAN_POINT ( 'NONE',  ( 20.00000000000000355, 0.000000000000000000, 7.461176240760468391E-15 ) ) ;
#533 = CARTESIAN_POINT ( 'NONE',  ( -28.99999999999998579, 45.00000000000000000, -4.650000000000001243 ) ) ;
#534 = ORIENTED_EDGE ( 'NONE', *, *, #636, .T. ) ;
#535 = VECTOR ( 'NONE', #177, 1000.000000000000000 ) ;
#536 = STYLED_ITEM ( 'NONE', ( #694 ), #668 ) ;
#537 = CARTESIAN_POINT ( 'NONE',  ( 3.429011037612588290E-16, 45.00000000000000000, 2.799999999999999822 ) ) ;
#538 = VECTOR ( 'NONE', #732, 1000.000000000000000 ) ;
#539 = FACE_OUTER_BOUND ( 'NONE', #14, .T. ) ;
#540 = ORIENTED_EDGE ( 'NONE', *, *, #697, .F. ) ;
#541 = DIRECTION ( 'NONE',  ( -0.000000000000000000, -1.000000000000000000, -0.000000000000000000 ) ) ;
#542 = LINE ( 'NONE', #238, #643 ) ;
#543 = DIRECTION ( 'NONE',  ( 0.000000000000000000, 0.000000000000000000, 1.000000000000000000 ) ) ;
#544 = ORIENTED_EDGE ( 'NONE', *, *, #40, .T. ) ;
#545 = PLANE ( 'NONE',  #435 ) ;
#546 = LINE ( 'NONE', #797, #538 ) ;
#547 = DIRECTION ( 'NONE',  ( 0.000000000000000000, 1.000000000000000000, -0.000000000000000000 ) ) ;
#548 = VERTEX_POINT ( 'NONE', #77 ) ;
#549 = CARTESIAN_POINT ( 'NONE',  ( -29.99999999999999289, 45.00000000000000000, 14.49999999999998579 ) ) ;
#550 = CIRCLE ( 'NONE', #150, 1.000000000000000000 ) ;
#551 = EDGE_CURVE ( 'NONE', #342, #217, #762, .T. ) ;
#552 = DIRECTION ( 'NONE',  ( -0.000000000000000000, -1.000000000000000000, -0.000000000000000000 ) ) ;
#553 = VECTOR ( 'NONE', #470, 1000.000000000000000 ) ;
#554 = VECTOR ( 'NONE', #170, 1000.000000000000000 ) ;
#555 = VERTEX_POINT ( 'NONE', #667 ) ;
#556 = LINE ( 'NONE', #549, #535 ) ;
#557 = CARTESIAN_POINT ( 'NONE',  ( 28.99999999999999645, 45.00000000000000000, -5.650000000000004796 ) ) ;
#558 = EDGE_CURVE ( 'NONE', #216, #555, #598, .T. ) ;
#559 = LINE ( 'NONE', #66, #509 ) ;
#560 = ORIENTED_EDGE ( 'NONE', *, *, #21, .T. ) ;
#561 = FACE_OUTER_BOUND ( 'NONE', #363, .T. ) ;
#562 = DIRECTION ( 'NONE',  ( -0.000000000000000000, -1.000000000000000000, -0.000000000000000000 ) ) ;
#563 = CARTESIAN_POINT ( 'NONE',  ( -29.99999999999999289, 0.000000000000000000, -0.000000000000000000 ) ) ;
#564 = VERTEX_POINT ( 'NONE', #716 ) ;
#565 = LINE ( 'NONE', #205, #686 ) ;
#566 = ADVANCED_FACE ( 'NONE', ( #159 ), #156, .F. ) ;
#567 = ORIENTED_EDGE ( 'NONE', *, *, #478, .F. ) ;
#568 = CARTESIAN_POINT ( 'NONE',  ( 30.00000000000000000, 45.00000000000000000, -14.49999999999999289 ) ) ;
#569 = LINE ( 'NONE', #264, #28 ) ;
#570 = VERTEX_POINT ( 'NONE', #721 ) ;
#571 = CARTESIAN_POINT ( 'NONE',  ( 20.00000000000000711, 0.000000000000000000, -4.650000000000003020 ) ) ;
#572 = ORIENTED_EDGE ( 'NONE', *, *, #383, .T. ) ;
#573 = EDGE_CURVE ( 'NONE', #213, #582, #594, .T. ) ;
#574 = UNCERTAINTY_MEASURE_WITH_UNIT (LENGTH_MEASURE( 1.000000000000000082E-05 ), #70, 'distance_accuracy_value', 'NONE');
#575 = CIRCLE ( 'NONE', #708, 1.000000000000000888 ) ;
#576 = DIRECTION ( 'NONE',  ( -1.000000000000000000, 0.000000000000000000, -2.990902544787599948E-17 ) ) ;
#577 = EDGE_LOOP ( 'NONE', ( #11, #495, #183, #222 ) ) ;
#578 = AXIS2_PLACEMENT_3D ( 'NONE', #63, #115, #805 ) ;
#579 = ADVANCED_FACE ( 'NONE', ( #92 ), #780, .F. ) ;
#580 = DIRECTION ( 'NONE',  ( -0.000000000000000000, -1.000000000000000000, -0.000000000000000000 ) ) ;
#581 = DIRECTION ( 'NONE',  ( 0.000000000000000000, 0.000000000000000000, 1.000000000000000000 ) ) ;
#582 = VERTEX_POINT ( 'NONE', #411 ) ;
#583 = DIRECTION ( 'NONE',  ( -0.000000000000000000, -1.000000000000000000, -0.000000000000000000 ) ) ;
#584 = CARTESIAN_POINT ( 'NONE',  ( -29.99999999999999289, 0.000000000000000000, -14.49999999999999822 ) ) ;
#585 = DIRECTION ( 'NONE',  ( 0.000000000000000000, 0.000000000000000000, -1.000000000000000000 ) ) ;
#586 = DIRECTION ( 'NONE',  ( 0.000000000000000000, 0.000000000000000000, -1.000000000000000000 ) ) ;
#587 = LINE ( 'NONE', #645, #658 ) ;
#588 = CIRCLE ( 'NONE', #352, 0.9999999999999991118 ) ;
#589 = CARTESIAN_POINT ( 'NONE',  ( 28.99999999999999645, 45.00000000000000000, -14.50000000000000000 ) ) ;
#590 = EDGE_CURVE ( 'NONE', #599, #84, #286, .T. ) ;
#591 = AXIS2_PLACEMENT_3D ( 'NONE', #276, #134, #520 ) ;
#592 = ORIENTED_EDGE ( 'NONE', *, *, #729, .F. ) ;
#593 = VECTOR ( 'NONE', #178, 1000.000000000000000 ) ;
#594 = LINE ( 'NONE', #600, #604 ) ;
#595 = EDGE_LOOP ( 'NONE', ( #772, #218, #475, #750 ) ) ;
#596 = CARTESIAN_POINT ( 'NONE',  ( 3.429011037612588290E-16, 0.000000000000000000, 2.799999999999999822 ) ) ;
#597 = DIRECTION ( 'NONE',  ( 0.000000000000000000, 0.000000000000000000, 1.000000000000000000 ) ) ;
#598 = LINE ( 'NONE', #95, #46 ) ;
#599 = VERTEX_POINT ( 'NONE', #433 ) ;
#600 = CARTESIAN_POINT ( 'NONE',  ( -4.635898944420778532E-16, 0.000000000000000000, 15.49999999999999289 ) ) ;
#601 = FACE_OUTER_BOUND ( 'NONE', #320, .T. ) ;
#602 = CYLINDRICAL_SURFACE ( 'NONE', #209, 1.000000000000000000 ) ;
#603 = VERTEX_POINT ( 'NONE', #253 ) ;
#604 = VECTOR ( 'NONE', #727, 1000.000000000000000 ) ;
#605 = CARTESIAN_POINT ( 'NONE',  ( 0.000000000000000000, 0.000000000000000000, -2.799999999999999822 ) ) ;
#606 = ADVANCED_FACE ( 'NONE', ( #2 ), #301, .T. ) ;
#607 = CARTESIAN_POINT ( 'NONE',  ( 0.000000000000000000, 45.00000000000000000, 0.000000000000000000 ) ) ;
#608 = ORIENTED_EDGE ( 'NONE', *, *, #12, .T. ) ;
#609 = DIRECTION ( 'NONE',  ( -0.000000000000000000, -1.000000000000000000, -0.000000000000000000 ) ) ;
#610 = LINE ( 'NONE', #302, #789 ) ;
#611 = EDGE_CURVE ( 'NONE', #635, #767, #629, .T. ) ;
#612 = VERTEX_POINT ( 'NONE', #356 ) ;
#613 = CARTESIAN_POINT ( 'NONE',  ( 0.000000000000000000, 45.00000000000000000, -2.799999999999999822 ) ) ;
#614 = LINE ( 'NONE', #675, #593 ) ;
#615 = ADVANCED_FACE ( 'NONE', ( #561 ), #185, .F. ) ;
#616 = EDGE_LOOP ( 'NONE', ( #702, #147, #90, #244 ) ) ;
#617 = DIRECTION ( 'NONE',  ( 1.000000000000000000, 0.000000000000000000, 0.000000000000000000 ) ) ;
#618 = AXIS2_PLACEMENT_3D ( 'NONE', #143, #385, #393 ) ;
#619 = VECTOR ( 'NONE', #226, 1000.000000000000000 ) ;
#620 = DIRECTION ( 'NONE',  ( 0.000000000000000000, 1.000000000000000000, -0.000000000000000000 ) ) ;
#621 = VECTOR ( 'NONE', #481, 1000.000000000000000 ) ;
#622 = ORIENTED_EDGE ( 'NONE', *, *, #215, .T. ) ;
#623 = DIRECTION ( 'NONE',  ( -0.000000000000000000, -1.000000000000000000, 0.000000000000000000 ) ) ;
#624 = ORIENTED_EDGE ( 'NONE', *, *, #626, .F. ) ;
#625 = DIRECTION ( 'NONE',  ( -0.000000000000000000, -1.000000000000000000, -0.000000000000000000 ) ) ;
#626 = EDGE_CURVE ( 'NONE', #489, #213, #296, .T. ) ;
#627 = EDGE_LOOP ( 'NONE', ( #506, #200, #67, #394 ) ) ;
#628 = DIRECTION ( 'NONE',  ( 0.000000000000000000, 0.000000000000000000, 1.000000000000000000 ) ) ;
#629 = CIRCLE ( 'NONE', #73, 2.799999999999999822 ) ;
#630 = AXIS2_PLACEMENT_3D ( 'NONE', #74, #136, #318 ) ;
#631 = ADVANCED_FACE ( 'NONE', ( #479 ), #545, .T. ) ;
#632 = DIRECTION ( 'NONE',  ( -0.000000000000000000, -1.000000000000000000, -0.000000000000000000 ) ) ;
#633 = ORIENTED_EDGE ( 'NONE', *, *, #774, .T. ) ;
#634 = DIRECTION ( 'NONE',  ( 0.000000000000000000, 0.000000000000000000, 1.000000000000000000 ) ) ;
#635 = VERTEX_POINT ( 'NONE', #613 ) ;
#636 = EDGE_CURVE ( 'NONE', #59, #349, #556, .T. ) ;
#637 = DIRECTION ( 'NONE',  ( 1.000000000000000000, -0.000000000000000000, 0.000000000000000000 ) ) ;
#638 = ORIENTED_EDGE ( 'NONE', *, *, #26, .T. ) ;
#639 = EDGE_CURVE ( 'NONE', #548, #285, #350, .T. ) ;
#640 = MECHANICAL_DESIGN_GEOMETRIC_PRESENTATION_REPRESENTATION (  '', ( #536 ), #752 ) ;
#641 = ORIENTED_EDGE ( 'NONE', *, *, #503, .T. ) ;
#642 = CARTESIAN_POINT ( 'NONE',  ( -28.99999999999998579, 45.00000000000000000, -15.50000000000000711 ) ) ;
#643 = VECTOR ( 'NONE', #242, 1000.000000000000000 ) ;
#644 = DIRECTION ( 'NONE',  ( 0.000000000000000000, 0.000000000000000000, 1.000000000000000000 ) ) ;
#645 = CARTESIAN_POINT ( 'NONE',  ( 1.344410693882026287E-15, 0.000000000000000000, 4.649999999999995914 ) ) ;
#646 =( LENGTH_UNIT ( ) NAMED_UNIT ( * ) SI_UNIT ( .MILLI., .METRE. ) );
#647 = ORIENTED_EDGE ( 'NONE', *, *, #723, .F. ) ;
#648 = DIRECTION ( 'NONE',  ( 1.000000000000000000, 0.000000000000000000, -1.927470528863122500E-16 ) ) ;
#649 = ORIENTED_EDGE ( 'NONE', *, *, #283, .T. ) ;
#650 = EDGE_CURVE ( 'NONE', #374, #511, #241, .T. ) ;
#651 = CARTESIAN_POINT ( 'NONE',  ( 4.481368979606749360E-16, 45.00000000000000000, 4.649999999999993250 ) ) ;
#652 = FACE_OUTER_BOUND ( 'NONE', #452, .T. ) ;
#653 = VECTOR ( 'NONE', #755, 1000.000000000000000 ) ;
#654 = PRODUCT_CONTEXT ( 'NONE', #194, 'mechanical' ) ;
#655 = EDGE_CURVE ( 'NONE', #612, #720, #743, .T. ) ;
#656 = AXIS2_PLACEMENT_3D ( 'NONE', #409, #730, #56 ) ;
#657 = VERTEX_POINT ( 'NONE', #747 ) ;
#658 = VECTOR ( 'NONE', #225, 1000.000000000000000 ) ;
#659 = LINE ( 'NONE', #20, #317 ) ;
#660 = FACE_OUTER_BOUND ( 'NONE', #359, .T. ) ;
#661 = ADVANCED_FACE ( 'NONE', ( #193 ), #377, .F. ) ;
#662 = ORIENTED_EDGE ( 'NONE', *, *, #503, .F. ) ;
#663 = DIRECTION ( 'NONE',  ( 0.000000000000000000, 1.000000000000000000, -0.000000000000000000 ) ) ;
#664 = DIRECTION ( 'NONE',  ( -0.000000000000000000, -1.000000000000000000, 0.000000000000000000 ) ) ;
#665 = ORIENTED_EDGE ( 'NONE', *, *, #142, .F. ) ;
#666 = CARTESIAN_POINT ( 'NONE',  ( -28.99999999999998934, 0.000000000000000000, 14.49999999999999289 ) ) ;
#667 = CARTESIAN_POINT ( 'NONE',  ( -19.99999999999998934, 45.00000000000000000, 4.649999999999995026 ) ) ;
#668 = MANIFOLD_SOLID_BREP ( 'Boss-Extrude1', #103 ) ;
#669 =( GEOMETRIC_REPRESENTATION_CONTEXT ( 3 ) GLOBAL_UNCERTAINTY_ASSIGNED_CONTEXT ( ( #468 ) ) GLOBAL_UNIT_ASSIGNED_CONTEXT ( ( #646, #526, #31 ) ) REPRESENTATION_CONTEXT ( 'NONE', 'WORKASPACE' ) );
#670 = ORIENTED_EDGE ( 'NONE', *, *, #257, .F. ) ;
#671 = VECTOR ( 'NONE', #800, 1000.000000000000000 ) ;
#672 = CARTESIAN_POINT ( 'NONE',  ( 28.99999999999998934, 45.00000000000000000, -4.650000000000004796 ) ) ;
#673 = CIRCLE ( 'NONE', #449, 1.000000000000000000 ) ;
#674 = EDGE_CURVE ( 'NONE', #432, #216, #261, .T. ) ;
#675 = CARTESIAN_POINT ( 'NONE',  ( 0.000000000000000000, 0.000000000000000000, -4.650000000000001243 ) ) ;
#676 = AXIS2_PLACEMENT_3D ( 'NONE', #525, #663, #405 ) ;
#677 = FACE_OUTER_BOUND ( 'NONE', #300, .T. ) ;
#678 = EDGE_LOOP ( 'NONE', ( #323, #482, #370, #440 ) ) ;
#679 = DIRECTION ( 'NONE',  ( 0.000000000000000000, 0.000000000000000000, 1.000000000000000000 ) ) ;
#680 = CARTESIAN_POINT ( 'NONE',  ( -29.99999999999999289, 0.000000000000000000, -5.650000000000008349 ) ) ;
#681 = EDGE_CURVE ( 'NONE', #220, #259, #550, .T. ) ;
#682 = ORIENTED_EDGE ( 'NONE', *, *, #105, .F. ) ;
#683 = DIRECTION ( 'NONE',  ( 3.730588120380233900E-16, 0.000000000000000000, -1.000000000000000000 ) ) ;
#684 = ORIENTED_EDGE ( 'NONE', *, *, #231, .F. ) ;
#685 = LINE ( 'NONE', #130, #8 ) ;
#686 = VECTOR ( 'NONE', #3, 1000.000000000000000 ) ;
#687 = CIRCLE ( 'NONE', #197, 1.000000000000000000 ) ;
#688 = ORIENTED_EDGE ( 'NONE', *, *, #179, .T. ) ;
#689 = EDGE_CURVE ( 'NONE', #799, #84, #78, .T. ) ;
#690 = LINE ( 'NONE', #65, #141 ) ;
#691 = CARTESIAN_POINT ( 'NONE',  ( 1.854359577768312596E-15, 45.00000000000000000, -15.50000000000000355 ) ) ;
#692 = VERTEX_POINT ( 'NONE', #445 ) ;
#693 = DIRECTION ( 'NONE',  ( 1.000000000000000000, 0.000000000000000000, -9.637352644315602638E-17 ) ) ;
#694 = PRESENTATION_STYLE_ASSIGNMENT (( #146 ) ) ;
#695 = ORIENTED_EDGE ( 'NONE', *, *, #551, .T. ) ;
#696 = AXIS2_PLACEMENT_3D ( 'NONE', #341, #784, #280 ) ;
#697 = EDGE_CURVE ( 'NONE', #311, #799, #138, .T. ) ;
#698 = AXIS2_PLACEMENT_3D ( 'NONE', #96, #717, #41 ) ;
#699 = FACE_BOUND ( 'NONE', #464, .T. ) ;
#700 = VERTEX_POINT ( 'NONE', #131 ) ;
#701 = EDGE_CURVE ( 'NONE', #432, #259, #559, .T. ) ;
#702 = ORIENTED_EDGE ( 'NONE', *, *, #427, .T. ) ;
#703 = DIRECTION ( 'NONE',  ( -1.000000000000000000, 0.000000000000000000, -1.196361017915039979E-16 ) ) ;
#704 = ORIENTED_EDGE ( 'NONE', *, *, #172, .T. ) ;
#705 = CARTESIAN_POINT ( 'NONE',  ( -28.99999999999998934, 45.00000000000000000, 5.649999999999995914 ) ) ;
#706 = VECTOR ( 'NONE', #207, 1000.000000000000000 ) ;
#707 = ORIENTED_EDGE ( 'NONE', *, *, #201, .T. ) ;
#708 = AXIS2_PLACEMENT_3D ( 'NONE', #214, #22, #269 ) ;
#709 = VECTOR ( 'NONE', #609, 1000.000000000000000 ) ;
#710 = DIRECTION ( 'NONE',  ( -0.000000000000000000, -1.000000000000000000, -0.000000000000000000 ) ) ;
#711 = ORIENTED_EDGE ( 'NONE', *, *, #346, .F. ) ;
#712 = CARTESIAN_POINT ( 'NONE',  ( 0.000000000000000000, 0.000000000000000000, 0.000000000000000000 ) ) ;
#713 = EDGE_CURVE ( 'NONE', #635, #148, #569, .T. ) ;
#714 = DIRECTION ( 'NONE',  ( 0.000000000000000000, 0.000000000000000000, 1.000000000000000000 ) ) ;
#715 = EDGE_LOOP ( 'NONE', ( #670, #19, #379, #336 ) ) ;
#716 = CARTESIAN_POINT ( 'NONE',  ( 30.00000000000000000, 0.000000000000000000, -5.650000000000011902 ) ) ;
#717 = DIRECTION ( 'NONE',  ( 1.000000000000000000, 0.000000000000000000, 0.000000000000000000 ) ) ;
#718 = EDGE_CURVE ( 'NONE', #349, #700, #505, .T. ) ;
#719 = CARTESIAN_POINT ( 'NONE',  ( 30.00000000000000000, 0.000000000000000000, -14.49999999999999289 ) ) ;
#720 = VERTEX_POINT ( 'NONE', #763 ) ;
#721 = CARTESIAN_POINT ( 'NONE',  ( -28.99999999999998579, 45.00000000000000000, 4.649999999999995914 ) ) ;
#722 = DIRECTION ( 'NONE',  ( 0.000000000000000000, 0.000000000000000000, -1.000000000000000000 ) ) ;
#723 = EDGE_CURVE ( 'NONE', #208, #355, #448, .T. ) ;
#724 = PRODUCT_DEFINITION_FORMATION_WITH_SPECIFIED_SOURCE ( 'ANY', '', #745, .NOT_KNOWN. ) ;
#725 = CARTESIAN_POINT ( 'NONE',  ( -28.99999999999998579, 45.00000000000000000, 15.49999999999999289 ) ) ;
#726 = ORIENTED_EDGE ( 'NONE', *, *, #681, .T. ) ;
#727 = DIRECTION ( 'NONE',  ( 1.000000000000000000, 0.000000000000000000, 2.990902544787599948E-17 ) ) ;
#728 = LINE ( 'NONE', #165, #554 ) ;
#729 = EDGE_CURVE ( 'NONE', #355, #403, #199, .T. ) ;
#730 = DIRECTION ( 'NONE',  ( -0.000000000000000000, -1.000000000000000000, 0.000000000000000000 ) ) ;
#731 = ORIENTED_EDGE ( 'NONE', *, *, #299, .T. ) ;
#732 = DIRECTION ( 'NONE',  ( 1.000000000000000000, 0.000000000000000000, -1.927470528863122500E-16 ) ) ;
#733 = CARTESIAN_POINT ( 'NONE',  ( 30.00000000000000000, 45.00000000000000000, 5.649999999999995026 ) ) ;
#734 = VERTEX_POINT ( 'NONE', #571 ) ;
#735 = DIRECTION ( 'NONE',  ( 0.000000000000000000, 0.000000000000000000, 1.000000000000000000 ) ) ;
#736 = ADVANCED_FACE ( 'NONE', ( #699, #13 ), #442, .F. ) ;
#737 = LINE ( 'NONE', #491, #391 ) ;
#738 = ORIENTED_EDGE ( 'NONE', *, *, #346, .T. ) ;
#739 = CARTESIAN_POINT ( 'NONE',  ( 30.00000000000000000, 45.00000000000000000, 0.000000000000000000 ) ) ;
#740 = AXIS2_PLACEMENT_3D ( 'NONE', #757, #202, #628 ) ;
#741 = CARTESIAN_POINT ( 'NONE',  ( 30.00000000000000000, 0.000000000000000000, 5.649999999999995026 ) ) ;
#742 = VERTEX_POINT ( 'NONE', #596 ) ;
#743 = LINE ( 'NONE', #189, #314 ) ;
#744 = FACE_OUTER_BOUND ( 'NONE', #34, .T. ) ;
#745 = PRODUCT ( 'Blank_CenterSupport', 'Blank_CenterSupport', '', ( #654 ) ) ;
#746 = ORIENTED_EDGE ( 'NONE', *, *, #558, .T. ) ;
#747 = CARTESIAN_POINT ( 'NONE',  ( 28.99999999999998934, 45.00000000000000000, 15.49999999999999467 ) ) ;
#748 = LINE ( 'NONE', #110, #48 ) ;
#749 = ADVANCED_FACE ( 'NONE', ( #469 ), #768, .F. ) ;
#750 = ORIENTED_EDGE ( 'NONE', *, *, #701, .T. ) ;
#751 = LINE ( 'NONE', #504, #801 ) ;
#752 =( GEOMETRIC_REPRESENTATION_CONTEXT ( 3 ) GLOBAL_UNCERTAINTY_ASSIGNED_CONTEXT ( ( #574 ) ) GLOBAL_UNIT_ASSIGNED_CONTEXT ( ( #70, #510, #438 ) ) REPRESENTATION_CONTEXT ( 'NONE', 'WORKASPACE' ) );
#753 = CIRCLE ( 'NONE', #459, 1.000000000000000888 ) ;
#754 = CIRCLE ( 'NONE', #184, 1.000000000000000000 ) ;
#755 = DIRECTION ( 'NONE',  ( -0.000000000000000000, -1.000000000000000000, -0.000000000000000000 ) ) ;
#756 = ORIENTED_EDGE ( 'NONE', *, *, #211, .F. ) ;
#757 = CARTESIAN_POINT ( 'NONE',  ( -28.99999999999998934, 0.000000000000000000, 5.649999999999995914 ) ) ;
#758 = ORIENTED_EDGE ( 'NONE', *, *, #55, .T. ) ;
#759 = PRODUCT_DEFINITION ( 'UNKNOWN', '', #724, #166 ) ;
#760 = CARTESIAN_POINT ( 'NONE',  ( 30.00000000000000000, 45.00000000000000000, -5.650000000000011902 ) ) ;
#761 = EDGE_CURVE ( 'NONE', #570, #555, #516, .T. ) ;
#762 = LINE ( 'NONE', #145, #389 ) ;
#763 = CARTESIAN_POINT ( 'NONE',  ( 28.99999999999998934, 0.000000000000000000, 4.649999999999987921 ) ) ;
#764 = ORIENTED_EDGE ( 'NONE', *, *, #288, .F. ) ;
#765 = EDGE_CURVE ( 'NONE', #657, #582, #18, .T. ) ;
#766 = CARTESIAN_POINT ( 'NONE',  ( 0.000000000000000000, 45.00000000000000000, -4.650000000000001243 ) ) ;
#767 = VERTEX_POINT ( 'NONE', #102 ) ;
#768 = PLANE ( 'NONE',  #484 ) ;
#769 = EDGE_LOOP ( 'NONE', ( #641, #471, #756, #144, #608, #560, #638, #397, #122, #124, #792, #228, #446, #328, #682, #514, #52, #410, #401, #132 ) ) ;
#770 = ORIENTED_EDGE ( 'NONE', *, *, #211, .T. ) ;
#771 = CARTESIAN_POINT ( 'NONE',  ( 30.00000000000000000, 45.00000000000000000, -14.49999999999999289 ) ) ;
#772 = ORIENTED_EDGE ( 'NONE', *, *, #120, .T. ) ;
#774 = EDGE_CURVE ( 'NONE', #799, #399, #588, .T. ) ;
#773 = CARTESIAN_POINT ( 'NONE',  ( -19.99999999999998934, 0.000000000000000000, -4.650000000000001243 ) ) ;
#775 = ORIENTED_EDGE ( 'NONE', *, *, #639, .F. ) ;
#776 = CARTESIAN_POINT ( 'NONE',  ( -19.99999999999998934, 45.00000000000000000, 4.649999999999995026 ) ) ;
#777 = VECTOR ( 'NONE', #416, 1000.000000000000000 ) ;
#778 = ORIENTED_EDGE ( 'NONE', *, *, #126, .F. ) ;
#779 = ORIENTED_EDGE ( 'NONE', *, *, #332, .F. ) ;
#780 = PLANE ( 'NONE',  #100 ) ;
#781 = EDGE_CURVE ( 'NONE', #311, #271, #575, .T. ) ;
#782 = DIRECTION ( 'NONE',  ( 0.000000000000000000, 0.000000000000000000, -1.000000000000000000 ) ) ;
#783 = DIRECTION ( 'NONE',  ( 2.990902544787599948E-17, 0.000000000000000000, -1.000000000000000000 ) ) ;
#784 = DIRECTION ( 'NONE',  ( -0.000000000000000000, -1.000000000000000000, -0.000000000000000000 ) ) ;
#785 = ORIENTED_EDGE ( 'NONE', *, *, #172, .F. ) ;
#786 = EDGE_CURVE ( 'NONE', #399, #804, #161, .T. ) ;
#787 = VECTOR ( 'NONE', #541, 1000.000000000000000 ) ;
#788 = ORIENTED_EDGE ( 'NONE', *, *, #402, .F. ) ;
#789 = VECTOR ( 'NONE', #476, 1000.000000000000000 ) ;
#790 = DIRECTION ( 'NONE',  ( 0.000000000000000000, 0.000000000000000000, 1.000000000000000000 ) ) ;
#791 = DIRECTION ( 'NONE',  ( -0.000000000000000000, -1.000000000000000000, -0.000000000000000000 ) ) ;
#792 = ORIENTED_EDGE ( 'NONE', *, *, #187, .T. ) ;
#793 = DIRECTION ( 'NONE',  ( 0.000000000000000000, 0.000000000000000000, 1.000000000000000000 ) ) ;
#794 = FACE_BOUND ( 'NONE', #454, .T. ) ;
#795 = EDGE_CURVE ( 'NONE', #489, #657, #279, .T. ) ;
#796 = ORIENTED_EDGE ( 'NONE', *, *, #206, .T. ) ;
#797 = CARTESIAN_POINT ( 'NONE',  ( -8.962737959213520413E-16, 0.000000000000000000, -4.649999999999999467 ) ) ;
#798 = DIRECTION ( 'NONE',  ( 0.000000000000000000, 0.000000000000000000, -1.000000000000000000 ) ) ;
#799 = VERTEX_POINT ( 'NONE', #513 ) ;
#800 = DIRECTION ( 'NONE',  ( 0.000000000000000000, 0.000000000000000000, -1.000000000000000000 ) ) ;
#801 = VECTOR ( 'NONE', #27, 1000.000000000000000 ) ;
#802 = ADVANCED_FACE ( 'NONE', ( #453 ), #398, .T. ) ;
#803 = LINE ( 'NONE', #54, #777 ) ;
#804 = VERTEX_POINT ( 'NONE', #719 ) ;
#805 = DIRECTION ( 'NONE',  ( 0.000000000000000000, 0.000000000000000000, 1.000000000000000000 ) ) ;
ENDSEC;
END-ISO-10303-21;
