ISO-10303-21;
HEADER;
FILE_DESCRIPTION (( 'STEP AP214' ),
    '1' );
FILE_NAME ('CornerSupport.STEP',
    '2026-08-23T00:18:18',
    ( '' ),
    ( '' ),
    'SwSTEP 2.0',
    'SolidWorks 2026',
    '' );
FILE_SCHEMA (( 'AUTOMOTIVE_DESIGN' ));
ENDSEC;

DATA;
#1 = CARTESIAN_POINT ( 'NONE',  ( -14.49999999999999467, 0.000000000000000000, -19.09915254237288096 ) ) ;
#2 = AXIS2_PLACEMENT_3D ( 'NONE', #363, #258, #866 ) ;
#3 = ORIENTED_EDGE ( 'NONE', *, *, #706, .T. ) ;
#4 = DIRECTION ( 'NONE',  ( 0.000000000000000000, 0.000000000000000000, -1.000000000000000000 ) ) ;
#5 = DIRECTION ( 'NONE',  ( -3.209238430557093519E-15, -0.000000000000000000, 1.000000000000000000 ) ) ;
#6 = ORIENTED_EDGE ( 'NONE', *, *, #712, .F. ) ;
#7 = DIRECTION ( 'NONE',  ( 0.000000000000000000, 1.000000000000000000, 0.000000000000000000 ) ) ;
#8 = CARTESIAN_POINT ( 'NONE',  ( -15.49999999999999467, 0.000000000000000000, -15.50000000000000000 ) ) ;
#9 = VERTEX_POINT ( 'NONE', #65 ) ;
#10 = VERTEX_POINT ( 'NONE', #273 ) ;
#11 = CARTESIAN_POINT ( 'NONE',  ( -15.49999999999999467, 0.000000000000000000, -18.09915254237288096 ) ) ;
#12 = SURFACE_STYLE_FILL_AREA ( #705 ) ;
#13 = EDGE_CURVE ( 'NONE', #177, #534, #420, .T. ) ;
#14 = CARTESIAN_POINT ( 'NONE',  ( 4.649999999999987033, 45.00000000000000000, -9.099152542372886288 ) ) ;
#15 = AXIS2_PLACEMENT_3D ( 'NONE', #116, #448, #879 ) ;
#16 = ORIENTED_EDGE ( 'NONE', *, *, #304, .T. ) ;
#17 = VECTOR ( 'NONE', #121, 1000.000000000000000 ) ;
#18 = FACE_OUTER_BOUND ( 'NONE', #823, .T. ) ;
#19 = EDGE_CURVE ( 'NONE', #207, #10, #172, .T. ) ;
#20 = DIRECTION ( 'NONE',  ( -1.000000000000000000, 0.000000000000000000, 2.602085213965211135E-16 ) ) ;
#21 = LINE ( 'NONE', #254, #188 ) ;
#22 = VERTEX_POINT ( 'NONE', #1 ) ;
#23 = DIRECTION ( 'NONE',  ( 0.000000000000000000, 1.000000000000000000, 0.000000000000000000 ) ) ;
#24 = CARTESIAN_POINT ( 'NONE',  ( -15.49999999999999467, 45.00000000000000000, -15.50000000000000000 ) ) ;
#25 = LINE ( 'NONE', #882, #17 ) ;
#26 = EDGE_CURVE ( 'NONE', #648, #656, #640, .T. ) ;
#27 = ORIENTED_EDGE ( 'NONE', *, *, #317, .F. ) ;
#28 = DIRECTION ( 'NONE',  ( 0.000000000000000000, 0.000000000000000000, -1.000000000000000000 ) ) ;
#29 = FACE_BOUND ( 'NONE', #557, .T. ) ;
#30 = FACE_OUTER_BOUND ( 'NONE', #905, .T. ) ;
#31 = VECTOR ( 'NONE', #400, 1000.000000000000000 ) ;
#32 = VECTOR ( 'NONE', #859, 1000.000000000000000 ) ;
#33 = LINE ( 'NONE', #528, #267 ) ;
#34 = EDGE_LOOP ( 'NONE', ( #389, #150, #801, #461 ) ) ;
#35 = CARTESIAN_POINT ( 'NONE',  ( -19.09915254237288451, 45.00000000000000000, 15.50000000000000000 ) ) ;
#36 = DIRECTION ( 'NONE',  ( -0.000000000000000000, -1.000000000000000000, -0.000000000000000000 ) ) ;
#37 = EDGE_CURVE ( 'NONE', #656, #689, #585, .T. ) ;
#38 = ORIENTED_EDGE ( 'NONE', *, *, #128, .T. ) ;
#39 = DIRECTION ( 'NONE',  ( 0.000000000000000000, 0.000000000000000000, -1.000000000000000000 ) ) ;
#40 = EDGE_CURVE ( 'NONE', #534, #729, #277, .T. ) ;
#41 = DIRECTION ( 'NONE',  ( -0.000000000000000000, -1.000000000000000000, -0.000000000000000000 ) ) ;
#42 = CARTESIAN_POINT ( 'NONE',  ( -4.650000000000019007, 45.00000000000000000, -19.09915254237288451 ) ) ;
#43 = EDGE_LOOP ( 'NONE', ( #653, #125, #16, #633 ) ) ;
#44 = DIRECTION ( 'NONE',  ( 1.000000000000000000, -0.000000000000000000, 0.000000000000000000 ) ) ;
#45 = FACE_OUTER_BOUND ( 'NONE', #494, .T. ) ;
#46 = LINE ( 'NONE', #50, #539 ) ;
#47 = CIRCLE ( 'NONE', #897, 19.99999999999999645 ) ;
#48 = ORIENTED_EDGE ( 'NONE', *, *, #834, .T. ) ;
#49 = LINE ( 'NONE', #243, #206 ) ;
#50 = CARTESIAN_POINT ( 'NONE',  ( 15.49999999999999467, 45.00000000000000000, -19.09915254237288096 ) ) ;
#51 = EDGE_CURVE ( 'NONE', #22, #154, #904, .T. ) ;
#52 = ORIENTED_EDGE ( 'NONE', *, *, #830, .F. ) ;
#53 = ORIENTED_EDGE ( 'NONE', *, *, #431, .F. ) ;
#54 = LINE ( 'NONE', #604, #159 ) ;
#55 = DIRECTION ( 'NONE',  ( 1.000000000000000000, 0.000000000000000000, 0.000000000000000000 ) ) ;
#56 = CYLINDRICAL_SURFACE ( 'NONE', #596, 1.000000000000000888 ) ;
#57 = EDGE_LOOP ( 'NONE', ( #78, #853, #274, #770 ) ) ;
#58 = DIRECTION ( 'NONE',  ( 0.000000000000000000, 0.000000000000000000, -1.000000000000000000 ) ) ;
#59 = CIRCLE ( 'NONE', #147, 1.000000000000000000 ) ;
#60 = AXIS2_PLACEMENT_3D ( 'NONE', #760, #629, #4 ) ;
#61 = AXIS2_PLACEMENT_3D ( 'NONE', #501, #7, #720 ) ;
#62 = VERTEX_POINT ( 'NONE', #556 ) ;
#63 = APPLICATION_PROTOCOL_DEFINITION ( 'draft international standard', 'automotive_design', 1998, #339 ) ;
#64 = LINE ( 'NONE', #684, #408 ) ;
#65 = CARTESIAN_POINT ( 'NONE',  ( 14.49999999999999467, 0.000000000000000000, -19.09915254237288096 ) ) ;
#66 = DIRECTION ( 'NONE',  ( -1.000000000000000000, -0.000000000000000000, -2.602085213965210642E-16 ) ) ;
#67 = EDGE_CURVE ( 'NONE', #191, #872, #869, .T. ) ;
#68 = ORIENTED_EDGE ( 'NONE', *, *, #878, .F. ) ;
#69 = LINE ( 'NONE', #333, #336 ) ;
#70 = DIRECTION ( 'NONE',  ( -0.000000000000000000, -1.000000000000000000, 0.000000000000000000 ) ) ;
#71 = AXIS2_PLACEMENT_3D ( 'NONE', #144, #281, #422 ) ;
#72 = AXIS2_PLACEMENT_3D ( 'NONE', #531, #738, #390 ) ;
#73 = ORIENTED_EDGE ( 'NONE', *, *, #719, .T. ) ;
#74 =( GEOMETRIC_REPRESENTATION_CONTEXT ( 3 ) GLOBAL_UNCERTAINTY_ASSIGNED_CONTEXT ( ( #478 ) ) GLOBAL_UNIT_ASSIGNED_CONTEXT ( ( #482, #832, #610 ) ) REPRESENTATION_CONTEXT ( 'NONE', 'WORKASPACE' ) );
#75 = CARTESIAN_POINT ( 'NONE',  ( 15.49999999999999467, 0.000000000000000000, -4.500000000000003553 ) ) ;
#76 = PRESENTATION_STYLE_ASSIGNMENT (( #301 ) ) ;
#77 = DIRECTION ( 'NONE',  ( -0.000000000000000000, -0.000000000000000000, 1.000000000000000000 ) ) ;
#78 = ORIENTED_EDGE ( 'NONE', *, *, #541, .F. ) ;
#79 = CARTESIAN_POINT ( 'NONE',  ( -9.099152542372884511, 45.00000000000000000, 4.649999999999998579 ) ) ;
#80 = CARTESIAN_POINT ( 'NONE',  ( -18.09915254237288451, 0.000000000000000000, -5.649999999999995914 ) ) ;
#81 = CARTESIAN_POINT ( 'NONE',  ( -18.09915254237287385, 45.00000000000000000, 14.50000000000000000 ) ) ;
#82 = EDGE_CURVE ( 'NONE', #510, #709, #286, .T. ) ;
#83 = VERTEX_POINT ( 'NONE', #563 ) ;
#84 = DIRECTION ( 'NONE',  ( -1.000000000000000000, 0.000000000000000000, 4.011019573620659374E-16 ) ) ;
#85 = CARTESIAN_POINT ( 'NONE',  ( -4.499999999999993783, 45.00000000000000000, 15.49999999999999467 ) ) ;
#86 = DIRECTION ( 'NONE',  ( -0.000000000000000000, -1.000000000000000000, -0.000000000000000000 ) ) ;
#87 = AXIS2_PLACEMENT_3D ( 'NONE', #666, #875, #670 ) ;
#88 = ORIENTED_EDGE ( 'NONE', *, *, #664, .F. ) ;
#89 = AXIS2_PLACEMENT_3D ( 'NONE', #42, #92, #319 ) ;
#90 = LINE ( 'NONE', #572, #783 ) ;
#91 = LINE ( 'NONE', #711, #108 ) ;
#92 = DIRECTION ( 'NONE',  ( -1.000000000000000000, 0.000000000000000000, 7.806255641895631925E-16 ) ) ;
#93 = VERTEX_POINT ( 'NONE', #851 ) ;
#94 = FACE_OUTER_BOUND ( 'NONE', #732, .T. ) ;
#95 = EDGE_CURVE ( 'NONE', #622, #632, #426, .T. ) ;
#96 = DIRECTION ( 'NONE',  ( 1.000000000000000000, -0.000000000000000000, -4.011019573620658388E-16 ) ) ;
#97 = PRODUCT_DEFINITION ( 'UNKNOWN', '', #552, #708 ) ;
#98 = ORIENTED_EDGE ( 'NONE', *, *, #295, .F. ) ;
#99 = CARTESIAN_POINT ( 'NONE',  ( -9.099152542372884511, 0.000000000000000000, -4.649999999999998579 ) ) ;
#100 = DIRECTION ( 'NONE',  ( -3.209238430557093519E-15, -0.000000000000000000, 1.000000000000000000 ) ) ;
#101 = ADVANCED_FACE ( 'NONE', ( #570 ), #857, .F. ) ;
#102 = ORIENTED_EDGE ( 'NONE', *, *, #279, .F. ) ;
#103 = AXIS2_PLACEMENT_3D ( 'NONE', #865, #235, #512 ) ;
#104 = CARTESIAN_POINT ( 'NONE',  ( -14.49999999999999467, 45.00000000000000000, -18.09915254237288096 ) ) ;
#105 = VECTOR ( 'NONE', #5, 1000.000000000000000 ) ;
#106 = AXIS2_PLACEMENT_3D ( 'NONE', #777, #375, #442 ) ;
#107 = DIRECTION ( 'NONE',  ( -0.000000000000000000, -0.000000000000000000, 1.000000000000000000 ) ) ;
#108 = VECTOR ( 'NONE', #429, 1000.000000000000000 ) ;
#109 = ORIENTED_EDGE ( 'NONE', *, *, #201, .F. ) ;
#110 = DIRECTION ( 'NONE',  ( -1.000000000000000000, -0.000000000000000000, -3.197646960325918927E-16 ) ) ;
#111 = DIRECTION ( 'NONE',  ( 0.000000000000000000, 0.000000000000000000, -1.000000000000000000 ) ) ;
#112 = PLANE ( 'NONE',  #89 ) ;
#113 = ORIENTED_EDGE ( 'NONE', *, *, #438, .F. ) ;
#114 = EDGE_CURVE ( 'NONE', #819, #450, #652, .T. ) ;
#115 = DIRECTION ( 'NONE',  ( 0.000000000000000000, 0.000000000000000000, -1.000000000000000000 ) ) ;
#116 = CARTESIAN_POINT ( 'NONE',  ( 0.000000000000000000, 45.00000000000000000, 0.000000000000000000 ) ) ;
#117 = CARTESIAN_POINT ( 'NONE',  ( 0.000000000000000000, 45.00000000000000000, -2.799999999999999822 ) ) ;
#118 = ORIENTED_EDGE ( 'NONE', *, *, #67, .T. ) ;
#119 = DIRECTION ( 'NONE',  ( -1.000000000000000000, -0.000000000000000000, 5.595882180570347152E-16 ) ) ;
#120 = FACE_OUTER_BOUND ( 'NONE', #745, .T. ) ;
#121 = DIRECTION ( 'NONE',  ( -0.000000000000000000, 1.000000000000000000, -0.000000000000000000 ) ) ;
#122 = ORIENTED_EDGE ( 'NONE', *, *, #162, .F. ) ;
#123 = PLANE ( 'NONE',  #555 ) ;
#124 = FACE_OUTER_BOUND ( 'NONE', #538, .T. ) ;
#125 = ORIENTED_EDGE ( 'NONE', *, *, #114, .T. ) ;
#126 = APPLICATION_PROTOCOL_DEFINITION ( 'draft international standard', 'automotive_design', 1998, #203 ) ;
#127 = CYLINDRICAL_SURFACE ( 'NONE', #810, 2.799999999999999822 ) ;
#128 = EDGE_CURVE ( 'NONE', #848, #686, #239, .T. ) ;
#129 = VERTEX_POINT ( 'NONE', #579 ) ;
#130 = DIRECTION ( 'NONE',  ( 0.000000000000000000, -1.000000000000000000, 0.000000000000000000 ) ) ;
#131 = VECTOR ( 'NONE', #100, 1000.000000000000000 ) ;
#132 = AXIS2_PLACEMENT_3D ( 'NONE', #227, #504, #740 ) ;
#133 = VECTOR ( 'NONE', #535, 1000.000000000000000 ) ;
#134 = ORIENTED_EDGE ( 'NONE', *, *, #95, .F. ) ;
#135 = EDGE_CURVE ( 'NONE', #534, #395, #21, .T. ) ;
#136 = CYLINDRICAL_SURFACE ( 'NONE', #659, 1.000000000000000888 ) ;
#137 = EDGE_CURVE ( 'NONE', #450, #93, #47, .T. ) ;
#138 = ORIENTED_EDGE ( 'NONE', *, *, #26, .F. ) ;
#139 = EDGE_LOOP ( 'NONE', ( #827, #315, #437, #603 ) ) ;
#140 = DIRECTION ( 'NONE',  ( -7.806255641895630939E-16, -0.000000000000000000, -1.000000000000000000 ) ) ;
#141 = DIRECTION ( 'NONE',  ( 0.000000000000000000, 1.000000000000000000, 0.000000000000000000 ) ) ;
#142 = ORIENTED_EDGE ( 'NONE', *, *, #895, .F. ) ;
#143 = LINE ( 'NONE', #635, #348 ) ;
#144 = CARTESIAN_POINT ( 'NONE',  ( -18.09915254237288451, 0.000000000000000000, -14.49999999999999822 ) ) ;
#145 = CIRCLE ( 'NONE', #222, 2.799999999999999822 ) ;
#146 = ORIENTED_EDGE ( 'NONE', *, *, #694, .T. ) ;
#147 = AXIS2_PLACEMENT_3D ( 'NONE', #639, #860, #290 ) ;
#148 = PLANE ( 'NONE',  #898 ) ;
#149 = CARTESIAN_POINT ( 'NONE',  ( -19.09915254237288451, 45.00000000000000000, -14.49999999999999822 ) ) ;
#150 = ORIENTED_EDGE ( 'NONE', *, *, #581, .T. ) ;
#151 = DIRECTION ( 'NONE',  ( 1.000000000000000000, -0.000000000000000000, 3.209238430557094308E-15 ) ) ;
#152 =( LENGTH_UNIT ( ) NAMED_UNIT ( * ) SI_UNIT ( .MILLI., .METRE. ) );
#153 = ORIENTED_EDGE ( 'NONE', *, *, #621, .F. ) ;
#154 = VERTEX_POINT ( 'NONE', #459 ) ;
#155 = CYLINDRICAL_SURFACE ( 'NONE', #646, 1.000000000000000888 ) ;
#156 = CARTESIAN_POINT ( 'NONE',  ( 4.649999999999987033, 45.00000000000000000, -9.099152542372886288 ) ) ;
#157 = ORIENTED_EDGE ( 'NONE', *, *, #19, .F. ) ;
#158 = AXIS2_PLACEMENT_3D ( 'NONE', #606, #330, #892 ) ;
#159 = VECTOR ( 'NONE', #651, 1000.000000000000000 ) ;
#160 = LINE ( 'NONE', #294, #840 ) ;
#161 = DIRECTION ( 'NONE',  ( 0.000000000000000000, -1.000000000000000000, 0.000000000000000000 ) ) ;
#162 = EDGE_CURVE ( 'NONE', #473, #510, #822, .T. ) ;
#163 = ORIENTED_EDGE ( 'NONE', *, *, #13, .T. ) ;
#164 = FACE_OUTER_BOUND ( 'NONE', #311, .T. ) ;
#165 = LINE ( 'NONE', #458, #470 ) ;
#166 = ORIENTED_EDGE ( 'NONE', *, *, #184, .T. ) ;
#167 = CYLINDRICAL_SURFACE ( 'NONE', #526, 2.799999999999999822 ) ;
#168 = DIRECTION ( 'NONE',  ( 0.000000000000000000, -1.000000000000000000, 0.000000000000000000 ) ) ;
#169 = EDGE_LOOP ( 'NONE', ( #713, #564, #791, #138 ) ) ;
#170 = VECTOR ( 'NONE', #716, 1000.000000000000000 ) ;
#171 = CARTESIAN_POINT ( 'NONE',  ( 4.649999999999987033, 0.000000000000000000, -9.099152542372886288 ) ) ;
#172 = CIRCLE ( 'NONE', #628, 0.9999999999999991118 ) ;
#173 = AXIS2_PLACEMENT_3D ( 'NONE', #79, #355, #797 ) ;
#174 = CARTESIAN_POINT ( 'NONE',  ( -9.099152542372884511, 45.00000000000000000, -4.649999999999998579 ) ) ;
#175 = CARTESIAN_POINT ( 'NONE',  ( -18.09915254237288451, 45.00000000000000000, -14.49999999999999822 ) ) ;
#176 = ADVANCED_FACE ( 'NONE', ( #667 ), #862, .T. ) ;
#177 = VERTEX_POINT ( 'NONE', #529 ) ;
#178 = CARTESIAN_POINT ( 'NONE',  ( 0.000000000000000000, 0.000000000000000000, 0.000000000000000000 ) ) ;
#179 = DIRECTION ( 'NONE',  ( -0.000000000000000000, -1.000000000000000000, -0.000000000000000000 ) ) ;
#180 = ORIENTED_EDGE ( 'NONE', *, *, #37, .T. ) ;
#181 = CYLINDRICAL_SURFACE ( 'NONE', #691, 1.000000000000000888 ) ;
#182 = DIRECTION ( 'NONE',  ( 0.000000000000000000, 0.000000000000000000, -1.000000000000000000 ) ) ;
#183 = CARTESIAN_POINT ( 'NONE',  ( -15.49999999999999467, 45.00000000000000000, -18.09915254237288096 ) ) ;
#184 = EDGE_CURVE ( 'NONE', #191, #686, #463, .T. ) ;
#185 = ORIENTED_EDGE ( 'NONE', *, *, #19, .T. ) ;
#186 = DIRECTION ( 'NONE',  ( 1.000000000000000000, 0.000000000000000000, -0.000000000000000000 ) ) ;
#187 = EDGE_CURVE ( 'NONE', #707, #589, #393, .T. ) ;
#188 = VECTOR ( 'NONE', #297, 1000.000000000000000 ) ;
#189 = CARTESIAN_POINT ( 'NONE',  ( 0.000000000000000000, 0.000000000000000000, 0.000000000000000000 ) ) ;
#190 = VECTOR ( 'NONE', #561, 1000.000000000000000 ) ;
#191 = VERTEX_POINT ( 'NONE', #795 ) ;
#192 = UNCERTAINTY_MEASURE_WITH_UNIT (LENGTH_MEASURE( 1.000000000000000082E-05 ), #152, 'distance_accuracy_value', 'NONE');
#193 = VERTEX_POINT ( 'NONE', #513 ) ;
#194 = FACE_OUTER_BOUND ( 'NONE', #370, .T. ) ;
#195 = EDGE_CURVE ( 'NONE', #729, #622, #671, .T. ) ;
#196 = ORIENTED_EDGE ( 'NONE', *, *, #774, .T. ) ;
#197 = ORIENTED_EDGE ( 'NONE', *, *, #472, .F. ) ;
#198 = DIRECTION ( 'NONE',  ( 0.000000000000000000, 1.000000000000000000, 0.000000000000000000 ) ) ;
#199 = ORIENTED_EDGE ( 'NONE', *, *, #377, .T. ) ;
#200 = PRODUCT_RELATED_PRODUCT_CATEGORY ( 'part', '', ( #852 ) ) ;
#201 = EDGE_CURVE ( 'NONE', #807, #129, #699, .T. ) ;
#202 = DIRECTION ( 'NONE',  ( -0.000000000000000000, -0.000000000000000000, 1.000000000000000000 ) ) ;
#203 = APPLICATION_CONTEXT ( 'automotive_design' ) ;
#204 = AXIS2_PLACEMENT_3D ( 'NONE', #683, #335, #55 ) ;
#205 = VECTOR ( 'NONE', #202, 1000.000000000000000 ) ;
#206 = VECTOR ( 'NONE', #327, 1000.000000000000000 ) ;
#207 = VERTEX_POINT ( 'NONE', #236 ) ;
#208 = ORIENTED_EDGE ( 'NONE', *, *, #195, .T. ) ;
#209 = DIRECTION ( 'NONE',  ( 0.000000000000000000, -1.000000000000000000, 0.000000000000000000 ) ) ;
#210 = ADVANCED_FACE ( 'NONE', ( #677 ), #112, .F. ) ;
#211 = ORIENTED_EDGE ( 'NONE', *, *, #328, .F. ) ;
#212 = EDGE_LOOP ( 'NONE', ( #500, #432, #741, #122 ) ) ;
#213 = ADVANCED_BREP_SHAPE_REPRESENTATION ( 'CornerSupport', ( #721, #204 ), #74 ) ;
#214 = PLANE ( 'NONE',  #724 ) ;
#215 = DIRECTION ( 'NONE',  ( 1.000000000000000000, -0.000000000000000000, -2.602085213965210642E-16 ) ) ;
#216 = CARTESIAN_POINT ( 'NONE',  ( -15.49999999999999467, 0.000000000000000000, -15.50000000000000000 ) ) ;
#217 = ORIENTED_EDGE ( 'NONE', *, *, #886, .F. ) ;
#218 = CARTESIAN_POINT ( 'NONE',  ( -19.09915254237288451, 0.000000000000000000, -15.50000000000000000 ) ) ;
#219 = EDGE_CURVE ( 'NONE', #707, #709, #302, .T. ) ;
#220 = EDGE_CURVE ( 'NONE', #416, #283, #25, .T. ) ;
#221 = DIRECTION ( 'NONE',  ( 0.000000000000000000, 1.000000000000000000, 0.000000000000000000 ) ) ;
#222 = AXIS2_PLACEMENT_3D ( 'NONE', #189, #647, #717 ) ;
#223 = AXIS2_PLACEMENT_3D ( 'NONE', #104, #386, #669 ) ;
#224 = ORIENTED_EDGE ( 'NONE', *, *, #67, .F. ) ;
#225 = PLANE ( 'NONE',  #735 ) ;
#226 = LINE ( 'NONE', #502, #170 ) ;
#227 = CARTESIAN_POINT ( 'NONE',  ( -15.49999999999999467, 45.00000000000000000, -15.50000000000000000 ) ) ;
#228 = VERTEX_POINT ( 'NONE', #388 ) ;
#229 = DIRECTION ( 'NONE',  ( -4.011019573620659374E-16, 0.000000000000000000, -1.000000000000000000 ) ) ;
#230 = CARTESIAN_POINT ( 'NONE',  ( -4.650000000000019007, 0.000000000000000000, -19.09915254237288451 ) ) ;
#231 = CARTESIAN_POINT ( 'NONE',  ( -4.500000000000001776, 0.000000000000000000, -4.500000000000002665 ) ) ;
#232 = EDGE_CURVE ( 'NONE', #819, #320, #46, .T. ) ;
#233 = ORIENTED_EDGE ( 'NONE', *, *, #680, .F. ) ;
#234 = DIRECTION ( 'NONE',  ( 1.000000000000000000, -0.000000000000000000, 0.000000000000000000 ) ) ;
#235 = DIRECTION ( 'NONE',  ( -3.197646960325918927E-16, 0.000000000000000000, 1.000000000000000000 ) ) ;
#236 = CARTESIAN_POINT ( 'NONE',  ( -19.09915254237288451, 45.00000000000000000, 14.50000000000000000 ) ) ;
#237 = AXIS2_PLACEMENT_3D ( 'NONE', #475, #692, #347 ) ;
#238 = ORIENTED_EDGE ( 'NONE', *, *, #377, .F. ) ;
#239 = CIRCLE ( 'NONE', #2, 2.799999999999999822 ) ;
#240 = CARTESIAN_POINT ( 'NONE',  ( -4.650000000000011013, 0.000000000000000000, -9.099152542372880959 ) ) ;
#241 = CARTESIAN_POINT ( 'NONE',  ( -5.650000000000019895, 0.000000000000000000, -19.09915254237288451 ) ) ;
#242 = EDGE_LOOP ( 'NONE', ( #626, #48, #587, #345 ) ) ;
#243 = CARTESIAN_POINT ( 'NONE',  ( -19.09915254237288451, 45.00000000000000000, 15.50000000000000000 ) ) ;
#244 = DIRECTION ( 'NONE',  ( 0.000000000000000000, -1.000000000000000000, 0.000000000000000000 ) ) ;
#245 = ORIENTED_EDGE ( 'NONE', *, *, #706, .F. ) ;
#246 = CARTESIAN_POINT ( 'NONE',  ( -14.49999999999999467, 0.000000000000000000, -18.09915254237288096 ) ) ;
#247 = ADVANCED_FACE ( 'NONE', ( #601 ), #889, .F. ) ;
#248 = LINE ( 'NONE', #600, #785 ) ;
#249 = ORIENTED_EDGE ( 'NONE', *, *, #630, .T. ) ;
#250 = CIRCLE ( 'NONE', #765, 0.9999999999999991118 ) ;
#251 = CARTESIAN_POINT ( 'NONE',  ( -19.09915254237288451, 45.00000000000000000, 5.649999999999996803 ) ) ;
#252 = VECTOR ( 'NONE', #209, 1000.000000000000000 ) ;
#253 = CYLINDRICAL_SURFACE ( 'NONE', #896, 1.000000000000000000 ) ;
#254 = CARTESIAN_POINT ( 'NONE',  ( 4.650000000000015454, 45.00000000000000000, -18.09915254237288806 ) ) ;
#255 = ORIENTED_EDGE ( 'NONE', *, *, #272, .T. ) ;
#256 = LINE ( 'NONE', #747, #451 ) ;
#257 = CARTESIAN_POINT ( 'NONE',  ( -4.650000000000011013, 45.00000000000000000, -9.099152542372880959 ) ) ;
#258 = DIRECTION ( 'NONE',  ( 0.000000000000000000, 1.000000000000000000, 0.000000000000000000 ) ) ;
#259 = EDGE_CURVE ( 'NONE', #796, #835, #262, .T. ) ;
#260 = ORIENTED_EDGE ( 'NONE', *, *, #507, .T. ) ;
#261 = CARTESIAN_POINT ( 'NONE',  ( 3.429011037612588290E-16, 45.00000000000000000, 2.799999999999999822 ) ) ;
#262 = LINE ( 'NONE', #536, #364 ) ;
#263 = ORIENTED_EDGE ( 'NONE', *, *, #680, .T. ) ;
#264 = AXIS2_PLACEMENT_3D ( 'NONE', #543, #415, #554 ) ;
#265 = CARTESIAN_POINT ( 'NONE',  ( 5.650000000000015454, 45.00000000000000000, -18.09915254237288451 ) ) ;
#266 = VECTOR ( 'NONE', #496, 1000.000000000000000 ) ;
#267 = VECTOR ( 'NONE', #806, 1000.000000000000000 ) ;
#268 = ORIENTED_EDGE ( 'NONE', *, *, #391, .T. ) ;
#269 = DIRECTION ( 'NONE',  ( 0.000000000000000000, 1.000000000000000000, 0.000000000000000000 ) ) ;
#270 = ORIENTED_EDGE ( 'NONE', *, *, #748, .F. ) ;
#271 = CARTESIAN_POINT ( 'NONE',  ( 14.49999999999999467, 45.00000000000000000, -19.09915254237288096 ) ) ;
#272 = EDGE_CURVE ( 'NONE', #686, #848, #145, .T. ) ;
#273 = CARTESIAN_POINT ( 'NONE',  ( -18.09915254237287385, 45.00000000000000000, 15.50000000000000000 ) ) ;
#274 = ORIENTED_EDGE ( 'NONE', *, *, #340, .F. ) ;
#275 = DIRECTION ( 'NONE',  ( 0.000000000000000000, 0.000000000000000000, -1.000000000000000000 ) ) ;
#276 = AXIS2_PLACEMENT_3D ( 'NONE', #727, #371, #654 ) ;
#277 = LINE ( 'NONE', #14, #105 ) ;
#278 = ORIENTED_EDGE ( 'NONE', *, *, #307, .F. ) ;
#279 = EDGE_CURVE ( 'NONE', #350, #320, #64, .T. ) ;
#280 = CARTESIAN_POINT ( 'NONE',  ( -18.09915254237288451, 0.000000000000000000, 5.649999999999996803 ) ) ;
#281 = DIRECTION ( 'NONE',  ( -0.000000000000000000, -1.000000000000000000, -0.000000000000000000 ) ) ;
#282 = EDGE_CURVE ( 'NONE', #589, #648, #436, .T. ) ;
#283 = VERTEX_POINT ( 'NONE', #558 ) ;
#284 = CARTESIAN_POINT ( 'NONE',  ( 5.650000000000015454, 0.000000000000000000, -19.09915254237288451 ) ) ;
#285 = LINE ( 'NONE', #779, #754 ) ;
#286 = LINE ( 'NONE', #216, #644 ) ;
#287 = ORIENTED_EDGE ( 'NONE', *, *, #82, .F. ) ;
#288 = ADVANCED_FACE ( 'NONE', ( #611 ), #56, .T. ) ;
#289 = CARTESIAN_POINT ( 'NONE',  ( -19.09915254237288451, 45.00000000000000000, -5.649999999999995914 ) ) ;
#290 = DIRECTION ( 'NONE',  ( 0.000000000000000000, 0.000000000000000000, -1.000000000000000000 ) ) ;
#291 = DIRECTION ( 'NONE',  ( -1.000000000000000000, -0.000000000000000000, 5.595882180570347152E-16 ) ) ;
#292 = VECTOR ( 'NONE', #816, 1000.000000000000000 ) ;
#293 = ORIENTED_EDGE ( 'NONE', *, *, #621, .T. ) ;
#294 = CARTESIAN_POINT ( 'NONE',  ( 5.650000000000015454, 45.00000000000000000, -19.09915254237288451 ) ) ;
#295 = EDGE_CURVE ( 'NONE', #93, #759, #903, .T. ) ;
#296 = DIRECTION ( 'NONE',  ( -0.000000000000000000, -1.000000000000000000, -0.000000000000000000 ) ) ;
#297 = DIRECTION ( 'NONE',  ( 0.000000000000000000, -1.000000000000000000, 0.000000000000000000 ) ) ;
#298 = ADVANCED_FACE ( 'NONE', ( #894 ), #136, .T. ) ;
#299 = ORIENTED_EDGE ( 'NONE', *, *, #748, .T. ) ;
#300 = CARTESIAN_POINT ( 'NONE',  ( 14.49999999999999467, 45.00000000000000000, -18.09915254237288096 ) ) ;
#301 = SURFACE_STYLE_USAGE ( .BOTH. , #846 ) ;
#302 = LINE ( 'NONE', #369, #690 ) ;
#303 = ORIENTED_EDGE ( 'NONE', *, *, #829, .T. ) ;
#304 = EDGE_CURVE ( 'NONE', #450, #350, #69, .T. ) ;
#305 = FACE_OUTER_BOUND ( 'NONE', #212, .T. ) ;
#306 = CARTESIAN_POINT ( 'NONE',  ( 15.49999999999999645, 45.00000000000000000, 15.49999999999998579 ) ) ;
#307 = EDGE_CURVE ( 'NONE', #890, #9, #341, .T. ) ;
#308 = AXIS2_PLACEMENT_3D ( 'NONE', #337, #198, #618 ) ;
#309 = ORIENTED_EDGE ( 'NONE', *, *, #398, .F. ) ;
#310 = CARTESIAN_POINT ( 'NONE',  ( -19.09915254237288451, 45.00000000000000000, 5.649999999999996803 ) ) ;
#311 = EDGE_LOOP ( 'NONE', ( #663, #404, #718, #342 ) ) ;
#312 = EDGE_CURVE ( 'NONE', #62, #193, #471, .T. ) ;
#313 = DIRECTION ( 'NONE',  ( 0.000000000000000000, 0.000000000000000000, -1.000000000000000000 ) ) ;
#314 = FACE_OUTER_BOUND ( 'NONE', #576, .T. ) ;
#315 = ORIENTED_EDGE ( 'NONE', *, *, #162, .T. ) ;
#316 = FACE_OUTER_BOUND ( 'NONE', #349, .T. ) ;
#317 = EDGE_CURVE ( 'NONE', #656, #673, #409, .T. ) ;
#318 = LINE ( 'NONE', #257, #826 ) ;
#319 = DIRECTION ( 'NONE',  ( 7.806255641895631925E-16, 0.000000000000000000, 1.000000000000000000 ) ) ;
#320 = VERTEX_POINT ( 'NONE', #695 ) ;
#321 = LINE ( 'NONE', #599, #469 ) ;
#322 = VECTOR ( 'NONE', #533, 1000.000000000000000 ) ;
#323 = AXIS2_PLACEMENT_3D ( 'NONE', #802, #805, #447 ) ;
#324 = CARTESIAN_POINT ( 'NONE',  ( -4.500000000000001776, 45.00000000000000000, -4.500000000000002665 ) ) ;
#325 = DIRECTION ( 'NONE',  ( -5.013774467025824834E-17, -0.000000000000000000, -1.000000000000000000 ) ) ;
#326 = ORIENTED_EDGE ( 'NONE', *, *, #184, .F. ) ;
#327 = DIRECTION ( 'NONE',  ( -0.000000000000000000, -0.000000000000000000, 1.000000000000000000 ) ) ;
#328 = EDGE_CURVE ( 'NONE', #9, #350, #396, .T. ) ;
#329 = SHAPE_DEFINITION_REPRESENTATION ( #642, #213 ) ;
#330 = DIRECTION ( 'NONE',  ( 5.595882180570347152E-16, -0.000000000000000000, 1.000000000000000000 ) ) ;
#331 = VERTEX_POINT ( 'NONE', #698 ) ;
#332 = EDGE_LOOP ( 'NONE', ( #113, #490, #238, #880 ) ) ;
#333 = CARTESIAN_POINT ( 'NONE',  ( 15.49999999999999467, 0.000000000000000000, -19.09915254237288096 ) ) ;
#334 = ORIENTED_EDGE ( 'NONE', *, *, #51, .T. ) ;
#335 = DIRECTION ( 'NONE',  ( 0.000000000000000000, 0.000000000000000000, 1.000000000000000000 ) ) ;
#336 = VECTOR ( 'NONE', #773, 1000.000000000000000 ) ;
#337 = CARTESIAN_POINT ( 'NONE',  ( -4.500000000000001776, 45.00000000000000000, -4.500000000000002665 ) ) ;
#338 = ORIENTED_EDGE ( 'NONE', *, *, #549, .T. ) ;
#339 = APPLICATION_CONTEXT ( 'automotive_design' ) ;
#340 = EDGE_CURVE ( 'NONE', #835, #495, #854, .T. ) ;
#341 = LINE ( 'NONE', #271, #252 ) ;
#342 = ORIENTED_EDGE ( 'NONE', *, *, #694, .F. ) ;
#343 = ORIENTED_EDGE ( 'NONE', *, *, #712, .T. ) ;
#344 = DIRECTION ( 'NONE',  ( -0.000000000000000000, 1.000000000000000000, -0.000000000000000000 ) ) ;
#345 = ORIENTED_EDGE ( 'NONE', *, *, #900, .T. ) ;
#346 = ORIENTED_EDGE ( 'NONE', *, *, #40, .T. ) ;
#347 = DIRECTION ( 'NONE',  ( 0.000000000000000000, 0.000000000000000000, -1.000000000000000000 ) ) ;
#348 = VECTOR ( 'NONE', #161, 1000.000000000000000 ) ;
#349 = EDGE_LOOP ( 'NONE', ( #714, #521, #516, #401 ) ) ;
#350 = VERTEX_POINT ( 'NONE', #484 ) ;
#351 = LINE ( 'NONE', #218, #32 ) ;
#352 = LINE ( 'NONE', #230, #397 ) ;
#353 = DIRECTION ( 'NONE',  ( 0.000000000000000000, 0.000000000000000000, 1.000000000000000000 ) ) ;
#354 = ORIENTED_EDGE ( 'NONE', *, *, #137, .T. ) ;
#355 = DIRECTION ( 'NONE',  ( 1.000000000000000000, -0.000000000000000000, 0.000000000000000000 ) ) ;
#356 = DIRECTION ( 'NONE',  ( -1.000000000000000000, -0.000000000000000000, 3.197646960325918927E-16 ) ) ;
#357 = CARTESIAN_POINT ( 'NONE',  ( -4.650000000000011013, 0.000000000000000000, -9.099152542372880959 ) ) ;
#358 = ORIENTED_EDGE ( 'NONE', *, *, #232, .T. ) ;
#359 = CARTESIAN_POINT ( 'NONE',  ( 4.650000000000015454, 45.00000000000000000, -18.09915254237288806 ) ) ;
#360 =( NAMED_UNIT ( * ) SI_UNIT ( $, .STERADIAN. ) SOLID_ANGLE_UNIT ( ) );
#361 = EDGE_CURVE ( 'NONE', #129, #416, #620, .T. ) ;
#362 = VECTOR ( 'NONE', #383, 1000.000000000000000 ) ;
#363 = CARTESIAN_POINT ( 'NONE',  ( 0.000000000000000000, 0.000000000000000000, 0.000000000000000000 ) ) ;
#364 = VECTOR ( 'NONE', #825, 1000.000000000000000 ) ;
#365 = VECTOR ( 'NONE', #356, 1000.000000000000000 ) ;
#366 = EDGE_LOOP ( 'NONE', ( #197, #102, #211, #278 ) ) ;
#367 = CARTESIAN_POINT ( 'NONE',  ( -18.09915254237288451, 0.000000000000000000, -4.649999999999995914 ) ) ;
#368 = CARTESIAN_POINT ( 'NONE',  ( 0.000000000000000000, 0.000000000000000000, -2.799999999999999822 ) ) ;
#369 = CARTESIAN_POINT ( 'NONE',  ( -15.49999999999999467, 45.00000000000000000, -15.50000000000000000 ) ) ;
#370 = EDGE_LOOP ( 'NONE', ( #157, #876, #697, #309 ) ) ;
#371 = DIRECTION ( 'NONE',  ( 0.000000000000000000, 1.000000000000000000, 0.000000000000000000 ) ) ;
#372 = FACE_OUTER_BOUND ( 'NONE', #613, .T. ) ;
#373 = ORIENTED_EDGE ( 'NONE', *, *, #438, .T. ) ;
#374 = ADVANCED_FACE ( 'NONE', ( #194 ), #624, .T. ) ;
#375 = DIRECTION ( 'NONE',  ( 0.000000000000000000, 1.000000000000000000, 0.000000000000000000 ) ) ;
#376 = DIRECTION ( 'NONE',  ( 0.000000000000000000, -1.000000000000000000, -0.000000000000000000 ) ) ;
#377 = EDGE_CURVE ( 'NONE', #228, #416, #524, .T. ) ;
#378 = AXIS2_PLACEMENT_3D ( 'NONE', #775, #141, #353 ) ;
#379 = EDGE_LOOP ( 'NONE', ( #625, #354, #619, #488, #899, #199, #701, #109, #902, #73, #27, #180, #53, #287, #831, #245, #385, #6, #134, #474, #844, #863, #788 ) ) ;
#380 = VECTOR ( 'NONE', #130, 1000.000000000000000 ) ;
#381 = VECTOR ( 'NONE', #888, 1000.000000000000000 ) ;
#382 = DIRECTION ( 'NONE',  ( -0.000000000000000000, -1.000000000000000000, -0.000000000000000000 ) ) ;
#383 = DIRECTION ( 'NONE',  ( -0.000000000000000000, -1.000000000000000000, 0.000000000000000000 ) ) ;
#384 = ADVANCED_FACE ( 'NONE', ( #124 ), #127, .F. ) ;
#385 = ORIENTED_EDGE ( 'NONE', *, *, #340, .T. ) ;
#386 = DIRECTION ( 'NONE',  ( 0.000000000000000000, 1.000000000000000000, 0.000000000000000000 ) ) ;
#387 = CARTESIAN_POINT ( 'NONE',  ( -18.09915254237287385, 0.000000000000000000, 15.50000000000000000 ) ) ;
#388 = CARTESIAN_POINT ( 'NONE',  ( -19.09915254237288451, 0.000000000000000000, 5.649999999999996803 ) ) ;
#389 = ORIENTED_EDGE ( 'NONE', *, *, #431, .T. ) ;
#390 = DIRECTION ( 'NONE',  ( 1.000000000000000000, 0.000000000000000000, 2.602085213965211135E-16 ) ) ;
#391 = EDGE_CURVE ( 'NONE', #759, #819, #467, .T. ) ;
#392 = FACE_BOUND ( 'NONE', #787, .T. ) ;
#393 = LINE ( 'NONE', #744, #702 ) ;
#394 = ORIENTED_EDGE ( 'NONE', *, *, #507, .F. ) ;
#395 = VERTEX_POINT ( 'NONE', #901 ) ;
#396 = CIRCLE ( 'NONE', #264, 1.000000000000000888 ) ;
#397 = VECTOR ( 'NONE', #562, 1000.000000000000000 ) ;
#398 = EDGE_CURVE ( 'NONE', #10, #885, #479, .T. ) ;
#399 = LINE ( 'NONE', #731, #131 ) ;
#400 = DIRECTION ( 'NONE',  ( -0.000000000000000000, -0.000000000000000000, 1.000000000000000000 ) ) ;
#401 = ORIENTED_EDGE ( 'NONE', *, *, #830, .T. ) ;
#402 = FACE_OUTER_BOUND ( 'NONE', #34, .T. ) ;
#403 = CARTESIAN_POINT ( 'NONE',  ( 0.000000000000000000, 45.00000000000000000, 0.000000000000000000 ) ) ;
#404 = ORIENTED_EDGE ( 'NONE', *, *, #464, .F. ) ;
#405 = DIRECTION ( 'NONE',  ( -0.000000000000000000, -1.000000000000000000, -0.000000000000000000 ) ) ;
#406 = EDGE_CURVE ( 'NONE', #228, #83, #90, .T. ) ;
#407 = ORIENTED_EDGE ( 'NONE', *, *, #195, .F. ) ;
#408 = VECTOR ( 'NONE', #344, 1000.000000000000000 ) ;
#409 = LINE ( 'NONE', #412, #205 ) ;
#410 = CIRCLE ( 'NONE', #598, 1.000000000000000888 ) ;
#411 = ORIENTED_EDGE ( 'NONE', *, *, #764, .F. ) ;
#412 = CARTESIAN_POINT ( 'NONE',  ( -19.09915254237288451, 0.000000000000000000, -4.649999999999995914 ) ) ;
#413 = ORIENTED_EDGE ( 'NONE', *, *, #764, .T. ) ;
#414 = ORIENTED_EDGE ( 'NONE', *, *, #751, .T. ) ;
#415 = DIRECTION ( 'NONE',  ( -0.000000000000000000, -1.000000000000000000, -0.000000000000000000 ) ) ;
#416 = VERTEX_POINT ( 'NONE', #710 ) ;
#417 = ORIENTED_EDGE ( 'NONE', *, *, #95, .T. ) ;
#418 = CARTESIAN_POINT ( 'NONE',  ( -4.650000000000018119, 45.00000000000000000, -18.09915254237288451 ) ) ;
#419 = VECTOR ( 'NONE', #756, 1000.000000000000000 ) ;
#420 = CIRCLE ( 'NONE', #672, 1.000000000000000888 ) ;
#421 = LINE ( 'NONE', #434, #365 ) ;
#422 = DIRECTION ( 'NONE',  ( 0.000000000000000000, 0.000000000000000000, -1.000000000000000000 ) ) ;
#423 = ORIENTED_EDGE ( 'NONE', *, *, #472, .T. ) ;
#424 = LINE ( 'NONE', #418, #266 ) ;
#425 = PLANE ( 'NONE',  #542 ) ;
#426 = LINE ( 'NONE', #357, #722 ) ;
#427 = ORIENTED_EDGE ( 'NONE', *, *, #566, .T. ) ;
#428 = DIRECTION ( 'NONE',  ( 3.209238430557094308E-15, 0.000000000000000000, -1.000000000000000000 ) ) ;
#429 = DIRECTION ( 'NONE',  ( -1.000000000000000000, -0.000000000000000000, -3.197646960325918927E-16 ) ) ;
#430 = DIRECTION ( 'NONE',  ( 0.000000000000000000, 0.000000000000000000, -1.000000000000000000 ) ) ;
#431 = EDGE_CURVE ( 'NONE', #709, #689, #351, .T. ) ;
#432 = ORIENTED_EDGE ( 'NONE', *, *, #51, .F. ) ;
#433 = DIRECTION ( 'NONE',  ( 5.013774467025826067E-17, 0.000000000000000000, 1.000000000000000000 ) ) ;
#434 = CARTESIAN_POINT ( 'NONE',  ( -15.49999999999999467, 0.000000000000000000, -19.09915254237288096 ) ) ;
#435 = DIRECTION ( 'NONE',  ( -1.000000000000000000, -0.000000000000000000, -0.000000000000000000 ) ) ;
#436 = CIRCLE ( 'NONE', #553, 1.000000000000000888 ) ;
#437 = ORIENTED_EDGE ( 'NONE', *, *, #82, .T. ) ;
#438 = EDGE_CURVE ( 'NONE', #283, #580, #540, .T. ) ;
#439 = DIRECTION ( 'NONE',  ( -0.000000000000000000, 1.000000000000000000, -0.000000000000000000 ) ) ;
#440 = LINE ( 'NONE', #728, #781 ) ;
#441 = ORIENTED_EDGE ( 'NONE', *, *, #818, .T. ) ;
#442 = DIRECTION ( 'NONE',  ( 0.000000000000000000, 0.000000000000000000, -1.000000000000000000 ) ) ;
#443 = ADVANCED_FACE ( 'NONE', ( #305 ), #155, .T. ) ;
#444 = DIRECTION ( 'NONE',  ( 0.000000000000000000, 0.000000000000000000, -1.000000000000000000 ) ) ;
#445 = ADVANCED_FACE ( 'NONE', ( #715 ), #225, .F. ) ;
#446 = VERTEX_POINT ( 'NONE', #284 ) ;
#447 = DIRECTION ( 'NONE',  ( 0.000000000000000000, 0.000000000000000000, -1.000000000000000000 ) ) ;
#448 = DIRECTION ( 'NONE',  ( 0.000000000000000000, -1.000000000000000000, -0.000000000000000000 ) ) ;
#449 = ADVANCED_FACE ( 'NONE', ( #94 ), #506, .F. ) ;
#450 = VERTEX_POINT ( 'NONE', #75 ) ;
#451 = VECTOR ( 'NONE', #119, 1000.000000000000000 ) ;
#452 = DIRECTION ( 'NONE',  ( -0.000000000000000000, -1.000000000000000000, -0.000000000000000000 ) ) ;
#453 = CARTESIAN_POINT ( 'NONE',  ( 3.429011037612588290E-16, 45.00000000000000000, 2.799999999999999822 ) ) ;
#454 = DIRECTION ( 'NONE',  ( 0.000000000000000000, 0.000000000000000000, -1.000000000000000000 ) ) ;
#455 = ORIENTED_EDGE ( 'NONE', *, *, #457, .T. ) ;
#456 = DIRECTION ( 'NONE',  ( 0.000000000000000000, 0.000000000000000000, -1.000000000000000000 ) ) ;
#457 = EDGE_CURVE ( 'NONE', #495, #193, #424, .T. ) ;
#458 = CARTESIAN_POINT ( 'NONE',  ( -15.49999999999999467, 45.00000000000000000, -15.50000000000000000 ) ) ;
#459 = CARTESIAN_POINT ( 'NONE',  ( -14.49999999999999467, 45.00000000000000000, -19.09915254237288096 ) ) ;
#460 = VERTEX_POINT ( 'NONE', #367 ) ;
#461 = ORIENTED_EDGE ( 'NONE', *, *, #219, .T. ) ;
#462 = DIRECTION ( 'NONE',  ( -0.000000000000000000, -1.000000000000000000, -0.000000000000000000 ) ) ;
#463 = LINE ( 'NONE', #117, #752 ) ;
#464 = EDGE_CURVE ( 'NONE', #673, #641, #649, .T. ) ;
#465 =( GEOMETRIC_REPRESENTATION_CONTEXT ( 3 ) GLOBAL_UNCERTAINTY_ASSIGNED_CONTEXT ( ( #192 ) ) GLOBAL_UNIT_ASSIGNED_CONTEXT ( ( #152, #508, #360 ) ) REPRESENTATION_CONTEXT ( 'NONE', 'WORKASPACE' ) );
#466 = ORIENTED_EDGE ( 'NONE', *, *, #13, .F. ) ;
#467 = CIRCLE ( 'NONE', #308, 19.99999999999999645 ) ;
#468 = CARTESIAN_POINT ( 'NONE',  ( -19.09915254237288451, 0.000000000000000000, -5.649999999999995914 ) ) ;
#469 = VECTOR ( 'NONE', #593, 1000.000000000000000 ) ;
#470 = VECTOR ( 'NONE', #107, 1000.000000000000000 ) ;
#471 = LINE ( 'NONE', #836, #483 ) ;
#472 = EDGE_CURVE ( 'NONE', #320, #890, #855, .T. ) ;
#473 = VERTEX_POINT ( 'NONE', #784 ) ;
#474 = ORIENTED_EDGE ( 'NONE', *, *, #818, .F. ) ;
#475 = CARTESIAN_POINT ( 'NONE',  ( -5.650000000000019895, 0.000000000000000000, -18.09915254237288451 ) ) ;
#476 = ADVANCED_FACE ( 'NONE', ( #864 ), #148, .F. ) ;
#477 = EDGE_LOOP ( 'NONE', ( #343, #455, #776, #812 ) ) ;
#478 = UNCERTAINTY_MEASURE_WITH_UNIT (LENGTH_MEASURE( 1.000000000000000082E-05 ), #482, 'distance_accuracy_value', 'NONE');
#479 = LINE ( 'NONE', #763, #380 ) ;
#480 = ORIENTED_EDGE ( 'NONE', *, *, #861, .T. ) ;
#481 = VECTOR ( 'NONE', #41, 1000.000000000000000 ) ;
#482 =( LENGTH_UNIT ( ) NAMED_UNIT ( * ) SI_UNIT ( .MILLI., .METRE. ) );
#483 = VECTOR ( 'NONE', #140, 1000.000000000000000 ) ;
#484 = CARTESIAN_POINT ( 'NONE',  ( 15.49999999999999467, 0.000000000000000000, -18.09915254237288096 ) ) ;
#485 = COLOUR_RGB ( '',0.7921568627450980005, 0.8196078431372548767, 0.9333333333333333481 ) ;
#486 = DIRECTION ( 'NONE',  ( -0.000000000000000000, 1.000000000000000000, -0.000000000000000000 ) ) ;
#487 = ADVANCED_FACE ( 'NONE', ( #18 ), #511, .F. ) ;
#488 = ORIENTED_EDGE ( 'NONE', *, *, #817, .T. ) ;
#489 = DIRECTION ( 'NONE',  ( 0.000000000000000000, -1.000000000000000000, 0.000000000000000000 ) ) ;
#490 = ORIENTED_EDGE ( 'NONE', *, *, #220, .F. ) ;
#491 = ORIENTED_EDGE ( 'NONE', *, *, #259, .T. ) ;
#492 = CARTESIAN_POINT ( 'NONE',  ( 4.649999999999987033, 45.00000000000000000, -9.099152542372886288 ) ) ;
#493 = DIRECTION ( 'NONE',  ( 0.000000000000000000, 0.000000000000000000, -1.000000000000000000 ) ) ;
#494 = EDGE_LOOP ( 'NONE', ( #660, #98, #858, #746 ) ) ;
#495 = VERTEX_POINT ( 'NONE', #638 ) ;
#496 = DIRECTION ( 'NONE',  ( -0.000000000000000000, 1.000000000000000000, -0.000000000000000000 ) ) ;
#497 = VECTOR ( 'NONE', #70, 1000.000000000000000 ) ;
#498 = CIRCLE ( 'NONE', #276, 2.799999999999999822 ) ;
#499 = ORIENTED_EDGE ( 'NONE', *, *, #685, .F. ) ;
#500 = ORIENTED_EDGE ( 'NONE', *, *, #549, .F. ) ;
#501 = CARTESIAN_POINT ( 'NONE',  ( -18.09915254237288451, 45.00000000000000000, 5.649999999999996803 ) ) ;
#502 = CARTESIAN_POINT ( 'NONE',  ( -19.09915254237288451, 45.00000000000000000, -4.649999999999995914 ) ) ;
#503 = EDGE_CURVE ( 'NONE', #446, #177, #160, .T. ) ;
#504 = DIRECTION ( 'NONE',  ( 1.000000000000000000, -0.000000000000000000, 0.000000000000000000 ) ) ;
#505 = EDGE_LOOP ( 'NONE', ( #411, #893, #623, #550 ) ) ;
#506 = PLANE ( 'NONE',  #811 ) ;
#507 = EDGE_CURVE ( 'NONE', #872, #191, #498, .T. ) ;
#508 =( NAMED_UNIT ( * ) PLANE_ANGLE_UNIT ( ) SI_UNIT ( $, .RADIAN. ) );
#509 = DIRECTION ( 'NONE',  ( -0.000000000000000000, -1.000000000000000000, 0.000000000000000000 ) ) ;
#510 = VERTEX_POINT ( 'NONE', #11 ) ;
#511 = PLANE ( 'NONE',  #173 ) ;
#512 = DIRECTION ( 'NONE',  ( 1.000000000000000000, 0.000000000000000000, 3.197646960325918927E-16 ) ) ;
#513 = CARTESIAN_POINT ( 'NONE',  ( -4.650000000000018119, 45.00000000000000000, -18.09915254237288451 ) ) ;
#514 = VECTOR ( 'NONE', #66, 1000.000000000000000 ) ;
#515 = AXIS2_PLACEMENT_3D ( 'NONE', #80, #296, #493 ) ;
#516 = ORIENTED_EDGE ( 'NONE', *, *, #829, .F. ) ;
#517 = CYLINDRICAL_SURFACE ( 'NONE', #323, 1.000000000000000000 ) ;
#518 = CARTESIAN_POINT ( 'NONE',  ( -18.09915254237287385, 0.000000000000000000, 14.50000000000000000 ) ) ;
#519 = ORIENTED_EDGE ( 'NONE', *, *, #272, .F. ) ;
#520 = CARTESIAN_POINT ( 'NONE',  ( -5.650000000000019895, 45.00000000000000000, -19.09915254237288451 ) ) ;
#521 = ORIENTED_EDGE ( 'NONE', *, *, #220, .T. ) ;
#522 = DIRECTION ( 'NONE',  ( 0.000000000000000000, 0.000000000000000000, -1.000000000000000000 ) ) ;
#523 = CARTESIAN_POINT ( 'NONE',  ( -9.099152542372884511, 45.00000000000000000, 4.649999999999998579 ) ) ;
#524 = CIRCLE ( 'NONE', #568, 1.000000000000000000 ) ;
#525 = ADVANCED_FACE ( 'NONE', ( #582 ), #214, .F. ) ;
#526 = AXIS2_PLACEMENT_3D ( 'NONE', #874, #382, #39 ) ;
#527 = FACE_OUTER_BOUND ( 'NONE', #57, .T. ) ;
#528 = CARTESIAN_POINT ( 'NONE',  ( -19.09915254237288451, 45.00000000000000000, 4.649999999999995914 ) ) ;
#529 = CARTESIAN_POINT ( 'NONE',  ( 5.650000000000015454, 45.00000000000000000, -19.09915254237288451 ) ) ;
#530 = ORIENTED_EDGE ( 'NONE', *, *, #201, .T. ) ;
#531 = CARTESIAN_POINT ( 'NONE',  ( -19.09915254237288451, 45.00000000000000000, 4.649999999999995914 ) ) ;
#532 = CARTESIAN_POINT ( 'NONE',  ( -9.099152542372884511, 45.00000000000000000, -4.649999999999998579 ) ) ;
#533 = DIRECTION ( 'NONE',  ( 0.000000000000000000, -1.000000000000000000, 0.000000000000000000 ) ) ;
#534 = VERTEX_POINT ( 'NONE', #359 ) ;
#535 = DIRECTION ( 'NONE',  ( -0.000000000000000000, -1.000000000000000000, -0.000000000000000000 ) ) ;
#536 = CARTESIAN_POINT ( 'NONE',  ( -5.650000000000019895, 45.00000000000000000, -19.09915254237288451 ) ) ;
#537 = PRESENTATION_LAYER_ASSIGNMENT (  '', '', ( #567 ) ) ;
#538 = EDGE_LOOP ( 'NONE', ( #118, #544, #519, #326 ) ) ;
#539 = VECTOR ( 'NONE', #325, 1000.000000000000000 ) ;
#540 = CIRCLE ( 'NONE', #61, 1.000000000000000000 ) ;
#541 = EDGE_CURVE ( 'NONE', #193, #796, #674, .T. ) ;
#542 = AXIS2_PLACEMENT_3D ( 'NONE', #645, #790, #20 ) ;
#543 = CARTESIAN_POINT ( 'NONE',  ( 14.49999999999999467, 0.000000000000000000, -18.09915254237288096 ) ) ;
#544 = ORIENTED_EDGE ( 'NONE', *, *, #664, .T. ) ;
#545 = ADVANCED_FACE ( 'NONE', ( #316 ), #814, .F. ) ;
#546 = DIRECTION ( 'NONE',  ( 0.000000000000000000, -1.000000000000000000, 0.000000000000000000 ) ) ;
#547 = EDGE_LOOP ( 'NONE', ( #417, #217, #153, #208 ) ) ;
#548 = DIRECTION ( 'NONE',  ( -0.000000000000000000, 1.000000000000000000, -0.000000000000000000 ) ) ;
#549 = EDGE_CURVE ( 'NONE', #154, #473, #616, .T. ) ;
#550 = ORIENTED_EDGE ( 'NONE', *, *, #464, .T. ) ;
#551 = ORIENTED_EDGE ( 'NONE', *, *, #295, .T. ) ;
#552 = PRODUCT_DEFINITION_FORMATION_WITH_SPECIFIED_SOURCE ( 'ANY', '', #852, .NOT_KNOWN. ) ;
#553 = AXIS2_PLACEMENT_3D ( 'NONE', #841, #269, #845 ) ;
#554 = DIRECTION ( 'NONE',  ( 0.000000000000000000, 0.000000000000000000, -1.000000000000000000 ) ) ;
#555 = AXIS2_PLACEMENT_3D ( 'NONE', #824, #682, #186 ) ;
#556 = CARTESIAN_POINT ( 'NONE',  ( -4.650000000000011013, 45.00000000000000000, -9.099152542372880959 ) ) ;
#557 = EDGE_LOOP ( 'NONE', ( #255, #38 ) ) ;
#558 = CARTESIAN_POINT ( 'NONE',  ( -18.09915254237288451, 45.00000000000000000, 4.649999999999995914 ) ) ;
#559 = CARTESIAN_POINT ( 'NONE',  ( -18.09915254237288451, 0.000000000000000000, -15.50000000000000000 ) ) ;
#560 = EDGE_LOOP ( 'NONE', ( #499, #146, #427, #592 ) ) ;
#561 = DIRECTION ( 'NONE',  ( 0.000000000000000000, 1.000000000000000000, -0.000000000000000000 ) ) ;
#562 = DIRECTION ( 'NONE',  ( -7.806255641895630939E-16, -0.000000000000000000, -1.000000000000000000 ) ) ;
#563 = CARTESIAN_POINT ( 'NONE',  ( -19.09915254237288451, 0.000000000000000000, 14.50000000000000000 ) ) ;
#564 = ORIENTED_EDGE ( 'NONE', *, *, #581, .F. ) ;
#565 = CARTESIAN_POINT ( 'NONE',  ( -19.09915254237288451, 45.00000000000000000, -4.649999999999995914 ) ) ;
#566 = EDGE_CURVE ( 'NONE', #460, #807, #730, .T. ) ;
#567 = STYLED_ITEM ( 'NONE', ( #76 ), #721 ) ;
#568 = AXIS2_PLACEMENT_3D ( 'NONE', #280, #757, #833 ) ;
#569 = FACE_OUTER_BOUND ( 'NONE', #560, .T. ) ;
#570 = FACE_OUTER_BOUND ( 'NONE', #139, .T. ) ;
#571 = ORIENTED_EDGE ( 'NONE', *, *, #602, .F. ) ;
#572 = CARTESIAN_POINT ( 'NONE',  ( -19.09915254237288451, 0.000000000000000000, 15.50000000000000000 ) ) ;
#573 = CARTESIAN_POINT ( 'NONE',  ( 4.649999999999987033, 45.00000000000000000, -9.099152542372886288 ) ) ;
#574 = DIRECTION ( 'NONE',  ( -0.000000000000000000, -1.000000000000000000, -0.000000000000000000 ) ) ;
#575 = ADVANCED_FACE ( 'NONE', ( #868 ), #657, .F. ) ;
#576 = EDGE_LOOP ( 'NONE', ( #233, #491, #3, #334 ) ) ;
#577 = DIRECTION ( 'NONE',  ( 0.000000000000000000, 0.000000000000000000, -1.000000000000000000 ) ) ;
#578 = PLANE ( 'NONE',  #103 ) ;
#579 = CARTESIAN_POINT ( 'NONE',  ( -9.099152542372884511, 0.000000000000000000, 4.649999999999998579 ) ) ;
#580 = VERTEX_POINT ( 'NONE', #251 ) ;
#581 = EDGE_CURVE ( 'NONE', #689, #589, #321, .T. ) ;
#582 = FACE_OUTER_BOUND ( 'NONE', #681, .T. ) ;
#583 = AXIS2_PLACEMENT_3D ( 'NONE', #178, #376, #182 ) ;
#584 = DIRECTION ( 'NONE',  ( 0.000000000000000000, 0.000000000000000000, -1.000000000000000000 ) ) ;
#585 = CIRCLE ( 'NONE', #71, 1.000000000000000888 ) ;
#586 = VECTOR ( 'NONE', #675, 1000.000000000000000 ) ;
#587 = ORIENTED_EDGE ( 'NONE', *, *, #406, .T. ) ;
#588 = PLANE ( 'NONE',  #87 ) ;
#589 = VERTEX_POINT ( 'NONE', #887 ) ;
#590 = DIRECTION ( 'NONE',  ( -0.000000000000000000, -1.000000000000000000, -0.000000000000000000 ) ) ;
#591 = PLANE ( 'NONE',  #583 ) ;
#592 = ORIENTED_EDGE ( 'NONE', *, *, #861, .F. ) ;
#593 = DIRECTION ( 'NONE',  ( -0.000000000000000000, 1.000000000000000000, -0.000000000000000000 ) ) ;
#594 = LINE ( 'NONE', #310, #362 ) ;
#595 = CARTESIAN_POINT ( 'NONE',  ( 15.49999999999999467, 45.00000000000000000, -4.500000000000003553 ) ) ;
#596 = AXIS2_PLACEMENT_3D ( 'NONE', #769, #546, #688 ) ;
#597 = ORIENTED_EDGE ( 'NONE', *, *, #398, .T. ) ;
#598 = AXIS2_PLACEMENT_3D ( 'NONE', #246, #590, #522 ) ;
#599 = CARTESIAN_POINT ( 'NONE',  ( -18.09915254237288451, 45.00000000000000000, -15.50000000000000000 ) ) ;
#600 = CARTESIAN_POINT ( 'NONE',  ( -9.099152542372884511, 45.00000000000000000, 4.649999999999998579 ) ) ;
#601 = FACE_OUTER_BOUND ( 'NONE', #547, .T. ) ;
#602 = EDGE_CURVE ( 'NONE', #395, #446, #631, .T. ) ;
#603 = ORIENTED_EDGE ( 'NONE', *, *, #219, .F. ) ;
#604 = CARTESIAN_POINT ( 'NONE',  ( -15.49999999999999467, 45.00000000000000000, -19.09915254237288096 ) ) ;
#605 = DIRECTION ( 'NONE',  ( 0.000000000000000000, 1.000000000000000000, -0.000000000000000000 ) ) ;
#606 = CARTESIAN_POINT ( 'NONE',  ( -4.650000000000011013, 45.00000000000000000, -9.099152542372880959 ) ) ;
#607 = ADVANCED_FACE ( 'NONE', ( #527 ), #181, .T. ) ;
#608 = ORIENTED_EDGE ( 'NONE', *, *, #307, .T. ) ;
#609 = ORIENTED_EDGE ( 'NONE', *, *, #895, .T. ) ;
#610 =( NAMED_UNIT ( * ) SI_UNIT ( $, .STERADIAN. ) SOLID_ANGLE_UNIT ( ) );
#611 = FACE_OUTER_BOUND ( 'NONE', #366, .T. ) ;
#612 = VECTOR ( 'NONE', #605, 1000.000000000000000 ) ;
#613 = EDGE_LOOP ( 'NONE', ( #270, #608, #761, #737 ) ) ;
#614 = EDGE_CURVE ( 'NONE', #510, #22, #410, .T. ) ;
#615 = VECTOR ( 'NONE', #750, 1000.000000000000000 ) ;
#616 = CIRCLE ( 'NONE', #223, 1.000000000000000888 ) ;
#617 = PRODUCT_CONTEXT ( 'NONE', #203, 'mechanical' ) ;
#618 = DIRECTION ( 'NONE',  ( 0.000000000000000000, 0.000000000000000000, -1.000000000000000000 ) ) ;
#619 = ORIENTED_EDGE ( 'NONE', *, *, #774, .F. ) ;
#620 = LINE ( 'NONE', #828, #514 ) ;
#621 = EDGE_CURVE ( 'NONE', #729, #62, #256, .T. ) ;
#622 = VERTEX_POINT ( 'NONE', #171 ) ;
#623 = ORIENTED_EDGE ( 'NONE', *, *, #317, .T. ) ;
#624 = CYLINDRICAL_SURFACE ( 'NONE', #60, 0.9999999999999991118 ) ;
#625 = ORIENTED_EDGE ( 'NONE', *, *, #304, .F. ) ;
#626 = ORIENTED_EDGE ( 'NONE', *, *, #630, .F. ) ;
#627 = ADVANCED_FACE ( 'NONE', ( #30 ), #167, .F. ) ;
#628 = AXIS2_PLACEMENT_3D ( 'NONE', #81, #221, #636 ) ;
#629 = DIRECTION ( 'NONE',  ( 0.000000000000000000, -1.000000000000000000, 0.000000000000000000 ) ) ;
#630 = EDGE_CURVE ( 'NONE', #580, #207, #49, .T. ) ;
#631 = CIRCLE ( 'NONE', #703, 1.000000000000000888 ) ;
#632 = VERTEX_POINT ( 'NONE', #240 ) ;
#633 = ORIENTED_EDGE ( 'NONE', *, *, #279, .T. ) ;
#634 = DIRECTION ( 'NONE',  ( -1.000000000000000000, 0.000000000000000000, 5.013774467025826067E-17 ) ) ;
#635 = CARTESIAN_POINT ( 'NONE',  ( -18.09915254237288451, 45.00000000000000000, -4.649999999999995914 ) ) ;
#636 = DIRECTION ( 'NONE',  ( 0.000000000000000000, 0.000000000000000000, -1.000000000000000000 ) ) ;
#637 = ADVANCED_FACE ( 'NONE', ( #164 ), #517, .T. ) ;
#638 = CARTESIAN_POINT ( 'NONE',  ( -4.650000000000018119, 0.000000000000000000, -18.09915254237288451 ) ) ;
#639 = CARTESIAN_POINT ( 'NONE',  ( -18.09915254237288451, 45.00000000000000000, -5.649999999999995914 ) ) ;
#640 = LINE ( 'NONE', #149, #497 ) ;
#641 = VERTEX_POINT ( 'NONE', #733 ) ;
#642 = PRODUCT_DEFINITION_SHAPE ( 'NONE', 'NONE',  #97 ) ;
#643 = CARTESIAN_POINT ( 'NONE',  ( 15.49999999999999645, 45.00000000000000000, 15.49999999999998579 ) ) ;
#644 = VECTOR ( 'NONE', #77, 1000.000000000000000 ) ;
#645 = CARTESIAN_POINT ( 'NONE',  ( -9.099152542372884511, 45.00000000000000000, -4.649999999999998579 ) ) ;
#646 = AXIS2_PLACEMENT_3D ( 'NONE', #704, #849, #28 ) ;
#647 = DIRECTION ( 'NONE',  ( 0.000000000000000000, 1.000000000000000000, 0.000000000000000000 ) ) ;
#648 = VERTEX_POINT ( 'NONE', #661 ) ;
#649 = LINE ( 'NONE', #289, #190 ) ;
#650 = EDGE_CURVE ( 'NONE', #9, #446, #877, .T. ) ;
#651 = DIRECTION ( 'NONE',  ( -1.000000000000000000, -0.000000000000000000, 3.197646960325918927E-16 ) ) ;
#652 = LINE ( 'NONE', #595, #322 ) ;
#653 = ORIENTED_EDGE ( 'NONE', *, *, #232, .F. ) ;
#654 = DIRECTION ( 'NONE',  ( 0.000000000000000000, 0.000000000000000000, 1.000000000000000000 ) ) ;
#655 = FACE_OUTER_BOUND ( 'NONE', #379, .T. ) ;
#656 = VERTEX_POINT ( 'NONE', #755 ) ;
#657 = PLANE ( 'NONE',  #768 ) ;
#658 = CARTESIAN_POINT ( 'NONE',  ( -18.09915254237288451, 45.00000000000000000, 5.649999999999996803 ) ) ;
#659 = AXIS2_PLACEMENT_3D ( 'NONE', #265, #489, #275 ) ;
#660 = ORIENTED_EDGE ( 'NONE', *, *, #391, .F. ) ;
#661 = CARTESIAN_POINT ( 'NONE',  ( -19.09915254237288451, 45.00000000000000000, -14.49999999999999822 ) ) ;
#662 = DIRECTION ( 'NONE',  ( -0.000000000000000000, -1.000000000000000000, -0.000000000000000000 ) ) ;
#663 = ORIENTED_EDGE ( 'NONE', *, *, #751, .F. ) ;
#664 = EDGE_CURVE ( 'NONE', #872, #848, #891, .T. ) ;
#665 = DIRECTION ( 'NONE',  ( 0.000000000000000000, -1.000000000000000000, 0.000000000000000000 ) ) ;
#666 = CARTESIAN_POINT ( 'NONE',  ( -15.49999999999999467, 45.00000000000000000, -19.09915254237288096 ) ) ;
#667 = FACE_OUTER_BOUND ( 'NONE', #169, .T. ) ;
#668 = ORIENTED_EDGE ( 'NONE', *, *, #135, .F. ) ;
#669 = DIRECTION ( 'NONE',  ( 0.000000000000000000, 0.000000000000000000, -1.000000000000000000 ) ) ;
#670 = DIRECTION ( 'NONE',  ( 1.000000000000000000, 0.000000000000000000, -3.197646960325918927E-16 ) ) ;
#671 = LINE ( 'NONE', #156, #615 ) ;
#672 = AXIS2_PLACEMENT_3D ( 'NONE', #842, #847, #430 ) ;
#673 = VERTEX_POINT ( 'NONE', #468 ) ;
#674 = CIRCLE ( 'NONE', #106, 1.000000000000000888 ) ;
#675 = DIRECTION ( 'NONE',  ( 1.000000000000000000, -0.000000000000000000, -2.602085213965210642E-16 ) ) ;
#676 = CARTESIAN_POINT ( 'NONE',  ( 14.49999999999999467, 45.00000000000000000, -19.09915254237288096 ) ) ;
#677 = FACE_OUTER_BOUND ( 'NONE', #477, .T. ) ;
#678 = ADVANCED_FACE ( 'NONE', ( #402 ), #123, .F. ) ;
#679 = ORIENTED_EDGE ( 'NONE', *, *, #282, .T. ) ;
#680 = EDGE_CURVE ( 'NONE', #796, #154, #54, .T. ) ;
#681 = EDGE_LOOP ( 'NONE', ( #696, #693, #441, #407 ) ) ;
#682 = DIRECTION ( 'NONE',  ( 0.000000000000000000, 0.000000000000000000, 1.000000000000000000 ) ) ;
#683 = CARTESIAN_POINT ( 'NONE',  ( 0.000000000000000000, 0.000000000000000000, 0.000000000000000000 ) ) ;
#684 = CARTESIAN_POINT ( 'NONE',  ( 15.49999999999999467, 45.00000000000000000, -18.09915254237288096 ) ) ;
#685 = EDGE_CURVE ( 'NONE', #331, #782, #285, .T. ) ;
#686 = VERTEX_POINT ( 'NONE', #368 ) ;
#687 = LINE ( 'NONE', #762, #612 ) ;
#688 = DIRECTION ( 'NONE',  ( 0.000000000000000000, 0.000000000000000000, -1.000000000000000000 ) ) ;
#689 = VERTEX_POINT ( 'NONE', #559 ) ;
#690 = VECTOR ( 'NONE', #86, 1000.000000000000000 ) ;
#691 = AXIS2_PLACEMENT_3D ( 'NONE', #742, #665, #115 ) ;
#692 = DIRECTION ( 'NONE',  ( -0.000000000000000000, -1.000000000000000000, -0.000000000000000000 ) ) ;
#693 = ORIENTED_EDGE ( 'NONE', *, *, #135, .T. ) ;
#694 = EDGE_CURVE ( 'NONE', #331, #460, #143, .T. ) ;
#695 = CARTESIAN_POINT ( 'NONE',  ( 15.49999999999999467, 45.00000000000000000, -18.09915254237288096 ) ) ;
#696 = ORIENTED_EDGE ( 'NONE', *, *, #40, .F. ) ;
#697 = ORIENTED_EDGE ( 'NONE', *, *, #817, .F. ) ;
#698 = CARTESIAN_POINT ( 'NONE',  ( -18.09915254237288451, 45.00000000000000000, -4.649999999999995914 ) ) ;
#699 = LINE ( 'NONE', #725, #31 ) ;
#700 = AXIS2_PLACEMENT_3D ( 'NONE', #324, #244, #111 ) ;
#701 = ORIENTED_EDGE ( 'NONE', *, *, #361, .F. ) ;
#702 = VECTOR ( 'NONE', #435, 1000.000000000000000 ) ;
#703 = AXIS2_PLACEMENT_3D ( 'NONE', #820, #452, #313 ) ;
#704 = CARTESIAN_POINT ( 'NONE',  ( -14.49999999999999467, 45.00000000000000000, -18.09915254237288096 ) ) ;
#705 = FILL_AREA_STYLE ('',( #850 ) ) ;
#706 = EDGE_CURVE ( 'NONE', #835, #22, #421, .T. ) ;
#707 = VERTEX_POINT ( 'NONE', #24 ) ;
#708 = PRODUCT_DEFINITION_CONTEXT ( 'detailed design', #339, 'design' ) ;
#709 = VERTEX_POINT ( 'NONE', #8 ) ;
#710 = CARTESIAN_POINT ( 'NONE',  ( -18.09915254237288451, 0.000000000000000000, 4.649999999999995914 ) ) ;
#711 = CARTESIAN_POINT ( 'NONE',  ( 4.650000000000019007, 45.00000000000000000, -19.09915254237288451 ) ) ;
#712 = EDGE_CURVE ( 'NONE', #632, #495, #352, .T. ) ;
#713 = ORIENTED_EDGE ( 'NONE', *, *, #282, .F. ) ;
#714 = ORIENTED_EDGE ( 'NONE', *, *, #361, .T. ) ;
#715 = FACE_OUTER_BOUND ( 'NONE', #43, .T. ) ;
#716 = DIRECTION ( 'NONE',  ( -0.000000000000000000, -0.000000000000000000, 1.000000000000000000 ) ) ;
#717 = DIRECTION ( 'NONE',  ( 0.000000000000000000, 0.000000000000000000, 1.000000000000000000 ) ) ;
#718 = ORIENTED_EDGE ( 'NONE', *, *, #719, .F. ) ;
#719 = EDGE_CURVE ( 'NONE', #460, #673, #884, .T. ) ;
#720 = DIRECTION ( 'NONE',  ( 0.000000000000000000, 0.000000000000000000, -1.000000000000000000 ) ) ;
#721 = MANIFOLD_SOLID_BREP ( 'Fillet2', #838 ) ;
#722 = VECTOR ( 'NONE', #291, 1000.000000000000000 ) ;
#723 = ADVANCED_FACE ( 'NONE', ( #569 ), #425, .F. ) ;
#724 = AXIS2_PLACEMENT_3D ( 'NONE', #492, #151, #428 ) ;
#725 = CARTESIAN_POINT ( 'NONE',  ( -9.099152542372884511, 0.000000000000000000, 4.649999999999998579 ) ) ;
#726 = ORIENTED_EDGE ( 'NONE', *, *, #541, .T. ) ;
#727 = CARTESIAN_POINT ( 'NONE',  ( 0.000000000000000000, 45.00000000000000000, 0.000000000000000000 ) ) ;
#728 = CARTESIAN_POINT ( 'NONE',  ( 15.49999999999999645, 0.000000000000000000, 15.49999999999998579 ) ) ;
#729 = VERTEX_POINT ( 'NONE', #573 ) ;
#730 = LINE ( 'NONE', #99, #586 ) ;
#731 = CARTESIAN_POINT ( 'NONE',  ( 4.649999999999987033, 0.000000000000000000, -9.099152542372886288 ) ) ;
#732 = EDGE_LOOP ( 'NONE', ( #196, #551, #142, #597 ) ) ;
#733 = CARTESIAN_POINT ( 'NONE',  ( -19.09915254237288451, 45.00000000000000000, -5.649999999999995914 ) ) ;
#734 = CARTESIAN_POINT ( 'NONE',  ( 15.49999999999999467, 45.00000000000000000, -4.500000000000003553 ) ) ;
#735 = AXIS2_PLACEMENT_3D ( 'NONE', #789, #634, #433 ) ;
#736 = MECHANICAL_DESIGN_GEOMETRIC_PRESENTATION_REPRESENTATION (  '', ( #567 ), #465 ) ;
#737 = ORIENTED_EDGE ( 'NONE', *, *, #503, .T. ) ;
#738 = DIRECTION ( 'NONE',  ( -2.602085213965211135E-16, 0.000000000000000000, 1.000000000000000000 ) ) ;
#739 = CYLINDRICAL_SURFACE ( 'NONE', #700, 19.99999999999999645 ) ;
#740 = DIRECTION ( 'NONE',  ( 0.000000000000000000, 0.000000000000000000, -1.000000000000000000 ) ) ;
#741 = ORIENTED_EDGE ( 'NONE', *, *, #614, .F. ) ;
#742 = CARTESIAN_POINT ( 'NONE',  ( -5.650000000000019895, 45.00000000000000000, -18.09915254237288451 ) ) ;
#743 = CARTESIAN_POINT ( 'NONE',  ( -9.099152542372884511, 0.000000000000000000, -4.649999999999998579 ) ) ;
#744 = CARTESIAN_POINT ( 'NONE',  ( -19.09915254237288451, 45.00000000000000000, -15.50000000000000000 ) ) ;
#745 = EDGE_LOOP ( 'NONE', ( #609, #268, #358, #423, #299, #163, #346, #293, #867, #726, #263, #338, #753, #772, #679, #413, #414, #793, #780, #303, #373, #249, #185 ) ) ;
#746 = ORIENTED_EDGE ( 'NONE', *, *, #114, .F. ) ;
#747 = CARTESIAN_POINT ( 'NONE',  ( -4.650000000000011013, 45.00000000000000000, -9.099152542372880959 ) ) ;
#748 = EDGE_CURVE ( 'NONE', #890, #177, #91, .T. ) ;
#749 = LINE ( 'NONE', #306, #419 ) ;
#750 = DIRECTION ( 'NONE',  ( -0.000000000000000000, -1.000000000000000000, -0.000000000000000000 ) ) ;
#751 = EDGE_CURVE ( 'NONE', #641, #331, #59, .T. ) ;
#752 = VECTOR ( 'NONE', #179, 1000.000000000000000 ) ;
#753 = ORIENTED_EDGE ( 'NONE', *, *, #792, .T. ) ;
#754 = VECTOR ( 'NONE', #215, 1000.000000000000000 ) ;
#755 = CARTESIAN_POINT ( 'NONE',  ( -19.09915254237288451, 0.000000000000000000, -14.49999999999999822 ) ) ;
#756 = DIRECTION ( 'NONE',  ( 1.000000000000000000, -0.000000000000000000, -4.011019573620658388E-16 ) ) ;
#757 = DIRECTION ( 'NONE',  ( -0.000000000000000000, -1.000000000000000000, -0.000000000000000000 ) ) ;
#758 = ORIENTED_EDGE ( 'NONE', *, *, #128, .F. ) ;
#759 = VERTEX_POINT ( 'NONE', #85 ) ;
#760 = CARTESIAN_POINT ( 'NONE',  ( -18.09915254237287385, 45.00000000000000000, 14.50000000000000000 ) ) ;
#761 = ORIENTED_EDGE ( 'NONE', *, *, #650, .T. ) ;
#762 = CARTESIAN_POINT ( 'NONE',  ( -19.09915254237288451, 45.00000000000000000, 14.50000000000000000 ) ) ;
#763 = CARTESIAN_POINT ( 'NONE',  ( -18.09915254237287385, 45.00000000000000000, 15.50000000000000000 ) ) ;
#764 = EDGE_CURVE ( 'NONE', #648, #641, #226, .T. ) ;
#765 = AXIS2_PLACEMENT_3D ( 'NONE', #518, #662, #444 ) ;
#766 = ORIENTED_EDGE ( 'NONE', *, *, #503, .F. ) ;
#767 = AXIS2_PLACEMENT_3D ( 'NONE', #175, #509, #454 ) ;
#768 = AXIS2_PLACEMENT_3D ( 'NONE', #35, #44, #456 ) ;
#769 = CARTESIAN_POINT ( 'NONE',  ( 14.49999999999999467, 45.00000000000000000, -18.09915254237288096 ) ) ;
#770 = ORIENTED_EDGE ( 'NONE', *, *, #259, .F. ) ;
#771 = ADVANCED_FACE ( 'NONE', ( #372 ), #578, .F. ) ;
#772 = ORIENTED_EDGE ( 'NONE', *, *, #187, .T. ) ;
#773 = DIRECTION ( 'NONE',  ( -5.013774467025824834E-17, -0.000000000000000000, -1.000000000000000000 ) ) ;
#774 = EDGE_CURVE ( 'NONE', #885, #93, #440, .T. ) ;
#775 = CARTESIAN_POINT ( 'NONE',  ( 0.000000000000000000, 45.00000000000000000, 0.000000000000000000 ) ) ;
#776 = ORIENTED_EDGE ( 'NONE', *, *, #312, .F. ) ;
#777 = CARTESIAN_POINT ( 'NONE',  ( -5.650000000000019895, 45.00000000000000000, -18.09915254237288451 ) ) ;
#778 = ADVANCED_FACE ( 'NONE', ( #655, #29 ), #591, .T. ) ;
#779 = CARTESIAN_POINT ( 'NONE',  ( -9.099152542372884511, 45.00000000000000000, -4.649999999999998579 ) ) ;
#780 = ORIENTED_EDGE ( 'NONE', *, *, #878, .T. ) ;
#781 = VECTOR ( 'NONE', #96, 1000.000000000000000 ) ;
#782 = VERTEX_POINT ( 'NONE', #532 ) ;
#783 = VECTOR ( 'NONE', #794, 1000.000000000000000 ) ;
#784 = CARTESIAN_POINT ( 'NONE',  ( -15.49999999999999467, 45.00000000000000000, -18.09915254237288096 ) ) ;
#785 = VECTOR ( 'NONE', #36, 1000.000000000000000 ) ;
#786 = ADVANCED_FACE ( 'NONE', ( #803 ), #253, .T. ) ;
#787 = EDGE_LOOP ( 'NONE', ( #224, #394 ) ) ;
#788 = ORIENTED_EDGE ( 'NONE', *, *, #328, .T. ) ;
#789 = CARTESIAN_POINT ( 'NONE',  ( 15.49999999999999467, 45.00000000000000000, -19.09915254237288096 ) ) ;
#790 = DIRECTION ( 'NONE',  ( -2.602085213965211135E-16, 0.000000000000000000, -1.000000000000000000 ) ) ;
#791 = ORIENTED_EDGE ( 'NONE', *, *, #37, .F. ) ;
#792 = EDGE_CURVE ( 'NONE', #473, #707, #165, .T. ) ;
#793 = ORIENTED_EDGE ( 'NONE', *, *, #685, .T. ) ;
#794 = DIRECTION ( 'NONE',  ( -0.000000000000000000, -0.000000000000000000, 1.000000000000000000 ) ) ;
#795 = CARTESIAN_POINT ( 'NONE',  ( 0.000000000000000000, 45.00000000000000000, -2.799999999999999822 ) ) ;
#796 = VERTEX_POINT ( 'NONE', #520 ) ;
#797 = DIRECTION ( 'NONE',  ( 0.000000000000000000, 0.000000000000000000, -1.000000000000000000 ) ) ;
#798 = VECTOR ( 'NONE', #486, 1000.000000000000000 ) ;
#799 = VECTOR ( 'NONE', #110, 1000.000000000000000 ) ;
#800 = DIRECTION ( 'NONE',  ( 0.000000000000000000, 0.000000000000000000, -1.000000000000000000 ) ) ;
#801 = ORIENTED_EDGE ( 'NONE', *, *, #187, .F. ) ;
#802 = CARTESIAN_POINT ( 'NONE',  ( -18.09915254237288451, 45.00000000000000000, -5.649999999999995914 ) ) ;
#803 = FACE_OUTER_BOUND ( 'NONE', #332, .T. ) ;
#804 = EDGE_LOOP ( 'NONE', ( #466, #766, #571, #668 ) ) ;
#805 = DIRECTION ( 'NONE',  ( 0.000000000000000000, -1.000000000000000000, 0.000000000000000000 ) ) ;
#806 = DIRECTION ( 'NONE',  ( -1.000000000000000000, -0.000000000000000000, -2.602085213965210642E-16 ) ) ;
#807 = VERTEX_POINT ( 'NONE', #743 ) ;
#808 = CARTESIAN_POINT ( 'NONE',  ( 4.650000000000019007, 0.000000000000000000, -19.09915254237288451 ) ) ;
#809 = CARTESIAN_POINT ( 'NONE',  ( 3.429011037612588290E-16, 0.000000000000000000, 2.799999999999999822 ) ) ;
#810 = AXIS2_PLACEMENT_3D ( 'NONE', #403, #405, #58 ) ;
#811 = AXIS2_PLACEMENT_3D ( 'NONE', #643, #229, #84 ) ;
#812 = ORIENTED_EDGE ( 'NONE', *, *, #886, .T. ) ;
#813 = ADVANCED_FACE ( 'NONE', ( #120, #392 ), #871, .F. ) ;
#814 = PLANE ( 'NONE',  #72 ) ;
#815 = CARTESIAN_POINT ( 'NONE',  ( -9.099152542372884511, 45.00000000000000000, 4.649999999999998579 ) ) ;
#816 = DIRECTION ( 'NONE',  ( -0.000000000000000000, -1.000000000000000000, 0.000000000000000000 ) ) ;
#817 = EDGE_CURVE ( 'NONE', #885, #83, #250, .T. ) ;
#818 = EDGE_CURVE ( 'NONE', #395, #622, #399, .T. ) ;
#819 = VERTEX_POINT ( 'NONE', #734 ) ;
#820 = CARTESIAN_POINT ( 'NONE',  ( 5.650000000000015454, 0.000000000000000000, -18.09915254237288451 ) ) ;
#821 = LINE ( 'NONE', #815, #381 ) ;
#822 = LINE ( 'NONE', #183, #292 ) ;
#823 = EDGE_LOOP ( 'NONE', ( #530, #52, #68, #480 ) ) ;
#824 = CARTESIAN_POINT ( 'NONE',  ( -19.09915254237288451, 45.00000000000000000, -15.50000000000000000 ) ) ;
#825 = DIRECTION ( 'NONE',  ( 0.000000000000000000, -1.000000000000000000, 0.000000000000000000 ) ) ;
#826 = VECTOR ( 'NONE', #462, 1000.000000000000000 ) ;
#827 = ORIENTED_EDGE ( 'NONE', *, *, #792, .F. ) ;
#828 = CARTESIAN_POINT ( 'NONE',  ( -19.09915254237288451, 0.000000000000000000, 4.649999999999995914 ) ) ;
#829 = EDGE_CURVE ( 'NONE', #839, #283, #33, .T. ) ;
#830 = EDGE_CURVE ( 'NONE', #839, #129, #248, .T. ) ;
#831 = ORIENTED_EDGE ( 'NONE', *, *, #614, .T. ) ;
#832 =( NAMED_UNIT ( * ) PLANE_ANGLE_UNIT ( ) SI_UNIT ( $, .RADIAN. ) );
#833 = DIRECTION ( 'NONE',  ( 0.000000000000000000, 0.000000000000000000, -1.000000000000000000 ) ) ;
#834 = EDGE_CURVE ( 'NONE', #580, #228, #594, .T. ) ;
#835 = VERTEX_POINT ( 'NONE', #241 ) ;
#836 = CARTESIAN_POINT ( 'NONE',  ( -4.650000000000019007, 45.00000000000000000, -19.09915254237288451 ) ) ;
#837 = CARTESIAN_POINT ( 'NONE',  ( -14.49999999999999467, 45.00000000000000000, -19.09915254237288096 ) ) ;
#838 = CLOSED_SHELL ( 'NONE', ( #384, #813, #778, #449, #445, #771, #525, #247, #210, #843, #101, #678, #476, #723, #487, #545, #575, #627, #288, #298, #607, #443, #176, #786, #637, #374, #873 ) ) ;
#839 = VERTEX_POINT ( 'NONE', #523 ) ;
#840 = VECTOR ( 'NONE', #439, 1000.000000000000000 ) ;
#841 = CARTESIAN_POINT ( 'NONE',  ( -18.09915254237288451, 45.00000000000000000, -14.49999999999999822 ) ) ;
#842 = CARTESIAN_POINT ( 'NONE',  ( 5.650000000000015454, 45.00000000000000000, -18.09915254237288451 ) ) ;
#843 = ADVANCED_FACE ( 'NONE', ( #314 ), #588, .F. ) ;
#844 = ORIENTED_EDGE ( 'NONE', *, *, #602, .T. ) ;
#845 = DIRECTION ( 'NONE',  ( 0.000000000000000000, 0.000000000000000000, -1.000000000000000000 ) ) ;
#846 = SURFACE_SIDE_STYLE ('',( #12 ) ) ;
#847 = DIRECTION ( 'NONE',  ( 0.000000000000000000, 1.000000000000000000, 0.000000000000000000 ) ) ;
#848 = VERTEX_POINT ( 'NONE', #809 ) ;
#849 = DIRECTION ( 'NONE',  ( 0.000000000000000000, -1.000000000000000000, 0.000000000000000000 ) ) ;
#850 = FILL_AREA_STYLE_COLOUR ( '', #485 ) ;
#851 = CARTESIAN_POINT ( 'NONE',  ( -4.499999999999993783, 0.000000000000000000, 15.49999999999999467 ) ) ;
#852 = PRODUCT ( 'CornerSupport', 'CornerSupport', '', ( #617 ) ) ;
#853 = ORIENTED_EDGE ( 'NONE', *, *, #457, .F. ) ;
#854 = CIRCLE ( 'NONE', #237, 1.000000000000000888 ) ;
#855 = CIRCLE ( 'NONE', #870, 1.000000000000000888 ) ;
#856 = DIRECTION ( 'NONE',  ( 0.000000000000000000, 0.000000000000000000, -1.000000000000000000 ) ) ;
#857 = PLANE ( 'NONE',  #132 ) ;
#858 = ORIENTED_EDGE ( 'NONE', *, *, #137, .F. ) ;
#859 = DIRECTION ( 'NONE',  ( -1.000000000000000000, -0.000000000000000000, -0.000000000000000000 ) ) ;
#860 = DIRECTION ( 'NONE',  ( 0.000000000000000000, 1.000000000000000000, 0.000000000000000000 ) ) ;
#861 = EDGE_CURVE ( 'NONE', #782, #807, #881, .T. ) ;
#862 = CYLINDRICAL_SURFACE ( 'NONE', #767, 1.000000000000000888 ) ;
#863 = ORIENTED_EDGE ( 'NONE', *, *, #650, .F. ) ;
#864 = FACE_OUTER_BOUND ( 'NONE', #505, .T. ) ;
#865 = CARTESIAN_POINT ( 'NONE',  ( 4.650000000000019007, 45.00000000000000000, -19.09915254237288451 ) ) ;
#866 = DIRECTION ( 'NONE',  ( 0.000000000000000000, 0.000000000000000000, 1.000000000000000000 ) ) ;
#867 = ORIENTED_EDGE ( 'NONE', *, *, #312, .T. ) ;
#868 = FACE_OUTER_BOUND ( 'NONE', #242, .T. ) ;
#869 = CIRCLE ( 'NONE', #378, 2.799999999999999822 ) ;
#870 = AXIS2_PLACEMENT_3D ( 'NONE', #300, #23, #577 ) ;
#871 = PLANE ( 'NONE',  #15 ) ;
#872 = VERTEX_POINT ( 'NONE', #453 ) ;
#873 = ADVANCED_FACE ( 'NONE', ( #45 ), #739, .T. ) ;
#874 = CARTESIAN_POINT ( 'NONE',  ( 0.000000000000000000, 45.00000000000000000, 0.000000000000000000 ) ) ;
#875 = DIRECTION ( 'NONE',  ( 3.197646960325918927E-16, -0.000000000000000000, 1.000000000000000000 ) ) ;
#876 = ORIENTED_EDGE ( 'NONE', *, *, #900, .F. ) ;
#877 = LINE ( 'NONE', #808, #799 ) ;
#878 = EDGE_CURVE ( 'NONE', #782, #839, #821, .T. ) ;
#879 = DIRECTION ( 'NONE',  ( 0.000000000000000000, 0.000000000000000000, -1.000000000000000000 ) ) ;
#880 = ORIENTED_EDGE ( 'NONE', *, *, #834, .F. ) ;
#881 = LINE ( 'NONE', #174, #481 ) ;
#882 = CARTESIAN_POINT ( 'NONE',  ( -18.09915254237288451, 45.00000000000000000, 4.649999999999995914 ) ) ;
#883 = VECTOR ( 'NONE', #548, 1000.000000000000000 ) ;
#884 = CIRCLE ( 'NONE', #515, 1.000000000000000000 ) ;
#885 = VERTEX_POINT ( 'NONE', #387 ) ;
#886 = EDGE_CURVE ( 'NONE', #62, #632, #318, .T. ) ;
#887 = CARTESIAN_POINT ( 'NONE',  ( -18.09915254237288451, 45.00000000000000000, -15.50000000000000000 ) ) ;
#888 = DIRECTION ( 'NONE',  ( -0.000000000000000000, -0.000000000000000000, 1.000000000000000000 ) ) ;
#889 = PLANE ( 'NONE',  #158 ) ;
#890 = VERTEX_POINT ( 'NONE', #676 ) ;
#891 = LINE ( 'NONE', #261, #133 ) ;
#892 = DIRECTION ( 'NONE',  ( 1.000000000000000000, 0.000000000000000000, -5.595882180570347152E-16 ) ) ;
#893 = ORIENTED_EDGE ( 'NONE', *, *, #26, .T. ) ;
#894 = FACE_OUTER_BOUND ( 'NONE', #804, .T. ) ;
#895 = EDGE_CURVE ( 'NONE', #10, #759, #749, .T. ) ;
#896 = AXIS2_PLACEMENT_3D ( 'NONE', #658, #168, #584 ) ;
#897 = AXIS2_PLACEMENT_3D ( 'NONE', #231, #574, #800 ) ;
#898 = AXIS2_PLACEMENT_3D ( 'NONE', #565, #234, #856 ) ;
#899 = ORIENTED_EDGE ( 'NONE', *, *, #406, .F. ) ;
#900 = EDGE_CURVE ( 'NONE', #83, #207, #687, .T. ) ;
#901 = CARTESIAN_POINT ( 'NONE',  ( 4.650000000000015454, 0.000000000000000000, -18.09915254237288806 ) ) ;
#902 = ORIENTED_EDGE ( 'NONE', *, *, #566, .F. ) ;
#903 = LINE ( 'NONE', #906, #883 ) ;
#904 = LINE ( 'NONE', #837, #798 ) ;
#905 = EDGE_LOOP ( 'NONE', ( #88, #260, #166, #758 ) ) ;
#906 = CARTESIAN_POINT ( 'NONE',  ( -4.499999999999993783, 45.00000000000000000, 15.49999999999999467 ) ) ;
ENDSEC;
END-ISO-10303-21;
