ISO-10303-21;
HEADER;
FILE_DESCRIPTION (( 'STEP AP214' ),
    '1' );
FILE_NAME ('CornerSupport-NominalFit.STEP',
    '2026-08-23T22:29:26',
    ( '' ),
    ( '' ),
    'SwSTEP 2.0',
    'SolidWorks 2026',
    '' );
FILE_SCHEMA (( 'AUTOMOTIVE_DESIGN' ));
ENDSEC;

DATA;
#1 = FACE_OUTER_BOUND ( 'NONE', #267, .T. ) ;
#2 = FACE_OUTER_BOUND ( 'NONE', #32, .T. ) ;
#3 = PLANE ( 'NONE',  #522 ) ;
#4 = CYLINDRICAL_SURFACE ( 'NONE', #596, 19.99999999999999645 ) ;
#5 = ORIENTED_EDGE ( 'NONE', *, *, #866, .F. ) ;
#6 = AXIS2_PLACEMENT_3D ( 'NONE', #223, #137, #343 ) ;
#7 = CARTESIAN_POINT ( 'NONE',  ( -19.09915254237288451, 45.00000000000000000, -5.300000000000001599 ) ) ;
#8 = ADVANCED_FACE ( 'NONE', ( #282 ), #839, .F. ) ;
#9 = CARTESIAN_POINT ( 'NONE',  ( 15.49999999999999645, 45.00000000000000000, 15.49999999999998579 ) ) ;
#10 =( NAMED_UNIT ( * ) SI_UNIT ( $, .STERADIAN. ) SOLID_ANGLE_UNIT ( ) );
#11 = ORIENTED_EDGE ( 'NONE', *, *, #906, .T. ) ;
#12 = PLANE ( 'NONE',  #627 ) ;
#13 = CARTESIAN_POINT ( 'NONE',  ( 3.429011037612588290E-16, 0.000000000000000000, 2.799999999999999822 ) ) ;
#14 = CARTESIAN_POINT ( 'NONE',  ( -18.09915254237288451, 45.00000000000000000, 4.300000000000001599 ) ) ;
#15 = CARTESIAN_POINT ( 'NONE',  ( -19.09915254237288451, 45.00000000000000000, -4.300000000000001599 ) ) ;
#16 = AXIS2_PLACEMENT_3D ( 'NONE', #458, #819, #686 ) ;
#17 = LINE ( 'NONE', #293, #125 ) ;
#18 = CARTESIAN_POINT ( 'NONE',  ( 4.299999999999999822, 45.00000000000000000, -9.099152542372880959 ) ) ;
#19 = ORIENTED_EDGE ( 'NONE', *, *, #697, .F. ) ;
#20 = CARTESIAN_POINT ( 'NONE',  ( -4.299999999999999822, 45.00000000000000000, -9.099152542372880959 ) ) ;
#21 = ORIENTED_EDGE ( 'NONE', *, *, #492, .T. ) ;
#22 = CARTESIAN_POINT ( 'NONE',  ( 0.000000000000000000, 45.00000000000000000, 0.000000000000000000 ) ) ;
#23 = DIRECTION ( 'NONE',  ( -1.000000000000000000, -0.000000000000000000, -0.000000000000000000 ) ) ;
#24 = VERTEX_POINT ( 'NONE', #630 ) ;
#25 = VECTOR ( 'NONE', #873, 1000.000000000000000 ) ;
#26 = LINE ( 'NONE', #166, #602 ) ;
#27 = LINE ( 'NONE', #305, #158 ) ;
#28 = DIRECTION ( 'NONE',  ( 0.000000000000000000, 0.000000000000000000, -1.000000000000000000 ) ) ;
#29 = ORIENTED_EDGE ( 'NONE', *, *, #649, .T. ) ;
#30 = FILL_AREA_STYLE_COLOUR ( '', #669 ) ;
#31 = CARTESIAN_POINT ( 'NONE',  ( 4.299999999999998046, 45.00000000000000000, -19.09915254237288096 ) ) ;
#32 = EDGE_LOOP ( 'NONE', ( #634, #444, #48, #796 ) ) ;
#33 = CARTESIAN_POINT ( 'NONE',  ( -14.49999999999999467, 0.000000000000000000, -18.09915254237288096 ) ) ;
#34 = ORIENTED_EDGE ( 'NONE', *, *, #889, .T. ) ;
#35 = SURFACE_STYLE_FILL_AREA ( #590 ) ;
#36 = CARTESIAN_POINT ( 'NONE',  ( 4.299999999999999822, 45.00000000000000000, -9.099152542372880959 ) ) ;
#37 = VECTOR ( 'NONE', #504, 1000.000000000000000 ) ;
#38 = ADVANCED_FACE ( 'NONE', ( #696 ), #497, .F. ) ;
#39 = EDGE_LOOP ( 'NONE', ( #823, #904, #289, #193, #399, #752, #588, #804, #205, #703, #461, #334, #19, #454, #207, #759, #274, #739, #190, #680, #489, #466, #829 ) ) ;
#40 = DIRECTION ( 'NONE',  ( 0.000000000000000000, 1.000000000000000000, 0.000000000000000000 ) ) ;
#41 = FACE_OUTER_BOUND ( 'NONE', #577, .T. ) ;
#42 = CIRCLE ( 'NONE', #189, 2.799999999999999822 ) ;
#43 = ORIENTED_EDGE ( 'NONE', *, *, #310, .T. ) ;
#44 = VECTOR ( 'NONE', #682, 1000.000000000000000 ) ;
#45 = VECTOR ( 'NONE', #864, 1000.000000000000000 ) ;
#46 = CARTESIAN_POINT ( 'NONE',  ( 4.299999999999998046, 45.00000000000000000, -19.09915254237288096 ) ) ;
#47 = CARTESIAN_POINT ( 'NONE',  ( -19.09915254237288451, 0.000000000000000000, -5.300000000000001599 ) ) ;
#48 = ORIENTED_EDGE ( 'NONE', *, *, #784, .F. ) ;
#49 = LINE ( 'NONE', #737, #578 ) ;
#50 = LINE ( 'NONE', #830, #245 ) ;
#51 = VECTOR ( 'NONE', #425, 1000.000000000000000 ) ;
#52 = ORIENTED_EDGE ( 'NONE', *, *, #571, .T. ) ;
#53 = ORIENTED_EDGE ( 'NONE', *, *, #740, .F. ) ;
#54 = LINE ( 'NONE', #598, #673 ) ;
#55 = CARTESIAN_POINT ( 'NONE',  ( -15.49999999999999467, 0.000000000000000000, -18.09915254237288096 ) ) ;
#56 = VERTEX_POINT ( 'NONE', #292 ) ;
#57 = DIRECTION ( 'NONE',  ( 0.000000000000000000, -1.000000000000000000, 0.000000000000000000 ) ) ;
#58 = DIRECTION ( 'NONE',  ( 0.000000000000000000, 0.000000000000000000, -1.000000000000000000 ) ) ;
#59 = ORIENTED_EDGE ( 'NONE', *, *, #423, .T. ) ;
#60 = EDGE_CURVE ( 'NONE', #644, #180, #566, .T. ) ;
#61 = APPLICATION_CONTEXT ( 'automotive_design' ) ;
#62 = CARTESIAN_POINT ( 'NONE',  ( -19.09915254237288451, 45.00000000000000000, 14.50000000000000000 ) ) ;
#63 = EDGE_CURVE ( 'NONE', #174, #604, #794, .T. ) ;
#64 = ORIENTED_EDGE ( 'NONE', *, *, #877, .F. ) ;
#65 = DIRECTION ( 'NONE',  ( -1.000000000000000000, -0.000000000000000000, -0.000000000000000000 ) ) ;
#66 = PLANE ( 'NONE',  #198 ) ;
#67 = AXIS2_PLACEMENT_3D ( 'NONE', #284, #288, #568 ) ;
#68 = CARTESIAN_POINT ( 'NONE',  ( 0.000000000000000000, 45.00000000000000000, 0.000000000000000000 ) ) ;
#69 = DIRECTION ( 'NONE',  ( 1.000000000000000000, -0.000000000000000000, 1.734723475976807094E-16 ) ) ;
#70 = DIRECTION ( 'NONE',  ( 0.000000000000000000, 1.000000000000000000, 0.000000000000000000 ) ) ;
#71 = CARTESIAN_POINT ( 'NONE',  ( 0.000000000000000000, 0.000000000000000000, 0.000000000000000000 ) ) ;
#72 = ORIENTED_EDGE ( 'NONE', *, *, #91, .T. ) ;
#73 = ADVANCED_FACE ( 'NONE', ( #561 ), #4, .T. ) ;
#74 = CARTESIAN_POINT ( 'NONE',  ( -9.099152542372884511, 0.000000000000000000, 4.299999999999999822 ) ) ;
#75 = VECTOR ( 'NONE', #882, 1000.000000000000000 ) ;
#76 = DIRECTION ( 'NONE',  ( 0.000000000000000000, 0.000000000000000000, 1.000000000000000000 ) ) ;
#77 = DIRECTION ( 'NONE',  ( 0.000000000000000000, 0.000000000000000000, -1.000000000000000000 ) ) ;
#78 = EDGE_LOOP ( 'NONE', ( #34, #329, #177, #231 ) ) ;
#79 = CLOSED_SHELL ( 'NONE', ( #439, #836, #255, #537, #202, #780, #263, #499, #232, #848, #316, #94, #8, #251, #187, #609, #38, #105, #131, #155, #646, #717, #294, #119, #754, #277, #73 ) ) ;
#80 = AXIS2_PLACEMENT_3D ( 'NONE', #531, #460, #551 ) ;
#81 = DIRECTION ( 'NONE',  ( -0.000000000000000000, -1.000000000000000000, 0.000000000000000000 ) ) ;
#82 = EDGE_LOOP ( 'NONE', ( #817, #853, #121, #639 ) ) ;
#83 = LINE ( 'NONE', #643, #465 ) ;
#84 = VERTEX_POINT ( 'NONE', #228 ) ;
#85 = DIRECTION ( 'NONE',  ( -5.013774467025824834E-17, -0.000000000000000000, -1.000000000000000000 ) ) ;
#86 = DIRECTION ( 'NONE',  ( -0.000000000000000000, -1.000000000000000000, 0.000000000000000000 ) ) ;
#87 = DIRECTION ( 'NONE',  ( 1.000000000000000000, -0.000000000000000000, -4.011019573620658388E-16 ) ) ;
#88 = AXIS2_PLACEMENT_3D ( 'NONE', #470, #260, #534 ) ;
#89 = CARTESIAN_POINT ( 'NONE',  ( -18.09915254237287385, 45.00000000000000000, 14.50000000000000000 ) ) ;
#90 = EDGE_LOOP ( 'NONE', ( #548, #53, #549, #491 ) ) ;
#91 = EDGE_CURVE ( 'NONE', #651, #734, #488, .T. ) ;
#92 = LINE ( 'NONE', #585, #45 ) ;
#93 = CIRCLE ( 'NONE', #209, 2.799999999999999822 ) ;
#94 = ADVANCED_FACE ( 'NONE', ( #431 ), #66, .F. ) ;
#95 = DIRECTION ( 'NONE',  ( 0.000000000000000000, -1.000000000000000000, 0.000000000000000000 ) ) ;
#96 = ORIENTED_EDGE ( 'NONE', *, *, #701, .T. ) ;
#97 = CIRCLE ( 'NONE', #693, 0.9999999999999991118 ) ;
#98 = CARTESIAN_POINT ( 'NONE',  ( -15.49999999999999467, 45.00000000000000000, -18.09915254237288096 ) ) ;
#99 = CARTESIAN_POINT ( 'NONE',  ( -18.09915254237288451, 45.00000000000000000, -4.300000000000001599 ) ) ;
#100 = ORIENTED_EDGE ( 'NONE', *, *, #808, .F. ) ;
#101 = DIRECTION ( 'NONE',  ( -0.000000000000000000, -1.000000000000000000, -0.000000000000000000 ) ) ;
#102 = EDGE_CURVE ( 'NONE', #744, #222, #213, .T. ) ;
#103 = DIRECTION ( 'NONE',  ( 0.000000000000000000, 0.000000000000000000, -1.000000000000000000 ) ) ;
#104 = ORIENTED_EDGE ( 'NONE', *, *, #412, .F. ) ;
#105 = ADVANCED_FACE ( 'NONE', ( #628 ), #773, .F. ) ;
#106 = DIRECTION ( 'NONE',  ( 1.734723475976807587E-16, -0.000000000000000000, 1.000000000000000000 ) ) ;
#107 = ORIENTED_EDGE ( 'NONE', *, *, #321, .T. ) ;
#108 = CARTESIAN_POINT ( 'NONE',  ( -15.49999999999999467, 0.000000000000000000, -15.50000000000000000 ) ) ;
#109 = AXIS2_PLACEMENT_3D ( 'NONE', #509, #420, #154 ) ;
#110 = ORIENTED_EDGE ( 'NONE', *, *, #542, .F. ) ;
#111 = LINE ( 'NONE', #527, #135 ) ;
#112 = CARTESIAN_POINT ( 'NONE',  ( -18.09915254237288451, 45.00000000000000000, -14.49999999999999822 ) ) ;
#113 =( GEOMETRIC_REPRESENTATION_CONTEXT ( 3 ) GLOBAL_UNCERTAINTY_ASSIGNED_CONTEXT ( ( #162 ) ) GLOBAL_UNIT_ASSIGNED_CONTEXT ( ( #655, #633, #10 ) ) REPRESENTATION_CONTEXT ( 'NONE', 'WORKASPACE' ) );
#114 = VERTEX_POINT ( 'NONE', #299 ) ;
#115 = EDGE_CURVE ( 'NONE', #744, #477, #344, .T. ) ;
#116 = CARTESIAN_POINT ( 'NONE',  ( -4.299999999999999822, 45.00000000000000000, -9.099152542372880959 ) ) ;
#117 = CARTESIAN_POINT ( 'NONE',  ( -4.299999999999998046, 45.00000000000000000, -19.09915254237288096 ) ) ;
#118 = ORIENTED_EDGE ( 'NONE', *, *, #902, .T. ) ;
#119 = ADVANCED_FACE ( 'NONE', ( #2 ), #143, .T. ) ;
#120 = CARTESIAN_POINT ( 'NONE',  ( 14.49999999999999467, 45.00000000000000000, -18.09915254237288096 ) ) ;
#121 = ORIENTED_EDGE ( 'NONE', *, *, #332, .T. ) ;
#122 = AXIS2_PLACEMENT_3D ( 'NONE', #347, #843, #833 ) ;
#123 = AXIS2_PLACEMENT_3D ( 'NONE', #777, #421, #77 ) ;
#124 = CARTESIAN_POINT ( 'NONE',  ( 5.299999999999998046, 0.000000000000000000, -18.09915254237287741 ) ) ;
#125 = VECTOR ( 'NONE', #720, 1000.000000000000000 ) ;
#126 = CARTESIAN_POINT ( 'NONE',  ( -4.499999999999993783, 45.00000000000000000, 15.49999999999999467 ) ) ;
#127 = VECTOR ( 'NONE', #374, 1000.000000000000000 ) ;
#128 = ORIENTED_EDGE ( 'NONE', *, *, #115, .T. ) ;
#129 = CARTESIAN_POINT ( 'NONE',  ( -19.09915254237288451, 0.000000000000000000, -14.49999999999999822 ) ) ;
#130 = DIRECTION ( 'NONE',  ( -0.000000000000000000, 1.000000000000000000, -0.000000000000000000 ) ) ;
#131 = ADVANCED_FACE ( 'NONE', ( #905 ), #275, .T. ) ;
#132 = ORIENTED_EDGE ( 'NONE', *, *, #810, .F. ) ;
#133 = EDGE_LOOP ( 'NONE', ( #100, #438, #348, #389 ) ) ;
#134 = DIRECTION ( 'NONE',  ( 1.000000000000000000, 0.000000000000000000, 0.000000000000000000 ) ) ;
#135 = VECTOR ( 'NONE', #539, 1000.000000000000000 ) ;
#136 = EDGE_CURVE ( 'NONE', #222, #114, #874, .T. ) ;
#137 = DIRECTION ( 'NONE',  ( 0.000000000000000000, 1.000000000000000000, 0.000000000000000000 ) ) ;
#138 = VERTEX_POINT ( 'NONE', #567 ) ;
#139 = DIRECTION ( 'NONE',  ( -0.000000000000000000, 1.000000000000000000, -0.000000000000000000 ) ) ;
#140 = CIRCLE ( 'NONE', #652, 1.000000000000000000 ) ;
#141 = ORIENTED_EDGE ( 'NONE', *, *, #659, .F. ) ;
#142 = DIRECTION ( 'NONE',  ( -0.000000000000000000, -1.000000000000000000, -0.000000000000000000 ) ) ;
#143 = CYLINDRICAL_SURFACE ( 'NONE', #785, 1.000000000000000000 ) ;
#144 = ORIENTED_EDGE ( 'NONE', *, *, #382, .T. ) ;
#145 = LINE ( 'NONE', #705, #838 ) ;
#146 = CARTESIAN_POINT ( 'NONE',  ( -4.500000000000001776, 45.00000000000000000, -4.500000000000002665 ) ) ;
#147 = LINE ( 'NONE', #799, #865 ) ;
#148 = ORIENTED_EDGE ( 'NONE', *, *, #60, .T. ) ;
#149 = APPLICATION_PROTOCOL_DEFINITION ( 'draft international standard', 'automotive_design', 1998, #61 ) ;
#150 = CARTESIAN_POINT ( 'NONE',  ( -9.099152542372884511, 45.00000000000000000, -4.299999999999999822 ) ) ;
#151 = CARTESIAN_POINT ( 'NONE',  ( -18.09915254237288451, 0.000000000000000000, -15.50000000000000000 ) ) ;
#152 = ORIENTED_EDGE ( 'NONE', *, *, #185, .F. ) ;
#153 = DIRECTION ( 'NONE',  ( 0.000000000000000000, 0.000000000000000000, -1.000000000000000000 ) ) ;
#154 = DIRECTION ( 'NONE',  ( 0.000000000000000000, 0.000000000000000000, -1.000000000000000000 ) ) ;
#155 = ADVANCED_FACE ( 'NONE', ( #432 ), #845, .T. ) ;
#156 = DIRECTION ( 'NONE',  ( -1.000000000000000000, 0.000000000000000000, -1.734723475976807587E-16 ) ) ;
#157 = VERTEX_POINT ( 'NONE', #789 ) ;
#158 = VECTOR ( 'NONE', #86, 1000.000000000000000 ) ;
#159 = EDGE_CURVE ( 'NONE', #138, #285, #17, .T. ) ;
#160 = CARTESIAN_POINT ( 'NONE',  ( -19.09915254237288451, 45.00000000000000000, -15.50000000000000000 ) ) ;
#161 = EDGE_CURVE ( 'NONE', #457, #625, #42, .T. ) ;
#162 = UNCERTAINTY_MEASURE_WITH_UNIT (LENGTH_MEASURE( 1.000000000000000082E-05 ), #655, 'distance_accuracy_value', 'NONE');
#163 =( GEOMETRIC_REPRESENTATION_CONTEXT ( 3 ) GLOBAL_UNCERTAINTY_ASSIGNED_CONTEXT ( ( #508 ) ) GLOBAL_UNIT_ASSIGNED_CONTEXT ( ( #761, #901, #485 ) ) REPRESENTATION_CONTEXT ( 'NONE', 'WORKASPACE' ) );
#164 = CARTESIAN_POINT ( 'NONE',  ( -19.09915254237288451, 0.000000000000000000, 14.50000000000000000 ) ) ;
#165 = ORIENTED_EDGE ( 'NONE', *, *, #372, .T. ) ;
#166 = CARTESIAN_POINT ( 'NONE',  ( -19.09915254237288451, 45.00000000000000000, 5.300000000000004263 ) ) ;
#167 = CARTESIAN_POINT ( 'NONE',  ( 15.49999999999999467, 45.00000000000000000, -4.500000000000003553 ) ) ;
#168 = AXIS2_PLACEMENT_3D ( 'NONE', #368, #436, #653 ) ;
#169 = FACE_OUTER_BOUND ( 'NONE', #78, .T. ) ;
#170 = ORIENTED_EDGE ( 'NONE', *, *, #713, .F. ) ;
#171 = VECTOR ( 'NONE', #496, 1000.000000000000000 ) ;
#172 = LINE ( 'NONE', #311, #812 ) ;
#173 = DIRECTION ( 'NONE',  ( 0.000000000000000000, 1.000000000000000000, 0.000000000000000000 ) ) ;
#174 = VERTEX_POINT ( 'NONE', #520 ) ;
#175 = EDGE_CURVE ( 'NONE', #174, #835, #27, .T. ) ;
#176 = LINE ( 'NONE', #869, #885 ) ;
#177 = ORIENTED_EDGE ( 'NONE', *, *, #423, .F. ) ;
#178 = PRODUCT_DEFINITION ( 'UNKNOWN', '', #528, #298 ) ;
#179 = CARTESIAN_POINT ( 'NONE',  ( -14.49999999999999467, 45.00000000000000000, -19.09915254237288096 ) ) ;
#180 = VERTEX_POINT ( 'NONE', #586 ) ;
#181 = CIRCLE ( 'NONE', #738, 0.9999999999999991118 ) ;
#182 = DIRECTION ( 'NONE',  ( 0.000000000000000000, 0.000000000000000000, -1.000000000000000000 ) ) ;
#183 = LINE ( 'NONE', #611, #712 ) ;
#184 = EDGE_LOOP ( 'NONE', ( #814, #730, #658, #694 ) ) ;
#185 = EDGE_CURVE ( 'NONE', #114, #24, #358, .T. ) ;
#186 = DIRECTION ( 'NONE',  ( 0.000000000000000000, 0.000000000000000000, -1.000000000000000000 ) ) ;
#187 = ADVANCED_FACE ( 'NONE', ( #442 ), #781, .F. ) ;
#188 = CARTESIAN_POINT ( 'NONE',  ( -18.09915254237288451, 45.00000000000000000, 4.300000000000001599 ) ) ;
#189 = AXIS2_PLACEMENT_3D ( 'NONE', #22, #860, #718 ) ;
#190 = ORIENTED_EDGE ( 'NONE', *, *, #218, .F. ) ;
#191 = CARTESIAN_POINT ( 'NONE',  ( 14.49999999999999467, 45.00000000000000000, -19.09915254237288096 ) ) ;
#192 = DIRECTION ( 'NONE',  ( -1.000000000000000000, -0.000000000000000000, -0.000000000000000000 ) ) ;
#193 = ORIENTED_EDGE ( 'NONE', *, *, #731, .T. ) ;
#194 = VERTEX_POINT ( 'NONE', #14 ) ;
#195 = AXIS2_PLACEMENT_3D ( 'NONE', #679, #261, #813 ) ;
#196 = DIRECTION ( 'NONE',  ( 0.000000000000000000, 0.000000000000000000, 1.000000000000000000 ) ) ;
#197 = EDGE_CURVE ( 'NONE', #604, #651, #699, .T. ) ;
#198 = AXIS2_PLACEMENT_3D ( 'NONE', #352, #76, #719 ) ;
#199 = DIRECTION ( 'NONE',  ( 0.000000000000000000, 1.000000000000000000, 0.000000000000000000 ) ) ;
#200 = VECTOR ( 'NONE', #667, 1000.000000000000000 ) ;
#201 = EDGE_LOOP ( 'NONE', ( #462, #132, #544, #608 ) ) ;
#202 = ADVANCED_FACE ( 'NONE', ( #378 ), #12, .F. ) ;
#203 = CARTESIAN_POINT ( 'NONE',  ( 3.429011037612588290E-16, 45.00000000000000000, 2.799999999999999822 ) ) ;
#204 = ORIENTED_EDGE ( 'NONE', *, *, #136, .F. ) ;
#205 = ORIENTED_EDGE ( 'NONE', *, *, #571, .F. ) ;
#206 = DIRECTION ( 'NONE',  ( 0.000000000000000000, -1.000000000000000000, 0.000000000000000000 ) ) ;
#207 = ORIENTED_EDGE ( 'NONE', *, *, #687, .T. ) ;
#208 = CARTESIAN_POINT ( 'NONE',  ( 0.000000000000000000, 0.000000000000000000, 0.000000000000000000 ) ) ;
#209 = AXIS2_PLACEMENT_3D ( 'NONE', #68, #356, #574 ) ;
#210 = MANIFOLD_SOLID_BREP ( 'Fillet2', #79 ) ;
#211 = DIRECTION ( 'NONE',  ( -0.000000000000000000, -1.000000000000000000, -0.000000000000000000 ) ) ;
#212 = AXIS2_PLACEMENT_3D ( 'NONE', #741, #811, #186 ) ;
#213 = LINE ( 'NONE', #9, #710 ) ;
#214 = AXIS2_PLACEMENT_3D ( 'NONE', #290, #211, #850 ) ;
#215 = EDGE_CURVE ( 'NONE', #506, #247, #745, .T. ) ;
#216 = EDGE_LOOP ( 'NONE', ( #236, #107, #892, #483 ) ) ;
#217 = CARTESIAN_POINT ( 'NONE',  ( -9.099152542372884511, 0.000000000000000000, -4.299999999999999822 ) ) ;
#218 = EDGE_CURVE ( 'NONE', #552, #597, #147, .T. ) ;
#219 = VERTEX_POINT ( 'NONE', #164 ) ;
#220 = CARTESIAN_POINT ( 'NONE',  ( 5.299999999999998046, 45.00000000000000000, -18.09915254237287741 ) ) ;
#221 = FACE_OUTER_BOUND ( 'NONE', #307, .T. ) ;
#222 = VERTEX_POINT ( 'NONE', #782 ) ;
#223 = CARTESIAN_POINT ( 'NONE',  ( 14.49999999999999467, 45.00000000000000000, -18.09915254237288096 ) ) ;
#224 = VERTEX_POINT ( 'NONE', #151 ) ;
#225 = ORIENTED_EDGE ( 'NONE', *, *, #619, .T. ) ;
#226 = DIRECTION ( 'NONE',  ( 1.000000000000000000, 0.000000000000000000, -1.734723475976807587E-16 ) ) ;
#227 = EDGE_CURVE ( 'NONE', #513, #279, #582, .T. ) ;
#228 = CARTESIAN_POINT ( 'NONE',  ( -4.499999999999993783, 0.000000000000000000, 15.49999999999999467 ) ) ;
#229 = AXIS2_PLACEMENT_3D ( 'NONE', #666, #57, #455 ) ;
#230 = CARTESIAN_POINT ( 'NONE',  ( -18.09915254237288451, 45.00000000000000000, -14.49999999999999822 ) ) ;
#231 = ORIENTED_EDGE ( 'NONE', *, *, #353, .T. ) ;
#232 = ADVANCED_FACE ( 'NONE', ( #169 ), #437, .F. ) ;
#233 = DIRECTION ( 'NONE',  ( -0.000000000000000000, 1.000000000000000000, -0.000000000000000000 ) ) ;
#234 = DIRECTION ( 'NONE',  ( 0.000000000000000000, 0.000000000000000000, -1.000000000000000000 ) ) ;
#235 = DIRECTION ( 'NONE',  ( 1.734723475976807094E-16, -0.000000000000000000, 1.000000000000000000 ) ) ;
#236 = ORIENTED_EDGE ( 'NONE', *, *, #451, .T. ) ;
#237 = PRESENTATION_LAYER_ASSIGNMENT (  '', '', ( #540 ) ) ;
#238 = CARTESIAN_POINT ( 'NONE',  ( 15.49999999999999467, 45.00000000000000000, -18.09915254237288096 ) ) ;
#239 = ORIENTED_EDGE ( 'NONE', *, *, #564, .F. ) ;
#240 = DIRECTION ( 'NONE',  ( 1.000000000000000000, -0.000000000000000000, -4.011019573620658388E-16 ) ) ;
#241 = EDGE_CURVE ( 'NONE', #337, #722, #370, .T. ) ;
#242 = VECTOR ( 'NONE', #240, 1000.000000000000000 ) ;
#243 = AXIS2_PLACEMENT_3D ( 'NONE', #18, #365, #650 ) ;
#244 = ORIENTED_EDGE ( 'NONE', *, *, #91, .F. ) ;
#245 = VECTOR ( 'NONE', #443, 1000.000000000000000 ) ;
#246 = DIRECTION ( 'NONE',  ( 0.000000000000000000, -1.000000000000000000, 0.000000000000000000 ) ) ;
#247 = VERTEX_POINT ( 'NONE', #725 ) ;
#248 = CYLINDRICAL_SURFACE ( 'NONE', #229, 1.000000000000000000 ) ;
#249 = ORIENTED_EDGE ( 'NONE', *, *, #266, .T. ) ;
#250 = CARTESIAN_POINT ( 'NONE',  ( -4.299999999999998046, 45.00000000000000000, -18.09915254237288096 ) ) ;
#251 = ADVANCED_FACE ( 'NONE', ( #221 ), #493, .F. ) ;
#252 = DIRECTION ( 'NONE',  ( 0.000000000000000000, 0.000000000000000000, -1.000000000000000000 ) ) ;
#253 = ORIENTED_EDGE ( 'NONE', *, *, #821, .T. ) ;
#254 = CIRCLE ( 'NONE', #768, 1.000000000000000888 ) ;
#255 = ADVANCED_FACE ( 'NONE', ( #714, #433 ), #512, .T. ) ;
#256 = EDGE_CURVE ( 'NONE', #774, #337, #83, .T. ) ;
#257 = FACE_OUTER_BOUND ( 'NONE', #501, .T. ) ;
#258 = CARTESIAN_POINT ( 'NONE',  ( -4.299999999999999822, 45.00000000000000000, -9.099152542372880959 ) ) ;
#259 = EDGE_LOOP ( 'NONE', ( #315, #141, #840, #883 ) ) ;
#260 = DIRECTION ( 'NONE',  ( 0.000000000000000000, -1.000000000000000000, -0.000000000000000000 ) ) ;
#261 = DIRECTION ( 'NONE',  ( 1.000000000000000000, -0.000000000000000000, 0.000000000000000000 ) ) ;
#262 = ORIENTED_EDGE ( 'NONE', *, *, #310, .F. ) ;
#263 = ADVANCED_FACE ( 'NONE', ( #360 ), #306, .F. ) ;
#264 = LINE ( 'NONE', #250, #44 ) ;
#265 = DIRECTION ( 'NONE',  ( -1.000000000000000000, -0.000000000000000000, 1.734723475976807094E-16 ) ) ;
#266 = EDGE_CURVE ( 'NONE', #56, #552, #301, .T. ) ;
#267 = EDGE_LOOP ( 'NONE', ( #225, #144, #447, #128 ) ) ;
#268 = ORIENTED_EDGE ( 'NONE', *, *, #616, .F. ) ;
#269 = VECTOR ( 'NONE', #826, 1000.000000000000000 ) ;
#270 = CARTESIAN_POINT ( 'NONE',  ( 5.299999999999998046, 0.000000000000000000, -19.09915254237288096 ) ) ;
#271 = VERTEX_POINT ( 'NONE', #721 ) ;
#272 = ORIENTED_EDGE ( 'NONE', *, *, #322, .T. ) ;
#273 = LINE ( 'NONE', #411, #51 ) ;
#274 = ORIENTED_EDGE ( 'NONE', *, *, #880, .T. ) ;
#275 = CYLINDRICAL_SURFACE ( 'NONE', #383, 1.000000000000000888 ) ;
#276 = LINE ( 'NONE', #698, #841 ) ;
#277 = ADVANCED_FACE ( 'NONE', ( #638 ), #295, .T. ) ;
#278 = ORIENTED_EDGE ( 'NONE', *, *, #185, .T. ) ;
#279 = VERTEX_POINT ( 'NONE', #587 ) ;
#280 = AXIS2_PLACEMENT_3D ( 'NONE', #771, #142, #629 ) ;
#281 = DIRECTION ( 'NONE',  ( 1.000000000000000000, -0.000000000000000000, 1.734723475976807094E-16 ) ) ;
#282 = FACE_OUTER_BOUND ( 'NONE', #184, .T. ) ;
#283 = VECTOR ( 'NONE', #81, 1000.000000000000000 ) ;
#284 = CARTESIAN_POINT ( 'NONE',  ( -4.299999999999998046, 45.00000000000000000, -19.09915254237288096 ) ) ;
#285 = VERTEX_POINT ( 'NONE', #867 ) ;
#286 = LINE ( 'NONE', #160, #801 ) ;
#287 = CARTESIAN_POINT ( 'NONE',  ( 0.000000000000000000, 45.00000000000000000, 0.000000000000000000 ) ) ;
#288 = DIRECTION ( 'NONE',  ( -1.000000000000000000, 0.000000000000000000, -1.734723475976807587E-16 ) ) ;
#289 = ORIENTED_EDGE ( 'NONE', *, *, #619, .F. ) ;
#290 = CARTESIAN_POINT ( 'NONE',  ( 14.49999999999999467, 0.000000000000000000, -18.09915254237288096 ) ) ;
#291 = CARTESIAN_POINT ( 'NONE',  ( -18.09915254237288451, 45.00000000000000000, -5.300000000000001599 ) ) ;
#292 = CARTESIAN_POINT ( 'NONE',  ( 4.299999999999998046, 0.000000000000000000, -18.09915254237287741 ) ) ;
#293 = CARTESIAN_POINT ( 'NONE',  ( -9.099152542372884511, 45.00000000000000000, 4.299999999999999822 ) ) ;
#294 = ADVANCED_FACE ( 'NONE', ( #856 ), #515, .T. ) ;
#295 = CYLINDRICAL_SURFACE ( 'NONE', #707, 0.9999999999999991118 ) ;
#296 = EDGE_LOOP ( 'NONE', ( #641, #165, #615, #11 ) ) ;
#297 = CARTESIAN_POINT ( 'NONE',  ( -4.299999999999998046, 0.000000000000000000, -18.09915254237288096 ) ) ;
#298 = PRODUCT_DEFINITION_CONTEXT ( 'detailed design', #61, 'design' ) ;
#299 = CARTESIAN_POINT ( 'NONE',  ( 15.49999999999999467, 45.00000000000000000, -4.500000000000003553 ) ) ;
#300 = VECTOR ( 'NONE', #802, 1000.000000000000000 ) ;
#301 = LINE ( 'NONE', #505, #632 ) ;
#302 = ORIENTED_EDGE ( 'NONE', *, *, #394, .T. ) ;
#303 = CARTESIAN_POINT ( 'NONE',  ( 15.49999999999999467, 45.00000000000000000, -19.09915254237288096 ) ) ;
#304 = DIRECTION ( 'NONE',  ( -0.000000000000000000, -1.000000000000000000, 0.000000000000000000 ) ) ;
#305 = CARTESIAN_POINT ( 'NONE',  ( -19.09915254237288451, 45.00000000000000000, -14.49999999999999822 ) ) ;
#306 = PLANE ( 'NONE',  #243 ) ;
#307 = EDGE_LOOP ( 'NONE', ( #244, #767, #52, #709 ) ) ;
#308 = LINE ( 'NONE', #798, #242 ) ;
#309 = ORIENTED_EDGE ( 'NONE', *, *, #476, .T. ) ;
#310 = EDGE_CURVE ( 'NONE', #157, #174, #872, .T. ) ;
#311 = CARTESIAN_POINT ( 'NONE',  ( 15.49999999999999467, 45.00000000000000000, -19.09915254237288096 ) ) ;
#312 = AXIS2_PLACEMENT_3D ( 'NONE', #230, #758, #58 ) ;
#313 = VERTEX_POINT ( 'NONE', #55 ) ;
#314 = CARTESIAN_POINT ( 'NONE',  ( 5.299999999999998046, 45.00000000000000000, -19.09915254237288096 ) ) ;
#315 = ORIENTED_EDGE ( 'NONE', *, *, #526, .F. ) ;
#316 = ADVANCED_FACE ( 'NONE', ( #886 ), #614, .F. ) ;
#317 = CARTESIAN_POINT ( 'NONE',  ( 14.49999999999999467, 0.000000000000000000, -19.09915254237288096 ) ) ;
#318 = CARTESIAN_POINT ( 'NONE',  ( 0.000000000000000000, 45.00000000000000000, 0.000000000000000000 ) ) ;
#319 = VECTOR ( 'NONE', #842, 1000.000000000000000 ) ;
#320 = EDGE_LOOP ( 'NONE', ( #827, #809, #479, #876 ) ) ;
#321 = EDGE_CURVE ( 'NONE', #271, #194, #398, .T. ) ;
#322 = EDGE_CURVE ( 'NONE', #279, #402, #401, .T. ) ;
#323 = DIRECTION ( 'NONE',  ( 0.000000000000000000, 0.000000000000000000, -1.000000000000000000 ) ) ;
#324 = DIRECTION ( 'NONE',  ( 0.000000000000000000, 0.000000000000000000, -1.000000000000000000 ) ) ;
#325 = VECTOR ( 'NONE', #281, 1000.000000000000000 ) ;
#326 = VERTEX_POINT ( 'NONE', #47 ) ;
#327 = DIRECTION ( 'NONE',  ( 1.000000000000000000, 0.000000000000000000, -0.000000000000000000 ) ) ;
#328 = CARTESIAN_POINT ( 'NONE',  ( -14.49999999999999467, 0.000000000000000000, -19.09915254237288096 ) ) ;
#329 = ORIENTED_EDGE ( 'NONE', *, *, #810, .T. ) ;
#330 = DIRECTION ( 'NONE',  ( 0.000000000000000000, 0.000000000000000000, -1.000000000000000000 ) ) ;
#331 = CARTESIAN_POINT ( 'NONE',  ( -4.299999999999998046, 45.00000000000000000, -18.09915254237288096 ) ) ;
#332 = EDGE_CURVE ( 'NONE', #335, #219, #546, .T. ) ;
#333 = CARTESIAN_POINT ( 'NONE',  ( 15.49999999999999467, 0.000000000000000000, -18.09915254237288096 ) ) ;
#334 = ORIENTED_EDGE ( 'NONE', *, *, #564, .T. ) ;
#335 = VERTEX_POINT ( 'NONE', #535 ) ;
#336 = CARTESIAN_POINT ( 'NONE',  ( -18.09915254237288451, 45.00000000000000000, -15.50000000000000000 ) ) ;
#337 = VERTEX_POINT ( 'NONE', #270 ) ;
#338 = VECTOR ( 'NONE', #448, 1000.000000000000000 ) ;
#339 = PRODUCT ( 'CornerSupport-NominalFit', 'CornerSupport-NominalFit', '', ( #770 ) ) ;
#340 = CARTESIAN_POINT ( 'NONE',  ( -9.099152542372884511, 0.000000000000000000, -4.299999999999999822 ) ) ;
#341 = VERTEX_POINT ( 'NONE', #675 ) ;
#342 = VERTEX_POINT ( 'NONE', #820 ) ;
#343 = DIRECTION ( 'NONE',  ( 0.000000000000000000, 0.000000000000000000, -1.000000000000000000 ) ) ;
#344 = LINE ( 'NONE', #581, #753 ) ;
#345 = AXIS2_PLACEMENT_3D ( 'NONE', #71, #795, #702 ) ;
#346 = LINE ( 'NONE', #349, #319 ) ;
#347 = CARTESIAN_POINT ( 'NONE',  ( -4.500000000000001776, 0.000000000000000000, -4.500000000000002665 ) ) ;
#348 = ORIENTED_EDGE ( 'NONE', *, *, #687, .F. ) ;
#349 = CARTESIAN_POINT ( 'NONE',  ( 15.49999999999999467, 0.000000000000000000, -19.09915254237288096 ) ) ;
#350 = VECTOR ( 'NONE', #192, 1000.000000000000000 ) ;
#351 = DIRECTION ( 'NONE',  ( -4.011019573620659374E-16, 0.000000000000000000, -1.000000000000000000 ) ) ;
#352 = CARTESIAN_POINT ( 'NONE',  ( -19.09915254237288451, 45.00000000000000000, -15.50000000000000000 ) ) ;
#353 = EDGE_CURVE ( 'NONE', #689, #597, #618, .T. ) ;
#354 = AXIS2_PLACEMENT_3D ( 'NONE', #318, #603, #252 ) ;
#355 = EDGE_LOOP ( 'NONE', ( #600, #661, #895, #755 ) ) ;
#356 = DIRECTION ( 'NONE',  ( 0.000000000000000000, 1.000000000000000000, 0.000000000000000000 ) ) ;
#357 = EDGE_CURVE ( 'NONE', #247, #506, #825, .T. ) ;
#358 = LINE ( 'NONE', #167, #589 ) ;
#359 = EDGE_LOOP ( 'NONE', ( #395, #664, #253, #392 ) ) ;
#360 = FACE_OUTER_BOUND ( 'NONE', #525, .T. ) ;
#361 = ORIENTED_EDGE ( 'NONE', *, *, #357, .T. ) ;
#362 = VECTOR ( 'NONE', #409, 1000.000000000000000 ) ;
#363 = DIRECTION ( 'NONE',  ( -1.000000000000000000, -0.000000000000000000, -0.000000000000000000 ) ) ;
#364 = ORIENTED_EDGE ( 'NONE', *, *, #197, .F. ) ;
#365 = DIRECTION ( 'NONE',  ( 1.000000000000000000, 0.000000000000000000, -1.734723475976807587E-16 ) ) ;
#366 = ORIENTED_EDGE ( 'NONE', *, *, #684, .F. ) ;
#367 = ADVANCED_BREP_SHAPE_REPRESENTATION ( 'CornerSupport-NominalFit', ( #210, #403 ), #163 ) ;
#368 = CARTESIAN_POINT ( 'NONE',  ( 5.299999999999998046, 45.00000000000000000, -18.09915254237287741 ) ) ;
#369 = AXIS2_PLACEMENT_3D ( 'NONE', #732, #647, #380 ) ;
#370 = LINE ( 'NONE', #708, #518 ) ;
#371 = CARTESIAN_POINT ( 'NONE',  ( -18.09915254237287385, 45.00000000000000000, 14.50000000000000000 ) ) ;
#372 = EDGE_CURVE ( 'NONE', #224, #157, #472, .T. ) ;
#373 = DIRECTION ( 'NONE',  ( 1.000000000000000000, -0.000000000000000000, 0.000000000000000000 ) ) ;
#374 = DIRECTION ( 'NONE',  ( 1.734723475976807094E-16, -0.000000000000000000, -1.000000000000000000 ) ) ;
#375 = ORIENTED_EDGE ( 'NONE', *, *, #616, .T. ) ;
#376 = EDGE_CURVE ( 'NONE', #685, #342, #751, .T. ) ;
#377 = DIRECTION ( 'NONE',  ( 0.000000000000000000, 0.000000000000000000, -1.000000000000000000 ) ) ;
#378 = FACE_OUTER_BOUND ( 'NONE', #879, .T. ) ;
#379 = EDGE_LOOP ( 'NONE', ( #847, #302, #494, #583 ) ) ;
#380 = DIRECTION ( 'NONE',  ( 0.000000000000000000, 0.000000000000000000, -1.000000000000000000 ) ) ;
#381 = ORIENTED_EDGE ( 'NONE', *, *, #372, .F. ) ;
#382 = EDGE_CURVE ( 'NONE', #84, #222, #543, .T. ) ;
#383 = AXIS2_PLACEMENT_3D ( 'NONE', #120, #393, #330 ) ;
#384 = FACE_OUTER_BOUND ( 'NONE', #529, .T. ) ;
#385 = EDGE_CURVE ( 'NONE', #748, #513, #565, .T. ) ;
#386 = ORIENTED_EDGE ( 'NONE', *, *, #376, .F. ) ;
#387 = FACE_BOUND ( 'NONE', #844, .T. ) ;
#388 = CARTESIAN_POINT ( 'NONE',  ( 0.000000000000000000, 45.00000000000000000, -2.799999999999999822 ) ) ;
#389 = ORIENTED_EDGE ( 'NONE', *, *, #523, .F. ) ;
#390 = CARTESIAN_POINT ( 'NONE',  ( -18.09915254237288451, 45.00000000000000000, 5.300000000000004263 ) ) ;
#391 = CYLINDRICAL_SURFACE ( 'NONE', #354, 2.799999999999999822 ) ;
#392 = ORIENTED_EDGE ( 'NONE', *, *, #215, .F. ) ;
#393 = DIRECTION ( 'NONE',  ( 0.000000000000000000, -1.000000000000000000, 0.000000000000000000 ) ) ;
#394 = EDGE_CURVE ( 'NONE', #863, #774, #50, .T. ) ;
#395 = ORIENTED_EDGE ( 'NONE', *, *, #550, .F. ) ;
#396 = DIRECTION ( 'NONE',  ( 0.000000000000000000, 0.000000000000000000, -1.000000000000000000 ) ) ;
#397 = CIRCLE ( 'NONE', #6, 1.000000000000000888 ) ;
#398 = LINE ( 'NONE', #188, #75 ) ;
#399 = ORIENTED_EDGE ( 'NONE', *, *, #332, .F. ) ;
#400 = PLANE ( 'NONE',  #532 ) ;
#401 = LINE ( 'NONE', #464, #350 ) ;
#402 = VERTEX_POINT ( 'NONE', #328 ) ;
#403 = AXIS2_PLACEMENT_3D ( 'NONE', #208, #690, #134 ) ;
#404 = ORIENTED_EDGE ( 'NONE', *, *, #606, .T. ) ;
#405 = CARTESIAN_POINT ( 'NONE',  ( -15.49999999999999467, 0.000000000000000000, -15.50000000000000000 ) ) ;
#406 = EDGE_LOOP ( 'NONE', ( #361, #562 ) ) ;
#407 = DIRECTION ( 'NONE',  ( 0.000000000000000000, 0.000000000000000000, -1.000000000000000000 ) ) ;
#408 = VERTEX_POINT ( 'NONE', #743 ) ;
#409 = DIRECTION ( 'NONE',  ( -0.000000000000000000, -1.000000000000000000, -0.000000000000000000 ) ) ;
#410 = AXIS2_PLACEMENT_3D ( 'NONE', #390, #40, #182 ) ;
#411 = CARTESIAN_POINT ( 'NONE',  ( -19.09915254237288451, 0.000000000000000000, -4.300000000000001599 ) ) ;
#412 = EDGE_CURVE ( 'NONE', #651, #408, #683, .T. ) ;
#413 = CARTESIAN_POINT ( 'NONE',  ( -19.09915254237288451, 45.00000000000000000, -4.300000000000001599 ) ) ;
#414 = LINE ( 'NONE', #340, #325 ) ;
#415 = CARTESIAN_POINT ( 'NONE',  ( -18.09915254237288451, 45.00000000000000000, 5.300000000000004263 ) ) ;
#416 = MECHANICAL_DESIGN_GEOMETRIC_PRESENTATION_REPRESENTATION (  '', ( #540 ), #113 ) ;
#417 = EDGE_LOOP ( 'NONE', ( #857, #473, #736, #516, #96, #375, #832, #422, #59, #573, #309, #898, #148, #404, #43, #749, #726, #72, #868, #29, #450, #468, #778 ) ) ;
#418 = DIRECTION ( 'NONE',  ( 1.734723475976807094E-16, -0.000000000000000000, -1.000000000000000000 ) ) ;
#419 = LINE ( 'NONE', #766, #681 ) ;
#420 = DIRECTION ( 'NONE',  ( 1.000000000000000000, -0.000000000000000000, 0.000000000000000000 ) ) ;
#421 = DIRECTION ( 'NONE',  ( 0.000000000000000000, -1.000000000000000000, -0.000000000000000000 ) ) ;
#422 = ORIENTED_EDGE ( 'NONE', *, *, #852, .T. ) ;
#423 = EDGE_CURVE ( 'NONE', #689, #748, #747, .T. ) ;
#424 = VECTOR ( 'NONE', #130, 1000.000000000000000 ) ;
#425 = DIRECTION ( 'NONE',  ( -0.000000000000000000, -0.000000000000000000, 1.000000000000000000 ) ) ;
#426 = VECTOR ( 'NONE', #855, 1000.000000000000000 ) ;
#427 = DIRECTION ( 'NONE',  ( 1.000000000000000000, -0.000000000000000000, 0.000000000000000000 ) ) ;
#428 = CARTESIAN_POINT ( 'NONE',  ( -9.099152542372884511, 45.00000000000000000, -4.299999999999999822 ) ) ;
#429 = VERTEX_POINT ( 'NONE', #333 ) ;
#430 = CARTESIAN_POINT ( 'NONE',  ( 4.299999999999998046, 45.00000000000000000, -18.09915254237287741 ) ) ;
#431 = FACE_OUTER_BOUND ( 'NONE', #296, .T. ) ;
#432 = FACE_OUTER_BOUND ( 'NONE', #776, .T. ) ;
#433 = FACE_BOUND ( 'NONE', #406, .T. ) ;
#434 = ORIENTED_EDGE ( 'NONE', *, *, #241, .F. ) ;
#435 = AXIS2_PLACEMENT_3D ( 'NONE', #124, #824, #396 ) ;
#436 = DIRECTION ( 'NONE',  ( 0.000000000000000000, 1.000000000000000000, 0.000000000000000000 ) ) ;
#437 = PLANE ( 'NONE',  #67 ) ;
#438 = ORIENTED_EDGE ( 'NONE', *, *, #511, .F. ) ;
#439 = ADVANCED_FACE ( 'NONE', ( #41 ), #391, .F. ) ;
#440 = CIRCLE ( 'NONE', #168, 1.000000000000000888 ) ;
#441 = LINE ( 'NONE', #36, #338 ) ;
#442 = FACE_OUTER_BOUND ( 'NONE', #891, .T. ) ;
#443 = DIRECTION ( 'NONE',  ( 0.000000000000000000, -1.000000000000000000, 0.000000000000000000 ) ) ;
#444 = ORIENTED_EDGE ( 'NONE', *, *, #321, .F. ) ;
#445 = VECTOR ( 'NONE', #816, 1000.000000000000000 ) ;
#446 = FACE_OUTER_BOUND ( 'NONE', #133, .T. ) ;
#447 = ORIENTED_EDGE ( 'NONE', *, *, #102, .F. ) ;
#448 = DIRECTION ( 'NONE',  ( -0.000000000000000000, -1.000000000000000000, -0.000000000000000000 ) ) ;
#449 = APPLICATION_CONTEXT ( 'automotive_design' ) ;
#450 = ORIENTED_EDGE ( 'NONE', *, *, #772, .T. ) ;
#451 = EDGE_CURVE ( 'NONE', #285, #271, #183, .T. ) ;
#452 = DIRECTION ( 'NONE',  ( -0.000000000000000000, -1.000000000000000000, -0.000000000000000000 ) ) ;
#453 = CIRCLE ( 'NONE', #212, 1.000000000000000000 ) ;
#454 = ORIENTED_EDGE ( 'NONE', *, *, #553, .F. ) ;
#455 = DIRECTION ( 'NONE',  ( 0.000000000000000000, 0.000000000000000000, -1.000000000000000000 ) ) ;
#456 = DIRECTION ( 'NONE',  ( 1.734723475976807094E-16, -0.000000000000000000, 1.000000000000000000 ) ) ;
#457 = VERTEX_POINT ( 'NONE', #388 ) ;
#458 = CARTESIAN_POINT ( 'NONE',  ( -15.49999999999999467, 45.00000000000000000, -19.09915254237288096 ) ) ;
#459 = VECTOR ( 'NONE', #95, 1000.000000000000000 ) ;
#460 = DIRECTION ( 'NONE',  ( 0.000000000000000000, 1.000000000000000000, 0.000000000000000000 ) ) ;
#461 = ORIENTED_EDGE ( 'NONE', *, *, #481, .F. ) ;
#462 = ORIENTED_EDGE ( 'NONE', *, *, #385, .F. ) ;
#463 = DIRECTION ( 'NONE',  ( 0.000000000000000000, 0.000000000000000000, -1.000000000000000000 ) ) ;
#464 = CARTESIAN_POINT ( 'NONE',  ( -15.49999999999999467, 0.000000000000000000, -19.09915254237288096 ) ) ;
#465 = VECTOR ( 'NONE', #23, 1000.000000000000000 ) ;
#466 = ORIENTED_EDGE ( 'NONE', *, *, #256, .F. ) ;
#467 = EDGE_CURVE ( 'NONE', #774, #429, #756, .T. ) ;
#468 = ORIENTED_EDGE ( 'NONE', *, *, #834, .T. ) ;
#469 = AXIS2_PLACEMENT_3D ( 'NONE', #15, #427, #234 ) ;
#470 = CARTESIAN_POINT ( 'NONE',  ( 0.000000000000000000, 45.00000000000000000, 0.000000000000000000 ) ) ;
#471 = AXIS2_PLACEMENT_3D ( 'NONE', #555, #775, #475 ) ;
#472 = LINE ( 'NONE', #336, #424 ) ;
#473 = ORIENTED_EDGE ( 'NONE', *, *, #136, .T. ) ;
#474 = ORIENTED_EDGE ( 'NONE', *, *, #161, .T. ) ;
#475 = DIRECTION ( 'NONE',  ( 1.000000000000000000, 0.000000000000000000, -0.000000000000000000 ) ) ;
#476 = EDGE_CURVE ( 'NONE', #513, #806, #276, .T. ) ;
#477 = VERTEX_POINT ( 'NONE', #490 ) ;
#478 = CIRCLE ( 'NONE', #435, 1.000000000000000888 ) ;
#479 = ORIENTED_EDGE ( 'NONE', *, *, #852, .F. ) ;
#480 = CARTESIAN_POINT ( 'NONE',  ( -15.49999999999999467, 45.00000000000000000, -15.50000000000000000 ) ) ;
#481 = EDGE_CURVE ( 'NONE', #835, #326, #273, .T. ) ;
#482 = PLANE ( 'NONE',  #471 ) ;
#483 = ORIENTED_EDGE ( 'NONE', *, *, #159, .T. ) ;
#484 = VECTOR ( 'NONE', #563, 1000.000000000000000 ) ;
#485 =( NAMED_UNIT ( * ) SI_UNIT ( $, .STERADIAN. ) SOLID_ANGLE_UNIT ( ) );
#486 = CIRCLE ( 'NONE', #858, 1.000000000000000888 ) ;
#487 = CARTESIAN_POINT ( 'NONE',  ( 4.299999999999999822, 0.000000000000000000, -9.099152542372880959 ) ) ;
#488 = LINE ( 'NONE', #788, #623 ) ;
#489 = ORIENTED_EDGE ( 'NONE', *, *, #866, .T. ) ;
#490 = CARTESIAN_POINT ( 'NONE',  ( -18.09915254237287385, 0.000000000000000000, 15.50000000000000000 ) ) ;
#491 = ORIENTED_EDGE ( 'NONE', *, *, #115, .F. ) ;
#492 = EDGE_CURVE ( 'NONE', #734, #592, #570, .T. ) ;
#493 = PLANE ( 'NONE',  #896 ) ;
#494 = ORIENTED_EDGE ( 'NONE', *, *, #256, .T. ) ;
#495 = LINE ( 'NONE', #554, #645 ) ;
#496 = DIRECTION ( 'NONE',  ( -0.000000000000000000, -1.000000000000000000, -0.000000000000000000 ) ) ;
#497 = PLANE ( 'NONE',  #109 ) ;
#498 = DIRECTION ( 'NONE',  ( 0.000000000000000000, -1.000000000000000000, 0.000000000000000000 ) ) ;
#499 = ADVANCED_FACE ( 'NONE', ( #779 ), #482, .F. ) ;
#500 = DIRECTION ( 'NONE',  ( -1.000000000000000000, -0.000000000000000000, -0.000000000000000000 ) ) ;
#501 = EDGE_LOOP ( 'NONE', ( #557, #764, #272, #783 ) ) ;
#502 = AXIS2_PLACEMENT_3D ( 'NONE', #688, #199, #729 ) ;
#503 = CARTESIAN_POINT ( 'NONE',  ( -18.09915254237288451, 45.00000000000000000, -4.300000000000001599 ) ) ;
#504 = DIRECTION ( 'NONE',  ( -0.000000000000000000, -0.000000000000000000, 1.000000000000000000 ) ) ;
#505 = CARTESIAN_POINT ( 'NONE',  ( 4.299999999999999822, 0.000000000000000000, -9.099152542372880959 ) ) ;
#506 = VERTEX_POINT ( 'NONE', #13 ) ;
#507 = CARTESIAN_POINT ( 'NONE',  ( -18.09915254237287385, 0.000000000000000000, 14.50000000000000000 ) ) ;
#508 = UNCERTAINTY_MEASURE_WITH_UNIT (LENGTH_MEASURE( 1.000000000000000082E-05 ), #761, 'distance_accuracy_value', 'NONE');
#509 = CARTESIAN_POINT ( 'NONE',  ( -19.09915254237288451, 45.00000000000000000, 15.50000000000000000 ) ) ;
#510 = CARTESIAN_POINT ( 'NONE',  ( -4.500000000000001776, 45.00000000000000000, -4.500000000000002665 ) ) ;
#511 = EDGE_CURVE ( 'NONE', #402, #806, #419, .T. ) ;
#512 = PLANE ( 'NONE',  #123 ) ;
#513 = VERTEX_POINT ( 'NONE', #711 ) ;
#514 = CARTESIAN_POINT ( 'NONE',  ( -19.09915254237288451, 45.00000000000000000, 4.300000000000001599 ) ) ;
#515 = CYLINDRICAL_SURFACE ( 'NONE', #312, 1.000000000000000888 ) ;
#516 = ORIENTED_EDGE ( 'NONE', *, *, #526, .T. ) ;
#517 = CIRCLE ( 'NONE', #122, 19.99999999999999645 ) ;
#518 = VECTOR ( 'NONE', #846, 1000.000000000000000 ) ;
#519 = DIRECTION ( 'NONE',  ( -1.000000000000000000, -0.000000000000000000, -0.000000000000000000 ) ) ;
#520 = CARTESIAN_POINT ( 'NONE',  ( -19.09915254237288451, 45.00000000000000000, -14.49999999999999822 ) ) ;
#521 = ORIENTED_EDGE ( 'NONE', *, *, #821, .F. ) ;
#522 = AXIS2_PLACEMENT_3D ( 'NONE', #560, #351, #837 ) ;
#523 = EDGE_CURVE ( 'NONE', #644, #313, #695, .T. ) ;
#524 = CARTESIAN_POINT ( 'NONE',  ( 3.429011037612588290E-16, 45.00000000000000000, 2.799999999999999822 ) ) ;
#525 = EDGE_LOOP ( 'NONE', ( #386, #612, #249, #366 ) ) ;
#526 = EDGE_CURVE ( 'NONE', #831, #863, #397, .T. ) ;
#527 = CARTESIAN_POINT ( 'NONE',  ( 0.000000000000000000, 45.00000000000000000, -2.799999999999999822 ) ) ;
#528 = PRODUCT_DEFINITION_FORMATION_WITH_SPECIFIED_SOURCE ( 'ANY', '', #339, .NOT_KNOWN. ) ;
#529 = EDGE_LOOP ( 'NONE', ( #364, #656, #822, #104 ) ) ;
#530 = CARTESIAN_POINT ( 'NONE',  ( -19.09915254237288451, 45.00000000000000000, 15.50000000000000000 ) ) ;
#531 = CARTESIAN_POINT ( 'NONE',  ( -5.299999999999998934, 45.00000000000000000, -18.09915254237288096 ) ) ;
#532 = AXIS2_PLACEMENT_3D ( 'NONE', #46, #196, #327 ) ;
#533 = VERTEX_POINT ( 'NONE', #62 ) ;
#534 = DIRECTION ( 'NONE',  ( 0.000000000000000000, 0.000000000000000000, -1.000000000000000000 ) ) ;
#535 = CARTESIAN_POINT ( 'NONE',  ( -19.09915254237288451, 0.000000000000000000, 5.300000000000004263 ) ) ;
#536 = ORIENTED_EDGE ( 'NONE', *, *, #357, .F. ) ;
#537 = ADVANCED_FACE ( 'NONE', ( #1 ), #3, .F. ) ;
#538 = PRESENTATION_STYLE_ASSIGNMENT (( #671 ) ) ;
#539 = DIRECTION ( 'NONE',  ( -0.000000000000000000, -1.000000000000000000, -0.000000000000000000 ) ) ;
#540 = STYLED_ITEM ( 'NONE', ( #538 ), #210 ) ;
#541 = PRODUCT_DEFINITION_SHAPE ( 'NONE', 'NONE',  #178 ) ;
#542 = EDGE_CURVE ( 'NONE', #625, #457, #93, .T. ) ;
#543 = LINE ( 'NONE', #126, #445 ) ;
#544 = ORIENTED_EDGE ( 'NONE', *, *, #880, .F. ) ;
#545 = FACE_OUTER_BOUND ( 'NONE', #417, .T. ) ;
#546 = LINE ( 'NONE', #607, #662 ) ;
#547 = VECTOR ( 'NONE', #456, 1000.000000000000000 ) ;
#548 = ORIENTED_EDGE ( 'NONE', *, *, #670, .F. ) ;
#549 = ORIENTED_EDGE ( 'NONE', *, *, #731, .F. ) ;
#550 = EDGE_CURVE ( 'NONE', #625, #506, #640, .T. ) ;
#551 = DIRECTION ( 'NONE',  ( 0.000000000000000000, 0.000000000000000000, -1.000000000000000000 ) ) ;
#552 = VERTEX_POINT ( 'NONE', #487 ) ;
#553 = EDGE_CURVE ( 'NONE', #313, #760, #762, .T. ) ;
#554 = CARTESIAN_POINT ( 'NONE',  ( -4.299999999999998046, 0.000000000000000000, -19.09915254237288096 ) ) ;
#555 = CARTESIAN_POINT ( 'NONE',  ( -4.299999999999999822, 45.00000000000000000, -9.099152542372880959 ) ) ;
#556 = AXIS2_PLACEMENT_3D ( 'NONE', #291, #173, #103 ) ;
#557 = ORIENTED_EDGE ( 'NONE', *, *, #476, .F. ) ;
#558 = CIRCLE ( 'NONE', #723, 1.000000000000000888 ) ;
#559 = AXIS2_PLACEMENT_3D ( 'NONE', #787, #246, #663 ) ;
#560 = CARTESIAN_POINT ( 'NONE',  ( 15.49999999999999645, 45.00000000000000000, 15.49999999999998579 ) ) ;
#561 = FACE_OUTER_BOUND ( 'NONE', #800, .T. ) ;
#562 = ORIENTED_EDGE ( 'NONE', *, *, #215, .T. ) ;
#563 = DIRECTION ( 'NONE',  ( -0.000000000000000000, -1.000000000000000000, -0.000000000000000000 ) ) ;
#564 = EDGE_CURVE ( 'NONE', #835, #224, #678, .T. ) ;
#565 = CIRCLE ( 'NONE', #80, 1.000000000000000888 ) ;
#566 = LINE ( 'NONE', #575, #37 ) ;
#567 = CARTESIAN_POINT ( 'NONE',  ( -9.099152542372884511, 45.00000000000000000, 4.299999999999999822 ) ) ;
#568 = DIRECTION ( 'NONE',  ( -1.734723475976807587E-16, 0.000000000000000000, 1.000000000000000000 ) ) ;
#569 = ORIENTED_EDGE ( 'NONE', *, *, #580, .T. ) ;
#570 = LINE ( 'NONE', #150, #171 ) ;
#571 = EDGE_CURVE ( 'NONE', #408, #592, #414, .T. ) ;
#572 = DIRECTION ( 'NONE',  ( -0.000000000000000000, -1.000000000000000000, -0.000000000000000000 ) ) ;
#573 = ORIENTED_EDGE ( 'NONE', *, *, #385, .T. ) ;
#574 = DIRECTION ( 'NONE',  ( 0.000000000000000000, 0.000000000000000000, 1.000000000000000000 ) ) ;
#575 = CARTESIAN_POINT ( 'NONE',  ( -15.49999999999999467, 45.00000000000000000, -15.50000000000000000 ) ) ;
#576 = DIRECTION ( 'NONE',  ( 0.000000000000000000, -1.000000000000000000, 0.000000000000000000 ) ) ;
#577 = EDGE_LOOP ( 'NONE', ( #474, #620, #536, #521 ) ) ;
#578 = VECTOR ( 'NONE', #672, 1000.000000000000000 ) ;
#579 = CARTESIAN_POINT ( 'NONE',  ( -9.099152542372884511, 45.00000000000000000, -4.299999999999999822 ) ) ;
#580 = EDGE_CURVE ( 'NONE', #592, #285, #624, .T. ) ;
#581 = CARTESIAN_POINT ( 'NONE',  ( -18.09915254237287385, 45.00000000000000000, 15.50000000000000000 ) ) ;
#582 = LINE ( 'NONE', #790, #459 ) ;
#583 = ORIENTED_EDGE ( 'NONE', *, *, #241, .T. ) ;
#584 = EDGE_CURVE ( 'NONE', #24, #84, #517, .T. ) ;
#585 = CARTESIAN_POINT ( 'NONE',  ( -19.09915254237288451, 45.00000000000000000, 4.300000000000001599 ) ) ;
#586 = CARTESIAN_POINT ( 'NONE',  ( -15.49999999999999467, 45.00000000000000000, -15.50000000000000000 ) ) ;
#587 = CARTESIAN_POINT ( 'NONE',  ( -5.299999999999998934, 0.000000000000000000, -19.09915254237288096 ) ) ;
#588 = ORIENTED_EDGE ( 'NONE', *, *, #451, .F. ) ;
#589 = VECTOR ( 'NONE', #875, 1000.000000000000000 ) ;
#590 = FILL_AREA_STYLE ('',( #30 ) ) ;
#591 = LINE ( 'NONE', #238, #674 ) ;
#592 = VERTEX_POINT ( 'NONE', #217 ) ;
#593 = AXIS2_PLACEMENT_3D ( 'NONE', #112, #894, #324 ) ;
#594 = CARTESIAN_POINT ( 'NONE',  ( -19.09915254237288451, 45.00000000000000000, 14.50000000000000000 ) ) ;
#595 = EDGE_CURVE ( 'NONE', #685, #56, #145, .T. ) ;
#596 = AXIS2_PLACEMENT_3D ( 'NONE', #146, #706, #851 ) ;
#597 = VERTEX_POINT ( 'NONE', #637 ) ;
#598 = CARTESIAN_POINT ( 'NONE',  ( -9.099152542372884511, 45.00000000000000000, 4.299999999999999822 ) ) ;
#599 = PRODUCT_RELATED_PRODUCT_CATEGORY ( 'part', '', ( #339 ) ) ;
#600 = ORIENTED_EDGE ( 'NONE', *, *, #60, .F. ) ;
#601 = DIRECTION ( 'NONE',  ( 0.000000000000000000, 1.000000000000000000, 0.000000000000000000 ) ) ;
#602 = VECTOR ( 'NONE', #304, 1000.000000000000000 ) ;
#603 = DIRECTION ( 'NONE',  ( -0.000000000000000000, -1.000000000000000000, -0.000000000000000000 ) ) ;
#604 = VERTEX_POINT ( 'NONE', #7 ) ;
#605 = DIRECTION ( 'NONE',  ( -0.000000000000000000, -0.000000000000000000, 1.000000000000000000 ) ) ;
#606 = EDGE_CURVE ( 'NONE', #180, #157, #286, .T. ) ;
#607 = CARTESIAN_POINT ( 'NONE',  ( -19.09915254237288451, 0.000000000000000000, 15.50000000000000000 ) ) ;
#608 = ORIENTED_EDGE ( 'NONE', *, *, #227, .F. ) ;
#609 = ADVANCED_FACE ( 'NONE', ( #854 ), #859, .F. ) ;
#610 = CARTESIAN_POINT ( 'NONE',  ( -14.49999999999999467, 45.00000000000000000, -18.09915254237288096 ) ) ;
#611 = CARTESIAN_POINT ( 'NONE',  ( -19.09915254237288451, 0.000000000000000000, 4.300000000000001599 ) ) ;
#612 = ORIENTED_EDGE ( 'NONE', *, *, #595, .T. ) ;
#613 = FACE_OUTER_BOUND ( 'NONE', #379, .T. ) ;
#614 = PLANE ( 'NONE',  #195 ) ;
#615 = ORIENTED_EDGE ( 'NONE', *, *, #606, .F. ) ;
#616 = EDGE_CURVE ( 'NONE', #722, #685, #440, .T. ) ;
#617 = DIRECTION ( 'NONE',  ( 0.000000000000000000, 0.000000000000000000, -1.000000000000000000 ) ) ;
#618 = LINE ( 'NONE', #258, #269 ) ;
#619 = EDGE_CURVE ( 'NONE', #477, #84, #308, .T. ) ;
#620 = ORIENTED_EDGE ( 'NONE', *, *, #550, .T. ) ;
#621 = CIRCLE ( 'NONE', #410, 1.000000000000000000 ) ;
#622 = VERTEX_POINT ( 'NONE', #297 ) ;
#623 = VECTOR ( 'NONE', #69, 1000.000000000000000 ) ;
#624 = LINE ( 'NONE', #74, #871 ) ;
#625 = VERTEX_POINT ( 'NONE', #524 ) ;
#626 = CARTESIAN_POINT ( 'NONE',  ( -15.49999999999999467, 45.00000000000000000, -18.09915254237288096 ) ) ;
#627 = AXIS2_PLACEMENT_3D ( 'NONE', #303, #786, #792 ) ;
#628 = FACE_OUTER_BOUND ( 'NONE', #359, .T. ) ;
#629 = DIRECTION ( 'NONE',  ( 0.000000000000000000, 0.000000000000000000, -1.000000000000000000 ) ) ;
#630 = CARTESIAN_POINT ( 'NONE',  ( 15.49999999999999467, 0.000000000000000000, -4.500000000000003553 ) ) ;
#631 = AXIS2_PLACEMENT_3D ( 'NONE', #514, #106, #226 ) ;
#632 = VECTOR ( 'NONE', #235, 1000.000000000000000 ) ;
#633 =( NAMED_UNIT ( * ) PLANE_ANGLE_UNIT ( ) SI_UNIT ( $, .RADIAN. ) );
#634 = ORIENTED_EDGE ( 'NONE', *, *, #772, .F. ) ;
#635 = EDGE_CURVE ( 'NONE', #341, #335, #26, .T. ) ;
#636 = AXIS2_PLACEMENT_3D ( 'NONE', #220, #498, #642 ) ;
#637 = CARTESIAN_POINT ( 'NONE',  ( -4.299999999999999822, 0.000000000000000000, -9.099152542372880959 ) ) ;
#638 = FACE_OUTER_BOUND ( 'NONE', #90, .T. ) ;
#639 = ORIENTED_EDGE ( 'NONE', *, *, #740, .T. ) ;
#640 = LINE ( 'NONE', #203, #484 ) ;
#641 = ORIENTED_EDGE ( 'NONE', *, *, #697, .T. ) ;
#642 = DIRECTION ( 'NONE',  ( 0.000000000000000000, 0.000000000000000000, -1.000000000000000000 ) ) ;
#643 = CARTESIAN_POINT ( 'NONE',  ( 4.299999999999998046, 0.000000000000000000, -19.09915254237288096 ) ) ;
#644 = VERTEX_POINT ( 'NONE', #98 ) ;
#645 = VECTOR ( 'NONE', #418, 1000.000000000000000 ) ;
#646 = ADVANCED_FACE ( 'NONE', ( #793 ), #724, .T. ) ;
#647 = DIRECTION ( 'NONE',  ( -0.000000000000000000, -1.000000000000000000, 0.000000000000000000 ) ) ;
#648 = DIRECTION ( 'NONE',  ( 0.000000000000000000, 0.000000000000000000, -1.000000000000000000 ) ) ;
#649 = EDGE_CURVE ( 'NONE', #138, #194, #92, .T. ) ;
#650 = DIRECTION ( 'NONE',  ( -1.734723475976807587E-16, 0.000000000000000000, -1.000000000000000000 ) ) ;
#651 = VERTEX_POINT ( 'NONE', #503 ) ;
#652 = AXIS2_PLACEMENT_3D ( 'NONE', #750, #881, #463 ) ;
#653 = DIRECTION ( 'NONE',  ( 0.000000000000000000, 0.000000000000000000, -1.000000000000000000 ) ) ;
#654 = DIRECTION ( 'NONE',  ( 0.000000000000000000, 0.000000000000000000, -1.000000000000000000 ) ) ;
#655 =( LENGTH_UNIT ( ) NAMED_UNIT ( * ) SI_UNIT ( .MILLI., .METRE. ) );
#656 = ORIENTED_EDGE ( 'NONE', *, *, #742, .F. ) ;
#657 = LINE ( 'NONE', #31, #300 ) ;
#658 = ORIENTED_EDGE ( 'NONE', *, *, #481, .T. ) ;
#659 = EDGE_CURVE ( 'NONE', #429, #831, #591, .T. ) ;
#660 = LINE ( 'NONE', #594, #25 ) ;
#661 = ORIENTED_EDGE ( 'NONE', *, *, #523, .T. ) ;
#662 = VECTOR ( 'NONE', #890, 1000.000000000000000 ) ;
#663 = DIRECTION ( 'NONE',  ( 0.000000000000000000, 0.000000000000000000, -1.000000000000000000 ) ) ;
#664 = ORIENTED_EDGE ( 'NONE', *, *, #542, .T. ) ;
#665 = SURFACE_SIDE_STYLE ('',( #35 ) ) ;
#666 = CARTESIAN_POINT ( 'NONE',  ( -18.09915254237288451, 45.00000000000000000, -5.300000000000001599 ) ) ;
#667 = DIRECTION ( 'NONE',  ( 0.000000000000000000, -1.000000000000000000, 0.000000000000000000 ) ) ;
#668 = ORIENTED_EDGE ( 'NONE', *, *, #659, .T. ) ;
#669 = COLOUR_RGB ( '',0.7921568627450980005, 0.8196078431372548767, 0.9333333333333333481 ) ;
#670 = EDGE_CURVE ( 'NONE', #533, #744, #97, .T. ) ;
#671 = SURFACE_STYLE_USAGE ( .BOTH. , #665 ) ;
#672 = DIRECTION ( 'NONE',  ( 0.000000000000000000, 1.000000000000000000, -0.000000000000000000 ) ) ;
#673 = VECTOR ( 'NONE', #878, 1000.000000000000000 ) ;
#674 = VECTOR ( 'NONE', #233, 1000.000000000000000 ) ;
#675 = CARTESIAN_POINT ( 'NONE',  ( -19.09915254237288451, 45.00000000000000000, 5.300000000000004263 ) ) ;
#676 = ORIENTED_EDGE ( 'NONE', *, *, #159, .F. ) ;
#677 = CARTESIAN_POINT ( 'NONE',  ( 15.49999999999999467, 45.00000000000000000, -18.09915254237288096 ) ) ;
#678 = CIRCLE ( 'NONE', #280, 1.000000000000000888 ) ;
#679 = CARTESIAN_POINT ( 'NONE',  ( -15.49999999999999467, 45.00000000000000000, -15.50000000000000000 ) ) ;
#680 = ORIENTED_EDGE ( 'NONE', *, *, #266, .F. ) ;
#681 = VECTOR ( 'NONE', #139, 1000.000000000000000 ) ;
#682 = DIRECTION ( 'NONE',  ( -0.000000000000000000, 1.000000000000000000, -0.000000000000000000 ) ) ;
#683 = LINE ( 'NONE', #99, #200 ) ;
#684 = EDGE_CURVE ( 'NONE', #342, #552, #441, .T. ) ;
#685 = VERTEX_POINT ( 'NONE', #430 ) ;
#686 = DIRECTION ( 'NONE',  ( 1.000000000000000000, 0.000000000000000000, -0.000000000000000000 ) ) ;
#687 = EDGE_CURVE ( 'NONE', #313, #402, #486, .T. ) ;
#688 = CARTESIAN_POINT ( 'NONE',  ( 0.000000000000000000, 0.000000000000000000, 0.000000000000000000 ) ) ;
#689 = VERTEX_POINT ( 'NONE', #20 ) ;
#690 = DIRECTION ( 'NONE',  ( 0.000000000000000000, 0.000000000000000000, 1.000000000000000000 ) ) ;
#691 = DIRECTION ( 'NONE',  ( -0.000000000000000000, -0.000000000000000000, 1.000000000000000000 ) ) ;
#692 = ORIENTED_EDGE ( 'NONE', *, *, #175, .F. ) ;
#693 = AXIS2_PLACEMENT_3D ( 'NONE', #371, #805, #153 ) ;
#694 = ORIENTED_EDGE ( 'NONE', *, *, #742, .T. ) ;
#695 = LINE ( 'NONE', #626, #283 ) ;
#696 = FACE_OUTER_BOUND ( 'NONE', #82, .T. ) ;
#697 = EDGE_CURVE ( 'NONE', #760, #224, #176, .T. ) ;
#698 = CARTESIAN_POINT ( 'NONE',  ( -15.49999999999999467, 45.00000000000000000, -19.09915254237288096 ) ) ;
#699 = CIRCLE ( 'NONE', #556, 1.000000000000000000 ) ;
#700 = DIRECTION ( 'NONE',  ( 0.000000000000000000, -1.000000000000000000, 0.000000000000000000 ) ) ;
#701 = EDGE_CURVE ( 'NONE', #863, #722, #657, .T. ) ;
#702 = DIRECTION ( 'NONE',  ( 0.000000000000000000, 0.000000000000000000, 1.000000000000000000 ) ) ;
#703 = ORIENTED_EDGE ( 'NONE', *, *, #769, .T. ) ;
#704 = LINE ( 'NONE', #480, #362 ) ;
#705 = CARTESIAN_POINT ( 'NONE',  ( 4.299999999999998046, 45.00000000000000000, -18.09915254237287741 ) ) ;
#706 = DIRECTION ( 'NONE',  ( 0.000000000000000000, -1.000000000000000000, 0.000000000000000000 ) ) ;
#707 = AXIS2_PLACEMENT_3D ( 'NONE', #89, #576, #28 ) ;
#708 = CARTESIAN_POINT ( 'NONE',  ( 5.299999999999998046, 45.00000000000000000, -19.09915254237288096 ) ) ;
#709 = ORIENTED_EDGE ( 'NONE', *, *, #492, .F. ) ;
#710 = VECTOR ( 'NONE', #87, 1000.000000000000000 ) ;
#711 = CARTESIAN_POINT ( 'NONE',  ( -5.299999999999998934, 45.00000000000000000, -19.09915254237288096 ) ) ;
#712 = VECTOR ( 'NONE', #265, 1000.000000000000000 ) ;
#713 = EDGE_CURVE ( 'NONE', #114, #831, #172, .T. ) ;
#714 = FACE_OUTER_BOUND ( 'NONE', #39, .T. ) ;
#715 = ORIENTED_EDGE ( 'NONE', *, *, #584, .F. ) ;
#716 = DIRECTION ( 'NONE',  ( -0.000000000000000000, -1.000000000000000000, -0.000000000000000000 ) ) ;
#717 = ADVANCED_FACE ( 'NONE', ( #446 ), #735, .T. ) ;
#718 = DIRECTION ( 'NONE',  ( 0.000000000000000000, 0.000000000000000000, 1.000000000000000000 ) ) ;
#719 = DIRECTION ( 'NONE',  ( 1.000000000000000000, 0.000000000000000000, -0.000000000000000000 ) ) ;
#720 = DIRECTION ( 'NONE',  ( -0.000000000000000000, -1.000000000000000000, -0.000000000000000000 ) ) ;
#721 = CARTESIAN_POINT ( 'NONE',  ( -18.09915254237288451, 0.000000000000000000, 4.300000000000001599 ) ) ;
#722 = VERTEX_POINT ( 'NONE', #314 ) ;
#723 = AXIS2_PLACEMENT_3D ( 'NONE', #807, #452, #617 ) ;
#724 = CYLINDRICAL_SURFACE ( 'NONE', #559, 1.000000000000000888 ) ;
#725 = CARTESIAN_POINT ( 'NONE',  ( 0.000000000000000000, 0.000000000000000000, -2.799999999999999822 ) ) ;
#726 = ORIENTED_EDGE ( 'NONE', *, *, #197, .T. ) ;
#727 = VECTOR ( 'NONE', #691, 1000.000000000000000 ) ;
#728 = DIRECTION ( 'NONE',  ( 0.000000000000000000, 0.000000000000000000, -1.000000000000000000 ) ) ;
#729 = DIRECTION ( 'NONE',  ( 0.000000000000000000, 0.000000000000000000, 1.000000000000000000 ) ) ;
#730 = ORIENTED_EDGE ( 'NONE', *, *, #175, .T. ) ;
#731 = EDGE_CURVE ( 'NONE', #477, #219, #181, .T. ) ;
#732 = CARTESIAN_POINT ( 'NONE',  ( -14.49999999999999467, 45.00000000000000000, -18.09915254237288096 ) ) ;
#733 = CARTESIAN_POINT ( 'NONE',  ( -9.099152542372884511, 45.00000000000000000, 4.299999999999999822 ) ) ;
#734 = VERTEX_POINT ( 'NONE', #579 ) ;
#735 = CYLINDRICAL_SURFACE ( 'NONE', #369, 1.000000000000000888 ) ;
#736 = ORIENTED_EDGE ( 'NONE', *, *, #713, .T. ) ;
#737 = CARTESIAN_POINT ( 'NONE',  ( -19.09915254237288451, 45.00000000000000000, -5.300000000000001599 ) ) ;
#738 = AXIS2_PLACEMENT_3D ( 'NONE', #507, #101, #377 ) ;
#739 = ORIENTED_EDGE ( 'NONE', *, *, #889, .F. ) ;
#740 = EDGE_CURVE ( 'NONE', #219, #533, #660, .T. ) ;
#741 = CARTESIAN_POINT ( 'NONE',  ( -18.09915254237288451, 0.000000000000000000, -5.300000000000001599 ) ) ;
#742 = EDGE_CURVE ( 'NONE', #326, #604, #49, .T. ) ;
#743 = CARTESIAN_POINT ( 'NONE',  ( -18.09915254237288451, 0.000000000000000000, -4.300000000000001599 ) ) ;
#744 = VERTEX_POINT ( 'NONE', #757 ) ;
#745 = CIRCLE ( 'NONE', #345, 2.799999999999999822 ) ;
#746 = LINE ( 'NONE', #116, #797 ) ;
#747 = LINE ( 'NONE', #117, #127 ) ;
#748 = VERTEX_POINT ( 'NONE', #331 ) ;
#749 = ORIENTED_EDGE ( 'NONE', *, *, #63, .T. ) ;
#750 = CARTESIAN_POINT ( 'NONE',  ( -18.09915254237288451, 0.000000000000000000, 5.300000000000004263 ) ) ;
#751 = LINE ( 'NONE', #897, #547 ) ;
#752 = ORIENTED_EDGE ( 'NONE', *, *, #784, .T. ) ;
#753 = VECTOR ( 'NONE', #861, 1000.000000000000000 ) ;
#754 = ADVANCED_FACE ( 'NONE', ( #384 ), #248, .T. ) ;
#755 = ORIENTED_EDGE ( 'NONE', *, *, #906, .F. ) ;
#756 = CIRCLE ( 'NONE', #214, 1.000000000000000888 ) ;
#757 = CARTESIAN_POINT ( 'NONE',  ( -18.09915254237287385, 45.00000000000000000, 15.50000000000000000 ) ) ;
#758 = DIRECTION ( 'NONE',  ( -0.000000000000000000, -1.000000000000000000, 0.000000000000000000 ) ) ;
#759 = ORIENTED_EDGE ( 'NONE', *, *, #322, .F. ) ;
#760 = VERTEX_POINT ( 'NONE', #108 ) ;
#761 =( LENGTH_UNIT ( ) NAMED_UNIT ( * ) SI_UNIT ( .MILLI., .METRE. ) );
#762 = LINE ( 'NONE', #405, #727 ) ;
#763 = VECTOR ( 'NONE', #605, 1000.000000000000000 ) ;
#764 = ORIENTED_EDGE ( 'NONE', *, *, #227, .T. ) ;
#765 = APPLICATION_PROTOCOL_DEFINITION ( 'draft international standard', 'automotive_design', 1998, #449 ) ;
#766 = CARTESIAN_POINT ( 'NONE',  ( -14.49999999999999467, 45.00000000000000000, -19.09915254237288096 ) ) ;
#767 = ORIENTED_EDGE ( 'NONE', *, *, #412, .T. ) ;
#768 = AXIS2_PLACEMENT_3D ( 'NONE', #610, #601, #323 ) ;
#769 = EDGE_CURVE ( 'NONE', #408, #326, #453, .T. ) ;
#770 = PRODUCT_CONTEXT ( 'NONE', #449, 'mechanical' ) ;
#771 = CARTESIAN_POINT ( 'NONE',  ( -18.09915254237288451, 0.000000000000000000, -14.49999999999999822 ) ) ;
#772 = EDGE_CURVE ( 'NONE', #194, #341, #621, .T. ) ;
#773 = CYLINDRICAL_SURFACE ( 'NONE', #899, 2.799999999999999822 ) ;
#774 = VERTEX_POINT ( 'NONE', #317 ) ;
#775 = DIRECTION ( 'NONE',  ( 0.000000000000000000, 0.000000000000000000, 1.000000000000000000 ) ) ;
#776 = EDGE_LOOP ( 'NONE', ( #268, #434, #5, #887 ) ) ;
#777 = CARTESIAN_POINT ( 'NONE',  ( 0.000000000000000000, 0.000000000000000000, 0.000000000000000000 ) ) ;
#778 = ORIENTED_EDGE ( 'NONE', *, *, #670, .T. ) ;
#779 = FACE_OUTER_BOUND ( 'NONE', #320, .T. ) ;
#780 = ADVANCED_FACE ( 'NONE', ( #613 ), #400, .F. ) ;
#781 = PLANE ( 'NONE',  #818 ) ;
#782 = CARTESIAN_POINT ( 'NONE',  ( -4.499999999999993783, 45.00000000000000000, 15.49999999999999467 ) ) ;
#783 = ORIENTED_EDGE ( 'NONE', *, *, #511, .T. ) ;
#784 = EDGE_CURVE ( 'NONE', #335, #271, #140, .T. ) ;
#785 = AXIS2_PLACEMENT_3D ( 'NONE', #415, #700, #407 ) ;
#786 = DIRECTION ( 'NONE',  ( -1.000000000000000000, 0.000000000000000000, 5.013774467025826067E-17 ) ) ;
#787 = CARTESIAN_POINT ( 'NONE',  ( -5.299999999999998934, 45.00000000000000000, -18.09915254237288096 ) ) ;
#788 = CARTESIAN_POINT ( 'NONE',  ( -9.099152542372884511, 45.00000000000000000, -4.299999999999999822 ) ) ;
#789 = CARTESIAN_POINT ( 'NONE',  ( -18.09915254237288451, 45.00000000000000000, -15.50000000000000000 ) ) ;
#790 = CARTESIAN_POINT ( 'NONE',  ( -5.299999999999998934, 45.00000000000000000, -19.09915254237288096 ) ) ;
#791 = ORIENTED_EDGE ( 'NONE', *, *, #161, .F. ) ;
#792 = DIRECTION ( 'NONE',  ( 5.013774467025826067E-17, 0.000000000000000000, 1.000000000000000000 ) ) ;
#793 = FACE_OUTER_BOUND ( 'NONE', #201, .T. ) ;
#794 = LINE ( 'NONE', #413, #426 ) ;
#795 = DIRECTION ( 'NONE',  ( 0.000000000000000000, 1.000000000000000000, 0.000000000000000000 ) ) ;
#796 = ORIENTED_EDGE ( 'NONE', *, *, #635, .F. ) ;
#797 = VECTOR ( 'NONE', #893, 1000.000000000000000 ) ;
#798 = CARTESIAN_POINT ( 'NONE',  ( 15.49999999999999645, 0.000000000000000000, 15.49999999999998579 ) ) ;
#799 = CARTESIAN_POINT ( 'NONE',  ( -4.299999999999999822, 0.000000000000000000, -9.099152542372880959 ) ) ;
#800 = EDGE_LOOP ( 'NONE', ( #204, #900, #715, #152 ) ) ;
#801 = VECTOR ( 'NONE', #363, 1000.000000000000000 ) ;
#802 = DIRECTION ( 'NONE',  ( -1.000000000000000000, -0.000000000000000000, -0.000000000000000000 ) ) ;
#803 = DIRECTION ( 'NONE',  ( 0.000000000000000000, 0.000000000000000000, -1.000000000000000000 ) ) ;
#804 = ORIENTED_EDGE ( 'NONE', *, *, #580, .F. ) ;
#805 = DIRECTION ( 'NONE',  ( 0.000000000000000000, 1.000000000000000000, 0.000000000000000000 ) ) ;
#806 = VERTEX_POINT ( 'NONE', #179 ) ;
#807 = CARTESIAN_POINT ( 'NONE',  ( -5.299999999999998934, 0.000000000000000000, -18.09915254237288096 ) ) ;
#808 = EDGE_CURVE ( 'NONE', #806, #644, #254, .T. ) ;
#809 = ORIENTED_EDGE ( 'NONE', *, *, #353, .F. ) ;
#810 = EDGE_CURVE ( 'NONE', #622, #748, #264, .T. ) ;
#811 = DIRECTION ( 'NONE',  ( -0.000000000000000000, -1.000000000000000000, -0.000000000000000000 ) ) ;
#812 = VECTOR ( 'NONE', #85, 1000.000000000000000 ) ;
#813 = DIRECTION ( 'NONE',  ( 0.000000000000000000, 0.000000000000000000, -1.000000000000000000 ) ) ;
#814 = ORIENTED_EDGE ( 'NONE', *, *, #63, .F. ) ;
#815 = PLANE ( 'NONE',  #16 ) ;
#816 = DIRECTION ( 'NONE',  ( -0.000000000000000000, 1.000000000000000000, -0.000000000000000000 ) ) ;
#817 = ORIENTED_EDGE ( 'NONE', *, *, #834, .F. ) ;
#818 = AXIS2_PLACEMENT_3D ( 'NONE', #733, #373, #803 ) ;
#819 = DIRECTION ( 'NONE',  ( 0.000000000000000000, 0.000000000000000000, 1.000000000000000000 ) ) ;
#820 = CARTESIAN_POINT ( 'NONE',  ( 4.299999999999999822, 45.00000000000000000, -9.099152542372880959 ) ) ;
#821 = EDGE_CURVE ( 'NONE', #457, #247, #111, .T. ) ;
#822 = ORIENTED_EDGE ( 'NONE', *, *, #769, .F. ) ;
#823 = ORIENTED_EDGE ( 'NONE', *, *, #902, .F. ) ;
#824 = DIRECTION ( 'NONE',  ( -0.000000000000000000, -1.000000000000000000, -0.000000000000000000 ) ) ;
#825 = CIRCLE ( 'NONE', #502, 2.799999999999999822 ) ;
#826 = DIRECTION ( 'NONE',  ( -0.000000000000000000, -1.000000000000000000, -0.000000000000000000 ) ) ;
#827 = ORIENTED_EDGE ( 'NONE', *, *, #218, .T. ) ;
#828 = AXIS2_PLACEMENT_3D ( 'NONE', #510, #70, #654 ) ;
#829 = ORIENTED_EDGE ( 'NONE', *, *, #467, .T. ) ;
#830 = CARTESIAN_POINT ( 'NONE',  ( 14.49999999999999467, 45.00000000000000000, -19.09915254237288096 ) ) ;
#831 = VERTEX_POINT ( 'NONE', #677 ) ;
#832 = ORIENTED_EDGE ( 'NONE', *, *, #376, .T. ) ;
#833 = DIRECTION ( 'NONE',  ( 0.000000000000000000, 0.000000000000000000, -1.000000000000000000 ) ) ;
#834 = EDGE_CURVE ( 'NONE', #341, #533, #888, .T. ) ;
#835 = VERTEX_POINT ( 'NONE', #129 ) ;
#836 = ADVANCED_FACE ( 'NONE', ( #545, #387 ), #884, .F. ) ;
#837 = DIRECTION ( 'NONE',  ( -1.000000000000000000, 0.000000000000000000, 4.011019573620659374E-16 ) ) ;
#838 = VECTOR ( 'NONE', #206, 1000.000000000000000 ) ;
#839 = PLANE ( 'NONE',  #469 ) ;
#840 = ORIENTED_EDGE ( 'NONE', *, *, #467, .F. ) ;
#841 = VECTOR ( 'NONE', #65, 1000.000000000000000 ) ;
#842 = DIRECTION ( 'NONE',  ( -5.013774467025824834E-17, -0.000000000000000000, -1.000000000000000000 ) ) ;
#843 = DIRECTION ( 'NONE',  ( -0.000000000000000000, -1.000000000000000000, -0.000000000000000000 ) ) ;
#844 = EDGE_LOOP ( 'NONE', ( #791, #110 ) ) ;
#845 = CYLINDRICAL_SURFACE ( 'NONE', #636, 1.000000000000000888 ) ;
#846 = DIRECTION ( 'NONE',  ( -0.000000000000000000, 1.000000000000000000, -0.000000000000000000 ) ) ;
#847 = ORIENTED_EDGE ( 'NONE', *, *, #701, .F. ) ;
#848 = ADVANCED_FACE ( 'NONE', ( #257 ), #815, .F. ) ;
#849 = SHAPE_DEFINITION_REPRESENTATION ( #541, #367 ) ;
#850 = DIRECTION ( 'NONE',  ( 0.000000000000000000, 0.000000000000000000, -1.000000000000000000 ) ) ;
#851 = DIRECTION ( 'NONE',  ( 0.000000000000000000, 0.000000000000000000, -1.000000000000000000 ) ) ;
#852 = EDGE_CURVE ( 'NONE', #342, #689, #746, .T. ) ;
#853 = ORIENTED_EDGE ( 'NONE', *, *, #635, .T. ) ;
#854 = FACE_OUTER_BOUND ( 'NONE', #216, .T. ) ;
#855 = DIRECTION ( 'NONE',  ( -0.000000000000000000, -0.000000000000000000, 1.000000000000000000 ) ) ;
#856 = FACE_OUTER_BOUND ( 'NONE', #870, .T. ) ;
#857 = ORIENTED_EDGE ( 'NONE', *, *, #102, .T. ) ;
#858 = AXIS2_PLACEMENT_3D ( 'NONE', #33, #716, #728 ) ;
#859 = PLANE ( 'NONE',  #631 ) ;
#860 = DIRECTION ( 'NONE',  ( 0.000000000000000000, 1.000000000000000000, 0.000000000000000000 ) ) ;
#861 = DIRECTION ( 'NONE',  ( 0.000000000000000000, -1.000000000000000000, 0.000000000000000000 ) ) ;
#862 = DIRECTION ( 'NONE',  ( 1.734723475976807587E-16, 0.000000000000000000, -1.000000000000000000 ) ) ;
#863 = VERTEX_POINT ( 'NONE', #191 ) ;
#864 = DIRECTION ( 'NONE',  ( -1.000000000000000000, -0.000000000000000000, 1.734723475976807094E-16 ) ) ;
#865 = VECTOR ( 'NONE', #500, 1000.000000000000000 ) ;
#866 = EDGE_CURVE ( 'NONE', #56, #337, #478, .T. ) ;
#867 = CARTESIAN_POINT ( 'NONE',  ( -9.099152542372884511, 0.000000000000000000, 4.299999999999999822 ) ) ;
#868 = ORIENTED_EDGE ( 'NONE', *, *, #877, .T. ) ;
#869 = CARTESIAN_POINT ( 'NONE',  ( -19.09915254237288451, 0.000000000000000000, -15.50000000000000000 ) ) ;
#870 = EDGE_LOOP ( 'NONE', ( #262, #381, #239, #692 ) ) ;
#871 = VECTOR ( 'NONE', #903, 1000.000000000000000 ) ;
#872 = CIRCLE ( 'NONE', #593, 1.000000000000000888 ) ;
#873 = DIRECTION ( 'NONE',  ( 0.000000000000000000, 1.000000000000000000, -0.000000000000000000 ) ) ;
#874 = CIRCLE ( 'NONE', #828, 19.99999999999999645 ) ;
#875 = DIRECTION ( 'NONE',  ( 0.000000000000000000, -1.000000000000000000, 0.000000000000000000 ) ) ;
#876 = ORIENTED_EDGE ( 'NONE', *, *, #684, .T. ) ;
#877 = EDGE_CURVE ( 'NONE', #734, #138, #54, .T. ) ;
#878 = DIRECTION ( 'NONE',  ( -0.000000000000000000, -0.000000000000000000, 1.000000000000000000 ) ) ;
#879 = EDGE_LOOP ( 'NONE', ( #170, #278, #118, #668 ) ) ;
#880 = EDGE_CURVE ( 'NONE', #279, #622, #558, .T. ) ;
#881 = DIRECTION ( 'NONE',  ( -0.000000000000000000, -1.000000000000000000, -0.000000000000000000 ) ) ;
#882 = DIRECTION ( 'NONE',  ( -0.000000000000000000, 1.000000000000000000, -0.000000000000000000 ) ) ;
#883 = ORIENTED_EDGE ( 'NONE', *, *, #394, .F. ) ;
#884 = PLANE ( 'NONE',  #88 ) ;
#885 = VECTOR ( 'NONE', #519, 1000.000000000000000 ) ;
#886 = FACE_OUTER_BOUND ( 'NONE', #355, .T. ) ;
#887 = ORIENTED_EDGE ( 'NONE', *, *, #595, .F. ) ;
#888 = LINE ( 'NONE', #530, #763 ) ;
#889 = EDGE_CURVE ( 'NONE', #597, #622, #495, .T. ) ;
#890 = DIRECTION ( 'NONE',  ( -0.000000000000000000, -0.000000000000000000, 1.000000000000000000 ) ) ;
#891 = EDGE_LOOP ( 'NONE', ( #569, #676, #64, #21 ) ) ;
#892 = ORIENTED_EDGE ( 'NONE', *, *, #649, .F. ) ;
#893 = DIRECTION ( 'NONE',  ( -1.000000000000000000, -0.000000000000000000, -0.000000000000000000 ) ) ;
#894 = DIRECTION ( 'NONE',  ( 0.000000000000000000, 1.000000000000000000, 0.000000000000000000 ) ) ;
#895 = ORIENTED_EDGE ( 'NONE', *, *, #553, .T. ) ;
#896 = AXIS2_PLACEMENT_3D ( 'NONE', #428, #862, #156 ) ;
#897 = CARTESIAN_POINT ( 'NONE',  ( 4.299999999999999822, 45.00000000000000000, -9.099152542372880959 ) ) ;
#898 = ORIENTED_EDGE ( 'NONE', *, *, #808, .T. ) ;
#899 = AXIS2_PLACEMENT_3D ( 'NONE', #287, #572, #648 ) ;
#900 = ORIENTED_EDGE ( 'NONE', *, *, #382, .F. ) ;
#901 =( NAMED_UNIT ( * ) PLANE_ANGLE_UNIT ( ) SI_UNIT ( $, .RADIAN. ) );
#902 = EDGE_CURVE ( 'NONE', #24, #429, #346, .T. ) ;
#903 = DIRECTION ( 'NONE',  ( -0.000000000000000000, -0.000000000000000000, 1.000000000000000000 ) ) ;
#904 = ORIENTED_EDGE ( 'NONE', *, *, #584, .T. ) ;
#905 = FACE_OUTER_BOUND ( 'NONE', #259, .T. ) ;
#906 = EDGE_CURVE ( 'NONE', #180, #760, #704, .T. ) ;
ENDSEC;
END-ISO-10303-21;
